#usda 1.0
(
    defaultPrim = "Asset"
    metersPerUnit = 1
    upAxis = "Z"
)

def Xform "Asset"
{
    def Mesh "Mesh"
    {
        point3f[] points = [(-0.5, -0.5, 0.5), (-0.5, 0.5, 0.5), (-0.5, -0.5, -0.5), (-0.5, 0.5, -0.5), (0.5, -0.5, 0.5), (0.5, 0.5, 0.5), (0.5, -0.5, -0.5), (0.5, 0.5, -0.5)]
        int[] faceVertexCounts = [4, 4, 4, 4, 4, 4]
        int[] faceVertexIndices = [0, 1, 3, 2, 2, 3, 7, 6, 6, 7, 5, 4, 4, 5, 1, 0, 2, 6, 4, 0, 7, 3, 1, 5]
        color3f[] primvars:displayColor = [(0.65, 0.68, 0.72)]
        uniform token subdivisionScheme = "none"
    }
}
