#usda 1.0
(
    defaultPrim = "Asset"
    metersPerUnit = 1
    upAxis = "Z"
)

def Xform "Asset"
{
    def Mesh "Mesh"
    {
        point3f[] points = [(0.265306122, 0, -0.107142857), (0.234693878, 0, -0.137755102), (0, 0, -0.137755102), (0, 0, -0.153061224), (0.280612245, 0, -0.153061224), (0.295918367, 0, -0.137755102), (0.5, 0, 0.153061224), (0.484693878, 0, 0.153061224), (0.469387755, 0, 0.153061224), (0.259510204, 0.0551581633, -0.107142857), (0.229566327, 0.0487959184, -0.137755102), (0, 0, -0.137755102), (0, 0, -0.153061224), (0.274479592, 0.0583418367, -0.153061224), (0.289454082, 0.0615255102, -0.137755102), (0.489071429, 0.103954082, 0.153061224), (0.474102041, 0.10077551, 0.153061224), (0.459132653, 0.0975918367, 0.153061224), (0.242367347, 0.107908163, -0.107142857), (0.214403061, 0.0954591837, -0.137755102), (0, 0, -0.137755102), (0, 0, -0.153061224), (0.256352041, 0.114137755, -0.153061224), (0.270336735, 0.120362245, -0.137755102), (0.456770408, 0.203367347, 0.153061224), (0.442790816, 0.197142857, 0.153061224), (0.428806122, 0.190918367, 0.153061224), (0.214637755, 0.155943878, -0.107142857), (0.189872449, 0.13794898, -0.137755102), (0, 0, -0.137755102), (0, 0, -0.153061224), (0.227020408, 0.164938776, -0.153061224), (0.239403061, 0.173938776, -0.137755102), (0.404510204, 0.293892857, 0.153061224), (0.392127551, 0.284897959, 0.153061224), (0.379744898, 0.275897959, 0.153061224), (0.17752551, 0.197163265, -0.107142857), (0.157040816, 0.174413265, -0.137755102), (0, 0, -0.137755102), (0, 0, -0.153061224), (0.187765306, 0.208535714, -0.153061224), (0.198010204, 0.219908163, -0.137755102), (0.334566327, 0.371571429, 0.153061224), (0.324321429, 0.36019898, 0.153061224), (0.314081633, 0.348821429, 0.153061224), (0.132653061, 0.229760204, -0.107142857), (0.117346939, 0.20325, -0.137755102), (0, 0, -0.137755102), (0, 0, -0.153061224), (0.140306122, 0.243015306, -0.153061224), (0.147959184, 0.256270408, -0.137755102), (0.25, 0.433010204, 0.153061224), (0.242346939, 0.419755102, 0.153061224), (0.234693878, 0.4065, 0.153061224), (0.0819846939, 0.252321429, -0.107142857), (0.0725255102, 0.223209184, -0.137755102), (0, 0, -0.137755102), (0, 0, -0.153061224), (0.0867142857, 0.266877551, -0.153061224), (0.0914438776, 0.281433673, -0.137755102), (0.154510204, 0.475530612, 0.153061224), (0.149780612, 0.460969388, 0.153061224), (0.14505102, 0.446413265, 0.153061224), (0.0277295918, 0.263852041, -0.107142857), (0.0245306122, 0.233408163, -0.137755102), (0, 0, -0.137755102), (0, 0, -0.153061224), (0.0293316327, 0.279076531, -0.153061224), (0.0309336735, 0.294295918, -0.137755102), (0.0522653061, 0.497260204, 0.153061224), (0.0506632653, 0.482040816, 0.153061224), (0.0490663265, 0.466816327, 0.153061224), (-0.0277295918, 0.263852041, -0.107142857), (-0.0245306122, 0.233408163, -0.137755102), (-0, 0, -0.137755102), (-0, 0, -0.153061224), (-0.0293316327, 0.279076531, -0.153061224), (-0.0309336735, 0.294295918, -0.137755102), (-0.0522653061, 0.497260204, 0.153061224), (-0.0506632653, 0.482040816, 0.153061224), (-0.0490663265, 0.466816327, 0.153061224), (-0.0819846939, 0.252321429, -0.107142857), (-0.0725255102, 0.223209184, -0.137755102), (-0, 0, -0.137755102), (-0, 0, -0.153061224), (-0.0867142857, 0.266877551, -0.153061224), (-0.0914438776, 0.281433673, -0.137755102), (-0.154510204, 0.475530612, 0.153061224), (-0.149780612, 0.460969388, 0.153061224), (-0.14505102, 0.446413265, 0.153061224), (-0.132653061, 0.229760204, -0.107142857), (-0.117346939, 0.20325, -0.137755102), (-0, 0, -0.137755102), (-0, 0, -0.153061224), (-0.140306122, 0.243015306, -0.153061224), (-0.147959184, 0.256270408, -0.137755102), (-0.25, 0.433010204, 0.153061224), (-0.242346939, 0.419755102, 0.153061224), (-0.234693878, 0.4065, 0.153061224), (-0.17752551, 0.197163265, -0.107142857), (-0.157040816, 0.174413265, -0.137755102), (-0, 0, -0.137755102), (-0, 0, -0.153061224), (-0.187765306, 0.208535714, -0.153061224), (-0.198010204, 0.219908163, -0.137755102), (-0.334566327, 0.371571429, 0.153061224), (-0.324321429, 0.36019898, 0.153061224), (-0.314081633, 0.348821429, 0.153061224), (-0.214637755, 0.155943878, -0.107142857), (-0.189872449, 0.13794898, -0.137755102), (-0, 0, -0.137755102), (-0, 0, -0.153061224), (-0.227020408, 0.164938776, -0.153061224), (-0.239403061, 0.173938776, -0.137755102), (-0.404510204, 0.293892857, 0.153061224), (-0.392127551, 0.284897959, 0.153061224), (-0.379744898, 0.275897959, 0.153061224), (-0.242367347, 0.107908163, -0.107142857), (-0.214403061, 0.0954591837, -0.137755102), (-0, 0, -0.137755102), (-0, 0, -0.153061224), (-0.256352041, 0.114137755, -0.153061224), (-0.270336735, 0.120362245, -0.137755102), (-0.456770408, 0.203367347, 0.153061224), (-0.442790816, 0.197142857, 0.153061224), (-0.428806122, 0.190918367, 0.153061224), (-0.259510204, 0.0551581633, -0.107142857), (-0.229566327, 0.0487959184, -0.137755102), (-0, 0, -0.137755102), (-0, 0, -0.153061224), (-0.274479592, 0.0583418367, -0.153061224), (-0.289454082, 0.0615255102, -0.137755102), (-0.489071429, 0.103954082, 0.153061224), (-0.474102041, 0.10077551, 0.153061224), (-0.459132653, 0.0975918367, 0.153061224), (-0.265306122, 0, -0.107142857), (-0.234693878, 0, -0.137755102), (-0, 0, -0.137755102), (-0, 0, -0.153061224), (-0.280612245, 0, -0.153061224), (-0.295918367, 0, -0.137755102), (-0.5, 0, 0.153061224), (-0.484693878, 0, 0.153061224), (-0.469387755, 0, 0.153061224), (-0.259510204, -0.0551581633, -0.107142857), (-0.229566327, -0.0487959184, -0.137755102), (-0, -0, -0.137755102), (-0, -0, -0.153061224), (-0.274479592, -0.0583418367, -0.153061224), (-0.289454082, -0.0615255102, -0.137755102), (-0.489071429, -0.103954082, 0.153061224), (-0.474102041, -0.10077551, 0.153061224), (-0.459132653, -0.0975918367, 0.153061224), (-0.242367347, -0.107908163, -0.107142857), (-0.214403061, -0.0954591837, -0.137755102), (-0, -0, -0.137755102), (-0, -0, -0.153061224), (-0.256352041, -0.114137755, -0.153061224), (-0.270336735, -0.120362245, -0.137755102), (-0.456770408, -0.203367347, 0.153061224), (-0.442790816, -0.197142857, 0.153061224), (-0.428806122, -0.190918367, 0.153061224), (-0.214637755, -0.155943878, -0.107142857), (-0.189872449, -0.13794898, -0.137755102), (-0, -0, -0.137755102), (-0, -0, -0.153061224), (-0.227020408, -0.164938776, -0.153061224), (-0.239403061, -0.173938776, -0.137755102), (-0.404510204, -0.293892857, 0.153061224), (-0.392127551, -0.284897959, 0.153061224), (-0.379744898, -0.275897959, 0.153061224), (-0.17752551, -0.197163265, -0.107142857), (-0.157040816, -0.174413265, -0.137755102), (-0, -0, -0.137755102), (-0, -0, -0.153061224), (-0.187765306, -0.208535714, -0.153061224), (-0.198010204, -0.219908163, -0.137755102), (-0.334566327, -0.371571429, 0.153061224), (-0.324321429, -0.36019898, 0.153061224), (-0.314081633, -0.348821429, 0.153061224), (-0.132653061, -0.229760204, -0.107142857), (-0.117346939, -0.20325, -0.137755102), (-0, -0, -0.137755102), (-0, -0, -0.153061224), (-0.140306122, -0.243015306, -0.153061224), (-0.147959184, -0.256270408, -0.137755102), (-0.25, -0.433010204, 0.153061224), (-0.242346939, -0.419755102, 0.153061224), (-0.234693878, -0.4065, 0.153061224), (-0.0819846939, -0.252321429, -0.107142857), (-0.0725255102, -0.223209184, -0.137755102), (-0, -0, -0.137755102), (-0, -0, -0.153061224), (-0.0867142857, -0.266877551, -0.153061224), (-0.0914438776, -0.281433673, -0.137755102), (-0.154510204, -0.475530612, 0.153061224), (-0.149780612, -0.460969388, 0.153061224), (-0.14505102, -0.446413265, 0.153061224), (-0.0277295918, -0.263852041, -0.107142857), (-0.0245306122, -0.233408163, -0.137755102), (-0, -0, -0.137755102), (-0, -0, -0.153061224), (-0.0293316327, -0.279076531, -0.153061224), (-0.0309336735, -0.294295918, -0.137755102), (-0.0522653061, -0.497260204, 0.153061224), (-0.0506632653, -0.482040816, 0.153061224), (-0.0490663265, -0.466816327, 0.153061224), (0.0277295918, -0.263852041, -0.107142857), (0.0245306122, -0.233408163, -0.137755102), (0, -0, -0.137755102), (0, -0, -0.153061224), (0.0293316327, -0.279076531, -0.153061224), (0.0309336735, -0.294295918, -0.137755102), (0.0522653061, -0.497260204, 0.153061224), (0.0506632653, -0.482040816, 0.153061224), (0.0490663265, -0.466816327, 0.153061224), (0.0819846939, -0.252321429, -0.107142857), (0.0725255102, -0.223209184, -0.137755102), (0, -0, -0.137755102), (0, -0, -0.153061224), (0.0867142857, -0.266877551, -0.153061224), (0.0914438776, -0.281433673, -0.137755102), (0.154510204, -0.475530612, 0.153061224), (0.149780612, -0.460969388, 0.153061224), (0.14505102, -0.446413265, 0.153061224), (0.132653061, -0.229760204, -0.107142857), (0.117346939, -0.20325, -0.137755102), (0, -0, -0.137755102), (0, -0, -0.153061224), (0.140306122, -0.243015306, -0.153061224), (0.147959184, -0.256270408, -0.137755102), (0.25, -0.433010204, 0.153061224), (0.242346939, -0.419755102, 0.153061224), (0.234693878, -0.4065, 0.153061224), (0.17752551, -0.197163265, -0.107142857), (0.157040816, -0.174413265, -0.137755102), (0, -0, -0.137755102), (0, -0, -0.153061224), (0.187765306, -0.208535714, -0.153061224), (0.198010204, -0.219908163, -0.137755102), (0.334566327, -0.371571429, 0.153061224), (0.324321429, -0.36019898, 0.153061224), (0.314081633, -0.348821429, 0.153061224), (0.214637755, -0.155943878, -0.107142857), (0.189872449, -0.13794898, -0.137755102), (0, -0, -0.137755102), (0, -0, -0.153061224), (0.227020408, -0.164938776, -0.153061224), (0.239403061, -0.173938776, -0.137755102), (0.404510204, -0.293892857, 0.153061224), (0.392127551, -0.284897959, 0.153061224), (0.379744898, -0.275897959, 0.153061224), (0.242367347, -0.107908163, -0.107142857), (0.214403061, -0.0954591837, -0.137755102), (0, -0, -0.137755102), (0, -0, -0.153061224), (0.256352041, -0.114137755, -0.153061224), (0.270336735, -0.120362245, -0.137755102), (0.456770408, -0.203367347, 0.153061224), (0.442790816, -0.197142857, 0.153061224), (0.428806122, -0.190918367, 0.153061224), (0.259510204, -0.0551581633, -0.107142857), (0.229566327, -0.0487959184, -0.137755102), (0, -0, -0.137755102), (0, -0, -0.153061224), (0.274479592, -0.0583418367, -0.153061224), (0.289454082, -0.0615255102, -0.137755102), (0.489071429, -0.103954082, 0.153061224), (0.474102041, -0.10077551, 0.153061224), (0.459132653, -0.0975918367, 0.153061224)]
        int[] faceVertexCounts = [3, 3, 3, 3, 3, 3, 3, 3, 3, 3, 3, 3, 3, 3, 3, 3, 3, 3, 3, 3, 3, 3, 3, 3, 3, 3, 3, 3, 3, 3, 3, 3, 3, 3, 3, 3, 3, 3, 3, 3, 3, 3, 3, 3, 3, 3, 3, 3, 3, 3, 3, 3, 3, 3, 3, 3, 3, 3, 3, 3, 3, 3, 3, 3, 3, 3, 3, 3, 3, 3, 3, 3, 3, 3, 3, 3, 3, 3, 3, 3, 3, 3, 3, 3, 3, 3, 3, 3, 3, 3, 3, 3, 3, 3, 3, 3, 3, 3, 3, 3, 3, 3, 3, 3, 3, 3, 3, 3, 3, 3, 3, 3, 3, 3, 3, 3, 3, 3, 3, 3, 3, 3, 3, 3, 3, 3, 3, 3, 3, 3, 3, 3, 3, 3, 3, 3, 3, 3, 3, 3, 3, 3, 3, 3, 3, 3, 3, 3, 3, 3, 3, 3, 3, 3, 3, 3, 3, 3, 3, 3, 3, 3, 3, 3, 3, 3, 3, 3, 3, 3, 3, 3, 3, 3, 3, 3, 3, 3, 3, 3, 3, 3, 3, 3, 3, 3, 3, 3, 3, 3, 3, 3, 3, 3, 3, 3, 3, 3, 3, 3, 3, 3, 3, 3, 3, 3, 3, 3, 3, 3, 3, 3, 3, 3, 3, 3, 3, 3, 3, 3, 3, 3, 3, 3, 3, 3, 3, 3, 3, 3, 3, 3, 3, 3, 3, 3, 3, 3, 3, 3, 3, 3, 3, 3, 3, 3, 3, 3, 3, 3, 3, 3, 3, 3, 3, 3, 3, 3, 3, 3, 3, 3, 3, 3, 3, 3, 3, 3, 3, 3, 3, 3, 3, 3, 3, 3, 3, 3, 3, 3, 3, 3, 3, 3, 3, 3, 3, 3, 3, 3, 3, 3, 3, 3, 3, 3, 3, 3, 3, 3, 3, 3, 3, 3, 3, 3, 3, 3, 3, 3, 3, 3, 3, 3, 3, 3, 3, 3, 3, 3, 3, 3, 3, 3, 3, 3, 3, 3, 3, 3, 3, 3, 3, 3, 3, 3, 3, 3, 3, 3, 3, 3, 3, 3, 3, 3, 3, 3, 3, 3, 3, 3, 3, 3, 3, 3, 3, 3, 3, 3, 3, 3, 3, 3, 3, 3, 3, 3, 3, 3, 3, 3, 3, 3, 3, 3, 3, 3, 3, 3, 3, 3, 3, 3, 3, 3, 3, 3, 3, 3, 3, 3, 3, 3, 3, 3, 3, 3, 3, 3, 3, 3, 3, 3, 3, 3, 3, 3, 3, 3, 3, 3, 3, 3, 3, 3, 3, 3, 3, 3, 3, 3, 3, 3, 3, 3, 3, 3, 3, 3, 3, 3, 3, 3, 3, 3, 3, 3, 3, 3, 3, 3, 3, 3, 3, 3, 3, 3, 3, 3, 3, 3, 3, 3, 3, 3, 3, 3, 3, 3, 3, 3, 3, 3, 3, 3, 3, 3, 3, 3, 3, 3, 3, 3, 3, 3, 3, 3, 3, 3, 3, 3, 3, 3, 3, 3, 3, 3, 3, 3, 3, 3, 3, 3, 3, 3, 3, 3, 3, 3, 3, 3, 3, 3, 3, 3, 3, 3, 3, 3, 3, 3, 3, 3, 3, 3, 3, 3, 3, 3, 3, 3, 3, 3, 3, 3, 3, 3, 3, 3, 3, 3, 3, 3, 3, 3, 3, 3, 3, 3]
        int[] faceVertexIndices = [17, 9, 0, 17, 0, 8, 9, 10, 1, 9, 1, 0, 10, 11, 2, 10, 2, 1, 11, 12, 3, 11, 3, 2, 12, 13, 4, 12, 4, 3, 13, 14, 5, 13, 5, 4, 14, 15, 6, 14, 6, 5, 15, 16, 7, 15, 7, 6, 16, 17, 8, 16, 8, 7, 26, 18, 9, 26, 9, 17, 18, 19, 10, 18, 10, 9, 19, 20, 11, 19, 11, 10, 20, 21, 12, 20, 12, 11, 21, 22, 13, 21, 13, 12, 22, 23, 14, 22, 14, 13, 23, 24, 15, 23, 15, 14, 24, 25, 16, 24, 16, 15, 25, 26, 17, 25, 17, 16, 35, 27, 18, 35, 18, 26, 27, 28, 19, 27, 19, 18, 28, 29, 20, 28, 20, 19, 29, 30, 21, 29, 21, 20, 30, 31, 22, 30, 22, 21, 31, 32, 23, 31, 23, 22, 32, 33, 24, 32, 24, 23, 33, 34, 25, 33, 25, 24, 34, 35, 26, 34, 26, 25, 44, 36, 27, 44, 27, 35, 36, 37, 28, 36, 28, 27, 37, 38, 29, 37, 29, 28, 38, 39, 30, 38, 30, 29, 39, 40, 31, 39, 31, 30, 40, 41, 32, 40, 32, 31, 41, 42, 33, 41, 33, 32, 42, 43, 34, 42, 34, 33, 43, 44, 35, 43, 35, 34, 53, 45, 36, 53, 36, 44, 45, 46, 37, 45, 37, 36, 46, 47, 38, 46, 38, 37, 47, 48, 39, 47, 39, 38, 48, 49, 40, 48, 40, 39, 49, 50, 41, 49, 41, 40, 50, 51, 42, 50, 42, 41, 51, 52, 43, 51, 43, 42, 52, 53, 44, 52, 44, 43, 62, 54, 45, 62, 45, 53, 54, 55, 46, 54, 46, 45, 55, 56, 47, 55, 47, 46, 56, 57, 48, 56, 48, 47, 57, 58, 49, 57, 49, 48, 58, 59, 50, 58, 50, 49, 59, 60, 51, 59, 51, 50, 60, 61, 52, 60, 52, 51, 61, 62, 53, 61, 53, 52, 71, 63, 54, 71, 54, 62, 63, 64, 55, 63, 55, 54, 64, 65, 56, 64, 56, 55, 65, 66, 57, 65, 57, 56, 66, 67, 58, 66, 58, 57, 67, 68, 59, 67, 59, 58, 68, 69, 60, 68, 60, 59, 69, 70, 61, 69, 61, 60, 70, 71, 62, 70, 62, 61, 80, 72, 63, 80, 63, 71, 72, 73, 64, 72, 64, 63, 73, 74, 65, 73, 65, 64, 74, 75, 66, 74, 66, 65, 75, 76, 67, 75, 67, 66, 76, 77, 68, 76, 68, 67, 77, 78, 69, 77, 69, 68, 78, 79, 70, 78, 70, 69, 79, 80, 71, 79, 71, 70, 89, 81, 72, 89, 72, 80, 81, 82, 73, 81, 73, 72, 82, 83, 74, 82, 74, 73, 83, 84, 75, 83, 75, 74, 84, 85, 76, 84, 76, 75, 85, 86, 77, 85, 77, 76, 86, 87, 78, 86, 78, 77, 87, 88, 79, 87, 79, 78, 88, 89, 80, 88, 80, 79, 98, 90, 81, 98, 81, 89, 90, 91, 82, 90, 82, 81, 91, 92, 83, 91, 83, 82, 92, 93, 84, 92, 84, 83, 93, 94, 85, 93, 85, 84, 94, 95, 86, 94, 86, 85, 95, 96, 87, 95, 87, 86, 96, 97, 88, 96, 88, 87, 97, 98, 89, 97, 89, 88, 107, 99, 90, 107, 90, 98, 99, 100, 91, 99, 91, 90, 100, 101, 92, 100, 92, 91, 101, 102, 93, 101, 93, 92, 102, 103, 94, 102, 94, 93, 103, 104, 95, 103, 95, 94, 104, 105, 96, 104, 96, 95, 105, 106, 97, 105, 97, 96, 106, 107, 98, 106, 98, 97, 116, 108, 99, 116, 99, 107, 108, 109, 100, 108, 100, 99, 109, 110, 101, 109, 101, 100, 110, 111, 102, 110, 102, 101, 111, 112, 103, 111, 103, 102, 112, 113, 104, 112, 104, 103, 113, 114, 105, 113, 105, 104, 114, 115, 106, 114, 106, 105, 115, 116, 107, 115, 107, 106, 125, 117, 108, 125, 108, 116, 117, 118, 109, 117, 109, 108, 118, 119, 110, 118, 110, 109, 119, 120, 111, 119, 111, 110, 120, 121, 112, 120, 112, 111, 121, 122, 113, 121, 113, 112, 122, 123, 114, 122, 114, 113, 123, 124, 115, 123, 115, 114, 124, 125, 116, 124, 116, 115, 134, 126, 117, 134, 117, 125, 126, 127, 118, 126, 118, 117, 127, 128, 119, 127, 119, 118, 128, 129, 120, 128, 120, 119, 129, 130, 121, 129, 121, 120, 130, 131, 122, 130, 122, 121, 131, 132, 123, 131, 123, 122, 132, 133, 124, 132, 124, 123, 133, 134, 125, 133, 125, 124, 143, 135, 126, 143, 126, 134, 135, 136, 127, 135, 127, 126, 136, 137, 128, 136, 128, 127, 137, 138, 129, 137, 129, 128, 138, 139, 130, 138, 130, 129, 139, 140, 131, 139, 131, 130, 140, 141, 132, 140, 132, 131, 141, 142, 133, 141, 133, 132, 142, 143, 134, 142, 134, 133, 152, 144, 135, 152, 135, 143, 144, 145, 136, 144, 136, 135, 145, 146, 137, 145, 137, 136, 146, 147, 138, 146, 138, 137, 147, 148, 139, 147, 139, 138, 148, 149, 140, 148, 140, 139, 149, 150, 141, 149, 141, 140, 150, 151, 142, 150, 142, 141, 151, 152, 143, 151, 143, 142, 161, 153, 144, 161, 144, 152, 153, 154, 145, 153, 145, 144, 154, 155, 146, 154, 146, 145, 155, 156, 147, 155, 147, 146, 156, 157, 148, 156, 148, 147, 157, 158, 149, 157, 149, 148, 158, 159, 150, 158, 150, 149, 159, 160, 151, 159, 151, 150, 160, 161, 152, 160, 152, 151, 170, 162, 153, 170, 153, 161, 162, 163, 154, 162, 154, 153, 163, 164, 155, 163, 155, 154, 164, 165, 156, 164, 156, 155, 165, 166, 157, 165, 157, 156, 166, 167, 158, 166, 158, 157, 167, 168, 159, 167, 159, 158, 168, 169, 160, 168, 160, 159, 169, 170, 161, 169, 161, 160, 179, 171, 162, 179, 162, 170, 171, 172, 163, 171, 163, 162, 172, 173, 164, 172, 164, 163, 173, 174, 165, 173, 165, 164, 174, 175, 166, 174, 166, 165, 175, 176, 167, 175, 167, 166, 176, 177, 168, 176, 168, 167, 177, 178, 169, 177, 169, 168, 178, 179, 170, 178, 170, 169, 188, 180, 171, 188, 171, 179, 180, 181, 172, 180, 172, 171, 181, 182, 173, 181, 173, 172, 182, 183, 174, 182, 174, 173, 183, 184, 175, 183, 175, 174, 184, 185, 176, 184, 176, 175, 185, 186, 177, 185, 177, 176, 186, 187, 178, 186, 178, 177, 187, 188, 179, 187, 179, 178, 197, 189, 180, 197, 180, 188, 189, 190, 181, 189, 181, 180, 190, 191, 182, 190, 182, 181, 191, 192, 183, 191, 183, 182, 192, 193, 184, 192, 184, 183, 193, 194, 185, 193, 185, 184, 194, 195, 186, 194, 186, 185, 195, 196, 187, 195, 187, 186, 196, 197, 188, 196, 188, 187, 206, 198, 189, 206, 189, 197, 198, 199, 190, 198, 190, 189, 199, 200, 191, 199, 191, 190, 200, 201, 192, 200, 192, 191, 201, 202, 193, 201, 193, 192, 202, 203, 194, 202, 194, 193, 203, 204, 195, 203, 195, 194, 204, 205, 196, 204, 196, 195, 205, 206, 197, 205, 197, 196, 215, 207, 198, 215, 198, 206, 207, 208, 199, 207, 199, 198, 208, 209, 200, 208, 200, 199, 209, 210, 201, 209, 201, 200, 210, 211, 202, 210, 202, 201, 211, 212, 203, 211, 203, 202, 212, 213, 204, 212, 204, 203, 213, 214, 205, 213, 205, 204, 214, 215, 206, 214, 206, 205, 224, 216, 207, 224, 207, 215, 216, 217, 208, 216, 208, 207, 217, 218, 209, 217, 209, 208, 218, 219, 210, 218, 210, 209, 219, 220, 211, 219, 211, 210, 220, 221, 212, 220, 212, 211, 221, 222, 213, 221, 213, 212, 222, 223, 214, 222, 214, 213, 223, 224, 215, 223, 215, 214, 233, 225, 216, 233, 216, 224, 225, 226, 217, 225, 217, 216, 226, 227, 218, 226, 218, 217, 227, 228, 219, 227, 219, 218, 228, 229, 220, 228, 220, 219, 229, 230, 221, 229, 221, 220, 230, 231, 222, 230, 222, 221, 231, 232, 223, 231, 223, 222, 232, 233, 224, 232, 224, 223, 242, 234, 225, 242, 225, 233, 234, 235, 226, 234, 226, 225, 235, 236, 227, 235, 227, 226, 236, 237, 228, 236, 228, 227, 237, 238, 229, 237, 229, 228, 238, 239, 230, 238, 230, 229, 239, 240, 231, 239, 231, 230, 240, 241, 232, 240, 232, 231, 241, 242, 233, 241, 233, 232, 251, 243, 234, 251, 234, 242, 243, 244, 235, 243, 235, 234, 244, 245, 236, 244, 236, 235, 245, 246, 237, 245, 237, 236, 246, 247, 238, 246, 238, 237, 247, 248, 239, 247, 239, 238, 248, 249, 240, 248, 240, 239, 249, 250, 241, 249, 241, 240, 250, 251, 242, 250, 242, 241, 260, 252, 243, 260, 243, 251, 252, 253, 244, 252, 244, 243, 253, 254, 245, 253, 245, 244, 254, 255, 246, 254, 246, 245, 255, 256, 247, 255, 247, 246, 256, 257, 248, 256, 248, 247, 257, 258, 249, 257, 249, 248, 258, 259, 250, 258, 250, 249, 259, 260, 251, 259, 251, 250, 269, 261, 252, 269, 252, 260, 261, 262, 253, 261, 253, 252, 262, 263, 254, 262, 254, 253, 263, 264, 255, 263, 255, 254, 264, 265, 256, 264, 256, 255, 265, 266, 257, 265, 257, 256, 266, 267, 258, 266, 258, 257, 267, 268, 259, 267, 259, 258, 268, 269, 260, 268, 260, 259, 8, 0, 261, 8, 261, 269, 0, 1, 262, 0, 262, 261, 1, 2, 263, 1, 263, 262, 2, 3, 264, 2, 264, 263, 3, 4, 265, 3, 265, 264, 4, 5, 266, 4, 266, 265, 5, 6, 267, 5, 267, 266, 6, 7, 268, 6, 268, 267, 7, 8, 269, 7, 269, 268]
        color3f[] primvars:displayColor = [(0.65, 0.68, 0.72)]
        uniform token subdivisionScheme = "none"
    }
}
