# Deterministic procedural proxy
o generated_proxy
v 0.032942286 0.032942286 0.000000000
v -0.012057714 0.045000000 0.000000000
v -0.045000000 0.012057714 0.000000000
v -0.032942286 -0.032942286 0.000000000
v 0.012057714 -0.045000000 0.000000000
v 0.045000000 -0.012057714 0.000000000
v 0.032942286 0.032942286 0.075000000
v -0.012057714 0.045000000 0.075000000
v -0.045000000 0.012057714 0.075000000
v -0.032942286 -0.032942286 0.075000000
v 0.012057714 -0.045000000 0.075000000
v 0.045000000 -0.012057714 0.075000000
f 6 5 4 3 2 1
f 7 8 9 10 11 12
f 1 2 8 7
f 2 3 9 8
f 3 4 10 9
f 4 5 11 10
f 5 6 12 11
f 6 1 7 12
