# Generated by AgenticSim AssetCompiler
mtllib default_material.mtl
v 0.433962264 0 -0.0849056604
v 0.433962264 0 -0.122641509
v 0 0 -0.122641509
v 0 0 -0.141509434
v 0.452830189 0 -0.141509434
v 0.471698113 0 -0.122641509
v 0.5 0 0.141509434
v 0.481132075 0 0.141509434
v 0.462264151 0 0.141509434
v 0.424479245 0.0902264151 -0.0849056604
v 0.424479245 0.0902264151 -0.122641509
v 0 0 -0.122641509
v 0 0 -0.141509434
v 0.442935849 0.0941471698 -0.141509434
v 0.461388679 0.0980716981 -0.122641509
v 0.489075472 0.103954717 0.141509434
v 0.470618868 0.100033962 0.141509434
v 0.452162264 0.096109434 0.141509434
v 0.396445283 0.176509434 -0.0849056604
v 0.396445283 0.176509434 -0.122641509
v 0 0 -0.122641509
v 0 0 -0.141509434
v 0.413679245 0.184181132 -0.141509434
v 0.430916981 0.191856604 -0.122641509
v 0.456773585 0.203369811 0.141509434
v 0.439535849 0.19569434 0.141509434
v 0.422298113 0.188018868 0.141509434
v 0.351083019 0.255075472 -0.0849056604
v 0.351083019 0.255075472 -0.122641509
v 0 0 -0.122641509
v 0 0 -0.141509434
v 0.36634717 0.266166038 -0.141509434
v 0.381611321 0.277256604 -0.122641509
v 0.404509434 0.29389434 0.141509434
v 0.389245283 0.282803774 0.141509434
v 0.373981132 0.271713208 0.141509434
v 0.290377358 0.322498113 -0.0849056604
v 0.290377358 0.322498113 -0.122641509
v 0 0 -0.122641509
v 0 0 -0.141509434
v 0.303003774 0.336516981 -0.141509434
v 0.315626415 0.350539623 -0.122641509
v 0.334566038 0.371573585 0.141509434
v 0.321939623 0.357550943 0.141509434
v 0.309313208 0.343528302 0.141509434
v 0.216981132 0.375822642 -0.0849056604
v 0.216981132 0.375822642 -0.122641509
v 0 0 -0.122641509
v 0 0 -0.141509434
v 0.226415094 0.392162264 -0.141509434
v 0.235849057 0.408501887 -0.122641509
v 0.25 0.433011321 0.141509434
v 0.240566038 0.416671698 0.141509434
v 0.231132075 0.400332075 0.141509434
v 0.134101887 0.412720755 -0.0849056604
v 0.134101887 0.412720755 -0.122641509
v 0 0 -0.122641509
v 0 0 -0.141509434
v 0.139932075 0.430667925 -0.141509434
v 0.145762264 0.448611321 -0.122641509
v 0.154509434 0.475528302 0.141509434
v 0.148679245 0.457584906 0.141509434
v 0.142849057 0.439637736 0.141509434
v 0.0453622642 0.431584906 -0.0849056604
v 0.0453622642 0.431584906 -0.122641509
v 0 0 -0.122641509
v 0 0 -0.141509434
v 0.0473320755 0.450350943 -0.141509434
v 0.0493056604 0.469113208 -0.122641509
v 0.0522641509 0.497260377 0.141509434
v 0.050290566 0.478498113 0.141509434
v 0.0483207547 0.459732075 0.141509434
v -0.0453622642 0.431584906 -0.0849056604
v -0.0453622642 0.431584906 -0.122641509
v -0 0 -0.122641509
v -0 0 -0.141509434
v -0.0473320755 0.450350943 -0.141509434
v -0.0493056604 0.469113208 -0.122641509
v -0.0522641509 0.497260377 0.141509434
v -0.050290566 0.478498113 0.141509434
v -0.0483207547 0.459732075 0.141509434
v -0.134101887 0.412720755 -0.0849056604
v -0.134101887 0.412720755 -0.122641509
v -0 0 -0.122641509
v -0 0 -0.141509434
v -0.139932075 0.430667925 -0.141509434
v -0.145762264 0.448611321 -0.122641509
v -0.154509434 0.475528302 0.141509434
v -0.148679245 0.457584906 0.141509434
v -0.142849057 0.439637736 0.141509434
v -0.216981132 0.375822642 -0.0849056604
v -0.216981132 0.375822642 -0.122641509
v -0 0 -0.122641509
v -0 0 -0.141509434
v -0.226415094 0.392162264 -0.141509434
v -0.235849057 0.408501887 -0.122641509
v -0.25 0.433011321 0.141509434
v -0.240566038 0.416671698 0.141509434
v -0.231132075 0.400332075 0.141509434
v -0.290377358 0.322498113 -0.0849056604
v -0.290377358 0.322498113 -0.122641509
v -0 0 -0.122641509
v -0 0 -0.141509434
v -0.303003774 0.336516981 -0.141509434
v -0.315626415 0.350539623 -0.122641509
v -0.334566038 0.371573585 0.141509434
v -0.321939623 0.357550943 0.141509434
v -0.309313208 0.343528302 0.141509434
v -0.351083019 0.255075472 -0.0849056604
v -0.351083019 0.255075472 -0.122641509
v -0 0 -0.122641509
v -0 0 -0.141509434
v -0.36634717 0.266166038 -0.141509434
v -0.381611321 0.277256604 -0.122641509
v -0.404509434 0.29389434 0.141509434
v -0.389245283 0.282803774 0.141509434
v -0.373981132 0.271713208 0.141509434
v -0.396445283 0.176509434 -0.0849056604
v -0.396445283 0.176509434 -0.122641509
v -0 0 -0.122641509
v -0 0 -0.141509434
v -0.413679245 0.184181132 -0.141509434
v -0.430916981 0.191856604 -0.122641509
v -0.456773585 0.203369811 0.141509434
v -0.439535849 0.19569434 0.141509434
v -0.422298113 0.188018868 0.141509434
v -0.424479245 0.0902264151 -0.0849056604
v -0.424479245 0.0902264151 -0.122641509
v -0 0 -0.122641509
v -0 0 -0.141509434
v -0.442935849 0.0941471698 -0.141509434
v -0.461388679 0.0980716981 -0.122641509
v -0.489075472 0.103954717 0.141509434
v -0.470618868 0.100033962 0.141509434
v -0.452162264 0.096109434 0.141509434
v -0.433962264 0 -0.0849056604
v -0.433962264 0 -0.122641509
v -0 0 -0.122641509
v -0 0 -0.141509434
v -0.452830189 0 -0.141509434
v -0.471698113 0 -0.122641509
v -0.5 0 0.141509434
v -0.481132075 0 0.141509434
v -0.462264151 0 0.141509434
v -0.424479245 -0.0902264151 -0.0849056604
v -0.424479245 -0.0902264151 -0.122641509
v -0 -0 -0.122641509
v -0 -0 -0.141509434
v -0.442935849 -0.0941471698 -0.141509434
v -0.461388679 -0.0980716981 -0.122641509
v -0.489075472 -0.103954717 0.141509434
v -0.470618868 -0.100033962 0.141509434
v -0.452162264 -0.096109434 0.141509434
v -0.396445283 -0.176509434 -0.0849056604
v -0.396445283 -0.176509434 -0.122641509
v -0 -0 -0.122641509
v -0 -0 -0.141509434
v -0.413679245 -0.184181132 -0.141509434
v -0.430916981 -0.191856604 -0.122641509
v -0.456773585 -0.203369811 0.141509434
v -0.439535849 -0.19569434 0.141509434
v -0.422298113 -0.188018868 0.141509434
v -0.351083019 -0.255075472 -0.0849056604
v -0.351083019 -0.255075472 -0.122641509
v -0 -0 -0.122641509
v -0 -0 -0.141509434
v -0.36634717 -0.266166038 -0.141509434
v -0.381611321 -0.277256604 -0.122641509
v -0.404509434 -0.29389434 0.141509434
v -0.389245283 -0.282803774 0.141509434
v -0.373981132 -0.271713208 0.141509434
v -0.290377358 -0.322498113 -0.0849056604
v -0.290377358 -0.322498113 -0.122641509
v -0 -0 -0.122641509
v -0 -0 -0.141509434
v -0.303003774 -0.336516981 -0.141509434
v -0.315626415 -0.350539623 -0.122641509
v -0.334566038 -0.371573585 0.141509434
v -0.321939623 -0.357550943 0.141509434
v -0.309313208 -0.343528302 0.141509434
v -0.216981132 -0.375822642 -0.0849056604
v -0.216981132 -0.375822642 -0.122641509
v -0 -0 -0.122641509
v -0 -0 -0.141509434
v -0.226415094 -0.392162264 -0.141509434
v -0.235849057 -0.408501887 -0.122641509
v -0.25 -0.433011321 0.141509434
v -0.240566038 -0.416671698 0.141509434
v -0.231132075 -0.400332075 0.141509434
v -0.134101887 -0.412720755 -0.0849056604
v -0.134101887 -0.412720755 -0.122641509
v -0 -0 -0.122641509
v -0 -0 -0.141509434
v -0.139932075 -0.430667925 -0.141509434
v -0.145762264 -0.448611321 -0.122641509
v -0.154509434 -0.475528302 0.141509434
v -0.148679245 -0.457584906 0.141509434
v -0.142849057 -0.439637736 0.141509434
v -0.0453622642 -0.431584906 -0.0849056604
v -0.0453622642 -0.431584906 -0.122641509
v -0 -0 -0.122641509
v -0 -0 -0.141509434
v -0.0473320755 -0.450350943 -0.141509434
v -0.0493056604 -0.469113208 -0.122641509
v -0.0522641509 -0.497260377 0.141509434
v -0.050290566 -0.478498113 0.141509434
v -0.0483207547 -0.459732075 0.141509434
v 0.0453622642 -0.431584906 -0.0849056604
v 0.0453622642 -0.431584906 -0.122641509
v 0 -0 -0.122641509
v 0 -0 -0.141509434
v 0.0473320755 -0.450350943 -0.141509434
v 0.0493056604 -0.469113208 -0.122641509
v 0.0522641509 -0.497260377 0.141509434
v 0.050290566 -0.478498113 0.141509434
v 0.0483207547 -0.459732075 0.141509434
v 0.134101887 -0.412720755 -0.0849056604
v 0.134101887 -0.412720755 -0.122641509
v 0 -0 -0.122641509
v 0 -0 -0.141509434
v 0.139932075 -0.430667925 -0.141509434
v 0.145762264 -0.448611321 -0.122641509
v 0.154509434 -0.475528302 0.141509434
v 0.148679245 -0.457584906 0.141509434
v 0.142849057 -0.439637736 0.141509434
v 0.216981132 -0.375822642 -0.0849056604
v 0.216981132 -0.375822642 -0.122641509
v 0 -0 -0.122641509
v 0 -0 -0.141509434
v 0.226415094 -0.392162264 -0.141509434
v 0.235849057 -0.408501887 -0.122641509
v 0.25 -0.433011321 0.141509434
v 0.240566038 -0.416671698 0.141509434
v 0.231132075 -0.400332075 0.141509434
v 0.290377358 -0.322498113 -0.0849056604
v 0.290377358 -0.322498113 -0.122641509
v 0 -0 -0.122641509
v 0 -0 -0.141509434
v 0.303003774 -0.336516981 -0.141509434
v 0.315626415 -0.350539623 -0.122641509
v 0.334566038 -0.371573585 0.141509434
v 0.321939623 -0.357550943 0.141509434
v 0.309313208 -0.343528302 0.141509434
v 0.351083019 -0.255075472 -0.0849056604
v 0.351083019 -0.255075472 -0.122641509
v 0 -0 -0.122641509
v 0 -0 -0.141509434
v 0.36634717 -0.266166038 -0.141509434
v 0.381611321 -0.277256604 -0.122641509
v 0.404509434 -0.29389434 0.141509434
v 0.389245283 -0.282803774 0.141509434
v 0.373981132 -0.271713208 0.141509434
v 0.396445283 -0.176509434 -0.0849056604
v 0.396445283 -0.176509434 -0.122641509
v 0 -0 -0.122641509
v 0 -0 -0.141509434
v 0.413679245 -0.184181132 -0.141509434
v 0.430916981 -0.191856604 -0.122641509
v 0.456773585 -0.203369811 0.141509434
v 0.439535849 -0.19569434 0.141509434
v 0.422298113 -0.188018868 0.141509434
v 0.424479245 -0.0902264151 -0.0849056604
v 0.424479245 -0.0902264151 -0.122641509
v 0 -0 -0.122641509
v 0 -0 -0.141509434
v 0.442935849 -0.0941471698 -0.141509434
v 0.461388679 -0.0980716981 -0.122641509
v 0.489075472 -0.103954717 0.141509434
v 0.470618868 -0.100033962 0.141509434
v 0.452162264 -0.096109434 0.141509434
usemtl AgenticSimDefault
f 18 10 1
f 18 1 9
f 10 11 2
f 10 2 1
f 11 12 3
f 11 3 2
f 12 13 4
f 12 4 3
f 13 14 5
f 13 5 4
f 14 15 6
f 14 6 5
f 15 16 7
f 15 7 6
f 16 17 8
f 16 8 7
f 17 18 9
f 17 9 8
f 27 19 10
f 27 10 18
f 19 20 11
f 19 11 10
f 20 21 12
f 20 12 11
f 21 22 13
f 21 13 12
f 22 23 14
f 22 14 13
f 23 24 15
f 23 15 14
f 24 25 16
f 24 16 15
f 25 26 17
f 25 17 16
f 26 27 18
f 26 18 17
f 36 28 19
f 36 19 27
f 28 29 20
f 28 20 19
f 29 30 21
f 29 21 20
f 30 31 22
f 30 22 21
f 31 32 23
f 31 23 22
f 32 33 24
f 32 24 23
f 33 34 25
f 33 25 24
f 34 35 26
f 34 26 25
f 35 36 27
f 35 27 26
f 45 37 28
f 45 28 36
f 37 38 29
f 37 29 28
f 38 39 30
f 38 30 29
f 39 40 31
f 39 31 30
f 40 41 32
f 40 32 31
f 41 42 33
f 41 33 32
f 42 43 34
f 42 34 33
f 43 44 35
f 43 35 34
f 44 45 36
f 44 36 35
f 54 46 37
f 54 37 45
f 46 47 38
f 46 38 37
f 47 48 39
f 47 39 38
f 48 49 40
f 48 40 39
f 49 50 41
f 49 41 40
f 50 51 42
f 50 42 41
f 51 52 43
f 51 43 42
f 52 53 44
f 52 44 43
f 53 54 45
f 53 45 44
f 63 55 46
f 63 46 54
f 55 56 47
f 55 47 46
f 56 57 48
f 56 48 47
f 57 58 49
f 57 49 48
f 58 59 50
f 58 50 49
f 59 60 51
f 59 51 50
f 60 61 52
f 60 52 51
f 61 62 53
f 61 53 52
f 62 63 54
f 62 54 53
f 72 64 55
f 72 55 63
f 64 65 56
f 64 56 55
f 65 66 57
f 65 57 56
f 66 67 58
f 66 58 57
f 67 68 59
f 67 59 58
f 68 69 60
f 68 60 59
f 69 70 61
f 69 61 60
f 70 71 62
f 70 62 61
f 71 72 63
f 71 63 62
f 81 73 64
f 81 64 72
f 73 74 65
f 73 65 64
f 74 75 66
f 74 66 65
f 75 76 67
f 75 67 66
f 76 77 68
f 76 68 67
f 77 78 69
f 77 69 68
f 78 79 70
f 78 70 69
f 79 80 71
f 79 71 70
f 80 81 72
f 80 72 71
f 90 82 73
f 90 73 81
f 82 83 74
f 82 74 73
f 83 84 75
f 83 75 74
f 84 85 76
f 84 76 75
f 85 86 77
f 85 77 76
f 86 87 78
f 86 78 77
f 87 88 79
f 87 79 78
f 88 89 80
f 88 80 79
f 89 90 81
f 89 81 80
f 99 91 82
f 99 82 90
f 91 92 83
f 91 83 82
f 92 93 84
f 92 84 83
f 93 94 85
f 93 85 84
f 94 95 86
f 94 86 85
f 95 96 87
f 95 87 86
f 96 97 88
f 96 88 87
f 97 98 89
f 97 89 88
f 98 99 90
f 98 90 89
f 108 100 91
f 108 91 99
f 100 101 92
f 100 92 91
f 101 102 93
f 101 93 92
f 102 103 94
f 102 94 93
f 103 104 95
f 103 95 94
f 104 105 96
f 104 96 95
f 105 106 97
f 105 97 96
f 106 107 98
f 106 98 97
f 107 108 99
f 107 99 98
f 117 109 100
f 117 100 108
f 109 110 101
f 109 101 100
f 110 111 102
f 110 102 101
f 111 112 103
f 111 103 102
f 112 113 104
f 112 104 103
f 113 114 105
f 113 105 104
f 114 115 106
f 114 106 105
f 115 116 107
f 115 107 106
f 116 117 108
f 116 108 107
f 126 118 109
f 126 109 117
f 118 119 110
f 118 110 109
f 119 120 111
f 119 111 110
f 120 121 112
f 120 112 111
f 121 122 113
f 121 113 112
f 122 123 114
f 122 114 113
f 123 124 115
f 123 115 114
f 124 125 116
f 124 116 115
f 125 126 117
f 125 117 116
f 135 127 118
f 135 118 126
f 127 128 119
f 127 119 118
f 128 129 120
f 128 120 119
f 129 130 121
f 129 121 120
f 130 131 122
f 130 122 121
f 131 132 123
f 131 123 122
f 132 133 124
f 132 124 123
f 133 134 125
f 133 125 124
f 134 135 126
f 134 126 125
f 144 136 127
f 144 127 135
f 136 137 128
f 136 128 127
f 137 138 129
f 137 129 128
f 138 139 130
f 138 130 129
f 139 140 131
f 139 131 130
f 140 141 132
f 140 132 131
f 141 142 133
f 141 133 132
f 142 143 134
f 142 134 133
f 143 144 135
f 143 135 134
f 153 145 136
f 153 136 144
f 145 146 137
f 145 137 136
f 146 147 138
f 146 138 137
f 147 148 139
f 147 139 138
f 148 149 140
f 148 140 139
f 149 150 141
f 149 141 140
f 150 151 142
f 150 142 141
f 151 152 143
f 151 143 142
f 152 153 144
f 152 144 143
f 162 154 145
f 162 145 153
f 154 155 146
f 154 146 145
f 155 156 147
f 155 147 146
f 156 157 148
f 156 148 147
f 157 158 149
f 157 149 148
f 158 159 150
f 158 150 149
f 159 160 151
f 159 151 150
f 160 161 152
f 160 152 151
f 161 162 153
f 161 153 152
f 171 163 154
f 171 154 162
f 163 164 155
f 163 155 154
f 164 165 156
f 164 156 155
f 165 166 157
f 165 157 156
f 166 167 158
f 166 158 157
f 167 168 159
f 167 159 158
f 168 169 160
f 168 160 159
f 169 170 161
f 169 161 160
f 170 171 162
f 170 162 161
f 180 172 163
f 180 163 171
f 172 173 164
f 172 164 163
f 173 174 165
f 173 165 164
f 174 175 166
f 174 166 165
f 175 176 167
f 175 167 166
f 176 177 168
f 176 168 167
f 177 178 169
f 177 169 168
f 178 179 170
f 178 170 169
f 179 180 171
f 179 171 170
f 189 181 172
f 189 172 180
f 181 182 173
f 181 173 172
f 182 183 174
f 182 174 173
f 183 184 175
f 183 175 174
f 184 185 176
f 184 176 175
f 185 186 177
f 185 177 176
f 186 187 178
f 186 178 177
f 187 188 179
f 187 179 178
f 188 189 180
f 188 180 179
f 198 190 181
f 198 181 189
f 190 191 182
f 190 182 181
f 191 192 183
f 191 183 182
f 192 193 184
f 192 184 183
f 193 194 185
f 193 185 184
f 194 195 186
f 194 186 185
f 195 196 187
f 195 187 186
f 196 197 188
f 196 188 187
f 197 198 189
f 197 189 188
f 207 199 190
f 207 190 198
f 199 200 191
f 199 191 190
f 200 201 192
f 200 192 191
f 201 202 193
f 201 193 192
f 202 203 194
f 202 194 193
f 203 204 195
f 203 195 194
f 204 205 196
f 204 196 195
f 205 206 197
f 205 197 196
f 206 207 198
f 206 198 197
f 216 208 199
f 216 199 207
f 208 209 200
f 208 200 199
f 209 210 201
f 209 201 200
f 210 211 202
f 210 202 201
f 211 212 203
f 211 203 202
f 212 213 204
f 212 204 203
f 213 214 205
f 213 205 204
f 214 215 206
f 214 206 205
f 215 216 207
f 215 207 206
f 225 217 208
f 225 208 216
f 217 218 209
f 217 209 208
f 218 219 210
f 218 210 209
f 219 220 211
f 219 211 210
f 220 221 212
f 220 212 211
f 221 222 213
f 221 213 212
f 222 223 214
f 222 214 213
f 223 224 215
f 223 215 214
f 224 225 216
f 224 216 215
f 234 226 217
f 234 217 225
f 226 227 218
f 226 218 217
f 227 228 219
f 227 219 218
f 228 229 220
f 228 220 219
f 229 230 221
f 229 221 220
f 230 231 222
f 230 222 221
f 231 232 223
f 231 223 222
f 232 233 224
f 232 224 223
f 233 234 225
f 233 225 224
f 243 235 226
f 243 226 234
f 235 236 227
f 235 227 226
f 236 237 228
f 236 228 227
f 237 238 229
f 237 229 228
f 238 239 230
f 238 230 229
f 239 240 231
f 239 231 230
f 240 241 232
f 240 232 231
f 241 242 233
f 241 233 232
f 242 243 234
f 242 234 233
f 252 244 235
f 252 235 243
f 244 245 236
f 244 236 235
f 245 246 237
f 245 237 236
f 246 247 238
f 246 238 237
f 247 248 239
f 247 239 238
f 248 249 240
f 248 240 239
f 249 250 241
f 249 241 240
f 250 251 242
f 250 242 241
f 251 252 243
f 251 243 242
f 261 253 244
f 261 244 252
f 253 254 245
f 253 245 244
f 254 255 246
f 254 246 245
f 255 256 247
f 255 247 246
f 256 257 248
f 256 248 247
f 257 258 249
f 257 249 248
f 258 259 250
f 258 250 249
f 259 260 251
f 259 251 250
f 260 261 252
f 260 252 251
f 270 262 253
f 270 253 261
f 262 263 254
f 262 254 253
f 263 264 255
f 263 255 254
f 264 265 256
f 264 256 255
f 265 266 257
f 265 257 256
f 266 267 258
f 266 258 257
f 267 268 259
f 267 259 258
f 268 269 260
f 268 260 259
f 269 270 261
f 269 261 260
f 9 1 262
f 9 262 270
f 1 2 263
f 1 263 262
f 2 3 264
f 2 264 263
f 3 4 265
f 3 265 264
f 4 5 266
f 4 266 265
f 5 6 267
f 5 267 266
f 6 7 268
f 6 268 267
f 7 8 269
f 7 269 268
f 8 9 270
f 8 270 269
