#usda 1.0
(
    defaultPrim = "Asset"
    metersPerUnit = 1
    upAxis = "Z"
)

def Xform "Asset"
{
    def Mesh "Mesh"
    {
        point3f[] points = [(0.0957682162, 0.0355648756, 0.0850603106), (0.206925142, 0.065049746, 0.138945892), (0.113390994, 0.0993991697, 0.0807706234), (0.164243522, 0.182316519, 0.0693694411), (0.232080673, 0.152264441, 0.110928218), (0.292403882, 0.0961614604, 0.117035997), (0.0564518462, 0.0679603832, 0.0489313971), (0.0477765583, 0.0933352622, -0.0025855507), (0.0851822012, 0.133355745, 0.0292536756), (0.0851822012, 0.133355745, -0.0344247719), (0.164243522, 0.182316519, -0.0848827246), (0.156749908, 0.202905094, -0.0077566521), (0.247627631, 0.206166068, 0.0375769356), (0.247627631, 0.206166068, -0.0530902295), (0.318854035, 0.187864387, -0.0077566521), (0.322958426, 0.155525436, 0.065594625), (0.389361837, 0.168792351, -0.0077566521), (0.371611385, 0.0429147482, -0.0077566521), (0.353968466, 0.0703261362, 0.065594625), (0.322958426, 0.155525436, -0.081107924), (0.292403882, 0.0961614604, -0.132549322), (0.353968466, 0.0703261362, -0.081107924), (0.232080673, 0.152264441, -0.126441522), (0.113390994, 0.0993991697, -0.0859417248), (0.0957682162, 0.0355648756, -0.0902314223), (0.206925142, 0.065049746, -0.154459196), (0.130303427, -0.0209390875, -0.0859417248), (0.24960674, -0.0522170011, -0.0848827246), (0.282255906, 0.0144091086, -0.126441522), (0.328812862, -0.0168885535, -0.0530902295), (0.257100401, -0.0728055656, -0.0077566521), (0.24960674, -0.0522170011, 0.0693694411), (0.328812862, -0.0168885535, 0.0375769356), (0.112547096, -0.0613556611, -0.0344247719), (0.0655593399, -0.0331958751, -0.0025855507), (0.112547096, -0.0613556611, 0.0292536756), (0.0669043176, -0.0064127449, 0.0489313971), (0.130303427, -0.0209390875, 0.0807706234), (0.282255906, 0.0144091086, 0.110928218), (0.0386955199, 0.0275438303, -0.0025855507), (0.0564518462, 0.0679603832, -0.0541024985), (0.0669043176, -0.0064127449, -0.0541024985), (-0.126677011, 0.00832594383, 0.100478492), (-0.0547656017, 0.0189673621, 0.0676453545), (-0.078943862, 0.0683884624, 0.0955607129), (-0.0364149762, 0.0754447457, 0.0355632674), (-0.00758547055, 0.0403388312, 0.0547262367), (0.0317414641, -0.00914049055, 0.0575425788), (-0.142321672, 0.0736992301, 0.0590597748), (-0.142128733, 0.0909774106, 0), (-0.0941695392, 0.0980623263, 0.0365009484), (-0.0941695392, 0.0980623263, -0.0365009587), (-0.0364149762, 0.0754447457, -0.0355632674), (-0.0331931629, 0.0853604982, 0), (0.0461634901, 0.0455573465, 0.0209035672), (0.0461634901, 0.0455573465, -0.0209035621), (0.0828535353, 0.0179594782, 0), (0.0726551925, 0.00325630978, 0.0486357445), (0.087597633, -0.0272892518, 0), (0.0571630433, -0.0611077378, 0), (0.057554718, -0.0432181936, 0.0486357445), (0.0726551925, 0.00325630978, -0.0486357393), (0.0317414641, -0.00914049055, -0.0575425685), (0.057554718, -0.0432181936, -0.0486357393), (-0.00758547055, 0.0403388312, -0.0547262419), (-0.078943862, 0.0683884624, -0.0955607077), (-0.126677011, 0.00832594383, -0.100478487), (-0.0547656017, 0.0189673621, -0.0676453545), (-0.11291216, -0.0361552085, -0.0955607077), (-0.0731162169, -0.0375100268, -0.0355632674), (-0.0291579197, -0.0260543152, -0.0547262419), (-0.0731162169, -0.0375100268, 0.0355632674), (-0.177307152, -0.0172909065, 0), (-0.167307514, -0.0031991174, 0.0590597748), (-0.11291216, -0.0361552085, 0.0955607129), (-0.0291579197, -0.0260543152, 0.0547262367), (-0.172081407, 0.0586419964, 0), (-0.142321672, 0.0736992301, -0.059059749), (-0.167307514, -0.0031991174, -0.059059749), (-0.120548558, -0.0057293218, -0.0587911154), (-0.153782844, 0.050439947, -0.152987206), (-0.196937351, 0.15710787, -0.212121936), (-0.201949813, 0.154531591, -0.230642163), (-0.261789633, 0.0817060343, -0.356911255), (-0.332599107, -0.150035598, -0.472077899), (-0.363250878, -0.194529569, -0.487902327), (-0.127228871, 0.00061420274, -0.0438780003), (-0.154032577, 0.057240602, -0.143144474), (-0.198805933, 0.164778594, -0.208708636), (-0.209809592, 0.163266347, -0.232903553), (-0.271659114, 0.0851720736, -0.362722435), (-0.338288254, -0.142094544, -0.471948771), (-0.365031598, -0.191797237, -0.487428975), (-0.144351831, 0.00229400918, -0.0391067698), (-0.16290459, 0.0585847626, -0.135227999), (-0.204597065, 0.166470154, -0.204547099), (-0.220561233, 0.165088178, -0.227976739), (-0.282906989, 0.0856926845, -0.358672252), (-0.341888603, -0.140414386, -0.467833572), (-0.366504276, -0.191254706, -0.485390827), (-0.159023616, -0.00195484698, -0.0480705638), (-0.173717988, 0.0534603408, -0.135198999), (-0.209949962, 0.160908909, -0.202771229), (-0.226108314, 0.158625289, -0.219571471), (-0.287063375, 0.0828758718, -0.347810302), (-0.340688933, -0.146259908, -0.462831406), (-0.366559829, -0.193310275, -0.483322577), (-0.160195967, -0.00893289669, -0.0640190317), (-0.178330109, 0.0457261571, -0.143079277), (-0.210833719, 0.152282529, -0.204718066), (-0.222273782, 0.148744167, -0.21401701), (-0.280998439, 0.0788425782, -0.33831617), (-0.335592673, -0.155229581, -0.460708596), (-0.365156661, -0.196416261, -0.482781959), (-0.146986068, -0.013385577, -0.0749429989), (-0.173267859, 0.0412060405, -0.152934895), (-0.206582861, 0.14708685, -0.208921696), (-0.211945112, 0.142885723, -0.215496121), (-0.269279115, 0.0766299725, -0.337338853), (-0.330437276, -0.160569126, -0.463064017), (-0.363351285, -0.198233655, -0.484175892), (-0.12934139, -0.0119598371, -0.0726162722), (-0.162343298, 0.0433039098, -0.157344365), (-0.200398384, 0.149234439, -0.21221666), (-0.202900199, 0.145461371, -0.222895077), (-0.260730493, 0.0779044422, -0.345614544), (-0.329105045, -0.158257551, -0.468123588), (-0.362503059, -0.197394106, -0.486454579), (-0.364622321, -0.194705092, -0.485350823), (-0.141096659, -0.00557910648, -0.0573464286), (-0.127212262, -0.0040837946, 0.0611101217), (-0.164631298, 0.0525874795, 0.1618218), (-0.190788735, 0.153260162, 0.209165286), (-0.1971584, 0.154424756, 0.22740904), (-0.25911788, 0.0593331865, 0.276635402), (-0.35479955, -0.153632114, 0.323909901), (-0.385764136, -0.193232709, 0.349260119), (-0.131752008, 0.0028037143, 0.0456433626), (-0.165519807, 0.0560634991, 0.150406123), (-0.194258886, 0.158790753, 0.203565862), (-0.207337899, 0.160672155, 0.226677888), (-0.27020273, 0.0611219428, 0.280772459), (-0.360191344, -0.145562368, 0.322790673), (-0.387475383, -0.190537779, 0.348441678), (-0.148044339, 0.00473055459, 0.0385984298), (-0.173363571, 0.052487124, 0.142107032), (-0.199728168, 0.15747387, 0.19886801), (-0.217476531, 0.157780258, 0.221017895), (-0.280564821, 0.0571288959, 0.276314597), (-0.364027773, -0.144435502, 0.318700156), (-0.389076558, -0.190279819, 0.346445013), (-0.163820867, 0.000245766936, 0.0452805891), (-0.182256175, 0.0445515724, 0.143174001), (-0.203078147, 0.15030131, 0.198609408), (-0.219939542, 0.14792675, 0.214690846), (-0.28240125, 0.0503609067, 0.266618643), (-0.36341989, -0.151099728, 0.314718739), (-0.389361837, -0.19265278, 0.344773676), (-0.167201387, -0.00727352644, 0.0606577331), (-0.185501289, 0.0382324193, 0.152803378), (-0.201786241, 0.142674064, 0.202984687), (-0.21287212, 0.138531355, 0.212461294), (-0.274329295, 0.0459142404, 0.258985988), (-0.358825744, -0.160537071, 0.313844414), (-0.388116522, -0.195870002, 0.344686466), (-0.155640381, -0.0121651815, 0.0731506849), (-0.180655155, 0.0382880138, 0.163744332), (-0.196825184, 0.14033576, 0.208699204), (-0.201596316, 0.136669123, 0.216007992), (-0.262426826, 0.0471373713, 0.259163978), (-0.35370443, -0.165640844, 0.316735582), (-0.38627832, -0.197508636, 0.346248738), (-0.137843571, -0.0107456056, 0.0733520165), (-0.171367159, 0.0446766872, 0.167757898), (-0.191930804, 0.145047083, 0.211449687), (-0.194603069, 0.143742471, 0.222660454), (-0.255657353, 0.0531094608, 0.267018767), (-0.351912581, -0.162567938, 0.321215064), (-0.385231492, -0.196335049, 0.348284306), (-0.387328937, -0.193773916, 0.346877177), (-0.147359287, -0.00378393794, 0.0568276172), (-0.0784780492, -0.0040837946, -0.0473804079), (-0.0917326473, 0.0525874795, -0.149854925), (-0.104428063, 0.153260162, -0.215287513), (-0.100822471, 0.154424756, -0.234271919), (-0.113568135, 0.0334776795, -0.357890108), (-0.121611783, -0.155451934, -0.413117905), (-0.134584489, -0.202801408, -0.440674756), (-0.088033986, 0.0028037143, -0.0343990146), (-0.0982099741, 0.0560634991, -0.14041285), (-0.110233007, 0.158790753, -0.212173383), (-0.110003752, 0.160672155, -0.238728437), (-0.121099332, 0.0352664358, -0.367015364), (-0.12579689, -0.147860648, -0.417623765), (-0.136179552, -0.200142123, -0.441790473), (-0.105753287, 0.00473055459, -0.0333512822), (-0.109152444, 0.052487124, -0.137147533), (-0.117318456, 0.15747387, -0.210839518), (-0.121614069, 0.157780258, -0.23889613), (-0.132302094, 0.0312733889, -0.368335753), (-0.131196321, -0.146031893, -0.417152543), (-0.138627649, -0.19950706, -0.441320751), (-0.118292929, 0.000245766936, -0.045026383), (-0.116320174, 0.0445515724, -0.142517851), (-0.120348949, 0.15030131, -0.212290534), (-0.126910549, 0.14792675, -0.234648215), (-0.138740441, 0.0245053997, -0.360857007), (-0.133744118, -0.151342495, -0.412059557), (-0.140085176, -0.201374298, -0.439619407), (-0.116210278, -0.00727352644, -0.0606323378), (-0.114315814, 0.0382324193, -0.152479771), (-0.117042448, 0.142674064, -0.215433726), (-0.121904835, 0.138531355, -0.229183628), (-0.135566264, 0.0200587334, -0.350211022), (-0.131522003, -0.159793689, -0.406179575), (-0.139454808, -0.204337959, -0.437967773), (-0.101073627, -0.0121651815, -0.0684177826), (-0.104648445, 0.0382880138, -0.159531783), (-0.109888767, 0.14033576, -0.217902105), (-0.110366334, 0.136669123, -0.226617288), (-0.12516948, 0.0212818643, -0.344413887), (-0.126202935, -0.165021465, -0.403940498), (-0.137211072, -0.206166068, -0.437609229), (-0.0842812764, -0.0107456056, -0.0625201156), (-0.0945980529, 0.0446766872, -0.15836362), (-0.104274911, 0.145047083, -0.217836866), (-0.10098381, 0.143742471, -0.228881873), (-0.115379567, 0.0272539538, -0.347831566), (-0.121792591, -0.163089221, -0.407028199), (-0.1350436, -0.205482397, -0.438814106), (-0.137312147, -0.202830247, -0.439685054), (-0.0988747864, -0.00378393794, -0.0502468167), (-0.0767563258, -0.00122798145, 0.0376004176), (-0.0890301367, 0.0541533356, 0.140899048), (-0.112210162, 0.152291842, 0.207300246), (-0.106926781, 0.154405975, 0.22580378), (-0.0888441011, 0.101766546, 0.293506581), (-0.055068075, -0.160920032, 0.395032309), (-0.0567148691, -0.19012556, 0.443135958), (-0.088647863, 0.00366897918, 0.0256890182), (-0.0969497095, 0.0562865442, 0.132185768), (-0.119176546, 0.156679377, 0.204809931), (-0.116545112, 0.159053818, 0.231195579), (-0.0955915197, 0.102393139, 0.303369081), (-0.0600214213, -0.152575948, 0.396166249), (-0.0586239984, -0.187439348, 0.443153312), (-0.106444808, 0.00248746525, 0.0264991747), (-0.107382019, 0.0508155034, 0.130082127), (-0.126024765, 0.15413458, 0.204224004), (-0.127396999, 0.15420378, 0.232575958), (-0.10573433, 0.096550048, 0.305853237), (-0.0656757363, -0.151771718, 0.395847156), (-0.0611803323, -0.187367149, 0.442875649), (-0.116745684, -0.00388282491, 0.0394210693), (-0.112471339, 0.0418601538, 0.136172273), (-0.12759799, 0.146574047, 0.205983849), (-0.131310696, 0.143508204, 0.228904957), (-0.111634748, 0.0886372493, 0.299088495), (-0.0677731608, -0.159112406, 0.39431546), (-0.0624587579, -0.189963073, 0.442512137), (-0.111793703, -0.0106449553, 0.0547238322), (-0.10838545, 0.0361639787, 0.14587011), (-0.122711516, 0.139690706, 0.208764221), (-0.125339046, 0.135020845, 0.222947057), (-0.10884967, 0.0846130672, 0.288168985), (-0.0647345596, -0.169070815, 0.392724188), (-0.0614967417, -0.193272578, 0.442336728), (-0.0953178185, -0.0127069268, 0.0608844393), (-0.0982008213, 0.0380162466, 0.151872952), (-0.115045012, 0.138668136, 0.210471315), (-0.113978891, 0.13513297, 0.219188685), (-0.0994760614, 0.0875078859, 0.281316899), (-0.0588477002, -0.174147844, 0.392271985), (-0.0590186465, -0.194803312, 0.442481203), (-0.0797247655, -0.00851597663, 0.0532638027), (-0.0895869867, 0.0460223164, 0.149660652), (-0.110371546, 0.144276222, 0.209819622), (-0.105784671, 0.143760265, 0.220460114), (-0.0905729037, 0.0951419622, 0.283692523), (-0.0545458351, -0.170520533, 0.393299085), (-0.05689049, -0.193402807, 0.44283714), (-0.0594832389, -0.190910703, 0.442761554), (-0.0964901692, -0.00440309459, 0.0425831772), (-0.0317245804, -0.0057293218, 0.0268200984), (0.0129479441, 0.050439947, 0.116160912), (0.025508265, 0.15710787, 0.188282129), (0.0353486848, 0.154531591, 0.204753059), (0.0846108617, 0.0817060343, 0.33551213), (0.108776592, -0.150035598, 0.463881356), (0.116715572, -0.194529569, 0.497450906), (-0.0470926594, 0.00061420274, 0.0212660149), (0.00569420226, 0.057240602, 0.109503285), (0.0217549141, 0.164778594, 0.187255185), (0.0315155024, 0.163266347, 0.211977776), (0.0819351218, 0.0851720736, 0.34664847), (0.107274884, -0.142094544, 0.469370284), (0.115825517, -0.191797237, 0.499064191), (-0.062419473, 0.00229400918, 0.030268768), (-0.00616344869, 0.0585847626, 0.110385981), (0.0147384793, 0.166470154, 0.188530135), (0.0205027267, 0.165088178, 0.216289409), (0.0712082097, 0.0856926845, 0.351925894), (0.102411127, -0.140414386, 0.471868252), (0.113491582, -0.191254706, 0.5), (-0.0661633039, -0.00195484698, 0.0470495609), (-0.0136959284, 0.0534603408, 0.11814433), (0.00974258516, 0.160908909, 0.191147064), (0.0106031495, 0.158625289, 0.214440807), (0.0605075307, 0.0828758718, 0.347370407), (0.0978475885, -0.146259908, 0.469493925), (0.111471362, -0.193310275, 0.499553558), (-0.0555053847, -0.00893289669, 0.0589716489), (-0.0112311849, 0.0457261571, 0.126936107), (0.0105291459, 0.152282529, 0.193135197), (0.00927132717, 0.148744167, 0.207824052), (0.0578911085, 0.0788425782, 0.336412512), (0.0970208432, -0.155229581, 0.464035455), (0.111286319, -0.196416261, 0.49806139), (-0.0384709338, -0.013385577, 0.0570577002), (-0.000625121521, 0.0412060405, 0.130140913), (0.016505848, 0.14708685, 0.192997439), (0.0175101845, 0.142885723, 0.201421732), (0.0653290139, 0.0766299725, 0.327303436), (0.100553481, -0.160569126, 0.459603061), (0.113075603, -0.198233655, 0.496646867), (-0.0278875404, -0.0119598371, 0.0427488541), (0.0101356716, 0.0433039098, 0.125345554), (0.023172163, 0.149234439, 0.190837568), (0.0291156925, 0.145461371, 0.200055114), (0.0772204063, 0.0779044422, 0.326902872), (0.105785126, -0.158257551, 0.459534492), (0.115491764, -0.197394106, 0.496375115), (0.113908233, -0.194705092, 0.498164362), (-0.0470377216, -0.00557910648, 0.0405975776), (-0.0317245804, -0.0057293218, -0.0268201191), (0.0129479441, 0.050439947, -0.116160923), (0.025508265, 0.15710787, -0.188282108), (0.0353486848, 0.154531591, -0.204753039), (0.0846108617, 0.0817060343, -0.335512089), (0.108776592, -0.150035598, -0.463881356), (0.116715572, -0.194529569, -0.497450906), (-0.0470926594, 0.00061420274, -0.0212660304), (0.00569420226, 0.057240602, -0.109503295), (0.0217549141, 0.164778594, -0.187255164), (0.0315155024, 0.163266347, -0.211977755), (0.0819351218, 0.0851720736, -0.34664847), (0.107274889, -0.142094544, -0.469370284), (0.115825517, -0.191797237, -0.499064191), (-0.062419473, 0.00229400918, -0.0302687887), (-0.00616344869, 0.0585847626, -0.110386002), (0.0147384793, 0.166470154, -0.188530145), (0.0205027267, 0.165088178, -0.216289388), (0.0712082097, 0.0856926845, -0.351925858), (0.102411127, -0.140414386, -0.471868252), (0.113491577, -0.191254706, -0.5), (-0.0661633039, -0.00195484698, -0.0470495764), (-0.0136959284, 0.0534603408, -0.11814433), (0.00974258516, 0.160908909, -0.191147064), (0.0106031495, 0.158625289, -0.214440807), (0.0605075307, 0.0828758718, -0.347370371), (0.0978475885, -0.146259908, -0.469493925), (0.111471357, -0.193310275, -0.499553558), (-0.0555053847, -0.00893289669, -0.0589716696), (-0.0112311849, 0.0457261571, -0.126936117), (0.0105291459, 0.152282529, -0.193135187), (0.00927132717, 0.148744167, -0.207824052), (0.0578911085, 0.0788425782, -0.336412476), (0.0970208432, -0.155229581, -0.464035455), (0.111286324, -0.196416261, -0.49806139), (-0.0384709338, -0.013385577, -0.0570577157), (-0.000625121521, 0.0412060405, -0.130140913), (0.016505848, 0.14708685, -0.192997419), (0.0175101845, 0.142885723, -0.201421722), (0.0653290139, 0.0766299725, -0.327303395), (0.100553481, -0.160569126, -0.459603061), (0.113075608, -0.198233655, -0.496646867), (-0.0278875404, -0.0119598371, -0.0427488748), (0.0101356716, 0.0433039098, -0.125345554), (0.023172163, 0.149234439, -0.190837558), (0.0291156925, 0.145461371, -0.200055093), (0.0772204063, 0.0779044422, -0.326902872), (0.105785126, -0.158257551, -0.459534492), (0.115491764, -0.197394106, -0.496375115), (0.113908233, -0.194705092, -0.498164362), (-0.0470377216, -0.00557910648, -0.0405975983), (0.0318244913, -0.0254174889, 0.0215020653), (0.074887164, 0.0407614033, 0.108990999), (0.098794836, 0.147386096, 0.16034455), (0.111912762, 0.150027474, 0.174334086), (0.166611473, 0.0414071032, 0.297953552), (0.189056344, -0.141146325, 0.36852047), (0.192657794, -0.185075064, 0.403548224), (0.0168415094, -0.0191891403, 0.0148697089), (0.0643905417, 0.0437401646, 0.104077817), (0.0922217353, 0.152931875, 0.160199248), (0.106488199, 0.157144285, 0.182278377), (0.165060323, 0.0444121389, 0.309431903), (0.187894925, -0.132965373, 0.373732842), (0.191896333, -0.182243053, 0.40505199), (0.00125945536, -0.0163842315, 0.023123004), (0.0533804188, 0.0405000507, 0.107464516), (0.0855060828, 0.15189645, 0.162946059), (0.096730946, 0.154926193, 0.188840923), (0.156259533, 0.0411785509, 0.316867021), (0.183066228, -0.130889342, 0.375989873), (0.189571313, -0.181517527, 0.405879542), (-0.00318790903, -0.0191149143, 0.0400472277), (0.0501477254, 0.0334810614, 0.116600895), (0.0837049933, 0.145059669, 0.16651672), (0.0899882073, 0.145043494, 0.18907957), (0.146836369, 0.0341413128, 0.314659933), (0.178206701, -0.136481184, 0.373592312), (0.187433688, -0.183444615, 0.405408005), (0.00684816457, -0.0253249934, 0.0528976732), (0.0571264991, 0.0279685794, 0.124606986), (0.0881747124, 0.137569686, 0.168222382), (0.0913375286, 0.134937864, 0.182814693), (0.143886721, 0.0285994589, 0.304473054), (0.176975229, -0.145530405, 0.368345382), (0.187093042, -0.186573364, 0.403992613), (0.0238104528, -0.0303381487, 0.0519980412), (0.0690618872, 0.0281134995, 0.125453997), (0.0955494166, 0.135066759, 0.166778523), (0.0997627628, 0.132219214, 0.174763903), (0.149631686, 0.0287261147, 0.293976634), (0.180299533, -0.15122265, 0.364200119), (0.188805819, -0.188547562, 0.402698653), (0.0349258852, -0.0303792951, 0.0380257045), (0.0769660967, 0.0338069183, 0.118504264), (0.100275664, 0.139435517, 0.163272469), (0.108919646, 0.138934836, 0.170989749), (0.159745083, 0.0344261732, 0.291075387), (0.185675933, -0.149271604, 0.364278), (0.19128242, -0.187880836, 0.402501153), (0.189820131, -0.185040407, 0.404154054), (0.0160460285, -0.0237353761, 0.0346376351), (0.0249296963, -0.0254174889, -0.0180546678), (0.067992369, 0.0407614033, -0.105543602), (0.0919000411, 0.147386096, -0.156897153), (0.105017967, 0.150027474, -0.170886689), (0.159716678, 0.0414071032, -0.294506201), (0.182161549, -0.141146325, -0.365073161), (0.185762999, -0.185075064, -0.400100873), (0.00994671439, -0.0191891403, -0.0114223114), (0.0574957468, 0.0437401646, -0.100630419), (0.0853269403, 0.152931875, -0.15675185), (0.0995934041, 0.157144285, -0.178830979), (0.158165529, 0.0444121389, -0.305984557), (0.18100013, -0.132965373, -0.370285533), (0.185001538, -0.182243053, -0.401604639), (-0.00563533962, -0.0163842315, -0.0196756065), (0.0464856238, 0.0405000507, -0.104017129), (0.0786112878, 0.15189645, -0.159498682), (0.0898361511, 0.154926193, -0.185393526), (0.149364738, 0.0411785509, -0.31341967), (0.176171433, -0.130889342, -0.372542522), (0.182676518, -0.181517527, -0.402432191), (-0.010082704, -0.0191149143, -0.0365998302), (0.0432529305, 0.0334810614, -0.113153508), (0.0768101983, 0.145059669, -0.163069323), (0.0830934123, 0.145043494, -0.185632172), (0.139941574, 0.0341413128, -0.311212546), (0.171311906, -0.136481184, -0.370145003), (0.180538888, -0.183444615, -0.401960659), (-4.66304069e-05, -0.0253249934, -0.0494502757), (0.0502317041, 0.0279685794, -0.121159578), (0.0812799174, 0.137569686, -0.164775005), (0.0844427337, 0.134937864, -0.179367295), (0.136991921, 0.0285994589, -0.301025709), (0.170080434, -0.145530405, -0.364898072), (0.180198247, -0.186573364, -0.400545267), (0.0169156578, -0.0303381487, -0.0485506437), (0.0621670922, 0.0281134995, -0.122006599), (0.0886546216, 0.135066759, -0.163331125), (0.0928679678, 0.132219214, -0.171316526), (0.142736891, 0.0287261147, -0.290529247), (0.173404738, -0.15122265, -0.360752814), (0.181911024, -0.188547562, -0.399251307), (0.0280310902, -0.0303792951, -0.034578307), (0.0700713017, 0.0338069183, -0.115056867), (0.0933808687, 0.139435517, -0.159825072), (0.102024851, 0.138934836, -0.167542351), (0.152850288, 0.0344261732, -0.287627995), (0.178781138, -0.149271604, -0.360830691), (0.184387625, -0.187880836, -0.399053807), (0.182925336, -0.185040407, -0.400706703), (0.00915123351, -0.0237353761, -0.0311902376), (-0.255522108, -0.0492324069, 0.0506612856), (-0.241033701, 0.0311643252, 0.0319032756), (-0.228236926, 0.0450149135, 0.0216551455), (-0.255522108, -0.0492324069, 0.0506612856), (-0.245557385, 0.0348203766, 0.0409775657), (-0.227983878, 0.0545811511, 0.0328518211), (-0.255522108, -0.0492324069, 0.0506612856), (-0.257405015, 0.0361306303, 0.0437930442), (-0.233724969, 0.0706918003, 0.0336849993), (-0.255522108, -0.0492324069, 0.0506612856), (-0.267654582, 0.0341086986, 0.0382294562), (-0.241136668, 0.0812158035, 0.0235272031), (-0.255522108, -0.0492324069, 0.0506612856), (-0.268588892, 0.0302771607, 0.0284763712), (-0.244638067, 0.0782282255, 0.0100274741), (-0.255522108, -0.0492324069, 0.0506612856), (-0.259503882, 0.0275209016, 0.0218780923), (-0.241592583, 0.0639785885, 0.0033514115), (-0.255522108, -0.0492324069, 0.0506612856), (-0.247240506, 0.0279159169, 0.0234031639), (-0.234293558, 0.0491974192, 0.00852618956), (-0.235943615, 0.0632724695, 0.0190891932), (-0.255522108, -0.0492324069, 0.0506612856), (-0.255273166, 0.018330846, 0.103574374), (-0.218892477, 0.0543476914, 0.0613386223), (-0.211255737, 0.0747314078, 0.0360315934), (-0.255273166, 0.018330846, 0.103574374), (-0.20972112, 0.0465053438, 0.0618405243), (-0.197279321, 0.0653867984, 0.0363211854), (-0.255273166, 0.018330846, 0.103574374), (-0.201348993, 0.0442303436, 0.0690678573), (-0.182424654, 0.0651466162, 0.0452220523), (-0.255273166, 0.018330846, 0.103574374), (-0.200081385, 0.0492361404, 0.0775783008), (-0.177877255, 0.0741915397, 0.0560317795), (-0.255273166, 0.018330846, 0.103574374), (-0.206871631, 0.0577530634, 0.0809634227), (-0.187061809, 0.085710923, 0.0606105778), (-0.255273166, 0.018330846, 0.103574374), (-0.216607455, 0.0633676281, 0.0766743664), (-0.203061776, 0.0910301661, 0.0555100981), (-0.255273166, 0.018330846, 0.103574374), (-0.221957295, 0.0618522213, 0.0679403038), (-0.213828903, 0.0861437546, 0.0445715898), (-0.19611287, 0.0774772575, 0.0477568745), (-0.255273166, 0.018330846, 0.103574374), (-0.18947164, 0.14840169, 0.000287270196), (-0.18947164, 0.0242952358, 0.000287270196), (-0.173958336, 0.0326088, 0.0271570991), (-0.18947164, 0.0326088, 0.0313138786), (-0.198779695, 0.0481220835, 0.0271570991), (-0.21013624, 0.0420891457, 0.0158005744), (-0.21429302, 0.0420891457, 0.000287270196), (-0.135731982, 0.0553218494, 0.000287270196), (-0.145229982, 0.0553218494, 0.0512889125), (-0.162601811, 0.0553218494, 0.0468271828), (-0.18947164, 0.0673877819, 0.0611350206), (-0.216341464, 0.0553218494, 0.0468271828), (-0.236011553, 0.0553218494, 0.0271571043), (-0.242177109, 0.051185051, 0.000287270196), (-0.102597121, 0.108693268, 0.000287270196), (-0.11320894, 0.108693268, 0.0513908194), (-0.135921984, 0.108693268, 0.0711355015), (-0.18947164, 0.0863484733, 0.062340487), (-0.227789931, 0.0819161206, 0.0463192824), (-0.244333458, 0.0819161206, 0.0187861253), (-0.253593282, 0.0760063118, 0.000287270196), (-0.11091068, 0.125404272, 0.000287270196), (-0.12040868, 0.125404272, 0.04777729), (-0.140078769, 0.125404272, 0.0648766847), (-0.18947164, 0.117375082, 0.0540269332), (-0.222014814, 0.112942724, 0.0403390226), (-0.236341903, 0.112942724, 0.0164945983), (-0.243211313, 0.117375082, 0.000287270196), (-0.133623729, 0.13763782, 0.000287270196), (-0.137780509, 0.13763782, 0.0137731407), (-0.151435288, 0.13763782, 0.0477773003), (-0.18947164, 0.140088126, 0.0313138838), (-0.204984924, 0.140088126, 0.0271571094), (-0.216341464, 0.140088126, 0.0158005744), (-0.220498264, 0.140088126, 0.000287270196), (-0.228603753, 0.104324194, 0.0385553184), (-0.230115018, 0.107771622, 0.0354568306), (-0.232381952, 0.1086335, 0.0308090343), (-0.234648864, 0.10604795, 0.026161326), (-0.235782173, 0.10001497, 0.0238374278), (-0.23729334, 0.0965675418, 0.0207389194), (-0.237671057, 0.0905346453, 0.0199642987), (-0.235782173, 0.0879490946, 0.0238374278), (-0.232759649, 0.0870872168, 0.0300344344), (-0.228981632, 0.0913964404, 0.0377807029), (-0.227848245, 0.0982912975, 0.0401045959), (-0.229418367, 0.106114269, 0.0342882134), (-0.230292713, 0.10552422, 0.0312393682), (-0.2312043, 0.103756081, 0.0280601699), (-0.231453951, 0.100040143, 0.0271900752), (-0.231884455, 0.0958029583, 0.0256885735), (-0.232733297, 0.09185989, 0.0227277974), (-0.232558384, 0.0901155017, 0.0233380959), (-0.231240674, 0.0901622536, 0.0279333693), (-0.229486228, 0.0936079085, 0.0340521475), (-0.228531162, 0.0988198409, 0.0373828073), (-0.22868132, 0.103418884, 0.0368588351), (0.0571630433, -0.0611077378, 0), (0.057554718, -0.0432181936, 0.0486357445), (0.057554718, -0.0432181936, -0.0486357393), (-0.11291216, -0.0361552085, -0.0955607077), (-0.0731162169, -0.0375100268, -0.0355632674), (-0.0291579197, -0.0260543152, -0.0547262419), (0.0112585711, -0.0618690325, -0.0209035621), (-0.0763380716, -0.0474257844, 0), (-0.0731162169, -0.0375100268, 0.0355632674), (0.0112585711, -0.0618690325, 0.0209035672), (-0.142671833, -0.0512124371, -0.0365009587), (-0.177307152, -0.0172909065, 0), (-0.142671833, -0.0512124371, 0.0365009484), (-0.167307514, -0.0031991174, 0.0590597748), (-0.11291216, -0.0361552085, 0.0955607129), (-0.0291579197, -0.0260543152, 0.0547262367), (-0.167307514, -0.0031991174, -0.059059749), (-0.18947164, 0.14840169, 5.74664499e-05), (-0.18947164, 0.0242952358, 5.74664499e-05), (-0.173958336, 0.0326088, -0.0268123624), (-0.18947164, 0.0326088, -0.0309691368), (-0.198779695, 0.0481220835, -0.0268123624), (-0.21013624, 0.0420891457, -0.0154558378), (-0.21429302, 0.0420891457, 5.74664499e-05), (-0.135731982, 0.0553218494, 5.74664499e-05), (-0.145229982, 0.0553218494, -0.0509441707), (-0.162601811, 0.0553218494, -0.046482441), (-0.18947164, 0.0673877819, -0.0607902787), (-0.216341464, 0.0553218494, -0.046482441), (-0.236011553, 0.0553218494, -0.0268123624), (-0.242177109, 0.051185051, 5.74664499e-05), (-0.102597121, 0.108693268, 5.74664499e-05), (-0.11320894, 0.108693268, -0.0510460724), (-0.135921984, 0.108693268, -0.0707907648), (-0.18947164, 0.0863484733, -0.0619957452), (-0.227789931, 0.0819161206, -0.0459745509), (-0.244333458, 0.0819161206, -0.0184413835), (-0.253593282, 0.0760063118, 5.74664499e-05), (-0.11091068, 0.125404272, 5.74664499e-05), (-0.12040868, 0.125404272, -0.0474325533), (-0.140078769, 0.125404272, -0.0645319429), (-0.18947164, 0.117375082, -0.053682181), (-0.222014814, 0.112942724, -0.0399942808), (-0.236341903, 0.112942724, -0.0161498565), (-0.243211313, 0.117375082, 5.74664499e-05), (-0.133623729, 0.13763782, 5.74664499e-05), (-0.137780509, 0.13763782, -0.0134283989), (-0.151435288, 0.13763782, -0.0474325533), (-0.18947164, 0.140088126, -0.0309691368), (-0.204984924, 0.140088126, -0.0268123676), (-0.216341464, 0.140088126, -0.0154558378), (-0.220498264, 0.140088126, 5.74664499e-05), (-0.228603753, 0.104324194, -0.0382105817), (-0.230115018, 0.107771622, -0.0351120888), (-0.232381952, 0.1086335, -0.0304642822), (-0.234648864, 0.10604795, -0.0258165841), (-0.235782173, 0.10001497, -0.0234926912), (-0.23729334, 0.0965675418, -0.0203941775), (-0.237671057, 0.0905346453, -0.0196195621), (-0.235782173, 0.0879490946, -0.0234926912), (-0.232759649, 0.0870872168, -0.0296896977), (-0.228981632, 0.0913964404, -0.0374359507), (-0.227848245, 0.0982912975, -0.0397598541), (-0.229418367, 0.106114269, -0.0339434716), (-0.230292713, 0.10552422, -0.0308946316), (-0.2312043, 0.103756081, -0.0277154177), (-0.231453951, 0.100040143, -0.0268453334), (-0.231884455, 0.0958029583, -0.0253438369), (-0.232733297, 0.09185989, -0.0223830607), (-0.232558384, 0.0901155017, -0.0229933489), (-0.231240674, 0.0901622536, -0.0275886223), (-0.229486228, 0.0936079085, -0.0337074056), (-0.228531162, 0.0988198409, -0.0370380759), (-0.22868132, 0.103418884, -0.0365140881), (-0.254581841, -0.0497025117, -0.0522909634), (-0.240093413, 0.0306942255, -0.0335329585), (-0.227296758, 0.0445448086, -0.0232848284), (-0.254581841, -0.0497025117, -0.0522909634), (-0.244617119, 0.034350277, -0.0426072435), (-0.22704371, 0.0541110515, -0.034481504), (-0.254581841, -0.0497025117, -0.0522909634), (-0.256464743, 0.0356605306, -0.045422722), (-0.232784801, 0.0702216955, -0.035314677), (-0.254581841, -0.0497025117, -0.0522909634), (-0.266714316, 0.0336385938, -0.039859134), (-0.24019638, 0.0807456935, -0.025156886), (-0.254581841, -0.0497025117, -0.0522909634), (-0.267648625, 0.029807061, -0.0301060541), (-0.2436978, 0.0777581207, -0.0116571518), (-0.254581841, -0.0497025117, -0.0522909634), (-0.25856361, 0.0270507968, -0.0235077753), (-0.240652296, 0.0635084785, -0.00498108928), (-0.254581841, -0.0497025117, -0.0522909634), (-0.246300235, 0.0274458172, -0.0250328468), (-0.233353389, 0.0487273195, -0.0101558673), (-0.235003441, 0.0628023595, -0.0207188762), (-0.254581841, -0.0497025117, -0.0522909634), (-0.255273166, 0.0186129038, -0.0966795479), (-0.218892477, 0.0546297491, -0.0544438118), (-0.211255737, 0.0750134707, -0.029136788), (-0.255273166, 0.0186129038, -0.0966795479), (-0.20972112, 0.0467874015, -0.0549457034), (-0.197279321, 0.0656688613, -0.0294263801), (-0.255273166, 0.0186129038, -0.0966795479), (-0.201348993, 0.0445124013, -0.0621730416), (-0.182424654, 0.065428674, -0.0383272521), (-0.255273166, 0.0186129038, -0.0966795479), (-0.200081385, 0.0495181981, -0.0706834903), (-0.177877255, 0.0744735922, -0.0491369742), (-0.255273166, 0.0186129038, -0.0966795479), (-0.206871631, 0.0580351211, -0.0740686071), (-0.187061809, 0.0859929756, -0.053715757), (-0.255273166, 0.0186129038, -0.0966795479), (-0.216607455, 0.0636496858, -0.0697795611), (-0.203061776, 0.0913122239, -0.0486152928), (-0.255273166, 0.0186129038, -0.0966795479), (-0.221957295, 0.0621342842, -0.0610454933), (-0.213828903, 0.0864258071, -0.0376767793), (-0.19611287, 0.0777593152, -0.040862064), (-0.255273166, 0.0186129038, -0.0966795479), (-0.218794671, 0.103607117, 0.0421287821), (-0.214001406, 0.102819098, 0.0399638023), (-0.217742362, 0.107412458, 0.0385817168), (-0.223795379, 0.105844229, 0.0396213875), (-0.228543945, 0.106106745, 0.0342736826), (-0.223472857, 0.108881667, 0.0339646111), (-0.229004002, 0.106665705, 0.0278760632), (-0.22765603, 0.105004602, 0.0221464104), (-0.227107288, 0.0948598218, 0.0180958298), (-0.22815952, 0.100054907, 0.0183669455), (-0.232223038, 0.101610752, 0.0226416106), (-0.234020529, 0.0975068362, 0.0253683738), (-0.231900517, 0.0956478408, 0.0202607993), (-0.232223038, 0.0926103306, 0.0259175085), (-0.22765603, 0.0896920971, 0.0277196994), (-0.22815952, 0.0910544238, 0.0216428382), (-0.22295098, 0.0902329891, 0.0333881935), (-0.218245893, 0.0934622644, 0.0380781912), (-0.229004002, 0.0921026526, 0.0331765766), (-0.228543945, 0.0966431433, 0.0377181688), (-0.223472857, 0.094318697, 0.0392651296), (-0.223795379, 0.10028168, 0.0416459926), (-0.217742362, 0.0984120323, 0.0418576148), (-0.229525875, 0.101750883, 0.0370288868), (-0.232744952, 0.102258561, 0.0297698705), (-0.232744952, 0.0966960127, 0.0317944756), (-0.218794671, 0.10222816, -0.0407498252), (-0.214001406, 0.101440141, -0.0385848454), (-0.217742362, 0.106033501, -0.0372027599), (-0.223795379, 0.104465267, -0.0382424254), (-0.228543945, 0.104727783, -0.0328947153), (-0.223472857, 0.107502704, -0.032585649), (-0.229004002, 0.105286748, -0.0264971011), (-0.22765603, 0.10362564, -0.0207674535), (-0.227107288, 0.0934808597, -0.0167168677), (-0.22815952, 0.0986759498, -0.0169879834), (-0.232223038, 0.100231789, -0.0212626485), (-0.234020529, 0.0961278793, -0.0239894117), (-0.231900517, 0.0942688787, -0.0188818372), (-0.232223038, 0.0912313634, -0.0245385464), (-0.22765603, 0.0883131298, -0.0263407425), (-0.22815952, 0.0896754617, -0.0202638813), (-0.22295098, 0.0888540219, -0.0320092366), (-0.218245893, 0.0920832971, -0.0366992291), (-0.229004002, 0.0907236905, -0.0317976145), (-0.228543945, 0.0952641864, -0.0363392067), (-0.223472857, 0.0929397298, -0.0378861727), (-0.223795379, 0.0989027181, -0.0402670253), (-0.217742362, 0.0970330702, -0.0404786578), (-0.229525875, 0.100371926, -0.0356499247), (-0.232744952, 0.100879599, -0.0283909135), (-0.232744952, 0.0953170506, -0.0304155135)]
        int[] faceVertexCounts = [3, 3, 3, 3, 3, 3, 3, 3, 3, 3, 3, 3, 3, 3, 3, 3, 3, 3, 3, 3, 3, 3, 3, 3, 3, 3, 3, 3, 3, 3, 3, 3, 3, 3, 3, 3, 3, 3, 3, 3, 3, 3, 3, 3, 3, 3, 3, 3, 3, 3, 3, 3, 3, 3, 3, 3, 3, 3, 3, 3, 3, 3, 3, 3, 3, 3, 3, 3, 3, 3, 3, 3, 3, 3, 3, 3, 3, 3, 3, 3, 3, 3, 3, 3, 3, 3, 3, 3, 3, 3, 3, 3, 3, 3, 3, 3, 3, 3, 3, 3, 3, 3, 3, 3, 3, 3, 3, 3, 3, 3, 3, 3, 3, 3, 3, 3, 3, 3, 3, 3, 3, 3, 3, 3, 3, 3, 3, 3, 3, 3, 3, 3, 3, 3, 3, 3, 3, 3, 3, 3, 3, 3, 3, 3, 3, 3, 3, 3, 3, 3, 3, 3, 3, 3, 3, 3, 3, 3, 3, 3, 3, 3, 3, 3, 3, 3, 3, 3, 3, 3, 3, 3, 3, 3, 3, 3, 3, 3, 3, 3, 3, 3, 3, 3, 3, 3, 3, 3, 3, 3, 3, 3, 3, 3, 3, 3, 3, 3, 3, 3, 3, 3, 3, 3, 3, 3, 3, 3, 3, 3, 3, 3, 3, 3, 3, 3, 3, 3, 3, 3, 3, 3, 3, 3, 3, 3, 3, 3, 3, 3, 3, 3, 3, 3, 3, 3, 3, 3, 3, 3, 3, 3, 3, 3, 3, 3, 3, 3, 3, 3, 3, 3, 3, 3, 3, 3, 3, 3, 3, 3, 3, 3, 3, 3, 3, 3, 3, 3, 3, 3, 3, 3, 3, 3, 3, 3, 3, 3, 3, 3, 3, 3, 3, 3, 3, 3, 3, 3, 3, 3, 3, 3, 3, 3, 3, 3, 3, 3, 3, 3, 3, 3, 3, 3, 3, 3, 3, 3, 3, 3, 3, 3, 3, 3, 3, 3, 3, 3, 3, 3, 3, 3, 3, 3, 3, 3, 3, 3, 3, 3, 3, 3, 3, 3, 3, 3, 3, 3, 3, 3, 3, 3, 3, 3, 3, 3, 3, 3, 3, 3, 3, 3, 3, 3, 3, 3, 3, 3, 3, 3, 3, 3, 3, 3, 3, 3, 3, 3, 3, 3, 3, 3, 3, 3, 3, 3, 3, 3, 3, 3, 3, 3, 3, 3, 3, 3, 3, 3, 3, 3, 3, 3, 3, 3, 3, 3, 3, 3, 3, 3, 3, 3, 3, 3, 3, 3, 3, 3, 3, 3, 3, 3, 3, 3, 3, 3, 3, 3, 3, 3, 3, 3, 3, 3, 3, 3, 3, 3, 3, 3, 3, 3, 3, 3, 3, 3, 3, 3, 3, 3, 3, 3, 3, 3, 3, 3, 3, 3, 3, 3, 3, 3, 3, 3, 3, 3, 3, 3, 3, 3, 3, 3, 3, 3, 3, 3, 3, 3, 3, 3, 3, 3, 3, 3, 3, 3, 3, 3, 3, 3, 3, 3, 3, 3, 3, 3, 3, 3, 3, 3, 3, 3, 3, 3, 3, 3, 3, 3, 3, 3, 3, 3, 3, 3, 3, 3, 3, 3, 3, 3, 3, 3, 3, 3, 3, 3, 3, 3, 3, 3, 3, 3, 3, 3, 3, 3, 3, 3, 3, 3, 3, 3, 3, 3, 3, 3, 3, 3, 3, 3, 3, 3, 3, 3, 3, 3, 3, 3, 3, 3, 3, 3, 3, 3, 3, 3, 3, 3, 3, 3, 3, 3, 3, 3, 3, 3, 3, 3, 3, 3, 3, 3, 3, 3, 3, 3, 3, 3, 3, 3, 3, 3, 3, 3, 3, 3, 3, 3, 3, 3, 3, 3, 3, 3, 3, 3, 3, 3, 3, 3, 3, 3, 3, 3, 3, 3, 3, 3, 3, 3, 3, 3, 3, 3, 3, 3, 3, 3, 3, 3, 3, 3, 3, 3, 3, 3, 3, 3, 3, 3, 3, 3, 3, 3, 3, 3, 3, 3, 3, 3, 3, 3, 3, 3, 3, 3, 3, 3, 3, 3, 3, 3, 3, 3, 3, 3, 3, 3, 3, 3, 3, 3, 3, 3, 3, 3, 3, 3, 3, 3, 3, 3, 3, 3, 3, 3, 3, 3, 3, 3, 3, 3, 3, 3, 3, 3, 3, 3, 3, 3, 3, 3, 3, 3, 3, 3, 3, 3, 3, 3, 3, 3, 3, 3, 3, 3, 3, 3, 3, 3, 3, 3, 3, 3, 3, 3, 3, 3, 3, 3, 3, 3, 3, 3, 3, 3, 3, 3, 3, 3, 3, 3, 3, 3, 3, 3, 3, 3, 3, 3, 3, 3, 3, 3, 3, 3, 3, 3, 3, 3, 3, 3, 3, 3, 3, 3, 3, 3, 3, 3, 3, 3, 3, 3, 3, 3, 3, 3, 3, 3, 3, 3, 3, 3, 3, 3, 3, 3, 3, 3, 3, 3, 3, 3, 3, 3, 3, 3, 3, 3, 3, 3, 3, 3, 3, 3, 3, 3, 3, 3, 3, 3, 3, 3, 3, 3, 3, 3, 3, 3, 3, 3, 3, 3, 3, 3, 3, 3, 3, 3, 3, 3, 3, 3, 3, 3, 3, 3, 3, 3, 3, 3, 3, 3, 3, 3, 3, 3, 3, 3, 3, 3, 3, 3, 3, 3, 3, 3, 3, 3, 3, 3, 3, 3, 3, 3, 3, 3, 3, 3, 3, 3, 3, 3, 3, 3, 3, 3, 3, 3, 3, 3, 3, 3, 3, 3, 3, 3, 3, 3, 3, 3, 3, 3, 3, 3, 3, 3, 3, 3, 3, 3, 3, 3, 3, 3, 3, 3, 3, 3, 3, 3, 3, 3, 3, 3, 3, 3, 3, 3, 3, 3, 3, 3, 3, 3, 3, 3, 3, 3, 3, 3, 3, 3, 3, 3, 3, 3, 3, 3, 3, 3, 3, 3, 3, 3, 3, 3, 3, 3, 3, 3, 3, 3, 3, 3, 3, 3, 3, 3, 3, 3, 3, 3, 3, 3, 3, 3, 3, 3, 3, 3, 3, 3, 3, 3, 3, 3, 3, 3, 3, 3, 3, 3, 3, 3, 3, 3, 3, 3, 3, 3, 3, 3, 3, 3, 3, 3, 3, 3, 3, 3, 3, 3, 3, 3, 3, 3, 3, 3, 3, 3, 3, 3, 3, 3, 3, 3, 3, 3, 3, 3, 3, 3, 3, 3, 3, 3, 3, 3, 3, 3, 3, 3, 3, 3, 3, 3, 3, 3, 3, 3, 3, 3, 3, 3, 3, 3, 3, 3, 3, 3, 3, 3, 3, 3, 3, 3, 3, 3, 3, 3, 3, 3, 3, 3, 3, 3, 3, 3, 3, 3, 3, 3, 3, 3, 3, 3, 3, 3, 3, 3, 3, 3, 3, 3, 3, 3, 3, 3, 3, 3, 3, 3, 3, 3, 3, 3, 3, 3, 3, 3, 3, 3, 3, 3, 3, 3, 3, 3, 3, 3, 3, 3, 3, 3, 3, 3, 3, 3, 3, 3, 3, 3, 3, 3, 3, 3, 3, 3, 3, 3, 3, 3, 3, 3, 3, 3, 3, 3, 3, 3, 3, 3, 3, 3, 3, 3, 3, 3, 3, 3, 3, 3, 3, 3, 3, 3, 3, 3, 3, 3, 3, 3, 3, 3, 3, 3, 3, 3, 3, 3, 3, 3, 3, 3, 3, 3, 3, 3, 3, 3, 3, 3, 3, 3, 3, 3, 3, 3, 3, 3, 3, 3, 3, 3, 3, 3, 3, 3, 3, 3, 3, 3, 3, 3, 3, 3, 3, 3, 3, 3, 3, 3, 3, 3, 3, 3, 3, 3, 3, 3, 3, 3, 3, 3, 3, 3, 3, 3, 3, 3, 3, 3, 3, 3, 3, 3, 3, 3, 3, 3, 3, 3, 3, 3, 3, 3, 3, 3, 3, 3, 3, 3, 3, 3, 3, 3, 3, 3, 3, 3, 3, 3, 3, 3, 3, 3, 3, 3, 3, 3, 3, 3, 3, 3, 3, 3, 3, 3, 3, 3, 3, 3, 3, 3, 3, 3, 3, 3, 3, 3, 3, 3, 3, 3, 3, 3, 3, 3, 3, 3, 3, 3, 3, 3, 3, 3, 3, 3, 3, 3, 3, 3, 3, 3, 3, 3, 3, 3, 3, 3, 3, 3, 3, 3, 3, 3, 3, 3, 3, 3, 3, 3, 3, 3, 3, 3, 3, 3, 3, 3, 3, 3, 3, 3, 3, 3, 3, 3, 3, 3, 3, 3, 3, 3, 3, 3, 3, 3, 3, 3, 3, 3, 3, 3, 3, 3, 3, 3, 3, 3, 3, 3, 3, 3, 3, 3]
        int[] faceVertexIndices = [0, 1, 2, 3, 2, 4, 5, 4, 1, 2, 1, 4, 0, 2, 6, 7, 6, 8, 3, 8, 2, 6, 2, 8, 7, 8, 9, 10, 9, 11, 3, 11, 8, 9, 8, 11, 3, 12, 11, 10, 11, 13, 14, 13, 12, 11, 12, 13, 3, 4, 12, 14, 12, 15, 5, 15, 4, 12, 4, 15, 14, 15, 16, 17, 16, 18, 5, 18, 15, 16, 15, 18, 14, 16, 19, 20, 19, 21, 17, 21, 16, 19, 16, 21, 10, 13, 22, 20, 22, 19, 14, 19, 13, 22, 13, 19, 10, 22, 23, 24, 23, 25, 20, 25, 22, 23, 22, 25, 24, 25, 26, 27, 26, 28, 20, 28, 25, 26, 25, 28, 27, 28, 29, 17, 29, 21, 20, 21, 28, 29, 28, 21, 27, 29, 30, 31, 30, 32, 17, 32, 29, 30, 29, 32, 27, 30, 33, 34, 33, 35, 31, 35, 30, 33, 30, 35, 34, 35, 36, 0, 36, 37, 31, 37, 35, 36, 35, 37, 0, 37, 1, 5, 1, 38, 31, 38, 37, 1, 37, 38, 31, 32, 38, 5, 38, 18, 17, 18, 32, 38, 32, 18, 7, 39, 6, 0, 6, 36, 34, 36, 39, 6, 39, 36, 7, 40, 39, 34, 39, 41, 24, 41, 40, 39, 40, 41, 7, 9, 40, 24, 40, 23, 10, 23, 9, 40, 9, 23, 27, 33, 26, 24, 26, 41, 34, 41, 33, 26, 33, 41, 42, 43, 44, 45, 44, 46, 47, 46, 43, 44, 43, 46, 42, 44, 48, 49, 48, 50, 45, 50, 44, 48, 44, 50, 49, 50, 51, 52, 51, 53, 45, 53, 50, 51, 50, 53, 45, 54, 53, 52, 53, 55, 56, 55, 54, 53, 54, 55, 45, 46, 54, 56, 54, 57, 47, 57, 46, 54, 46, 57, 56, 57, 58, 59, 58, 60, 47, 60, 57, 58, 57, 60, 56, 58, 61, 62, 61, 63, 59, 63, 58, 61, 58, 63, 52, 55, 64, 62, 64, 61, 56, 61, 55, 64, 55, 61, 52, 64, 65, 66, 65, 67, 62, 67, 64, 65, 64, 67, 66, 67, 68, 69, 68, 70, 62, 70, 67, 68, 67, 70, 62, 63, 70, 42, 73, 74, 42, 74, 43, 47, 43, 75, 71, 75, 74, 43, 74, 75, 47, 75, 60, 49, 76, 48, 42, 48, 73, 72, 73, 76, 48, 76, 73, 49, 77, 76, 72, 76, 78, 66, 78, 77, 76, 77, 78, 49, 51, 77, 66, 77, 65, 52, 65, 51, 77, 51, 65, 66, 68, 78, 79, 86, 129, 85, 128, 92, 79, 80, 87, 79, 87, 86, 80, 81, 87, 81, 88, 87, 81, 82, 89, 81, 89, 88, 82, 83, 89, 83, 90, 89, 83, 84, 91, 83, 91, 90, 84, 85, 91, 85, 92, 91, 86, 93, 129, 92, 128, 99, 86, 87, 93, 87, 94, 93, 87, 88, 95, 87, 95, 94, 88, 89, 95, 89, 96, 95, 89, 90, 97, 89, 97, 96, 90, 91, 97, 91, 98, 97, 91, 92, 99, 91, 99, 98, 93, 100, 129, 99, 128, 106, 93, 94, 101, 93, 101, 100, 94, 95, 101, 95, 102, 101, 95, 96, 103, 95, 103, 102, 96, 97, 103, 97, 104, 103, 97, 98, 105, 97, 105, 104, 98, 99, 105, 99, 106, 105, 100, 107, 129, 106, 128, 113, 100, 101, 107, 101, 108, 107, 101, 102, 109, 101, 109, 108, 102, 103, 109, 103, 110, 109, 103, 104, 111, 103, 111, 110, 104, 105, 111, 105, 112, 111, 105, 106, 113, 105, 113, 112, 107, 114, 129, 113, 128, 120, 107, 108, 115, 107, 115, 114, 108, 109, 115, 109, 116, 115, 109, 110, 117, 109, 117, 116, 110, 111, 117, 111, 118, 117, 111, 112, 119, 111, 119, 118, 112, 113, 119, 113, 120, 119, 114, 121, 129, 120, 128, 127, 114, 115, 121, 115, 122, 121, 115, 116, 123, 115, 123, 122, 116, 117, 123, 117, 124, 123, 117, 118, 125, 117, 125, 124, 118, 119, 125, 119, 126, 125, 119, 120, 127, 119, 127, 126, 121, 79, 129, 127, 128, 85, 121, 122, 80, 121, 80, 79, 122, 123, 80, 123, 81, 80, 123, 124, 82, 123, 82, 81, 124, 125, 82, 125, 83, 82, 125, 126, 84, 125, 84, 83, 126, 127, 84, 127, 85, 84, 180, 137, 130, 143, 179, 136, 138, 131, 130, 137, 138, 130, 138, 132, 131, 138, 139, 132, 140, 133, 132, 139, 140, 132, 140, 134, 133, 140, 141, 134, 142, 135, 134, 141, 142, 134, 142, 136, 135, 142, 143, 136, 180, 144, 137, 150, 179, 143, 144, 138, 137, 144, 145, 138, 146, 139, 138, 145, 146, 138, 146, 140, 139, 146, 147, 140, 148, 141, 140, 147, 148, 140, 148, 142, 141, 148, 149, 142, 150, 143, 142, 149, 150, 142, 180, 151, 144, 157, 179, 150, 152, 145, 144, 151, 152, 144, 152, 146, 145, 152, 153, 146, 154, 147, 146, 153, 154, 146, 154, 148, 147, 154, 155, 148, 156, 149, 148, 155, 156, 148, 156, 150, 149, 156, 157, 150, 180, 158, 151, 164, 179, 157, 158, 152, 151, 158, 159, 152, 160, 153, 152, 159, 160, 152, 160, 154, 153, 160, 161, 154, 162, 155, 154, 161, 162, 154, 162, 156, 155, 162, 163, 156, 164, 157, 156, 163, 164, 156, 180, 165, 158, 171, 179, 164, 166, 159, 158, 165, 166, 158, 166, 160, 159, 166, 167, 160, 168, 161, 160, 167, 168, 160, 168, 162, 161, 168, 169, 162, 170, 163, 162, 169, 170, 162, 170, 164, 163, 170, 171, 164, 180, 172, 165, 178, 179, 171, 172, 166, 165, 172, 173, 166, 174, 167, 166, 173, 174, 166, 174, 168, 167, 174, 175, 168, 176, 169, 168, 175, 176, 168, 176, 170, 169, 176, 177, 170, 178, 171, 170, 177, 178, 170, 180, 130, 172, 136, 179, 178, 131, 173, 172, 130, 131, 172, 131, 174, 173, 131, 132, 174, 133, 175, 174, 132, 133, 174, 133, 176, 175, 133, 134, 176, 135, 177, 176, 134, 135, 176, 135, 178, 177, 135, 136, 178, 181, 188, 231, 187, 230, 194, 181, 182, 189, 181, 189, 188, 182, 183, 189, 183, 190, 189, 183, 184, 191, 183, 191, 190, 184, 185, 191, 185, 192, 191, 185, 186, 193, 185, 193, 192, 186, 187, 193, 187, 194, 193, 188, 195, 231, 194, 230, 201, 188, 189, 195, 189, 196, 195, 189, 190, 197, 189, 197, 196, 190, 191, 197, 191, 198, 197, 191, 192, 199, 191, 199, 198, 192, 193, 199, 193, 200, 199, 193, 194, 201, 193, 201, 200, 195, 202, 231, 201, 230, 208, 195, 196, 203, 195, 203, 202, 196, 197, 203, 197, 204, 203, 197, 198, 205, 197, 205, 204, 198, 199, 205, 199, 206, 205, 199, 200, 207, 199, 207, 206, 200, 201, 207, 201, 208, 207, 202, 209, 231, 208, 230, 215, 202, 203, 209, 203, 210, 209, 203, 204, 211, 203, 211, 210, 204, 205, 211, 205, 212, 211, 205, 206, 213, 205, 213, 212, 206, 207, 213, 207, 214, 213, 207, 208, 215, 207, 215, 214, 209, 216, 231, 215, 230, 222, 209, 210, 217, 209, 217, 216, 210, 211, 217, 211, 218, 217, 211, 212, 219, 211, 219, 218, 212, 213, 219, 213, 220, 219, 213, 214, 221, 213, 221, 220, 214, 215, 221, 215, 222, 221, 216, 223, 231, 222, 230, 229, 216, 217, 223, 217, 224, 223, 217, 218, 225, 217, 225, 224, 218, 219, 225, 219, 226, 225, 219, 220, 227, 219, 227, 226, 220, 221, 227, 221, 228, 227, 221, 222, 229, 221, 229, 228, 223, 181, 231, 229, 230, 187, 223, 224, 182, 223, 182, 181, 224, 225, 182, 225, 183, 182, 225, 226, 184, 225, 184, 183, 226, 227, 184, 227, 185, 184, 227, 228, 186, 227, 186, 185, 228, 229, 186, 229, 187, 186, 282, 239, 232, 245, 281, 238, 240, 233, 232, 239, 240, 232, 240, 234, 233, 240, 241, 234, 242, 235, 234, 241, 242, 234, 242, 236, 235, 242, 243, 236, 244, 237, 236, 243, 244, 236, 244, 238, 237, 244, 245, 238, 282, 246, 239, 252, 281, 245, 246, 240, 239, 246, 247, 240, 248, 241, 240, 247, 248, 240, 248, 242, 241, 248, 249, 242, 250, 243, 242, 249, 250, 242, 250, 244, 243, 250, 251, 244, 252, 245, 244, 251, 252, 244, 282, 253, 246, 259, 281, 252, 254, 247, 246, 253, 254, 246, 254, 248, 247, 254, 255, 248, 256, 249, 248, 255, 256, 248, 256, 250, 249, 256, 257, 250, 258, 251, 250, 257, 258, 250, 258, 252, 251, 258, 259, 252, 282, 260, 253, 266, 281, 259, 260, 254, 253, 260, 261, 254, 262, 255, 254, 261, 262, 254, 262, 256, 255, 262, 263, 256, 264, 257, 256, 263, 264, 256, 264, 258, 257, 264, 265, 258, 266, 259, 258, 265, 266, 258, 282, 267, 260, 273, 281, 266, 268, 261, 260, 267, 268, 260, 268, 262, 261, 268, 269, 262, 270, 263, 262, 269, 270, 262, 270, 264, 263, 270, 271, 264, 272, 265, 264, 271, 272, 264, 272, 266, 265, 272, 273, 266, 282, 274, 267, 280, 281, 273, 274, 268, 267, 274, 275, 268, 276, 269, 268, 275, 276, 268, 276, 270, 269, 276, 277, 270, 278, 271, 270, 277, 278, 270, 278, 272, 271, 278, 279, 272, 280, 273, 272, 279, 280, 272, 282, 232, 274, 238, 281, 280, 233, 275, 274, 232, 233, 274, 233, 276, 275, 233, 234, 276, 235, 277, 276, 234, 235, 276, 235, 278, 277, 235, 236, 278, 237, 279, 278, 236, 237, 278, 237, 280, 279, 237, 238, 280, 333, 290, 283, 296, 332, 289, 291, 284, 283, 290, 291, 283, 291, 285, 284, 291, 292, 285, 293, 286, 285, 292, 293, 285, 293, 287, 286, 293, 294, 287, 295, 288, 287, 294, 295, 287, 295, 289, 288, 295, 296, 289, 333, 297, 290, 303, 332, 296, 297, 291, 290, 297, 298, 291, 299, 292, 291, 298, 299, 291, 299, 293, 292, 299, 300, 293, 301, 294, 293, 300, 301, 293, 301, 295, 294, 301, 302, 295, 303, 296, 295, 302, 303, 295, 333, 304, 297, 310, 332, 303, 305, 298, 297, 304, 305, 297, 305, 299, 298, 305, 306, 299, 307, 300, 299, 306, 307, 299, 307, 301, 300, 307, 308, 301, 309, 302, 301, 308, 309, 301, 309, 303, 302, 309, 310, 303, 333, 311, 304, 317, 332, 310, 311, 305, 304, 311, 312, 305, 313, 306, 305, 312, 313, 305, 313, 307, 306, 313, 314, 307, 315, 308, 307, 314, 315, 307, 315, 309, 308, 315, 316, 309, 317, 310, 309, 316, 317, 309, 333, 318, 311, 324, 332, 317, 319, 312, 311, 318, 319, 311, 319, 313, 312, 319, 320, 313, 321, 314, 313, 320, 321, 313, 321, 315, 314, 321, 322, 315, 323, 316, 315, 322, 323, 315, 323, 317, 316, 323, 324, 317, 333, 325, 318, 331, 332, 324, 325, 319, 318, 325, 326, 319, 327, 320, 319, 326, 327, 319, 327, 321, 320, 327, 328, 321, 329, 322, 321, 328, 329, 321, 329, 323, 322, 329, 330, 323, 331, 324, 323, 330, 331, 323, 333, 283, 325, 289, 332, 331, 284, 326, 325, 283, 284, 325, 284, 327, 326, 284, 285, 327, 286, 328, 327, 285, 286, 327, 286, 329, 328, 286, 287, 329, 288, 330, 329, 287, 288, 329, 288, 331, 330, 288, 289, 331, 334, 341, 384, 340, 383, 347, 334, 335, 342, 334, 342, 341, 335, 336, 342, 336, 343, 342, 336, 337, 344, 336, 344, 343, 337, 338, 344, 338, 345, 344, 338, 339, 346, 338, 346, 345, 339, 340, 346, 340, 347, 346, 341, 348, 384, 347, 383, 354, 341, 342, 348, 342, 349, 348, 342, 343, 350, 342, 350, 349, 343, 344, 350, 344, 351, 350, 344, 345, 352, 344, 352, 351, 345, 346, 352, 346, 353, 352, 346, 347, 354, 346, 354, 353, 348, 355, 384, 354, 383, 361, 348, 349, 356, 348, 356, 355, 349, 350, 356, 350, 357, 356, 350, 351, 358, 350, 358, 357, 351, 352, 358, 352, 359, 358, 352, 353, 360, 352, 360, 359, 353, 354, 360, 354, 361, 360, 355, 362, 384, 361, 383, 368, 355, 356, 362, 356, 363, 362, 356, 357, 364, 356, 364, 363, 357, 358, 364, 358, 365, 364, 358, 359, 366, 358, 366, 365, 359, 360, 366, 360, 367, 366, 360, 361, 368, 360, 368, 367, 362, 369, 384, 368, 383, 375, 362, 363, 370, 362, 370, 369, 363, 364, 370, 364, 371, 370, 364, 365, 372, 364, 372, 371, 365, 366, 372, 366, 373, 372, 366, 367, 374, 366, 374, 373, 367, 368, 374, 368, 375, 374, 369, 376, 384, 375, 383, 382, 369, 370, 376, 370, 377, 376, 370, 371, 378, 370, 378, 377, 371, 372, 378, 372, 379, 378, 372, 373, 380, 372, 380, 379, 373, 374, 380, 374, 381, 380, 374, 375, 382, 374, 382, 381, 376, 334, 384, 382, 383, 340, 376, 377, 335, 376, 335, 334, 377, 378, 335, 378, 336, 335, 378, 379, 337, 378, 337, 336, 379, 380, 337, 380, 338, 337, 380, 381, 339, 380, 339, 338, 381, 382, 339, 382, 340, 339, 435, 392, 385, 398, 434, 391, 393, 386, 385, 392, 393, 385, 393, 387, 386, 393, 394, 387, 395, 388, 387, 394, 395, 387, 395, 389, 388, 395, 396, 389, 397, 390, 389, 396, 397, 389, 397, 391, 390, 397, 398, 391, 435, 399, 392, 405, 434, 398, 399, 393, 392, 399, 400, 393, 401, 394, 393, 400, 401, 393, 401, 395, 394, 401, 402, 395, 403, 396, 395, 402, 403, 395, 403, 397, 396, 403, 404, 397, 405, 398, 397, 404, 405, 397, 435, 406, 399, 412, 434, 405, 407, 400, 399, 406, 407, 399, 407, 401, 400, 407, 408, 401, 409, 402, 401, 408, 409, 401, 409, 403, 402, 409, 410, 403, 411, 404, 403, 410, 411, 403, 411, 405, 404, 411, 412, 405, 435, 413, 406, 419, 434, 412, 413, 407, 406, 413, 414, 407, 415, 408, 407, 414, 415, 407, 415, 409, 408, 415, 416, 409, 417, 410, 409, 416, 417, 409, 417, 411, 410, 417, 418, 411, 419, 412, 411, 418, 419, 411, 435, 420, 413, 426, 434, 419, 421, 414, 413, 420, 421, 413, 421, 415, 414, 421, 422, 415, 423, 416, 415, 422, 423, 415, 423, 417, 416, 423, 424, 417, 425, 418, 417, 424, 425, 417, 425, 419, 418, 425, 426, 419, 435, 427, 420, 433, 434, 426, 427, 421, 420, 427, 428, 421, 429, 422, 421, 428, 429, 421, 429, 423, 422, 429, 430, 423, 431, 424, 423, 430, 431, 423, 431, 425, 424, 431, 432, 425, 433, 426, 425, 432, 433, 425, 435, 385, 427, 391, 434, 433, 386, 428, 427, 385, 386, 427, 386, 429, 428, 386, 387, 429, 388, 430, 429, 387, 388, 429, 388, 431, 430, 388, 389, 431, 390, 432, 431, 389, 390, 431, 390, 433, 432, 390, 391, 433, 436, 443, 486, 442, 485, 449, 436, 437, 444, 436, 444, 443, 437, 438, 444, 438, 445, 444, 438, 439, 446, 438, 446, 445, 439, 440, 446, 440, 447, 446, 440, 441, 448, 440, 448, 447, 441, 442, 448, 442, 449, 448, 443, 450, 486, 449, 485, 456, 443, 444, 450, 444, 451, 450, 444, 445, 452, 444, 452, 451, 445, 446, 452, 446, 453, 452, 446, 447, 454, 446, 454, 453, 447, 448, 454, 448, 455, 454, 448, 449, 456, 448, 456, 455, 450, 457, 486, 456, 485, 463, 450, 451, 458, 450, 458, 457, 451, 452, 458, 452, 459, 458, 452, 453, 460, 452, 460, 459, 453, 454, 460, 454, 461, 460, 454, 455, 462, 454, 462, 461, 455, 456, 462, 456, 463, 462, 457, 464, 486, 463, 485, 470, 457, 458, 464, 458, 465, 464, 458, 459, 466, 458, 466, 465, 459, 460, 466, 460, 467, 466, 460, 461, 468, 460, 468, 467, 461, 462, 468, 462, 469, 468, 462, 463, 470, 462, 470, 469, 464, 471, 486, 470, 485, 477, 464, 465, 472, 464, 472, 471, 465, 466, 472, 466, 473, 472, 466, 467, 474, 466, 474, 473, 467, 468, 474, 468, 475, 474, 468, 469, 476, 468, 476, 475, 469, 470, 476, 470, 477, 476, 471, 478, 486, 477, 485, 484, 471, 472, 478, 472, 479, 478, 472, 473, 480, 472, 480, 479, 473, 474, 480, 474, 481, 480, 474, 475, 482, 474, 482, 481, 475, 476, 482, 476, 483, 482, 476, 477, 484, 476, 484, 483, 478, 436, 486, 484, 485, 442, 478, 479, 437, 478, 437, 436, 479, 480, 437, 480, 438, 437, 480, 481, 439, 480, 439, 438, 481, 482, 439, 482, 440, 439, 482, 483, 441, 482, 441, 440, 483, 484, 441, 484, 442, 441, 487, 490, 509, 489, 508, 492, 487, 488, 491, 487, 491, 490, 488, 489, 491, 489, 492, 491, 490, 493, 509, 492, 508, 495, 490, 491, 493, 491, 494, 493, 491, 492, 495, 491, 495, 494, 493, 496, 509, 495, 508, 498, 493, 494, 497, 493, 497, 496, 494, 495, 497, 495, 498, 497, 496, 499, 509, 498, 508, 501, 496, 497, 499, 497, 500, 499, 497, 498, 501, 497, 501, 500, 499, 502, 509, 501, 508, 504, 499, 500, 503, 499, 503, 502, 500, 501, 503, 501, 504, 503, 502, 505, 509, 504, 508, 507, 502, 503, 505, 503, 506, 505, 503, 504, 507, 503, 507, 506, 505, 487, 509, 507, 508, 489, 505, 506, 488, 505, 488, 487, 506, 507, 488, 507, 489, 488, 510, 513, 532, 512, 531, 515, 510, 511, 514, 510, 514, 513, 511, 512, 514, 512, 515, 514, 513, 516, 532, 515, 531, 518, 513, 514, 516, 514, 517, 516, 514, 515, 518, 514, 518, 517, 516, 519, 532, 518, 531, 521, 516, 517, 520, 516, 520, 519, 517, 518, 520, 518, 521, 520, 519, 522, 532, 521, 531, 524, 519, 520, 522, 520, 523, 522, 520, 521, 524, 520, 524, 523, 522, 525, 532, 524, 531, 527, 522, 523, 526, 522, 526, 525, 523, 524, 526, 524, 527, 526, 525, 528, 532, 527, 531, 530, 525, 526, 528, 526, 529, 528, 526, 527, 530, 526, 530, 529, 528, 510, 532, 530, 531, 512, 528, 529, 511, 528, 511, 510, 529, 530, 511, 530, 512, 511, 533, 562, 561, 533, 563, 562, 534, 535, 536, 533, 564, 563, 534, 536, 537, 533, 565, 564, 534, 537, 538, 533, 566, 565, 534, 538, 539, 533, 567, 566, 541, 542, 535, 535, 542, 543, 535, 543, 536, 536, 543, 537, 543, 544, 537, 537, 544, 545, 537, 545, 538, 538, 545, 539, 545, 546, 539, 540, 547, 541, 547, 548, 541, 541, 548, 549, 541, 549, 542, 542, 549, 543, 549, 550, 543, 543, 550, 551, 543, 551, 544, 544, 551, 545, 551, 552, 545, 545, 552, 553, 545, 553, 546, 547, 554, 555, 547, 555, 548, 548, 555, 549, 555, 556, 549, 549, 556, 557, 549, 557, 550, 550, 557, 551, 557, 558, 551, 552, 559, 553, 559, 560, 553, 554, 561, 555, 561, 562, 555, 555, 562, 563, 555, 563, 556, 556, 563, 557, 563, 564, 557, 557, 564, 565, 557, 565, 558, 558, 565, 559, 565, 566, 559, 559, 566, 567, 559, 567, 560, 574, 584, 585, 552, 575, 585, 585, 574, 552, 576, 575, 552, 575, 576, 586, 586, 585, 575, 587, 586, 576, 576, 577, 587, 588, 587, 578, 577, 578, 587, 589, 588, 568, 588, 578, 568, 568, 579, 589, 568, 569, 579, 569, 570, 579, 580, 579, 570, 570, 571, 580, 581, 580, 571, 582, 581, 571, 571, 572, 582, 583, 582, 572, 572, 573, 583, 584, 583, 573, 573, 574, 584, 574, 559, 552, 574, 573, 559, 573, 572, 559, 572, 571, 559, 571, 570, 559, 558, 559, 570, 570, 569, 558, 569, 568, 558, 576, 552, 551, 577, 576, 551, 578, 577, 551, 551, 558, 568, 578, 568, 551, 594, 595, 596, 590, 596, 592, 596, 595, 592, 594, 596, 597, 598, 597, 599, 590, 599, 596, 597, 596, 599, 594, 597, 600, 601, 600, 602, 598, 602, 597, 600, 597, 602, 601, 602, 603, 598, 604, 602, 603, 602, 604, 598, 599, 605, 590, 591, 599, 605, 599, 591, 594, 600, 593, 601, 606, 600, 593, 600, 606, 635, 636, 607, 636, 637, 607, 610, 609, 608, 637, 638, 607, 611, 610, 608, 638, 639, 607, 612, 611, 608, 639, 640, 607, 613, 612, 608, 640, 641, 607, 609, 616, 615, 617, 616, 609, 610, 617, 609, 611, 617, 610, 611, 618, 617, 619, 618, 611, 612, 619, 611, 613, 619, 612, 613, 620, 619, 615, 621, 614, 615, 622, 621, 623, 622, 615, 616, 623, 615, 617, 623, 616, 617, 624, 623, 625, 624, 617, 618, 625, 617, 619, 625, 618, 619, 626, 625, 627, 626, 619, 620, 627, 619, 629, 628, 621, 622, 629, 621, 623, 629, 622, 623, 630, 629, 631, 630, 623, 624, 631, 623, 625, 631, 624, 625, 632, 631, 627, 633, 626, 627, 634, 633, 629, 635, 628, 629, 636, 635, 637, 636, 629, 630, 637, 629, 631, 637, 630, 631, 638, 637, 639, 638, 631, 632, 639, 631, 633, 639, 632, 633, 640, 639, 641, 640, 633, 634, 641, 633, 659, 658, 648, 659, 649, 626, 626, 648, 659, 626, 649, 650, 660, 650, 649, 649, 659, 660, 650, 660, 661, 661, 651, 650, 652, 661, 662, 661, 652, 651, 642, 662, 663, 642, 652, 662, 663, 653, 642, 653, 643, 642, 653, 644, 643, 644, 653, 654, 654, 645, 644, 645, 654, 655, 645, 655, 656, 656, 646, 645, 646, 656, 657, 657, 647, 646, 647, 657, 658, 658, 648, 647, 626, 633, 648, 633, 647, 648, 633, 646, 647, 633, 645, 646, 633, 644, 645, 644, 633, 632, 632, 643, 644, 632, 642, 643, 625, 626, 650, 625, 650, 651, 625, 651, 652, 642, 632, 625, 625, 642, 652, 686, 667, 664, 669, 685, 666, 668, 665, 664, 667, 668, 664, 668, 666, 665, 668, 669, 666, 686, 670, 667, 672, 685, 669, 670, 668, 667, 670, 671, 668, 672, 669, 668, 671, 672, 668, 686, 673, 670, 675, 685, 672, 674, 671, 670, 673, 674, 670, 674, 672, 671, 674, 675, 672, 686, 676, 673, 678, 685, 675, 676, 674, 673, 676, 677, 674, 678, 675, 674, 677, 678, 674, 686, 679, 676, 681, 685, 678, 680, 677, 676, 679, 680, 676, 680, 678, 677, 680, 681, 678, 686, 682, 679, 684, 685, 681, 682, 680, 679, 682, 683, 680, 684, 681, 680, 683, 684, 680, 686, 664, 682, 666, 685, 684, 665, 683, 682, 664, 665, 682, 665, 684, 683, 665, 666, 684, 709, 690, 687, 692, 708, 689, 691, 688, 687, 690, 691, 687, 691, 689, 688, 691, 692, 689, 709, 693, 690, 695, 708, 692, 693, 691, 690, 693, 694, 691, 695, 692, 691, 694, 695, 691, 709, 696, 693, 698, 708, 695, 697, 694, 693, 696, 697, 693, 697, 695, 694, 697, 698, 695, 709, 699, 696, 701, 708, 698, 699, 697, 696, 699, 700, 697, 701, 698, 697, 700, 701, 697, 709, 702, 699, 704, 708, 701, 703, 700, 699, 702, 703, 699, 703, 701, 700, 703, 704, 701, 709, 705, 702, 707, 708, 704, 705, 703, 702, 705, 706, 703, 707, 704, 703, 706, 707, 703, 709, 687, 705, 689, 708, 707, 688, 706, 705, 687, 688, 705, 688, 707, 706, 688, 689, 707, 710, 711, 712, 710, 712, 713, 714, 713, 715, 713, 712, 715, 714, 715, 716, 717, 719, 720, 721, 720, 722, 718, 722, 719, 720, 719, 722, 721, 722, 723, 724, 723, 725, 718, 725, 722, 723, 722, 725, 724, 726, 728, 729, 728, 730, 727, 730, 726, 728, 726, 730, 729, 730, 731, 710, 731, 732, 727, 732, 730, 731, 730, 732, 710, 732, 711, 714, 733, 713, 710, 713, 731, 729, 731, 733, 713, 733, 731, 714, 734, 733, 729, 733, 735, 721, 735, 734, 733, 734, 735, 714, 716, 734, 721, 734, 720, 717, 720, 716, 734, 716, 720, 724, 728, 723, 721, 723, 735, 729, 735, 728, 723, 728, 735, 738, 737, 736, 739, 738, 736, 741, 739, 740, 741, 738, 739, 742, 741, 740, 746, 745, 743, 748, 746, 747, 745, 748, 744, 748, 745, 746, 749, 748, 747, 751, 749, 750, 748, 751, 744, 751, 748, 749, 754, 752, 750, 756, 754, 755, 752, 756, 753, 756, 752, 754, 757, 756, 755, 758, 757, 736, 756, 758, 753, 758, 756, 757, 737, 758, 736, 739, 759, 740, 757, 739, 736, 759, 757, 755, 757, 759, 739, 759, 760, 740, 761, 759, 755, 760, 761, 747, 761, 760, 759, 760, 742, 740, 746, 760, 747, 742, 746, 743, 746, 742, 760, 749, 754, 750, 761, 749, 747, 754, 761, 755, 761, 754, 749]
        color3f[] primvars:displayColor = [(0.65, 0.68, 0.72)]
        uniform token subdivisionScheme = "none"
    }
}
