#usda 1.0
(
    defaultPrim = "Asset"
    metersPerUnit = 1
    upAxis = "Z"
)

def Xform "Asset"
{
    def Mesh "Mesh"
    {
        point3f[] points = [(0.144719891, -0.0502850554, -0.49518146), (0.0156300045, 0.335931217, 0.484320173), (-0.0937444395, 0.210926768, -0.296873999), (-0.0937444395, 0.24217966, -0.296873999), (-0.0937444395, 0.320294095, 0.5), (0.0156300045, 0.273425434, 0.374959964), (0.0156300045, 0.257802547, -0.296873999), (-0.0937444395, 0.273425434, 0.5), (-0.015622887, 0.210926768, -0.281194172), (-0.0624986655, 0.257802547, -0.296873999), (-0.078114435, 0.24217966, 0.218723977), (0.0156300045, 0.289026968, 0.5), (0.0156300045, 0.22656389, -0.296873999), (-0.0624986655, 0.320294095, 0.374959964), (-0.0937444395, 0.210926768, -0.171833963), (2.46937484e-17, 0.335931217, 0.468718639), (-0.0624986655, 0.257802547, 0.374959964), (-0.0937444395, 0.257802547, -0.203115325), (0.0156300045, 0.273425434, -0.171833963), (0.0156300045, 0.22656389, -0.203115325), (-0.0937444395, 0.320294095, 0.468718639), (0.0156300045, 0.257802547, 0.20304415), (-0.015622887, 0.273425434, -0.171833963), (-0.078114435, 0.257802547, -0.265592638), (-0.0937444395, 0.24217966, 0.218723977), (0.0156300045, 0.320294095, 0.5), (-0.078114435, 0.210926768, -0.171833963), (-0.078114435, 0.273425434, 0.5), (0.144719891, -0.0502850554, -0.49518146), (-0.0937444395, 0.304678325, 0.5), (-0.187495996, 0.132805216, -0.296873999), (-0.187495996, 0.195303881, -0.296873999), (-0.0937444395, 0.195303881, -0.296873999), (-0.187495996, 0.210955238, 0.453117104), (-0.187495996, 0.273418316, 0.437437277), (-0.109374444, 0.24217966, -0.296873999), (-0.0937444395, 0.257788312, 0.453117104), (-0.156243105, 0.132805216, -0.281194172), (-0.125004448, 0.304678325, 0.390561499), (-0.171865992, 0.195303881, 0.34360031), (-0.0937444395, 0.24217966, -0.296873999), (-0.171865992, 0.289048321, 0.468718639), (-0.187495996, 0.226528303, 0.5), (-0.156243105, 0.226528303, -0.234318394), (-0.0937444395, 0.304678325, 0.35935843), (-0.109374444, 0.257788312, 0.5), (-0.140620218, 0.304678325, 0.5), (-0.187495996, 0.132805216, -0.249991103), (-0.125004448, 0.24217966, -0.249991103), (-0.0937444395, 0.226528303, 0.109285475), (-0.187495996, 0.273418316, 0.5), (-0.171865992, 0.210955238, 0.453117104), (-0.171865992, 0.210955238, -0.281194172), (-0.0937444395, 0.195303881, -0.265592638), (-0.156243105, 0.289048321, 0.374959964), (-0.187495996, 0.195303881, 0.34360031), (-0.109374444, 0.257788312, -0.140559719), (-0.156243105, 0.132805216, -0.296873999), (-0.171865992, 0.132805216, -0.249991103), (-0.0937444395, 0.24217966, 0.296802824), (0.144719891, -0.0502850554, -0.49518146), (-0.328123332, -0.0703065502, 0.468618994), (-0.218756005, -0.101552324, -0.0780539363), (-0.218756005, -0.117182329, -0.0780539363), (-0.265631784, -0.00782923722, -0.218745329), (-0.281233318, -0.00782923722, 0.484241881), (-0.265631784, -0.117182329, 0.499928825), (-0.265631784, -0.117182329, -0.124901245), (-0.23438601, -0.00782923722, -0.218745329), (-0.328123332, -0.00782923722, 0.499928825), (-0.312479092, -0.117182329, 0.499928825), (-0.218756005, -0.117182329, -0.218745329), (-0.281233318, -0.0390750112, -0.140524132), (-0.265631784, -0.101552324, -0.202994327), (-0.250001779, -0.101552324, 0.374917259), (-0.328123332, -0.0859365547, 0.484241881), (-0.281233318, -0.00782923722, -0.140524132), (-0.265631784, -0.00782923722, 0.28114435), (-0.250001779, -0.117182329, -0.218745329), (-0.23438601, -0.00782923722, -0.18737144), (-0.328123332, -0.00782923722, 0.468618994), (-0.218756005, -0.0859365547, -0.218745329), (-0.296863323, -0.00782923722, 0.499928825), (-0.250001779, -0.117182329, 0.374917259), (-0.312479092, -0.117182329, 0.468618994), (-0.265631784, -0.101552324, 0.499928825), (-0.265631784, -0.0859365547, -0.218745329), (-0.23438601, -0.101552324, 0.156203959), (0.144719891, -0.0502850554, -0.49518146), (-0.296849088, -0.148449455, 0.374917259), (-0.156250222, -0.179680994, -0.140524132), (-0.234364657, -0.117196564, 0.249912811), (-0.249980427, -0.117196564, -0.218745329), (-0.281219083, -0.195318116, 0.499928825), (-0.218763123, -0.195318116, -0.140524132), (-0.218763123, -0.195318116, 0.499928825), (-0.312479092, -0.117196564, 0.499928825), (-0.203133118, -0.117196564, -0.218745329), (-0.156250222, -0.195318116, -0.218745329), (-0.249980427, -0.132826568, 0.499928825), (-0.234364657, -0.164065225, -0.218745329), (-0.203133118, -0.179680994, 0.374917259), (-0.249980427, -0.132826568, -0.218745329), (-0.265610431, -0.117196564, 0.499928825), (-0.312479092, -0.132826568, 0.484241881), (-0.203133118, -0.195318116, -0.218745329), (-0.156250222, -0.195318116, -0.140524132), (-0.203133118, -0.117196564, -0.171755671), (-0.281219083, -0.179680994, 0.374917259), (-0.249980427, -0.148449455, -0.156139901), (-0.218763123, -0.179680994, 0.499928825), (-0.156250222, -0.179680994, -0.218745329), (-0.234364657, -0.132826568, 0.374917259), (-0.281219083, -0.195318116, 0.484241881), (-0.203133118, -0.195318116, 0.374917259), (0.144719891, -0.0502850554, -0.49518146), (0.0156300045, 0.257788312, -0.234304159), (0.281254671, 0.195332351, 0.5), (0.281254671, 0.164086577, 0.5), (0.0156300045, 0.289026968, 0.5), (0.109388679, 0.320301212, 0.468661699), (0.156235987, 0.226571008, -0.234304159), (0.14064157, 0.164086577, -0.218631449), (0.218748888, 0.164086577, -0.171769906), (0.234371775, 0.164086577, 0.484256116), (0.0156300045, 0.226571008, -0.171769906), (0.203118883, 0.273418316, 0.5), (0.0156300045, 0.320301212, 0.359258785), (0.0937586744, 0.257788312, -0.218631449), (0.218748888, 0.179702347, -0.171769906), (0.0156300045, 0.257788312, 0.218667037), (0.0312528915, 0.273418316, -0.171769906), (0.0156300045, 0.320301212, 0.5), (0.203118883, 0.273418316, 0.468661699), (0.203118883, 0.164086577, -0.234304159), (0.281254671, 0.164086577, 0.374931494), (0.0156300045, 0.226571008, -0.234304159), (0.156235987, 0.289026968, 0.359258785), (0.281254671, 0.195332351, 0.468661699), (0.203118883, 0.164086577, 0.281130115), (0.062505783, 0.320301212, 0.374931494), (0.109388679, 0.320301212, 0.5), (0.0156300045, 0.273418316, 0.374931494), (0.250001779, 0.226571008, 0.452988989), (0.203118883, 0.195332351, -0.171769906), (0.281254671, 0.179702347, 0.374931494), (0.0156300045, 0.273418316, -0.171769906), (0.14064157, 0.242186777, -0.171769906), (0.250001779, 0.164086577, 0.5), (0.14064157, 0.164086577, -0.234304159), (0.062505783, 0.273418316, -0.124901245), (0.0781357874, 0.257788312, -0.234304159), (0.203118883, 0.179702347, -0.234304159), (0.125011566, 0.304656973, 0.374931494), (0.187488879, 0.273418316, 0.374931494), (0.144719891, -0.0502850554, -0.49518146), (0.250001779, 0.16405099, 0.5), (0.23438601, -0.00782211973, -0.234304159), (0.265617549, -0.00782211973, -0.234304159), (0.21877024, 0.16405099, -0.234304159), (0.328123332, 0.101538089, 0.5), (0.296863323, -0.00782211973, 0.5), (0.171880227, 0.148428103, -0.140502779), (0.265617549, 0.0859080848, -0.234304159), (0.328123332, -0.00782211973, 0.359258785), (0.296863323, 0.16405099, 0.468661699), (0.171880227, 0.16405099, -0.234304159), (0.21877024, 0.148428103, 0.312397241), (0.281233318, 0.00780788475, -0.187364323), (0.328123332, 0.0703279027, 0.374931494), (0.281233318, -0.00782211973, 0.374931494), (0.328123332, -0.00782211973, 0.5), (0.23438601, 0.148428103, -0.234304159), (0.296863323, 0.148428103, 0.359258785), (0.23438601, -0.00782211973, -0.203037032), (0.21877024, 0.16405099, 0.312397241), (0.328123332, 0.101538089, 0.468661699), (0.250001779, 0.132776746, 0.484256116), (0.281233318, -0.00782211973, -0.187364323), (0.296863323, 0.16405099, 0.5), (0.171880227, 0.148428103, -0.234304159), (0.23438601, 0.16405099, -0.140502779), (0.171880227, 0.16405099, -0.140502779), (0.281233318, 0.0390892462, -0.156168371), (0.250001779, 0.132776746, -0.171769906), (0.265617549, -0.00782211973, 0.18739991), (0.328123332, 0.0390892462, 0.359258785), (0.144719891, -0.0502850554, -0.49518146), (-0.218763123, 0.257802547, 0.5), (-0.265610431, -0.00782211973, -0.296873999), (-0.265610431, 0.0546836632, -0.296873999), (-0.328094862, 0.0703421377, 0.5), (-0.281233318, -0.00782211973, 0.468718639), (-0.187510231, 0.117189446, -0.234318394), (-0.187510231, 0.210926768, 0.5), (-0.203147353, 0.179645407, -0.296873999), (-0.218763123, 0.00780788475, -0.281194172), (-0.296849088, 0.16402252, 0.468718639), (-0.328094862, -0.00782211973, 0.5), (-0.187510231, 0.257802547, 0.374959964), (-0.187510231, 0.179645407, -0.296873999), (-0.250008897, 0.117189446, -0.234318394), (-0.265610431, 0.210926768, 0.468718639), (-0.312471975, 0.132790981, 0.484320173), (-0.23438601, -0.00782211973, -0.296873999), (-0.328094862, 0.0703421377, 0.468718639), (-0.187510231, 0.179645407, 0.328077068), (-0.281233318, -0.00782211973, -0.140559719), (-0.218763123, 0.16402252, -0.281194172), (-0.265610431, -0.00782211973, 0.28120129), (-0.218763123, 0.257802547, 0.468718639), (-0.296849088, -0.00782211973, 0.5), (-0.187510231, 0.257802547, 0.5), (-0.187510231, 0.117189446, -0.296873999), (-0.296849088, 0.16402252, 0.5), (-0.203147353, 0.257802547, 0.374959964), (-0.328094862, -0.00782211973, 0.468718639), (-0.250008897, 0.101566559, -0.296873999), (-0.23438601, -0.00782211973, -0.187435498), (-0.312471975, 0.101566559, 0.374959964), (-0.265610431, 0.0703421377, -0.249991103), (-0.281233318, 0.00780788475, -0.140559719), (0.144719891, -0.0502850554, -0.49518146), (0.312493327, -0.148442338, 0.5), (0.156271575, -0.195318116, -0.203122442), (0.203154471, -0.195318116, -0.203122442), (0.249994662, -0.00782211973, -0.203122442), (0.296863323, -0.00782211973, 0.5), (0.234400245, -0.195318116, 0.5), (0.281240436, -0.0390750112, -0.18742838), (0.328123332, -0.00782211973, 0.359315725), (0.156271575, -0.179680994, -0.171805493), (0.281240436, -0.195318116, 0.390497441), (0.249994662, -0.148442338, -0.171805493), (0.203154471, -0.179680994, 0.312447064), (0.265624666, -0.00782211973, 0.20301568), (0.328123332, -0.101566559, 0.468683051), (0.328123332, -0.00782211973, 0.5), (0.265624666, -0.101566559, -0.203122442), (0.281240436, -0.00782211973, -0.18742838), (0.249994662, -0.00782211973, -0.0155766233), (0.312493327, -0.132805216, 0.374938612), (0.328123332, -0.0703492552, 0.374938612), (0.21877024, -0.195318116, -0.171805493), (0.281240436, -0.195318116, 0.5), (0.281240436, -0.00782211973, 0.374938612), (0.234400245, -0.179680994, 0.5), (0.203154471, -0.195318116, 0.312447064), (0.328123332, -0.0859721422, 0.406191503), (0.234400245, -0.179680994, -0.140559719), (0.234400245, -0.164065225, -0.203122442), (0.156271575, -0.179680994, -0.203122442), (0.328123332, -0.101566559, 0.5), (0.296863323, -0.179680994, 0.468683051), (0.187524466, -0.179680994, 0.156211076), (0.281240436, -0.0703492552, -0.124936832), (0.265624666, -0.117189446, -0.156182606), (0.328123332, -0.0546978982, 0.359315725), (0.296863323, -0.164065225, 0.374938612), (0.144719891, -0.0502850554, -0.49518146), (0.109410031, -0.320294095, 0.374938612), (0.281254671, -0.195318116, 0.5), (0.281254671, -0.210969473, 0.5), (0.187481761, -0.195318116, -0.203122442), (2.46937484e-17, -0.289048321, 0.453060164), (2.46937484e-17, -0.289048321, -0.171805493), (0.015637122, -0.242215247, -0.18742838), (0.140627335, -0.257831017, -0.171805493), (0.218727535, -0.195318116, 0.5), (2.46937484e-17, -0.335931217, 0.5), (0.171873109, -0.304671208, 0.5), (0.140627335, -0.195318116, -0.124936832), (0.203118883, -0.210969473, -0.171805493), (0.218727535, -0.273425434, 0.468683051), (0.0938013794, -0.273425434, -0.203122442), (0.0781642574, -0.335931217, 0.468683051), (2.46937484e-17, -0.257831017, 0.0157403256), (2.46937484e-17, -0.257831017, -0.203122442), (2.46937484e-17, -0.304671208, 0.5), (2.46937484e-17, -0.335931217, 0.42181439), (0.0312742439, -0.289048321, -0.171805493), (0.140627335, -0.320294095, 0.484234763), (0.187481761, -0.195318116, 0.296824177), (0.140627335, -0.195318116, -0.203122442), (0.203118883, -0.195318116, -0.171805493), (0.281254671, -0.210969473, 0.484234763), (2.46937484e-17, -0.273425434, 0.249884341), (0.171873109, -0.242215247, -0.124936832), (0.156235987, -0.242215247, -0.203122442), (0.171873109, -0.304671208, 0.484234763), (0.0781642574, -0.335931217, 0.5), (0.265610431, -0.22659236, 0.468683051), (2.46937484e-17, -0.273425434, -0.203122442), (0.0625484879, -0.289048321, -0.10924277), (0.015637122, -0.335931217, 0.42181439), (0.218727535, -0.273425434, 0.5), (0.144719891, -0.0502850554, -0.49518146), (-0.187460409, -0.210969473, -0.218745329), (2.46937484e-17, -0.304671208, 0.499928825), (2.46937484e-17, -0.335931217, 0.499928825), (-0.265617549, -0.195318116, 0.499928825), (-0.015622887, -0.242215247, -0.218745329), (-0.125011566, -0.320294095, 0.468618994), (-0.0312528915, -0.289048321, -0.171755671), (-0.203111766, -0.195318116, 0.499928825), (-0.140605983, -0.195318116, -0.218745329), (-0.187460409, -0.289048321, 0.499928825), (-0.0937800269, -0.273425434, -0.218745329), (2.46937484e-17, -0.273425434, 0.26552858), (2.46937484e-17, -0.289048321, -0.171755671), (-0.203111766, -0.210969473, -0.171755671), (-0.0781571399, -0.335931217, 0.484241881), (-0.265617549, -0.210969473, 0.468618994), (-0.140605983, -0.257831017, -0.171755671), (-0.203111766, -0.195318116, -0.171755671), (2.46937484e-17, -0.257831017, 0.0157189731), (-0.140605983, -0.195318116, -0.109285475), (-0.234364657, -0.242215247, 0.406155916), (2.46937484e-17, -0.289048321, 0.437387455), (2.46937484e-17, -0.335931217, 0.437387455), (2.46937484e-17, -0.273425434, -0.218745329), (-0.187460409, -0.289048321, 0.484241881), (-0.187460409, -0.22659236, -0.156139901), (-0.015622887, -0.242215247, -0.18737144), (-0.187460409, -0.195318116, 0.374917259), (-0.156235987, -0.242215247, -0.218745329), (-0.0781571399, -0.335931217, 0.499928825), (2.46937484e-17, -0.257831017, -0.218745329), (-0.171837522, -0.289048321, 0.374917259), (-0.015622887, -0.289048321, 0.484241881), (-0.265617549, -0.210969473, 0.499928825), (-0.187460409, -0.195318116, -0.218745329), (-0.015622887, -0.335931217, 0.437387455), (-0.109381561, -0.273425434, -0.156139901), (-0.265617549, -0.195318116, 0.468618994), (0.144719891, -0.0502850554, -0.49518146), (0.156235987, 0.226549655, -0.234375334), (0.109402914, -0.00782211973, -0.5), (0.249987544, -0.00782211973, -0.5), (0.0469042484, 0.24217966, -0.5), (0.0156300045, -0.00782211973, -0.312504004), (0.265624666, -0.00782211973, -0.234375334), (0.0156300045, 0.257802547, -0.234375334), (0.203126001, 0.16402252, -0.468747109), (0.0156300045, -0.00782211973, -0.484369996), (0.249987544, 0.117189446, -0.234375334), (0.0156300045, 0.24217966, -0.5), (0.249987544, 0.0703421377, -0.484369996), (0.109402914, 0.226549655, -0.5), (0.21874177, -0.00782211973, -0.234375334), (0.0781500224, 0.257802547, -0.281251112), (0.0156300045, 0.226549655, -0.234375334), (0.265624666, 0.0546836632, -0.328155361), (0.234378892, 0.101566559, -0.5), (0.234378892, 0.148420985, -0.249998221), (0.265624666, -0.00782211973, -0.406212856), (0.187488879, 0.179645407, -0.484369996), (0.0156300045, 0.117189446, -0.5), (0.0156300045, 0.257802547, -0.3593869), (0.125040036, 0.226549655, -0.453117104), (0.265624666, 0.0703421377, -0.234375334), (0.203126001, 0.179645407, -0.328155361), (0.234378892, 0.117189446, -0.453117104), (0.0781500224, 0.257802547, -0.234375334), (0.0781500224, 0.24217966, -0.468747109), (0.125040036, 0.24217966, -0.265628225), (0.249987544, 0.117189446, -0.265628225), (0.0469042484, 0.257802547, -0.3593869), (0.171880227, 0.210926768, -0.296881117), (0.156235987, 0.210926768, -0.421864213), (0.265624666, 0.0703421377, -0.281251112), (0.203126001, 0.148420985, -0.5), (0.144719891, -0.0502850554, -0.49518146), (-0.234321952, 0.101566559, -0.484369996), (0.0156300045, 0.257802547, -0.296873999), (0.0156300045, 0.257802547, -0.375016904), (0.0156300045, -0.00782211973, -0.312504004), (-0.265596196, -0.00782211973, -0.296873999), (0.0156300045, -0.00782211973, -0.484369996), (-0.187467526, 0.195296764, -0.296873999), (-0.0469184834, 0.24217966, -0.5), (-0.249959074, -0.00782211973, -0.5), (0.0156300045, 0.24217966, -0.5), (-0.15622887, 0.195296764, -0.5), (-0.109402914, 0.24217966, -0.328148243), (-0.265596196, 0.0546836632, -0.296873999), (0.0156300045, 0.132790981, -0.5), (-0.234321952, 0.132790981, -0.343778248), (-0.0625200179, 0.257802547, -0.296873999), (-0.203076178, 0.148420985, -0.5), (-0.140591748, -0.00782211973, -0.5), (-0.124983096, 0.226549655, -0.4374871), (-0.249959074, 0.0703421377, -0.468718639), (0.0156300045, 0.210926768, -0.296873999), (-0.2187133, -0.00782211973, -0.296873999), (-0.171837522, 0.195296764, -0.453109987), (-0.265596196, 0.00780788475, -0.375016904), (-0.0781571399, 0.24217966, -0.468718639), (-0.2187133, 0.148420985, -0.406212856), (-0.249959074, 0.101566559, -0.296873999), (-0.249959074, 0.0390607762, -0.5), (-0.140591748, 0.226549655, -0.343778248), (-0.0469184834, 0.257802547, -0.343778248), (-0.140591748, 0.226549655, -0.296873999), (-0.234321952, 0.117189446, -0.4374871), (-0.249959074, 0.101566559, -0.328148243), (-0.109402914, 0.226549655, -0.484369996), (0.144719891, -0.0502850554, -0.49518146), (0.187495996, -0.210933886, -0.328141126), (0.265624666, -0.00782211973, -0.203122442), (0.234371775, -0.00782211973, -0.203122442), (0.109388679, -0.00782211973, -0.5), (2.46937484e-17, -0.273439669, -0.203122442), (2.46937484e-17, -0.00782211973, -0.312504004), (2.46937484e-17, -0.257816782, -0.5), (0.250001779, -0.0703492552, -0.5), (0.234371775, -0.164058107, -0.203122442), (2.46937484e-17, -0.00782211973, -0.484362878), (0.125040036, -0.242186777, -0.484362878), (0.0937586744, -0.273439669, -0.203122442), (0.250001779, -0.00782211973, -0.5), (0.218748888, -0.148428103, -0.5), (0.265624666, -0.101602147, -0.234389569), (2.46937484e-17, -0.242186777, -0.203122442), (0.0312528915, -0.273439669, -0.406191503), (0.265624666, -0.00782211973, -0.406191503), (0.156243105, -0.242186777, -0.203122442), (0.218748888, -0.164058107, -0.453095752), (0.062505783, -0.257816782, -0.5), (0.171865992, -0.210933886, -0.484362878), (2.46937484e-17, -0.148428103, -0.5), (0.250001779, -0.101602147, -0.4374871), (0.0937586744, -0.257816782, -0.453095752), (0.234371775, -0.164058107, -0.265663813), (0.156243105, -0.242186777, -0.250026691), (0.265624666, -0.0546978982, -0.374981317), (2.46937484e-17, -0.273439669, -0.406191503), (0.265624666, -0.101602147, -0.203122442), (0.125040036, -0.257816782, -0.281265347), (0.1406131, -0.22656389, -0.5), (0.234371775, -0.132855038, -0.468725756), (0.0937586744, -0.273439669, -0.234389569), (0.203118883, -0.195310999, -0.34377113), (0.250001779, -0.132855038, -0.281265347), (0.203118883, -0.179680994, -0.484362878), (0.156243105, -0.22656389, -0.453095752), (0.144719891, -0.0502850554, -0.49518146), (-0.265617549, -0.0546978982, -0.343792483), (-0.015622887, -0.273439669, -0.406227091), (2.46937484e-17, -0.273439669, -0.406227091), (2.46937484e-17, -0.273439669, -0.218752447), (2.46937484e-17, -0.00782211973, -0.484362878), (-0.21874177, -0.148428103, -0.5), (-0.234364657, -0.00782211973, -0.218752447), (-0.156235987, -0.242186777, -0.218752447), (2.46937484e-17, -0.00782211973, -0.312518239), (-0.249994662, -0.00782211973, -0.5), (-0.0468757785, -0.257816782, -0.5), (-0.249994662, -0.132855038, -0.218752447), (-0.125011566, -0.242186777, -0.484362878), (2.46937484e-17, -0.257816782, -0.5), (-0.265617549, -0.00782211973, -0.218752447), (-0.0781571399, -0.273439669, -0.281300935), (2.46937484e-17, -0.242186777, -0.218752447), (-0.203111766, -0.179680994, -0.484362878), (-0.249994662, -0.0859792596, -0.484362878), (2.46937484e-17, -0.148428103, -0.5), (-0.234364657, -0.164058107, -0.234389569), (-0.140605983, -0.00782211973, -0.5), (-0.187460409, -0.210933886, -0.328155361), (-0.265617549, -0.0859792596, -0.218752447), (-0.0781571399, -0.273439669, -0.218752447), (-0.0937800269, -0.257816782, -0.453109987), (-0.265617549, -0.00782211973, -0.374952847), (-0.234364657, -0.132855038, -0.453109987), (-0.125011566, -0.257816782, -0.265663813), (-0.171837522, -0.210933886, -0.484362878), (-0.140605983, -0.22656389, -0.5), (-0.265617549, -0.0859792596, -0.265663813), (-0.156235987, -0.242186777, -0.250026691), (-0.249994662, -0.132855038, -0.250026691), (-0.249994662, -0.0546978982, -0.5), (-0.0468757785, -0.273439669, -0.374952847), (-0.0781571399, -0.257816782, -0.484362878)]
        int[] faceVertexCounts = [3, 3, 3, 3, 3, 3, 3, 3, 3, 3, 3, 3, 3, 3, 3, 3, 3, 3, 3, 3, 3, 3, 3, 3, 3, 3, 3, 3, 3, 3, 3, 3, 3, 3, 3, 3, 3, 3, 3, 3, 3, 3, 3, 3, 3, 3, 3, 3, 3, 3, 3, 3, 3, 3, 3, 3, 3, 3, 3, 3, 3, 3, 3, 3, 3, 3, 3, 3, 3, 3, 3, 3, 3, 3, 3, 3, 3, 3, 3, 3, 3, 3, 3, 3, 3, 3, 3, 3, 3, 3, 3, 3, 3, 3, 3, 3, 3, 3, 3, 3, 3, 3, 3, 3, 3, 3, 3, 3, 3, 3, 3, 3, 3, 3, 3, 3, 3, 3, 3, 3, 3, 3, 3, 3, 3, 3, 3, 3, 3, 3, 3, 3, 3, 3, 3, 3, 3, 3, 3, 3, 3, 3, 3, 3, 3, 3, 3, 3, 3, 3, 3, 3, 3, 3, 3, 3, 3, 3, 3, 3, 3, 3, 3, 3, 3, 3, 3, 3, 3, 3, 3, 3, 3, 3, 3, 3, 3, 3, 3, 3, 3, 3, 3, 3, 3, 3, 3, 3, 3, 3, 3, 3, 3, 3, 3, 3, 3, 3, 3, 3, 3, 3, 3, 3, 3, 3, 3, 3, 3, 3, 3, 3, 3, 3, 3, 3, 3, 3, 3, 3, 3, 3, 3, 3, 3, 3, 3, 3, 3, 3, 3, 3, 3, 3, 3, 3, 3, 3, 3, 3, 3, 3, 3, 3, 3, 3, 3, 3, 3, 3, 3, 3, 3, 3, 3, 3, 3, 3, 3, 3, 3, 3, 3, 3, 3, 3, 3, 3, 3, 3, 3, 3, 3, 3, 3, 3, 3, 3, 3, 3, 3, 3, 3, 3, 3, 3, 3, 3, 3, 3, 3, 3, 3, 3, 3, 3, 3, 3, 3, 3, 3, 3, 3, 3, 3, 3, 3, 3, 3, 3, 3, 3, 3, 3, 3, 3, 3, 3, 3, 3, 3, 3, 3, 3, 3, 3, 3, 3, 3, 3, 3, 3, 3, 3, 3, 3, 3, 3, 3, 3, 3, 3, 3, 3, 3, 3, 3, 3, 3, 3, 3, 3, 3, 3, 3, 3, 3, 3, 3, 3, 3, 3, 3, 3, 3, 3, 3, 3, 3, 3, 3, 3, 3, 3, 3, 3, 3, 3, 3, 3, 3, 3, 3, 3, 3, 3, 3, 3, 3, 3, 3, 3, 3, 3, 3, 3, 3, 3, 3, 3, 3, 3, 3, 3, 3, 3, 3, 3, 3, 3, 3, 3, 3, 3, 3, 3, 3, 3, 3, 3, 3, 3, 3, 3, 3, 3, 3, 3, 3, 3, 3, 3, 3, 3, 3, 3, 3, 3, 3, 3, 3, 3, 3, 3, 3, 3, 3, 3, 3, 3, 3, 3, 3, 3, 3, 3, 3, 3, 3, 3, 3, 3, 3, 3, 3, 3, 3, 3, 3, 3, 3, 3, 3, 3, 3, 3, 3, 3, 3, 3, 3, 3, 3, 3, 3, 3, 3, 3, 3, 3, 3, 3, 3, 3, 3, 3, 3, 3, 3, 3, 3, 3, 3, 3, 3, 3, 3, 3, 3, 3, 3, 3, 3, 3, 3, 3, 3, 3, 3, 3, 3, 3, 3, 3, 3, 3, 3, 3, 3, 3, 3, 3, 3, 3, 3, 3, 3, 3, 3, 3, 3, 3, 3, 3, 3, 3, 3, 3, 3, 3, 3, 3, 3, 3, 3, 3, 3, 3, 3, 3, 3, 3, 3, 3, 3, 3, 3, 3, 3, 3, 3, 3, 3, 3, 3, 3, 3, 3, 3, 3, 3, 3, 3, 3, 3, 3, 3, 3, 3, 3, 3, 3, 3, 3, 3, 3, 3, 3, 3, 3, 3, 3, 3, 3, 3, 3, 3, 3, 3, 3, 3, 3, 3, 3, 3, 3, 3, 3, 3, 3, 3, 3, 3, 3, 3, 3, 3, 3, 3, 3, 3, 3, 3, 3, 3, 3, 3, 3, 3, 3, 3, 3, 3, 3, 3, 3, 3, 3, 3, 3, 3, 3, 3, 3, 3, 3, 3, 3, 3, 3, 3, 3, 3, 3, 3, 3, 3, 3, 3, 3, 3, 3, 3, 3, 3, 3, 3, 3, 3, 3, 3, 3, 3, 3, 3, 3, 3, 3, 3, 3, 3, 3, 3, 3, 3, 3, 3, 3, 3, 3, 3, 3, 3, 3, 3, 3, 3, 3, 3, 3, 3, 3, 3, 3, 3, 3, 3, 3, 3, 3, 3, 3, 3, 3, 3, 3, 3, 3, 3, 3, 3, 3, 3, 3, 3, 3, 3, 3, 3, 3, 3, 3, 3, 3, 3, 3, 3, 3, 3, 3, 3, 3, 3, 3, 3, 3, 3, 3, 3, 3, 3, 3, 3, 3, 3, 3, 3, 3, 3, 3, 3, 3, 3, 3, 3, 3, 3, 3, 3, 3, 3, 3, 3, 3, 3, 3, 3, 3, 3, 3, 3, 3, 3, 3, 3, 3, 3, 3, 3, 3, 3, 3, 3, 3, 3, 3, 3, 3, 3, 3, 3, 3, 3, 3, 3, 3, 3, 3, 3, 3, 3, 3, 3, 3, 3, 3, 3, 3, 3, 3, 3, 3, 3, 3, 3, 3, 3, 3, 3, 3, 3, 3, 3, 3, 3, 3, 3, 3, 3, 3, 3, 3, 3, 3, 3, 3, 3, 3, 3, 3, 3, 3, 3, 3, 3, 3, 3, 3, 3, 3, 3, 3, 3, 3, 3, 3, 3, 3, 3, 3, 3, 3, 3, 3]
        int[] faceVertexIndices = [16, 11, 27, 3, 2, 4, 2, 3, 6, 1, 5, 6, 4, 2, 7, 6, 3, 9, 5, 1, 11, 4, 7, 11, 2, 6, 12, 6, 5, 12, 8, 2, 12, 7, 2, 14, 2, 8, 14, 4, 1, 15, 9, 13, 15, 10, 8, 16, 5, 11, 16, 3, 4, 17, 1, 6, 18, 6, 9, 18, 15, 1, 18, 12, 5, 19, 8, 12, 19, 4, 15, 20, 15, 13, 20, 17, 4, 20, 5, 16, 21, 16, 8, 21, 19, 5, 21, 8, 19, 21, 9, 15, 22, 18, 9, 22, 15, 18, 22, 9, 3, 23, 13, 9, 23, 3, 17, 23, 20, 13, 23, 17, 20, 23, 7, 14, 24, 14, 10, 24, 16, 7, 24, 10, 16, 24, 1, 4, 25, 11, 1, 25, 4, 11, 25, 8, 10, 26, 14, 8, 26, 10, 14, 26, 11, 7, 27, 7, 16, 27, 37, 49, 59, 30, 31, 32, 31, 30, 33, 31, 33, 34, 32, 31, 35, 32, 29, 36, 37, 36, 39, 29, 32, 40, 32, 35, 40, 34, 33, 42, 38, 29, 44, 29, 40, 44, 36, 29, 45, 29, 42, 45, 29, 38, 46, 38, 41, 46, 42, 29, 46, 33, 30, 47, 30, 37, 47, 32, 36, 49, 41, 34, 50, 34, 42, 50, 46, 41, 50, 42, 46, 50, 33, 39, 51, 39, 36, 51, 42, 33, 51, 36, 45, 51, 45, 42, 51, 31, 34, 52, 35, 31, 52, 34, 41, 52, 41, 43, 52, 48, 35, 52, 43, 48, 52, 37, 32, 53, 32, 49, 53, 49, 37, 53, 41, 38, 54, 43, 41, 54, 38, 48, 54, 48, 43, 54, 39, 33, 55, 33, 47, 55, 47, 39, 55, 40, 35, 56, 38, 44, 56, 44, 40, 56, 35, 48, 56, 48, 38, 56, 30, 32, 57, 37, 30, 57, 32, 37, 57, 37, 39, 58, 47, 37, 58, 39, 47, 58, 36, 37, 59, 49, 36, 59, 74, 83, 87, 63, 66, 67, 64, 65, 68, 65, 64, 69, 66, 69, 70, 67, 66, 70, 62, 63, 71, 63, 67, 71, 64, 68, 71, 69, 61, 75, 70, 69, 75, 61, 72, 75, 73, 67, 75, 72, 73, 75, 69, 64, 76, 64, 72, 76, 72, 61, 76, 68, 65, 77, 65, 74, 77, 71, 67, 78, 64, 71, 78, 67, 73, 78, 77, 62, 79, 68, 77, 79, 61, 69, 80, 76, 61, 80, 69, 76, 80, 62, 71, 81, 71, 68, 81, 79, 62, 81, 68, 79, 81, 65, 69, 82, 69, 66, 82, 66, 63, 83, 74, 66, 83, 67, 70, 84, 70, 75, 84, 75, 67, 84, 74, 65, 85, 66, 74, 85, 65, 82, 85, 82, 66, 85, 72, 64, 86, 73, 72, 86, 64, 78, 86, 78, 73, 86, 63, 62, 87, 62, 77, 87, 77, 74, 87, 83, 63, 87, 106, 101, 114, 93, 94, 95, 91, 92, 96, 93, 95, 96, 92, 91, 97, 95, 94, 98, 92, 97, 98, 96, 95, 99, 92, 98, 100, 92, 100, 102, 91, 96, 103, 99, 91, 103, 96, 99, 103, 96, 92, 104, 93, 96, 104, 92, 102, 104, 98, 94, 105, 94, 100, 105, 100, 98, 105, 98, 90, 106, 95, 98, 106, 90, 101, 106, 91, 90, 107, 97, 91, 107, 90, 97, 107, 102, 100, 109, 89, 104, 109, 104, 102, 109, 108, 89, 109, 100, 108, 109, 99, 95, 110, 95, 101, 110, 101, 99, 110, 97, 90, 111, 90, 98, 111, 98, 97, 111, 90, 91, 112, 91, 99, 112, 101, 90, 112, 99, 101, 112, 94, 93, 113, 100, 94, 113, 104, 89, 113, 93, 104, 113, 89, 108, 113, 108, 100, 113, 101, 95, 114, 95, 106, 114, 147, 137, 154, 118, 117, 119, 118, 122, 123, 122, 118, 124, 119, 116, 125, 119, 117, 126, 116, 119, 127, 119, 125, 130, 119, 126, 132, 127, 119, 132, 120, 127, 132, 120, 126, 133, 116, 121, 134, 123, 122, 134, 129, 123, 134, 117, 118, 135, 118, 123, 135, 123, 129, 135, 122, 125, 136, 125, 116, 136, 116, 134, 136, 120, 133, 137, 117, 135, 138, 122, 124, 139, 125, 122, 139, 124, 130, 139, 130, 125, 139, 127, 120, 140, 131, 127, 140, 126, 120, 141, 132, 126, 141, 120, 132, 141, 124, 119, 142, 119, 130, 142, 130, 124, 142, 126, 117, 143, 133, 126, 143, 117, 138, 143, 138, 129, 143, 121, 133, 144, 133, 143, 144, 143, 129, 144, 135, 129, 145, 129, 138, 145, 138, 135, 145, 116, 127, 146, 131, 116, 146, 127, 131, 146, 121, 128, 147, 118, 119, 148, 124, 118, 148, 119, 124, 148, 134, 122, 149, 122, 136, 149, 136, 134, 149, 120, 128, 150, 128, 131, 150, 140, 120, 150, 131, 140, 150, 121, 116, 151, 128, 121, 151, 116, 131, 151, 131, 128, 151, 134, 121, 152, 129, 134, 152, 121, 144, 152, 144, 129, 152, 128, 120, 153, 120, 137, 153, 147, 128, 153, 137, 147, 153, 133, 121, 154, 137, 133, 154, 121, 147, 154, 168, 169, 186, 158, 157, 159, 157, 158, 161, 160, 156, 161, 158, 159, 163, 161, 158, 164, 159, 156, 165, 159, 157, 166, 156, 159, 166, 158, 163, 168, 160, 164, 169, 157, 161, 170, 167, 162, 170, 161, 167, 170, 160, 161, 171, 164, 160, 171, 161, 164, 171, 163, 159, 172, 162, 157, 174, 157, 170, 174, 156, 166, 175, 162, 167, 175, 167, 156, 175, 165, 160, 176, 160, 169, 176, 169, 163, 176, 173, 165, 176, 163, 173, 176, 161, 156, 177, 156, 167, 177, 167, 161, 177, 164, 158, 178, 158, 168, 178, 168, 164, 178, 156, 160, 179, 165, 156, 179, 160, 165, 179, 157, 162, 180, 166, 157, 180, 162, 166, 180, 159, 165, 181, 172, 159, 181, 165, 173, 181, 173, 172, 181, 166, 162, 182, 175, 166, 182, 162, 175, 182, 168, 163, 183, 169, 168, 183, 163, 169, 183, 163, 172, 184, 172, 173, 184, 173, 163, 184, 170, 162, 185, 162, 174, 185, 174, 170, 185, 164, 168, 186, 169, 164, 186, 207, 205, 221, 188, 191, 194, 189, 190, 195, 189, 192, 198, 194, 191, 198, 194, 193, 199, 195, 199, 200, 189, 195, 200, 199, 193, 200, 197, 201, 203, 192, 189, 204, 189, 200, 204, 198, 191, 205, 191, 203, 205, 193, 194, 206, 196, 193, 206, 190, 189, 207, 189, 198, 207, 201, 197, 208, 202, 195, 208, 197, 202, 208, 194, 192, 209, 192, 204, 209, 206, 194, 209, 196, 206, 209, 188, 199, 210, 202, 188, 210, 195, 202, 210, 192, 194, 211, 198, 192, 211, 194, 198, 211, 188, 194, 212, 199, 188, 212, 194, 199, 212, 193, 196, 213, 200, 193, 213, 196, 204, 213, 204, 200, 213, 191, 188, 214, 188, 202, 214, 202, 197, 214, 197, 203, 214, 203, 191, 214, 199, 195, 215, 210, 199, 215, 195, 210, 215, 198, 205, 216, 207, 198, 216, 205, 207, 216, 195, 190, 217, 203, 201, 217, 208, 195, 217, 201, 208, 217, 204, 196, 218, 209, 204, 218, 196, 209, 218, 190, 205, 219, 205, 203, 219, 217, 190, 220, 203, 217, 220, 190, 219, 220, 219, 203, 220, 205, 190, 221, 190, 207, 221, 253, 232, 258, 225, 224, 226, 224, 225, 228, 223, 227, 228, 226, 227, 230, 228, 225, 232, 227, 226, 235, 227, 223, 237, 230, 227, 237, 236, 230, 237, 225, 226, 238, 226, 230, 239, 230, 229, 239, 238, 226, 239, 229, 238, 239, 226, 231, 240, 231, 235, 240, 235, 226, 240, 236, 223, 241, 230, 236, 242, 232, 225, 243, 223, 228, 244, 228, 232, 244, 234, 227, 245, 235, 231, 245, 227, 235, 245, 228, 227, 246, 234, 228, 246, 227, 234, 246, 224, 228, 247, 231, 224, 247, 228, 234, 247, 236, 241, 248, 241, 238, 248, 242, 236, 248, 233, 232, 249, 232, 243, 249, 249, 243, 250, 225, 238, 250, 238, 233, 250, 243, 225, 250, 233, 249, 250, 226, 224, 251, 224, 231, 251, 231, 226, 251, 223, 236, 252, 237, 223, 252, 236, 237, 252, 241, 223, 253, 223, 244, 253, 244, 232, 253, 234, 245, 254, 245, 231, 254, 231, 247, 254, 247, 234, 254, 238, 229, 255, 229, 242, 255, 248, 238, 255, 242, 248, 255, 233, 238, 256, 241, 233, 256, 238, 241, 256, 229, 230, 257, 242, 229, 257, 230, 242, 257, 232, 233, 258, 233, 241, 258, 241, 253, 258, 273, 291, 295, 262, 261, 268, 261, 263, 268, 264, 265, 269, 262, 268, 269, 262, 269, 270, 268, 263, 271, 274, 260, 275, 265, 264, 276, 263, 274, 277, 265, 276, 277, 276, 266, 277, 268, 264, 278, 264, 269, 278, 269, 268, 278, 269, 265, 279, 275, 269, 279, 265, 274, 280, 279, 265, 280, 260, 274, 281, 274, 267, 281, 275, 260, 281, 271, 266, 282, 268, 271, 282, 266, 276, 282, 271, 263, 283, 266, 271, 283, 263, 277, 283, 277, 266, 283, 263, 261, 284, 272, 263, 284, 272, 284, 285, 261, 262, 285, 284, 261, 285, 264, 268, 286, 276, 264, 286, 268, 282, 286, 282, 276, 286, 273, 267, 287, 272, 273, 287, 263, 272, 288, 274, 263, 288, 267, 274, 288, 287, 267, 288, 272, 287, 288, 267, 273, 289, 273, 270, 289, 281, 267, 289, 270, 281, 289, 270, 269, 290, 269, 275, 290, 281, 270, 290, 275, 281, 290, 273, 272, 291, 272, 285, 291, 285, 262, 291, 274, 265, 292, 265, 277, 292, 277, 274, 292, 274, 275, 293, 275, 280, 293, 280, 274, 293, 275, 279, 294, 280, 275, 294, 279, 280, 294, 262, 270, 295, 270, 273, 295, 291, 262, 295, 314, 312, 334, 299, 298, 300, 300, 298, 304, 301, 297, 305, 300, 304, 305, 299, 300, 306, 297, 301, 307, 298, 299, 308, 303, 307, 309, 308, 299, 309, 302, 307, 311, 307, 303, 311, 300, 305, 314, 297, 310, 314, 310, 312, 314, 304, 308, 315, 308, 309, 315, 301, 305, 316, 305, 304, 316, 312, 310, 317, 298, 308, 318, 308, 304, 318, 309, 299, 319, 303, 309, 319, 299, 311, 319, 307, 301, 320, 309, 307, 320, 315, 309, 320, 302, 306, 321, 306, 317, 321, 321, 317, 322, 317, 310, 322, 313, 321, 322, 315, 301, 323, 301, 316, 323, 323, 316, 324, 304, 315, 324, 316, 304, 324, 315, 323, 324, 297, 307, 325, 310, 297, 325, 307, 313, 325, 322, 310, 325, 313, 322, 325, 299, 306, 326, 306, 302, 326, 311, 299, 326, 302, 311, 326, 301, 315, 327, 320, 301, 327, 315, 320, 327, 313, 302, 328, 302, 321, 328, 321, 313, 328, 304, 298, 329, 298, 318, 329, 318, 304, 329, 306, 300, 330, 300, 312, 330, 317, 306, 330, 312, 317, 330, 305, 297, 331, 297, 314, 331, 314, 305, 331, 311, 303, 332, 303, 319, 332, 319, 311, 332, 307, 302, 333, 302, 313, 333, 313, 307, 333, 312, 300, 334, 300, 314, 334, 356, 343, 371, 338, 337, 339, 337, 338, 340, 340, 338, 341, 341, 336, 342, 337, 340, 344, 340, 342, 344, 336, 341, 345, 339, 337, 346, 344, 342, 346, 338, 339, 348, 340, 341, 349, 341, 342, 349, 342, 340, 351, 340, 349, 351, 349, 342, 351, 347, 338, 353, 338, 348, 353, 336, 345, 354, 341, 338, 355, 338, 347, 355, 352, 341, 355, 347, 352, 355, 337, 344, 357, 346, 337, 357, 344, 346, 357, 339, 346, 358, 346, 342, 358, 342, 350, 358, 356, 348, 359, 345, 341, 360, 341, 352, 360, 354, 343, 361, 343, 356, 361, 353, 343, 362, 347, 353, 362, 343, 354, 362, 342, 336, 363, 350, 342, 363, 348, 339, 364, 350, 359, 364, 359, 348, 364, 336, 359, 365, 359, 350, 365, 363, 336, 365, 350, 363, 365, 354, 345, 366, 345, 360, 366, 347, 362, 366, 362, 354, 366, 339, 358, 367, 358, 350, 367, 364, 339, 367, 350, 364, 367, 336, 354, 368, 354, 361, 368, 361, 356, 368, 359, 336, 369, 356, 359, 369, 336, 368, 369, 368, 356, 369, 352, 347, 370, 360, 352, 370, 347, 366, 370, 366, 360, 370, 343, 353, 371, 353, 348, 371, 348, 356, 371, 391, 397, 406, 375, 374, 376, 375, 376, 378, 376, 377, 378, 377, 374, 379, 378, 377, 381, 381, 380, 382, 375, 378, 382, 380, 375, 382, 380, 381, 383, 377, 379, 385, 381, 382, 386, 382, 378, 386, 374, 375, 388, 379, 374, 388, 383, 381, 389, 378, 381, 390, 386, 378, 390, 381, 386, 390, 376, 374, 393, 374, 377, 393, 393, 377, 394, 377, 376, 394, 376, 393, 394, 383, 389, 395, 381, 377, 396, 377, 385, 396, 385, 392, 396, 384, 388, 397, 391, 384, 397, 387, 379, 398, 379, 395, 398, 395, 389, 398, 385, 379, 399, 379, 387, 399, 373, 389, 400, 389, 381, 400, 392, 373, 400, 381, 396, 400, 396, 392, 400, 384, 391, 401, 395, 379, 401, 391, 395, 401, 375, 380, 402, 388, 375, 402, 380, 397, 402, 397, 388, 402, 379, 388, 403, 388, 384, 403, 401, 379, 403, 384, 401, 403, 389, 373, 404, 373, 392, 404, 387, 398, 404, 398, 389, 404, 392, 385, 405, 385, 399, 405, 399, 387, 405, 404, 392, 405, 387, 404, 405, 380, 383, 406, 383, 395, 406, 395, 391, 406, 397, 380, 406, 408, 434, 445, 410, 409, 411, 409, 410, 412, 410, 411, 413, 412, 413, 414, 414, 411, 415, 409, 412, 416, 413, 411, 417, 414, 413, 417, 416, 412, 419, 411, 409, 420, 415, 411, 420, 414, 415, 421, 412, 410, 423, 410, 413, 423, 413, 412, 423, 419, 412, 424, 420, 409, 425, 415, 420, 425, 409, 422, 425, 416, 419, 426, 414, 421, 428, 424, 414, 428, 411, 414, 430, 417, 411, 430, 414, 417, 430, 428, 418, 432, 424, 428, 432, 416, 426, 433, 433, 426, 434, 415, 425, 435, 425, 422, 435, 431, 415, 435, 422, 431, 435, 412, 414, 436, 424, 412, 436, 414, 424, 436, 409, 416, 437, 422, 409, 437, 426, 419, 438, 432, 418, 438, 418, 434, 438, 434, 426, 438, 418, 428, 439, 428, 421, 439, 429, 418, 439, 421, 429, 439, 421, 415, 440, 415, 431, 440, 433, 427, 440, 419, 424, 441, 424, 432, 441, 438, 419, 441, 432, 438, 441, 408, 429, 442, 427, 433, 442, 434, 408, 442, 433, 434, 442, 431, 422, 443, 416, 433, 443, 437, 416, 443, 422, 437, 443, 440, 431, 443, 433, 440, 443, 429, 421, 444, 421, 440, 444, 440, 427, 444, 442, 429, 444, 427, 442, 444, 429, 408, 445, 418, 429, 445, 434, 418, 445, 448, 482, 483, 448, 449, 450, 450, 449, 451, 450, 453, 454, 450, 451, 455, 451, 453, 455, 453, 451, 456, 449, 448, 457, 452, 456, 457, 454, 453, 458, 451, 449, 460, 449, 457, 460, 457, 456, 460, 453, 456, 461, 458, 453, 461, 448, 450, 462, 453, 450, 463, 450, 455, 463, 455, 453, 463, 451, 460, 466, 460, 456, 466, 454, 458, 467, 456, 451, 468, 451, 466, 468, 466, 456, 468, 467, 464, 469, 461, 447, 470, 458, 461, 470, 450, 454, 471, 462, 450, 471, 447, 461, 473, 461, 456, 473, 465, 447, 473, 452, 464, 474, 465, 452, 474, 464, 467, 474, 471, 454, 475, 462, 471, 475, 459, 472, 475, 472, 462, 475, 469, 464, 476, 452, 457, 477, 464, 452, 477, 459, 476, 477, 476, 464, 477, 447, 465, 478, 470, 447, 478, 458, 470, 478, 454, 467, 479, 467, 469, 479, 475, 454, 479, 459, 475, 479, 476, 459, 479, 469, 476, 479, 467, 458, 480, 465, 474, 480, 474, 467, 480, 478, 465, 480, 458, 478, 480, 456, 452, 481, 452, 465, 481, 473, 456, 481, 465, 473, 481, 448, 462, 482, 462, 472, 482, 482, 472, 483, 457, 448, 483, 472, 459, 483, 477, 457, 483, 459, 477, 483]
        color3f[] primvars:displayColor = [(0.65, 0.68, 0.72)]
        uniform token subdivisionScheme = "none"
    }
}
