# Generated by AgenticSim AssetCompiler
mtllib default_material.mtl
v 0.144719891 -0.0502850554 -0.49518146
v 0.0156300045 0.335931217 0.484320173
v -0.0937444395 0.210926768 -0.296873999
v -0.0937444395 0.24217966 -0.296873999
v -0.0937444395 0.320294095 0.5
v 0.0156300045 0.273425434 0.374959964
v 0.0156300045 0.257802547 -0.296873999
v -0.0937444395 0.273425434 0.5
v -0.015622887 0.210926768 -0.281194172
v -0.0624986655 0.257802547 -0.296873999
v -0.078114435 0.24217966 0.218723977
v 0.0156300045 0.289026968 0.5
v 0.0156300045 0.22656389 -0.296873999
v -0.0624986655 0.320294095 0.374959964
v -0.0937444395 0.210926768 -0.171833963
v 2.46937484e-17 0.335931217 0.468718639
v -0.0624986655 0.257802547 0.374959964
v -0.0937444395 0.257802547 -0.203115325
v 0.0156300045 0.273425434 -0.171833963
v 0.0156300045 0.22656389 -0.203115325
v -0.0937444395 0.320294095 0.468718639
v 0.0156300045 0.257802547 0.20304415
v -0.015622887 0.273425434 -0.171833963
v -0.078114435 0.257802547 -0.265592638
v -0.0937444395 0.24217966 0.218723977
v 0.0156300045 0.320294095 0.5
v -0.078114435 0.210926768 -0.171833963
v -0.078114435 0.273425434 0.5
v 0.144719891 -0.0502850554 -0.49518146
v -0.0937444395 0.304678325 0.5
v -0.187495996 0.132805216 -0.296873999
v -0.187495996 0.195303881 -0.296873999
v -0.0937444395 0.195303881 -0.296873999
v -0.187495996 0.210955238 0.453117104
v -0.187495996 0.273418316 0.437437277
v -0.109374444 0.24217966 -0.296873999
v -0.0937444395 0.257788312 0.453117104
v -0.156243105 0.132805216 -0.281194172
v -0.125004448 0.304678325 0.390561499
v -0.171865992 0.195303881 0.34360031
v -0.0937444395 0.24217966 -0.296873999
v -0.171865992 0.289048321 0.468718639
v -0.187495996 0.226528303 0.5
v -0.156243105 0.226528303 -0.234318394
v -0.0937444395 0.304678325 0.35935843
v -0.109374444 0.257788312 0.5
v -0.140620218 0.304678325 0.5
v -0.187495996 0.132805216 -0.249991103
v -0.125004448 0.24217966 -0.249991103
v -0.0937444395 0.226528303 0.109285475
v -0.187495996 0.273418316 0.5
v -0.171865992 0.210955238 0.453117104
v -0.171865992 0.210955238 -0.281194172
v -0.0937444395 0.195303881 -0.265592638
v -0.156243105 0.289048321 0.374959964
v -0.187495996 0.195303881 0.34360031
v -0.109374444 0.257788312 -0.140559719
v -0.156243105 0.132805216 -0.296873999
v -0.171865992 0.132805216 -0.249991103
v -0.0937444395 0.24217966 0.296802824
v 0.144719891 -0.0502850554 -0.49518146
v -0.328123332 -0.0703065502 0.468618994
v -0.218756005 -0.101552324 -0.0780539363
v -0.218756005 -0.117182329 -0.0780539363
v -0.265631784 -0.00782923722 -0.218745329
v -0.281233318 -0.00782923722 0.484241881
v -0.265631784 -0.117182329 0.499928825
v -0.265631784 -0.117182329 -0.124901245
v -0.23438601 -0.00782923722 -0.218745329
v -0.328123332 -0.00782923722 0.499928825
v -0.312479092 -0.117182329 0.499928825
v -0.218756005 -0.117182329 -0.218745329
v -0.281233318 -0.0390750112 -0.140524132
v -0.265631784 -0.101552324 -0.202994327
v -0.250001779 -0.101552324 0.374917259
v -0.328123332 -0.0859365547 0.484241881
v -0.281233318 -0.00782923722 -0.140524132
v -0.265631784 -0.00782923722 0.28114435
v -0.250001779 -0.117182329 -0.218745329
v -0.23438601 -0.00782923722 -0.18737144
v -0.328123332 -0.00782923722 0.468618994
v -0.218756005 -0.0859365547 -0.218745329
v -0.296863323 -0.00782923722 0.499928825
v -0.250001779 -0.117182329 0.374917259
v -0.312479092 -0.117182329 0.468618994
v -0.265631784 -0.101552324 0.499928825
v -0.265631784 -0.0859365547 -0.218745329
v -0.23438601 -0.101552324 0.156203959
v 0.144719891 -0.0502850554 -0.49518146
v -0.296849088 -0.148449455 0.374917259
v -0.156250222 -0.179680994 -0.140524132
v -0.234364657 -0.117196564 0.249912811
v -0.249980427 -0.117196564 -0.218745329
v -0.281219083 -0.195318116 0.499928825
v -0.218763123 -0.195318116 -0.140524132
v -0.218763123 -0.195318116 0.499928825
v -0.312479092 -0.117196564 0.499928825
v -0.203133118 -0.117196564 -0.218745329
v -0.156250222 -0.195318116 -0.218745329
v -0.249980427 -0.132826568 0.499928825
v -0.234364657 -0.164065225 -0.218745329
v -0.203133118 -0.179680994 0.374917259
v -0.249980427 -0.132826568 -0.218745329
v -0.265610431 -0.117196564 0.499928825
v -0.312479092 -0.132826568 0.484241881
v -0.203133118 -0.195318116 -0.218745329
v -0.156250222 -0.195318116 -0.140524132
v -0.203133118 -0.117196564 -0.171755671
v -0.281219083 -0.179680994 0.374917259
v -0.249980427 -0.148449455 -0.156139901
v -0.218763123 -0.179680994 0.499928825
v -0.156250222 -0.179680994 -0.218745329
v -0.234364657 -0.132826568 0.374917259
v -0.281219083 -0.195318116 0.484241881
v -0.203133118 -0.195318116 0.374917259
v 0.144719891 -0.0502850554 -0.49518146
v 0.0156300045 0.257788312 -0.234304159
v 0.281254671 0.195332351 0.5
v 0.281254671 0.164086577 0.5
v 0.0156300045 0.289026968 0.5
v 0.109388679 0.320301212 0.468661699
v 0.156235987 0.226571008 -0.234304159
v 0.14064157 0.164086577 -0.218631449
v 0.218748888 0.164086577 -0.171769906
v 0.234371775 0.164086577 0.484256116
v 0.0156300045 0.226571008 -0.171769906
v 0.203118883 0.273418316 0.5
v 0.0156300045 0.320301212 0.359258785
v 0.0937586744 0.257788312 -0.218631449
v 0.218748888 0.179702347 -0.171769906
v 0.0156300045 0.257788312 0.218667037
v 0.0312528915 0.273418316 -0.171769906
v 0.0156300045 0.320301212 0.5
v 0.203118883 0.273418316 0.468661699
v 0.203118883 0.164086577 -0.234304159
v 0.281254671 0.164086577 0.374931494
v 0.0156300045 0.226571008 -0.234304159
v 0.156235987 0.289026968 0.359258785
v 0.281254671 0.195332351 0.468661699
v 0.203118883 0.164086577 0.281130115
v 0.062505783 0.320301212 0.374931494
v 0.109388679 0.320301212 0.5
v 0.0156300045 0.273418316 0.374931494
v 0.250001779 0.226571008 0.452988989
v 0.203118883 0.195332351 -0.171769906
v 0.281254671 0.179702347 0.374931494
v 0.0156300045 0.273418316 -0.171769906
v 0.14064157 0.242186777 -0.171769906
v 0.250001779 0.164086577 0.5
v 0.14064157 0.164086577 -0.234304159
v 0.062505783 0.273418316 -0.124901245
v 0.0781357874 0.257788312 -0.234304159
v 0.203118883 0.179702347 -0.234304159
v 0.125011566 0.304656973 0.374931494
v 0.187488879 0.273418316 0.374931494
v 0.144719891 -0.0502850554 -0.49518146
v 0.250001779 0.16405099 0.5
v 0.23438601 -0.00782211973 -0.234304159
v 0.265617549 -0.00782211973 -0.234304159
v 0.21877024 0.16405099 -0.234304159
v 0.328123332 0.101538089 0.5
v 0.296863323 -0.00782211973 0.5
v 0.171880227 0.148428103 -0.140502779
v 0.265617549 0.0859080848 -0.234304159
v 0.328123332 -0.00782211973 0.359258785
v 0.296863323 0.16405099 0.468661699
v 0.171880227 0.16405099 -0.234304159
v 0.21877024 0.148428103 0.312397241
v 0.281233318 0.00780788475 -0.187364323
v 0.328123332 0.0703279027 0.374931494
v 0.281233318 -0.00782211973 0.374931494
v 0.328123332 -0.00782211973 0.5
v 0.23438601 0.148428103 -0.234304159
v 0.296863323 0.148428103 0.359258785
v 0.23438601 -0.00782211973 -0.203037032
v 0.21877024 0.16405099 0.312397241
v 0.328123332 0.101538089 0.468661699
v 0.250001779 0.132776746 0.484256116
v 0.281233318 -0.00782211973 -0.187364323
v 0.296863323 0.16405099 0.5
v 0.171880227 0.148428103 -0.234304159
v 0.23438601 0.16405099 -0.140502779
v 0.171880227 0.16405099 -0.140502779
v 0.281233318 0.0390892462 -0.156168371
v 0.250001779 0.132776746 -0.171769906
v 0.265617549 -0.00782211973 0.18739991
v 0.328123332 0.0390892462 0.359258785
v 0.144719891 -0.0502850554 -0.49518146
v -0.218763123 0.257802547 0.5
v -0.265610431 -0.00782211973 -0.296873999
v -0.265610431 0.0546836632 -0.296873999
v -0.328094862 0.0703421377 0.5
v -0.281233318 -0.00782211973 0.468718639
v -0.187510231 0.117189446 -0.234318394
v -0.187510231 0.210926768 0.5
v -0.203147353 0.179645407 -0.296873999
v -0.218763123 0.00780788475 -0.281194172
v -0.296849088 0.16402252 0.468718639
v -0.328094862 -0.00782211973 0.5
v -0.187510231 0.257802547 0.374959964
v -0.187510231 0.179645407 -0.296873999
v -0.250008897 0.117189446 -0.234318394
v -0.265610431 0.210926768 0.468718639
v -0.312471975 0.132790981 0.484320173
v -0.23438601 -0.00782211973 -0.296873999
v -0.328094862 0.0703421377 0.468718639
v -0.187510231 0.179645407 0.328077068
v -0.281233318 -0.00782211973 -0.140559719
v -0.218763123 0.16402252 -0.281194172
v -0.265610431 -0.00782211973 0.28120129
v -0.218763123 0.257802547 0.468718639
v -0.296849088 -0.00782211973 0.5
v -0.187510231 0.257802547 0.5
v -0.187510231 0.117189446 -0.296873999
v -0.296849088 0.16402252 0.5
v -0.203147353 0.257802547 0.374959964
v -0.328094862 -0.00782211973 0.468718639
v -0.250008897 0.101566559 -0.296873999
v -0.23438601 -0.00782211973 -0.187435498
v -0.312471975 0.101566559 0.374959964
v -0.265610431 0.0703421377 -0.249991103
v -0.281233318 0.00780788475 -0.140559719
v 0.144719891 -0.0502850554 -0.49518146
v 0.312493327 -0.148442338 0.5
v 0.156271575 -0.195318116 -0.203122442
v 0.203154471 -0.195318116 -0.203122442
v 0.249994662 -0.00782211973 -0.203122442
v 0.296863323 -0.00782211973 0.5
v 0.234400245 -0.195318116 0.5
v 0.281240436 -0.0390750112 -0.18742838
v 0.328123332 -0.00782211973 0.359315725
v 0.156271575 -0.179680994 -0.171805493
v 0.281240436 -0.195318116 0.390497441
v 0.249994662 -0.148442338 -0.171805493
v 0.203154471 -0.179680994 0.312447064
v 0.265624666 -0.00782211973 0.20301568
v 0.328123332 -0.101566559 0.468683051
v 0.328123332 -0.00782211973 0.5
v 0.265624666 -0.101566559 -0.203122442
v 0.281240436 -0.00782211973 -0.18742838
v 0.249994662 -0.00782211973 -0.0155766233
v 0.312493327 -0.132805216 0.374938612
v 0.328123332 -0.0703492552 0.374938612
v 0.21877024 -0.195318116 -0.171805493
v 0.281240436 -0.195318116 0.5
v 0.281240436 -0.00782211973 0.374938612
v 0.234400245 -0.179680994 0.5
v 0.203154471 -0.195318116 0.312447064
v 0.328123332 -0.0859721422 0.406191503
v 0.234400245 -0.179680994 -0.140559719
v 0.234400245 -0.164065225 -0.203122442
v 0.156271575 -0.179680994 -0.203122442
v 0.328123332 -0.101566559 0.5
v 0.296863323 -0.179680994 0.468683051
v 0.187524466 -0.179680994 0.156211076
v 0.281240436 -0.0703492552 -0.124936832
v 0.265624666 -0.117189446 -0.156182606
v 0.328123332 -0.0546978982 0.359315725
v 0.296863323 -0.164065225 0.374938612
v 0.144719891 -0.0502850554 -0.49518146
v 0.109410031 -0.320294095 0.374938612
v 0.281254671 -0.195318116 0.5
v 0.281254671 -0.210969473 0.5
v 0.187481761 -0.195318116 -0.203122442
v 2.46937484e-17 -0.289048321 0.453060164
v 2.46937484e-17 -0.289048321 -0.171805493
v 0.015637122 -0.242215247 -0.18742838
v 0.140627335 -0.257831017 -0.171805493
v 0.218727535 -0.195318116 0.5
v 2.46937484e-17 -0.335931217 0.5
v 0.171873109 -0.304671208 0.5
v 0.140627335 -0.195318116 -0.124936832
v 0.203118883 -0.210969473 -0.171805493
v 0.218727535 -0.273425434 0.468683051
v 0.0938013794 -0.273425434 -0.203122442
v 0.0781642574 -0.335931217 0.468683051
v 2.46937484e-17 -0.257831017 0.0157403256
v 2.46937484e-17 -0.257831017 -0.203122442
v 2.46937484e-17 -0.304671208 0.5
v 2.46937484e-17 -0.335931217 0.42181439
v 0.0312742439 -0.289048321 -0.171805493
v 0.140627335 -0.320294095 0.484234763
v 0.187481761 -0.195318116 0.296824177
v 0.140627335 -0.195318116 -0.203122442
v 0.203118883 -0.195318116 -0.171805493
v 0.281254671 -0.210969473 0.484234763
v 2.46937484e-17 -0.273425434 0.249884341
v 0.171873109 -0.242215247 -0.124936832
v 0.156235987 -0.242215247 -0.203122442
v 0.171873109 -0.304671208 0.484234763
v 0.0781642574 -0.335931217 0.5
v 0.265610431 -0.22659236 0.468683051
v 2.46937484e-17 -0.273425434 -0.203122442
v 0.0625484879 -0.289048321 -0.10924277
v 0.015637122 -0.335931217 0.42181439
v 0.218727535 -0.273425434 0.5
v 0.144719891 -0.0502850554 -0.49518146
v -0.187460409 -0.210969473 -0.218745329
v 2.46937484e-17 -0.304671208 0.499928825
v 2.46937484e-17 -0.335931217 0.499928825
v -0.265617549 -0.195318116 0.499928825
v -0.015622887 -0.242215247 -0.218745329
v -0.125011566 -0.320294095 0.468618994
v -0.0312528915 -0.289048321 -0.171755671
v -0.203111766 -0.195318116 0.499928825
v -0.140605983 -0.195318116 -0.218745329
v -0.187460409 -0.289048321 0.499928825
v -0.0937800269 -0.273425434 -0.218745329
v 2.46937484e-17 -0.273425434 0.26552858
v 2.46937484e-17 -0.289048321 -0.171755671
v -0.203111766 -0.210969473 -0.171755671
v -0.0781571399 -0.335931217 0.484241881
v -0.265617549 -0.210969473 0.468618994
v -0.140605983 -0.257831017 -0.171755671
v -0.203111766 -0.195318116 -0.171755671
v 2.46937484e-17 -0.257831017 0.0157189731
v -0.140605983 -0.195318116 -0.109285475
v -0.234364657 -0.242215247 0.406155916
v 2.46937484e-17 -0.289048321 0.437387455
v 2.46937484e-17 -0.335931217 0.437387455
v 2.46937484e-17 -0.273425434 -0.218745329
v -0.187460409 -0.289048321 0.484241881
v -0.187460409 -0.22659236 -0.156139901
v -0.015622887 -0.242215247 -0.18737144
v -0.187460409 -0.195318116 0.374917259
v -0.156235987 -0.242215247 -0.218745329
v -0.0781571399 -0.335931217 0.499928825
v 2.46937484e-17 -0.257831017 -0.218745329
v -0.171837522 -0.289048321 0.374917259
v -0.015622887 -0.289048321 0.484241881
v -0.265617549 -0.210969473 0.499928825
v -0.187460409 -0.195318116 -0.218745329
v -0.015622887 -0.335931217 0.437387455
v -0.109381561 -0.273425434 -0.156139901
v -0.265617549 -0.195318116 0.468618994
v 0.144719891 -0.0502850554 -0.49518146
v 0.156235987 0.226549655 -0.234375334
v 0.109402914 -0.00782211973 -0.5
v 0.249987544 -0.00782211973 -0.5
v 0.0469042484 0.24217966 -0.5
v 0.0156300045 -0.00782211973 -0.312504004
v 0.265624666 -0.00782211973 -0.234375334
v 0.0156300045 0.257802547 -0.234375334
v 0.203126001 0.16402252 -0.468747109
v 0.0156300045 -0.00782211973 -0.484369996
v 0.249987544 0.117189446 -0.234375334
v 0.0156300045 0.24217966 -0.5
v 0.249987544 0.0703421377 -0.484369996
v 0.109402914 0.226549655 -0.5
v 0.21874177 -0.00782211973 -0.234375334
v 0.0781500224 0.257802547 -0.281251112
v 0.0156300045 0.226549655 -0.234375334
v 0.265624666 0.0546836632 -0.328155361
v 0.234378892 0.101566559 -0.5
v 0.234378892 0.148420985 -0.249998221
v 0.265624666 -0.00782211973 -0.406212856
v 0.187488879 0.179645407 -0.484369996
v 0.0156300045 0.117189446 -0.5
v 0.0156300045 0.257802547 -0.3593869
v 0.125040036 0.226549655 -0.453117104
v 0.265624666 0.0703421377 -0.234375334
v 0.203126001 0.179645407 -0.328155361
v 0.234378892 0.117189446 -0.453117104
v 0.0781500224 0.257802547 -0.234375334
v 0.0781500224 0.24217966 -0.468747109
v 0.125040036 0.24217966 -0.265628225
v 0.249987544 0.117189446 -0.265628225
v 0.0469042484 0.257802547 -0.3593869
v 0.171880227 0.210926768 -0.296881117
v 0.156235987 0.210926768 -0.421864213
v 0.265624666 0.0703421377 -0.281251112
v 0.203126001 0.148420985 -0.5
v 0.144719891 -0.0502850554 -0.49518146
v -0.234321952 0.101566559 -0.484369996
v 0.0156300045 0.257802547 -0.296873999
v 0.0156300045 0.257802547 -0.375016904
v 0.0156300045 -0.00782211973 -0.312504004
v -0.265596196 -0.00782211973 -0.296873999
v 0.0156300045 -0.00782211973 -0.484369996
v -0.187467526 0.195296764 -0.296873999
v -0.0469184834 0.24217966 -0.5
v -0.249959074 -0.00782211973 -0.5
v 0.0156300045 0.24217966 -0.5
v -0.15622887 0.195296764 -0.5
v -0.109402914 0.24217966 -0.328148243
v -0.265596196 0.0546836632 -0.296873999
v 0.0156300045 0.132790981 -0.5
v -0.234321952 0.132790981 -0.343778248
v -0.0625200179 0.257802547 -0.296873999
v -0.203076178 0.148420985 -0.5
v -0.140591748 -0.00782211973 -0.5
v -0.124983096 0.226549655 -0.4374871
v -0.249959074 0.0703421377 -0.468718639
v 0.0156300045 0.210926768 -0.296873999
v -0.2187133 -0.00782211973 -0.296873999
v -0.171837522 0.195296764 -0.453109987
v -0.265596196 0.00780788475 -0.375016904
v -0.0781571399 0.24217966 -0.468718639
v -0.2187133 0.148420985 -0.406212856
v -0.249959074 0.101566559 -0.296873999
v -0.249959074 0.0390607762 -0.5
v -0.140591748 0.226549655 -0.343778248
v -0.0469184834 0.257802547 -0.343778248
v -0.140591748 0.226549655 -0.296873999
v -0.234321952 0.117189446 -0.4374871
v -0.249959074 0.101566559 -0.328148243
v -0.109402914 0.226549655 -0.484369996
v 0.144719891 -0.0502850554 -0.49518146
v 0.187495996 -0.210933886 -0.328141126
v 0.265624666 -0.00782211973 -0.203122442
v 0.234371775 -0.00782211973 -0.203122442
v 0.109388679 -0.00782211973 -0.5
v 2.46937484e-17 -0.273439669 -0.203122442
v 2.46937484e-17 -0.00782211973 -0.312504004
v 2.46937484e-17 -0.257816782 -0.5
v 0.250001779 -0.0703492552 -0.5
v 0.234371775 -0.164058107 -0.203122442
v 2.46937484e-17 -0.00782211973 -0.484362878
v 0.125040036 -0.242186777 -0.484362878
v 0.0937586744 -0.273439669 -0.203122442
v 0.250001779 -0.00782211973 -0.5
v 0.218748888 -0.148428103 -0.5
v 0.265624666 -0.101602147 -0.234389569
v 2.46937484e-17 -0.242186777 -0.203122442
v 0.0312528915 -0.273439669 -0.406191503
v 0.265624666 -0.00782211973 -0.406191503
v 0.156243105 -0.242186777 -0.203122442
v 0.218748888 -0.164058107 -0.453095752
v 0.062505783 -0.257816782 -0.5
v 0.171865992 -0.210933886 -0.484362878
v 2.46937484e-17 -0.148428103 -0.5
v 0.250001779 -0.101602147 -0.4374871
v 0.0937586744 -0.257816782 -0.453095752
v 0.234371775 -0.164058107 -0.265663813
v 0.156243105 -0.242186777 -0.250026691
v 0.265624666 -0.0546978982 -0.374981317
v 2.46937484e-17 -0.273439669 -0.406191503
v 0.265624666 -0.101602147 -0.203122442
v 0.125040036 -0.257816782 -0.281265347
v 0.1406131 -0.22656389 -0.5
v 0.234371775 -0.132855038 -0.468725756
v 0.0937586744 -0.273439669 -0.234389569
v 0.203118883 -0.195310999 -0.34377113
v 0.250001779 -0.132855038 -0.281265347
v 0.203118883 -0.179680994 -0.484362878
v 0.156243105 -0.22656389 -0.453095752
v 0.144719891 -0.0502850554 -0.49518146
v -0.265617549 -0.0546978982 -0.343792483
v -0.015622887 -0.273439669 -0.406227091
v 2.46937484e-17 -0.273439669 -0.406227091
v 2.46937484e-17 -0.273439669 -0.218752447
v 2.46937484e-17 -0.00782211973 -0.484362878
v -0.21874177 -0.148428103 -0.5
v -0.234364657 -0.00782211973 -0.218752447
v -0.156235987 -0.242186777 -0.218752447
v 2.46937484e-17 -0.00782211973 -0.312518239
v -0.249994662 -0.00782211973 -0.5
v -0.0468757785 -0.257816782 -0.5
v -0.249994662 -0.132855038 -0.218752447
v -0.125011566 -0.242186777 -0.484362878
v 2.46937484e-17 -0.257816782 -0.5
v -0.265617549 -0.00782211973 -0.218752447
v -0.0781571399 -0.273439669 -0.281300935
v 2.46937484e-17 -0.242186777 -0.218752447
v -0.203111766 -0.179680994 -0.484362878
v -0.249994662 -0.0859792596 -0.484362878
v 2.46937484e-17 -0.148428103 -0.5
v -0.234364657 -0.164058107 -0.234389569
v -0.140605983 -0.00782211973 -0.5
v -0.187460409 -0.210933886 -0.328155361
v -0.265617549 -0.0859792596 -0.218752447
v -0.0781571399 -0.273439669 -0.218752447
v -0.0937800269 -0.257816782 -0.453109987
v -0.265617549 -0.00782211973 -0.374952847
v -0.234364657 -0.132855038 -0.453109987
v -0.125011566 -0.257816782 -0.265663813
v -0.171837522 -0.210933886 -0.484362878
v -0.140605983 -0.22656389 -0.5
v -0.265617549 -0.0859792596 -0.265663813
v -0.156235987 -0.242186777 -0.250026691
v -0.249994662 -0.132855038 -0.250026691
v -0.249994662 -0.0546978982 -0.5
v -0.0468757785 -0.273439669 -0.374952847
v -0.0781571399 -0.257816782 -0.484362878
usemtl AgenticSimDefault
f 17 12 28
f 4 3 5
f 3 4 7
f 2 6 7
f 5 3 8
f 7 4 10
f 6 2 12
f 5 8 12
f 3 7 13
f 7 6 13
f 9 3 13
f 8 3 15
f 3 9 15
f 5 2 16
f 10 14 16
f 11 9 17
f 6 12 17
f 4 5 18
f 2 7 19
f 7 10 19
f 16 2 19
f 13 6 20
f 9 13 20
f 5 16 21
f 16 14 21
f 18 5 21
f 6 17 22
f 17 9 22
f 20 6 22
f 9 20 22
f 10 16 23
f 19 10 23
f 16 19 23
f 10 4 24
f 14 10 24
f 4 18 24
f 21 14 24
f 18 21 24
f 8 15 25
f 15 11 25
f 17 8 25
f 11 17 25
f 2 5 26
f 12 2 26
f 5 12 26
f 9 11 27
f 15 9 27
f 11 15 27
f 12 8 28
f 8 17 28
f 38 50 60
f 31 32 33
f 32 31 34
f 32 34 35
f 33 32 36
f 33 30 37
f 38 37 40
f 30 33 41
f 33 36 41
f 35 34 43
f 39 30 45
f 30 41 45
f 37 30 46
f 30 43 46
f 30 39 47
f 39 42 47
f 43 30 47
f 34 31 48
f 31 38 48
f 33 37 50
f 42 35 51
f 35 43 51
f 47 42 51
f 43 47 51
f 34 40 52
f 40 37 52
f 43 34 52
f 37 46 52
f 46 43 52
f 32 35 53
f 36 32 53
f 35 42 53
f 42 44 53
f 49 36 53
f 44 49 53
f 38 33 54
f 33 50 54
f 50 38 54
f 42 39 55
f 44 42 55
f 39 49 55
f 49 44 55
f 40 34 56
f 34 48 56
f 48 40 56
f 41 36 57
f 39 45 57
f 45 41 57
f 36 49 57
f 49 39 57
f 31 33 58
f 38 31 58
f 33 38 58
f 38 40 59
f 48 38 59
f 40 48 59
f 37 38 60
f 50 37 60
f 75 84 88
f 64 67 68
f 65 66 69
f 66 65 70
f 67 70 71
f 68 67 71
f 63 64 72
f 64 68 72
f 65 69 72
f 70 62 76
f 71 70 76
f 62 73 76
f 74 68 76
f 73 74 76
f 70 65 77
f 65 73 77
f 73 62 77
f 69 66 78
f 66 75 78
f 72 68 79
f 65 72 79
f 68 74 79
f 78 63 80
f 69 78 80
f 62 70 81
f 77 62 81
f 70 77 81
f 63 72 82
f 72 69 82
f 80 63 82
f 69 80 82
f 66 70 83
f 70 67 83
f 67 64 84
f 75 67 84
f 68 71 85
f 71 76 85
f 76 68 85
f 75 66 86
f 67 75 86
f 66 83 86
f 83 67 86
f 73 65 87
f 74 73 87
f 65 79 87
f 79 74 87
f 64 63 88
f 63 78 88
f 78 75 88
f 84 64 88
f 107 102 115
f 94 95 96
f 92 93 97
f 94 96 97
f 93 92 98
f 96 95 99
f 93 98 99
f 97 96 100
f 93 99 101
f 93 101 103
f 92 97 104
f 100 92 104
f 97 100 104
f 97 93 105
f 94 97 105
f 93 103 105
f 99 95 106
f 95 101 106
f 101 99 106
f 99 91 107
f 96 99 107
f 91 102 107
f 92 91 108
f 98 92 108
f 91 98 108
f 103 101 110
f 90 105 110
f 105 103 110
f 109 90 110
f 101 109 110
f 100 96 111
f 96 102 111
f 102 100 111
f 98 91 112
f 91 99 112
f 99 98 112
f 91 92 113
f 92 100 113
f 102 91 113
f 100 102 113
f 95 94 114
f 101 95 114
f 105 90 114
f 94 105 114
f 90 109 114
f 109 101 114
f 102 96 115
f 96 107 115
f 148 138 155
f 119 118 120
f 119 123 124
f 123 119 125
f 120 117 126
f 120 118 127
f 117 120 128
f 120 126 131
f 120 127 133
f 128 120 133
f 121 128 133
f 121 127 134
f 117 122 135
f 124 123 135
f 130 124 135
f 118 119 136
f 119 124 136
f 124 130 136
f 123 126 137
f 126 117 137
f 117 135 137
f 121 134 138
f 118 136 139
f 123 125 140
f 126 123 140
f 125 131 140
f 131 126 140
f 128 121 141
f 132 128 141
f 127 121 142
f 133 127 142
f 121 133 142
f 125 120 143
f 120 131 143
f 131 125 143
f 127 118 144
f 134 127 144
f 118 139 144
f 139 130 144
f 122 134 145
f 134 144 145
f 144 130 145
f 136 130 146
f 130 139 146
f 139 136 146
f 117 128 147
f 132 117 147
f 128 132 147
f 122 129 148
f 119 120 149
f 125 119 149
f 120 125 149
f 135 123 150
f 123 137 150
f 137 135 150
f 121 129 151
f 129 132 151
f 141 121 151
f 132 141 151
f 122 117 152
f 129 122 152
f 117 132 152
f 132 129 152
f 135 122 153
f 130 135 153
f 122 145 153
f 145 130 153
f 129 121 154
f 121 138 154
f 148 129 154
f 138 148 154
f 134 122 155
f 138 134 155
f 122 148 155
f 169 170 187
f 159 158 160
f 158 159 162
f 161 157 162
f 159 160 164
f 162 159 165
f 160 157 166
f 160 158 167
f 157 160 167
f 159 164 169
f 161 165 170
f 158 162 171
f 168 163 171
f 162 168 171
f 161 162 172
f 165 161 172
f 162 165 172
f 164 160 173
f 163 158 175
f 158 171 175
f 157 167 176
f 163 168 176
f 168 157 176
f 166 161 177
f 161 170 177
f 170 164 177
f 174 166 177
f 164 174 177
f 162 157 178
f 157 168 178
f 168 162 178
f 165 159 179
f 159 169 179
f 169 165 179
f 157 161 180
f 166 157 180
f 161 166 180
f 158 163 181
f 167 158 181
f 163 167 181
f 160 166 182
f 173 160 182
f 166 174 182
f 174 173 182
f 167 163 183
f 176 167 183
f 163 176 183
f 169 164 184
f 170 169 184
f 164 170 184
f 164 173 185
f 173 174 185
f 174 164 185
f 171 163 186
f 163 175 186
f 175 171 186
f 165 169 187
f 170 165 187
f 208 206 222
f 189 192 195
f 190 191 196
f 190 193 199
f 195 192 199
f 195 194 200
f 196 200 201
f 190 196 201
f 200 194 201
f 198 202 204
f 193 190 205
f 190 201 205
f 199 192 206
f 192 204 206
f 194 195 207
f 197 194 207
f 191 190 208
f 190 199 208
f 202 198 209
f 203 196 209
f 198 203 209
f 195 193 210
f 193 205 210
f 207 195 210
f 197 207 210
f 189 200 211
f 203 189 211
f 196 203 211
f 193 195 212
f 199 193 212
f 195 199 212
f 189 195 213
f 200 189 213
f 195 200 213
f 194 197 214
f 201 194 214
f 197 205 214
f 205 201 214
f 192 189 215
f 189 203 215
f 203 198 215
f 198 204 215
f 204 192 215
f 200 196 216
f 211 200 216
f 196 211 216
f 199 206 217
f 208 199 217
f 206 208 217
f 196 191 218
f 204 202 218
f 209 196 218
f 202 209 218
f 205 197 219
f 210 205 219
f 197 210 219
f 191 206 220
f 206 204 220
f 218 191 221
f 204 218 221
f 191 220 221
f 220 204 221
f 206 191 222
f 191 208 222
f 254 233 259
f 226 225 227
f 225 226 229
f 224 228 229
f 227 228 231
f 229 226 233
f 228 227 236
f 228 224 238
f 231 228 238
f 237 231 238
f 226 227 239
f 227 231 240
f 231 230 240
f 239 227 240
f 230 239 240
f 227 232 241
f 232 236 241
f 236 227 241
f 237 224 242
f 231 237 243
f 233 226 244
f 224 229 245
f 229 233 245
f 235 228 246
f 236 232 246
f 228 236 246
f 229 228 247
f 235 229 247
f 228 235 247
f 225 229 248
f 232 225 248
f 229 235 248
f 237 242 249
f 242 239 249
f 243 237 249
f 234 233 250
f 233 244 250
f 250 244 251
f 226 239 251
f 239 234 251
f 244 226 251
f 234 250 251
f 227 225 252
f 225 232 252
f 232 227 252
f 224 237 253
f 238 224 253
f 237 238 253
f 242 224 254
f 224 245 254
f 245 233 254
f 235 246 255
f 246 232 255
f 232 248 255
f 248 235 255
f 239 230 256
f 230 243 256
f 249 239 256
f 243 249 256
f 234 239 257
f 242 234 257
f 239 242 257
f 230 231 258
f 243 230 258
f 231 243 258
f 233 234 259
f 234 242 259
f 242 254 259
f 274 292 296
f 263 262 269
f 262 264 269
f 265 266 270
f 263 269 270
f 263 270 271
f 269 264 272
f 275 261 276
f 266 265 277
f 264 275 278
f 266 277 278
f 277 267 278
f 269 265 279
f 265 270 279
f 270 269 279
f 270 266 280
f 276 270 280
f 266 275 281
f 280 266 281
f 261 275 282
f 275 268 282
f 276 261 282
f 272 267 283
f 269 272 283
f 267 277 283
f 272 264 284
f 267 272 284
f 264 278 284
f 278 267 284
f 264 262 285
f 273 264 285
f 273 285 286
f 262 263 286
f 285 262 286
f 265 269 287
f 277 265 287
f 269 283 287
f 283 277 287
f 274 268 288
f 273 274 288
f 264 273 289
f 275 264 289
f 268 275 289
f 288 268 289
f 273 288 289
f 268 274 290
f 274 271 290
f 282 268 290
f 271 282 290
f 271 270 291
f 270 276 291
f 282 271 291
f 276 282 291
f 274 273 292
f 273 286 292
f 286 263 292
f 275 266 293
f 266 278 293
f 278 275 293
f 275 276 294
f 276 281 294
f 281 275 294
f 276 280 295
f 281 276 295
f 280 281 295
f 263 271 296
f 271 274 296
f 292 263 296
f 315 313 335
f 300 299 301
f 301 299 305
f 302 298 306
f 301 305 306
f 300 301 307
f 298 302 308
f 299 300 309
f 304 308 310
f 309 300 310
f 303 308 312
f 308 304 312
f 301 306 315
f 298 311 315
f 311 313 315
f 305 309 316
f 309 310 316
f 302 306 317
f 306 305 317
f 313 311 318
f 299 309 319
f 309 305 319
f 310 300 320
f 304 310 320
f 300 312 320
f 308 302 321
f 310 308 321
f 316 310 321
f 303 307 322
f 307 318 322
f 322 318 323
f 318 311 323
f 314 322 323
f 316 302 324
f 302 317 324
f 324 317 325
f 305 316 325
f 317 305 325
f 316 324 325
f 298 308 326
f 311 298 326
f 308 314 326
f 323 311 326
f 314 323 326
f 300 307 327
f 307 303 327
f 312 300 327
f 303 312 327
f 302 316 328
f 321 302 328
f 316 321 328
f 314 303 329
f 303 322 329
f 322 314 329
f 305 299 330
f 299 319 330
f 319 305 330
f 307 301 331
f 301 313 331
f 318 307 331
f 313 318 331
f 306 298 332
f 298 315 332
f 315 306 332
f 312 304 333
f 304 320 333
f 320 312 333
f 308 303 334
f 303 314 334
f 314 308 334
f 313 301 335
f 301 315 335
f 357 344 372
f 339 338 340
f 338 339 341
f 341 339 342
f 342 337 343
f 338 341 345
f 341 343 345
f 337 342 346
f 340 338 347
f 345 343 347
f 339 340 349
f 341 342 350
f 342 343 350
f 343 341 352
f 341 350 352
f 350 343 352
f 348 339 354
f 339 349 354
f 337 346 355
f 342 339 356
f 339 348 356
f 353 342 356
f 348 353 356
f 338 345 358
f 347 338 358
f 345 347 358
f 340 347 359
f 347 343 359
f 343 351 359
f 357 349 360
f 346 342 361
f 342 353 361
f 355 344 362
f 344 357 362
f 354 344 363
f 348 354 363
f 344 355 363
f 343 337 364
f 351 343 364
f 349 340 365
f 351 360 365
f 360 349 365
f 337 360 366
f 360 351 366
f 364 337 366
f 351 364 366
f 355 346 367
f 346 361 367
f 348 363 367
f 363 355 367
f 340 359 368
f 359 351 368
f 365 340 368
f 351 365 368
f 337 355 369
f 355 362 369
f 362 357 369
f 360 337 370
f 357 360 370
f 337 369 370
f 369 357 370
f 353 348 371
f 361 353 371
f 348 367 371
f 367 361 371
f 344 354 372
f 354 349 372
f 349 357 372
f 392 398 407
f 376 375 377
f 376 377 379
f 377 378 379
f 378 375 380
f 379 378 382
f 382 381 383
f 376 379 383
f 381 376 383
f 381 382 384
f 378 380 386
f 382 383 387
f 383 379 387
f 375 376 389
f 380 375 389
f 384 382 390
f 379 382 391
f 387 379 391
f 382 387 391
f 377 375 394
f 375 378 394
f 394 378 395
f 378 377 395
f 377 394 395
f 384 390 396
f 382 378 397
f 378 386 397
f 386 393 397
f 385 389 398
f 392 385 398
f 388 380 399
f 380 396 399
f 396 390 399
f 386 380 400
f 380 388 400
f 374 390 401
f 390 382 401
f 393 374 401
f 382 397 401
f 397 393 401
f 385 392 402
f 396 380 402
f 392 396 402
f 376 381 403
f 389 376 403
f 381 398 403
f 398 389 403
f 380 389 404
f 389 385 404
f 402 380 404
f 385 402 404
f 390 374 405
f 374 393 405
f 388 399 405
f 399 390 405
f 393 386 406
f 386 400 406
f 400 388 406
f 405 393 406
f 388 405 406
f 381 384 407
f 384 396 407
f 396 392 407
f 398 381 407
f 409 435 446
f 411 410 412
f 410 411 413
f 411 412 414
f 413 414 415
f 415 412 416
f 410 413 417
f 414 412 418
f 415 414 418
f 417 413 420
f 412 410 421
f 416 412 421
f 415 416 422
f 413 411 424
f 411 414 424
f 414 413 424
f 420 413 425
f 421 410 426
f 416 421 426
f 410 423 426
f 417 420 427
f 415 422 429
f 425 415 429
f 412 415 431
f 418 412 431
f 415 418 431
f 429 419 433
f 425 429 433
f 417 427 434
f 434 427 435
f 416 426 436
f 426 423 436
f 432 416 436
f 423 432 436
f 413 415 437
f 425 413 437
f 415 425 437
f 410 417 438
f 423 410 438
f 427 420 439
f 433 419 439
f 419 435 439
f 435 427 439
f 419 429 440
f 429 422 440
f 430 419 440
f 422 430 440
f 422 416 441
f 416 432 441
f 434 428 441
f 420 425 442
f 425 433 442
f 439 420 442
f 433 439 442
f 409 430 443
f 428 434 443
f 435 409 443
f 434 435 443
f 432 423 444
f 417 434 444
f 438 417 444
f 423 438 444
f 441 432 444
f 434 441 444
f 430 422 445
f 422 441 445
f 441 428 445
f 443 430 445
f 428 443 445
f 430 409 446
f 419 430 446
f 435 419 446
f 449 483 484
f 449 450 451
f 451 450 452
f 451 454 455
f 451 452 456
f 452 454 456
f 454 452 457
f 450 449 458
f 453 457 458
f 455 454 459
f 452 450 461
f 450 458 461
f 458 457 461
f 454 457 462
f 459 454 462
f 449 451 463
f 454 451 464
f 451 456 464
f 456 454 464
f 452 461 467
f 461 457 467
f 455 459 468
f 457 452 469
f 452 467 469
f 467 457 469
f 468 465 470
f 462 448 471
f 459 462 471
f 451 455 472
f 463 451 472
f 448 462 474
f 462 457 474
f 466 448 474
f 453 465 475
f 466 453 475
f 465 468 475
f 472 455 476
f 463 472 476
f 460 473 476
f 473 463 476
f 470 465 477
f 453 458 478
f 465 453 478
f 460 477 478
f 477 465 478
f 448 466 479
f 471 448 479
f 459 471 479
f 455 468 480
f 468 470 480
f 476 455 480
f 460 476 480
f 477 460 480
f 470 477 480
f 468 459 481
f 466 475 481
f 475 468 481
f 479 466 481
f 459 479 481
f 457 453 482
f 453 466 482
f 474 457 482
f 466 474 482
f 449 463 483
f 463 473 483
f 483 473 484
f 458 449 484
f 473 460 484
f 478 458 484
f 460 478 484
