# Generated by AgenticSim AssetCompiler
mtllib default_material.mtl
v -0.496451128 0.23988923 -4.39216789e-05
v -0.498019132 0.242326883 -7.02746862e-05
v -0.5 0.235782553 -0.00566589657
v -0.491993078 0.238861462 -0.00278024227
v -0.493464454 0.232927643 -0.00740080289
v -0.497470111 0.223506443 -0.00886339479
v -0.49655654 0.229940969 0.00112000281
v -0.492941786 0.243367826 0.00564393573
v -0.492116059 0.244369241 0.00394416676
v -0.488000597 0.244053005 0.00126055218
v -0.492739746 0.188347139 0.00524864062
v -0.494553712 0.209262643 -0.0124913255
v -0.488448598 0.169781446 -0.0100492801
v -0.493508376 0.210760372 0.00652676148
v -0.480371402 0.195835786 -0.0174456908
v -0.486920124 0.214379518 -0.0124210508
v -0.494197946 0.219325099 -0.000382118606
v -0.488734089 0.222654363 0.0120521087
v -0.493960769 0.225860645 0.00735688121
v -0.493135042 0.236783967 0.00655311449
v -0.489744288 0.230472422 0.0106597915
v -0.483977372 0.232607015 -0.00514322859
v -0.486274475 0.246402815 0.00767750947
v -0.485734239 0.239186483 0.0132336018
v -0.486498476 0.151022497 0.000588550497
v -0.478983477 0.173009689 0.016352041
v -0.482611407 0.213193633 0.0175906324
v -0.480639324 0.193586996 0.0171733764
v -0.480222068 0.136901677 -0.014467801
v -0.472895932 0.153403052 -0.0194045977
v -0.481842778 0.245379439 0.00561319056
v -0.4796994 0.238409069 -0.000237177066
v -0.480037597 0.109973296 -0.00103655162
v -0.467265173 0.137064187 0.0178102408
v -0.472711461 0.154079446 0.0172348668
v -0.481364032 0.243411748 0.013787015
v -0.477617512 0.23780295 0.0172348668
v -0.483718234 0.227402296 0.0158689026
v -0.477151943 0.247527209 0.0103523397
v -0.480876501 0.247189013 0.011274695
v -0.47007616 0.224340955 0.0212537004
v -0.467888861 0.209012289 0.0219344864
v -0.466474583 0.194434684 0.0226284489
v -0.45755409 0.168889836 -0.0197471868
v -0.451686153 0.203096039 -0.00867453158
v -0.470080552 0.230200107 -0.00278463444
v -0.469052785 0.0977455002 -0.0221760557
v -0.457286167 0.116258488 -0.0246005323
v -0.475588331 0.0776601165 0.00174808282
v -0.475825508 0.0699606462 -0.0134795632
v -0.464568382 0.0949520814 0.0129832483
v -0.465767443 0.114773935 0.0152188617
v -0.464252146 0.177788368 0.0222419382
v -0.460848215 0.158743928 0.0212185631
v -0.471319144 0.24617003 0.0164706296
v -0.477151943 0.247114346 0.0142745456
v -0.476699549 0.248041093 0.0133653669
v -0.470524161 0.236849849 0.0185525172
v -0.476185666 0.247017718 0.0117183039
v -0.472228322 0.243178963 0.0070713903
v -0.467032388 0.248168466 0.0145512522
v -0.472004322 0.0274883827 -0.0323571008
v -0.476062685 -0.00926967032 -0.00852959004
v -0.47603194 0.0399533552 -0.00366746018
v -0.470985339 0.0173776122 0.0108793999
v -0.462078022 -0.0149487434 -0.0453183883
v -0.464612303 -0.00787296094 0.0203137765
v -0.460681313 -0.0331411028 0.0158205887
v -0.463342967 -0.0507932255 -0.012425443
v -0.465047128 0.0579963809 0.0170328271
v -0.460180606 0.0613959188 -0.0354843244
v -0.450500268 0.138957212 -0.0211175432
v -0.448479871 0.0322275319 -0.0514366781
v -0.457540913 0.237363733 0.00566589657
v -0.455024201 0.243653317 0.0130579151
v -0.439805339 0.0380866838 0.0310614113
v -0.463637242 0.246784933 0.0153681954
v -0.446305748 0.0847007616 -0.031210745
v -0.455564437 0.223752405 0.000720315533
v -0.462227356 0.215864071 0.0212361317
v -0.459455898 0.225746449 0.0184646738
v -0.465635678 0.231478228 0.0189609888
v -0.454703573 0.147095899 0.020458718
v -0.447733202 0.136181361 0.0198482067
v -0.456693225 0.123966743 0.0179595745
v -0.453232196 0.206759107 0.0206036596
v -0.450838465 0.18004155 0.0186491448
v -0.433867128 0.0803085937 0.0238933933
v -0.447351084 -0.0223583306 0.0363100519
v -0.425939265 0.0123881095 0.0446947004
v -0.440833106 0.112977538 0.0186754979
v -0.461313785 0.238233382 0.0163959627
v -0.447939634 -0.0548999025 -0.047272903
v -0.442726131 -0.070061666 0.0148543118
v -0.438158276 -0.0899581866 -0.0151398027
v -0.450531013 0.227507708 0.0134883476
v -0.417396499 0.00699013519 -0.0726552412
v -0.423317141 -0.0294472896 -0.0737357145
v -0.447390613 0.164638217 0.0182714184
v -0.445150607 0.152915521 0.0182011437
v -0.432593399 -0.0494755752 0.0429246568
v -0.438193414 0.0566611618 -0.0429202646
v -0.446894298 0.177915741 -0.00419012816
v -0.443639702 0.152849639 -0.00729099869
v -0.435263838 0.103749594 -0.0217895449
v -0.447944026 0.206223263 0.00830558947
v -0.446094924 0.18956377 0.0115514015
v -0.444351233 0.163074605 0.0123551683
v -0.436717645 0.123676859 -0.0104270066
v -0.415446376 0.0431596377 -0.0556531593
v -0.428139741 -0.0860930788 -0.0480283558
v -0.423918868 -0.0614486248 -0.0660713815
v -0.415543004 -0.0271984996 0.0552227268
v -0.442203463 0.143015575 0.0151398027
v -0.438926906 0.132144959 0.0115777545
v -0.416491712 0.0679709941 -0.0380361739
v -0.442141972 0.149814651 0.0107827722
v -0.422350864 -0.0982066779 0.0134092886
v -0.409666283 -0.0813275767 0.044343327
v -0.440802361 0.14106106 0.000992629942
v -0.42809582 0.10250661 0.00780049017
v -0.414396648 0.0454347807 0.0365779742
v -0.440701341 0.141465139 0.011432813
v -0.408273966 -0.113895502 -0.0439919535
v -0.408533104 -0.120971284 -0.00890292431
v -0.405950509 0.0761008969 -0.0132467783
v -0.405190664 0.0737379106 0.0137123481
v -0.404127759 -0.0519220127 0.0575901053
v -0.403069247 -0.0892686162 -0.0665940495
v -0.386282381 0.0114613621 0.0454765063
v -0.394377147 -0.0490319662 -0.0800560441
v -0.396893859 -0.115656761 0.0258918297
v -0.388856192 -0.0101700647 -0.0780576077
v -0.38484175 0.0227228806 -0.065272007
v -0.385491791 0.0537403702 -0.0409042595
v -0.380159699 -0.0300753696 0.0618109787
v -0.381328016 0.0460672529 0.0307934891
v -0.376703063 -0.0673121689 0.0633570218
v -0.374028233 -0.0973458129 0.0543838228
v -0.379320795 -0.144693383 -0.0303674488
v -0.379948875 -0.118766416 -0.06242149
v -0.375135059 -0.141675963 0.012636267
v -0.37736628 0.0585146567 -0.00216973094
v -0.367655197 -0.0858119801 -0.0816811462
v -0.361528123 -0.124704627 0.0476374529
v -0.354382066 -0.0288148174 -0.0806929084
v -0.356736268 -0.0597312872 -0.0854628027
v -0.35165453 0.00273851668 -0.0692557032
v -0.360842945 0.0245368459 0.0383392335
v -0.354663165 -0.00793005912 0.0546209998
v -0.346419066 0.0320298843 -0.04751008
v -0.346972479 0.0399577473 -0.0120301478
v -0.350279781 0.036913975 0.0158557261
v -0.354254693 -0.0453601138 0.0654652623
v -0.349291543 -0.142646633 -0.0591054032
v -0.340151442 -0.116737234 -0.0794455327
v -0.349300328 -0.164001353 0.0027758501
v -0.342786743 -0.165617671 -0.0314127847
v -0.342048858 -0.15230501 0.034166674
v -0.34156572 -0.0790129042 0.0669761681
v -0.33848681 -0.108747881 0.0649030649
v -0.327778705 -0.0874151214 -0.0864817857
v -0.331687734 -0.131797978 0.0566809266
v -0.335592372 0.00681444848 0.0437899138
v -0.327256037 -0.0267944202 0.0575110463
v -0.327493214 -0.0521899349 -0.0845624083
v -0.320351549 -0.0167319636 -0.0728397122
v -0.318972408 -0.0588352849 0.0663920098
v -0.314444083 0.0136794069 -0.0482962781
v -0.313354826 0.0162707859 0.0140681137
v -0.317263855 -0.184183364 -0.00824849129
v -0.316411775 -0.176887973 0.0192113423
v -0.324269363 -0.160180167 -0.0552578642
v -0.308940697 -0.140529608 -0.0771440368
v -0.309713718 0.0179398097 -0.014415095
v -0.308475127 -0.178548213 -0.0446947004
v -0.30222068 -0.16188872 0.0518100124
v -0.3148833 -0.094574355 0.0708237072
v -0.292210929 -0.116442959 -0.0865081387
v -0.302668681 -0.13378763 0.0656804786
v -0.307724066 -0.0117424608 0.0470005886
v -0.29719604 -0.0750863061 -0.0855945678
v -0.291297359 -0.0426852836 -0.0766960356
v -0.29022567 -0.041099711 0.0578931649
v -0.287950527 -0.164572335 -0.0695192333
v -0.286632876 -0.196222296 0.00309208619
v -0.288231625 -0.195532726 -0.0319793744
v -0.277883678 -0.0156383138 -0.0598081501
v -0.2834793 -0.0755343072 0.0673319337
v -0.274066884 -0.192554836 0.0299370163
v -0.275705163 -0.00234761374 0.00963641634
v -0.280114899 -0.0138463093 0.0402322578
v -0.280457488 -0.117189627 0.0704855102
v -0.276535282 0.000287686997 -0.0183460853
v -0.26427235 -0.147056369 -0.0821379316
v -0.268475654 -0.188584316 -0.0527762893
v -0.270746405 -0.153583131 0.0658781261
v -0.257455705 -0.18374854 0.0510545595
v -0.261887402 -0.098079305 -0.0860293924
v -0.242447667 -0.129935699 -0.0846414673
v -0.253621342 -0.0708830014 -0.0801658483
v -0.253836559 -0.0648876923 0.0647010251
v -0.25408252 -0.0387586855 0.0511160499
v -0.245434341 -0.173387416 -0.0715220619
v -0.260578536 -0.205603967 -0.0249035919
v -0.256744174 -0.038561038 -0.0678589938
v -0.251552631 -0.207457462 0.012478149
v -0.251965495 -0.095804162 0.0736127338
v -0.252409104 -0.128591695 0.074925992
v -0.243853161 -0.0202456979 0.025246181
v -0.250063686 -0.0143118791 -0.0298930946
v -0.236377691 -0.0265704196 -0.0529607604
v -0.238411265 -0.0186952626 -0.00143184673
v -0.237563577 -0.203934943 0.0358532665
v -0.229745518 -0.155318037 0.0726859863
v -0.232552113 -0.203627491 -0.0483929058
v -0.224343151 -0.155195056 -0.0837762103
v -0.220267219 -0.0952946705 -0.082410246
v -0.214179675 -0.223840248 -0.0102381433
v -0.212778573 -0.0538194292 -0.064986516
v -0.225643233 -0.190358752 0.0570806138
v -0.226627079 -0.0578338706 0.0583192052
v -0.221598046 -0.0827725999 0.0694226056
v -0.211724453 -0.0417102223 0.0439216789
v -0.221356477 -0.115524996 0.0784529028
v -0.219195531 -0.027861717 -0.0283997576
v -0.212251513 -0.216979682 0.0225669586
v -0.200449758 -0.128279851 -0.0847556637
v -0.198398616 -0.188189021 -0.071421042
v -0.204767259 -0.0322934144 0.0184163599
v -0.193066524 -0.0392462161 -0.0443081896
v -0.191463382 -0.0344192236 -0.0127987772
v -0.20029164 -0.205437065 0.0532682121
v -0.190290674 -0.219694042 -0.0427357935
v -0.197608025 -0.178311036 0.0712673161
v -0.191182284 -0.143489929 0.0770737621
v -0.192236404 -0.0666445594 0.0599970133
v -0.184708228 -0.162745193 -0.0823092262
v -0.18041708 -0.0742825394 -0.0711750806
v -0.183957168 -0.100894685 -0.0813824788
v -0.176934091 -0.102278217 0.074873286
v -0.176191815 -0.0468007449 0.0388135876
v -0.174412987 -0.233810469 0.00527060146
v -0.160059382 -0.0552161386 -0.0522053075
v -0.169498151 -0.220963378 0.034821107
v -0.167978461 -0.13054621 -0.0843076626
v -0.16058205 -0.0421406548 0.00721633184
v -0.168206854 -0.197944026 0.0656453412
v -0.164236334 -0.211463119 -0.0594216393
v -0.164069431 -0.188061648 -0.0767399573
v -0.167837911 -0.170796037 0.0790414533
v -0.153730268 -0.074559246 0.0624127057
v -0.154898585 -0.0453513295 -0.0208671896
v -0.152509246 -0.138781525 0.0836356609
v -0.145248992 -0.231227874 -0.0356292659
v -0.147251821 -0.0998186035 -0.0766696826
v -0.143088045 -0.172280589 -0.0835214645
v -0.135125045 -0.107447799 0.0761426225
v -0.134694613 -0.0749501489 -0.0643189065
v -0.12782087 -0.0542235086 0.0352251864
v -0.139675331 -0.233665528 0.0267043807
v -0.123903056 -0.243442493 -0.00159435694
v -0.130904172 -0.215987052 0.0572035946
v -0.127526595 -0.124080939 -0.0817733817
v -0.139736821 -0.179461784 0.0786856877
v -0.13274449 -0.198629204 -0.073305282
v -0.120529871 -0.0546319803 -0.0295461134
v -0.129779777 -0.218411529 -0.0569093193
v -0.119194652 -0.051825385 0.000667609519
v -0.114929857 -0.0818414603 0.064121259
v -0.106843876 -0.0995287204 -0.0719656708
v -0.119853477 -0.141320198 0.0842637409
v -0.10636513 -0.233068193 -0.0393757851
v -0.0993859749 -0.178504291 -0.0802976133
v -0.110476199 -0.149454493 -0.0825156581
v -0.104832263 -0.190872636 0.0771264681
v -0.10784529 -0.237179262 0.0279561486
v -0.0989994642 -0.0724510054 -0.058183048
v -0.0918138775 -0.113140049 0.0774163512
v -0.100255624 -0.213031123 -0.0633087079
v -0.0801658483 -0.218749725 0.062004234
v -0.0811189487 -0.0574473599 0.014937763
v -0.0848391149 -0.0669080895 0.0478438848
v -0.0787954919 -0.118239356 -0.0776623126
v -0.0823707165 -0.243688455 -0.0226943315
v -0.0838772301 -0.246082186 0.00766433296
v -0.0796783176 -0.0598542679 -0.0227426453
v -0.0875842198 -0.152076617 0.0852431943
v -0.0745834029 -0.0925232126 0.0681488769
v -0.0732877133 -0.08366421 -0.0619163907
v -0.0691590755 -0.226655628 -0.0503254596
v -0.0703844904 -0.24005174 0.028228463
v -0.0673363259 -0.157786435 -0.0815362046
v -0.0666116182 -0.189919535 0.0796783176
v -0.0576472035 -0.19689869 -0.0730329676
v -0.054129077 -0.134336651 0.0833150326
v -0.0500794982 -0.10868639 0.0763358779
v -0.0464208224 -0.0649535748 0.0361167965
v -0.0434385404 -0.0821708729 0.0618065865
v -0.0482699251 -0.248168466 -0.0115294407
v -0.0399116296 -0.245845009 0.0143755655
v -0.0566897109 -0.163825666 0.0848786444
v -0.0382118606 -0.238264127 -0.0372851132
v -0.0458893701 -0.0971964792 -0.0679292685
v -0.0345136552 -0.128332557 -0.0786241973
v -0.0439392475 -0.0598454835 -0.0109979884
v -0.0374124861 -0.0602934847 0.0130886603
v -0.0421296744 -0.232220504 0.0452788587
v -0.0417212028 -0.21065496 0.0698749989
v -0.0393713929 -0.073408498 -0.0496578501
v -0.0256502605 -0.162143466 -0.0799725929
v -0.0372411915 -0.222882755 -0.0554423352
v -0.0328051019 -0.188039688 0.0815274203
v -0.018025457 -0.199020107 -0.0722906912
v -0.021060445 -0.160992718 0.0854144889
v -0.0155702352 -0.131749664 0.0828055412
v -0.00456346243 -0.24272657 -0.0274730101
v -0.00774339198 -0.10568654 0.0752422281
v -0.00746668541 -0.0757539156 0.0542564499
v -0.00994826026 -0.0623094897 0.0258391237
v -0.012688973 -0.0996297402 -0.0681796221
v -0.000658825183 -0.0816482049 -0.0588594418
v -0.00771703898 -0.060249563 -0.0058942893
v -0.000689570358 -0.06812472 -0.0420110858
v 0.000948708263 -0.130721897 -0.0786329817
v -0.00925429774 -0.227542846 0.0530046821
v -0.0032414199 -0.241949156 0.0190093026
v -0.00171733764 -0.200236738 0.0760459948
v -0.00615342721 -0.225540017 -0.0520427973
v 0.0144590167 -0.163259076 -0.0789448256
v 0.0154428623 -0.163693901 0.0865081387
v 0.018078163 -0.128209577 0.0833326013
v 0.0236737849 -0.196990926 -0.0729539086
v 0.0269679108 -0.104689518 -0.0710169626
v 0.031105333 -0.0594457963 0.0031184392
v 0.0296647019 -0.0679270724 -0.0304948216
v 0.0287906605 -0.0982681682 0.0726069273
v 0.0236298632 -0.225179859 -0.0486476515
v 0.0289443864 -0.240627114 -0.0242842962
v 0.0312458823 -0.0651907519 0.0381503703
v 0.0293572502 -0.219737963 0.0596412477
v 0.024042727 -0.235962631 0.0372060542
v 0.0357434623 -0.192308875 0.0775920379
v 0.0383963317 -0.240324054 0.014388742
v 0.0347113028 -0.0861326083 -0.0603088572
v 0.0417519479 -0.132307469 -0.0781234902
v 0.0584948919 -0.161146444 -0.0792039635
v 0.0538260174 -0.16413751 0.0849093896
v 0.0556926888 -0.125064784 0.0825332268
v 0.0548757456 -0.197706849 -0.0676964836
v 0.0593733255 -0.225654213 -0.0430827748
v 0.0552578642 -0.230006852 0.0427972839
v 0.0646527113 -0.107008582 -0.0727474767
v 0.0590483051 -0.091095758 0.0691502912
v 0.0565272007 -0.241272762 -0.00569224958
v 0.0579854004 -0.206078321 0.066058205
v 0.0696817435 -0.0598015619 -0.0286940328
v 0.0761514068 -0.0838135437 -0.0620525479
v 0.0612927029 -0.0582599109 0.0208627975
v 0.072808967 -0.062761883 0.0413039468
v 0.0749611293 -0.0569202997 -0.00435703054
v 0.0560660231 -0.185184779 0.0754135226
v 0.0714122577 -0.235874788 0.0198438145
v 0.0795070231 -0.128859618 -0.0774163512
v 0.0826518153 -0.14906359 0.0848083697
v 0.0873514349 -0.18998981 0.0756023858
v 0.0867321392 -0.224578132 0.0432365007
v 0.0932193712 -0.210909706 -0.0554379431
v 0.0921784274 -0.178794174 -0.0745043439
v 0.0880673583 -0.11302146 0.0807895361
v 0.0848215462 -0.230375794 -0.0282460317
v 0.0923892515 -0.0551458639 0.0120125792
v 0.0903337169 -0.152199598 -0.0782464709
v 0.0941856482 -0.0760130535 0.062368784
v 0.110713376 -0.101162607 -0.0709730409
v 0.108139566 -0.0561604547 -0.0197340103
v 0.108240585 -0.0672814238 -0.0521042876
v 0.103668339 -0.233362468 0.00408471613
v 0.105034303 -0.0582730874 0.0358181291
v 0.113897698 -0.134955947 0.0853881359
v 0.115369074 -0.176795738 0.0790458454
v 0.121052539 -0.225096408 -0.0245741793
v 0.124689254 -0.135588419 -0.0773109391
v 0.120832931 -0.0977059707 0.0759581514
v 0.116919509 -0.20441369 0.0612663498
v 0.117262098 -0.227617512 0.0257205351
v 0.123938193 -0.050595578 0.00791468653
v 0.134233435 -0.189695535 -0.0680522492
v 0.123274976 -0.165521043 -0.0757517195
v 0.127104946 -0.0654894193 0.0577218704
v 0.13505477 -0.21101951 -0.047457374
v 0.137865758 -0.228105043 0.00808158891
v 0.134290533 -0.05294978 0.0293923875
v 0.14273228 -0.0810289092 -0.0636381205
v 0.154736075 -0.114361071 -0.0738191657
v 0.133864493 -0.054992138 -0.0392308436
v 0.154534035 -0.0480525128 -0.0202610705
v 0.139420585 -0.153306424 0.0855594304
v 0.144761461 -0.118748847 0.082331187
v 0.147269389 -0.18638384 0.0728221436
v 0.143694165 -0.21871898 0.0389892743
v 0.162589271 -0.220822829 -0.0111253613
v 0.156738903 -0.0791666301 0.0680786022
v 0.161429738 -0.0468885883 0.00551656287
v 0.153009953 -0.155274115 -0.0772450566
v 0.162049034 -0.052532524 0.0354140497
v 0.169164346 -0.061690194 -0.0552973937
v 0.183373009 -0.20192333 -0.0416553202
v 0.180847513 -0.184020854 -0.063519532
v 0.16114864 -0.219000079 0.0216797407
v 0.169656269 -0.152748619 0.0828933845
v 0.181743515 -0.0861413927 -0.0684826817
v 0.175941461 -0.193240014 0.0647449468
v 0.178352761 -0.106714307 0.0800428676
v 0.183856148 -0.143037535 -0.07571219
v 0.1913975 -0.0403574346 -0.016088511
v 0.198060419 -0.0444772881 -0.0424151653
v 0.192341816 -0.110293924 -0.0757034057
v 0.177048287 -0.0630693348 0.0530134664
v 0.198596263 -0.0711377472 0.0665501278
v 0.200871406 -0.0377177417 0.00847249185
v 0.19196409 -0.212530416 0.0190180869
v 0.202417449 -0.0463132143 0.0384446455
v 0.204740906 -0.209253859 -0.0067288012
v 0.202048507 -0.0639301997 -0.061767057
v 0.204881455 -0.168498933 0.0750489727
v 0.19956254 -0.133440649 0.0842681331
v 0.214952696 -0.198497439 0.0467853723
v 0.223245109 -0.0809937719 -0.0715220619
v 0.215523678 -0.102511002 0.0796212194
v 0.224580328 -0.190648635 -0.0448967401
v 0.206980912 -0.158142201 -0.0735161061
v 0.216006817 -0.176646404 -0.0616923901
v 0.240299897 -0.198927872 -0.0154252936
v 0.210925078 -0.134705593 -0.0771352524
v 0.235336748 -0.203640668 0.0128734441
v 0.237080438 -0.108506312 -0.0771001151
v 0.23372043 -0.0354074614 -0.0409306125
v 0.234203568 -0.0307825086 -0.0167385518
v 0.234392431 -0.056586495 -0.0622282346
v 0.234344118 -0.0464318028 0.0483006702
v 0.241863509 -0.0770144678 0.0713463751
v 0.231080737 -0.131297271 0.0821642846
v 0.239509307 -0.0308791363 0.0128119537
v 0.240400917 -0.174511811 0.0645077697
v 0.237471341 -0.142343573 -0.0746185402
v 0.244266025 -0.194008644 0.0356029129
v 0.247186816 -0.165411239 -0.0632955314
v 0.268238477 -0.0750950904 -0.0739641072
v 0.252171927 -0.105563559 0.0791556496
v 0.269929462 -0.178750253 -0.0416860654
v 0.265045371 -0.140639412 0.0764983881
v 0.268010084 -0.0268383419 -0.0355414225
v 0.273983433 -0.0415169669 -0.0601331705
v 0.265704196 -0.0234695491 -0.0125528158
v 0.274470963 -0.0290300336 0.0328797688
v 0.272902959 -0.0555894729 0.061244389
v 0.271211975 -0.115191191 -0.0785978443
v 0.272503272 -0.191654442 -0.00888535563
v 0.276886656 -0.188263688 0.0226635863
v 0.273223588 -0.15028022 -0.0731383796
v 0.287880252 -0.0200260895 0.00418134383
v 0.273939511 -0.171143018 0.0536151934
v 0.281032862 -0.0863434324 0.074561442
v 0.291789281 -0.1141766 0.0769376049
v 0.303134251 -0.145650875 0.0656189882
v 0.310245171 -0.0930854101 -0.0806533789
v 0.306709476 -0.0623402349 -0.0735995573
v 0.30106554 -0.0178256134 -0.022971038
v 0.312059136 -0.0234783334 -0.0518451497
v 0.302769701 -0.13488128 -0.0764720351
v 0.304610019 -0.174195574 -0.0365647977
v 0.296734862 -0.161014679 -0.0608447017
v 0.310873251 -0.17911041 0.00191937737
v 0.306511828 -0.0380032326 0.0531188784
v 0.307390262 -0.062002038 0.0651314576
v 0.314703221 -0.170387565 0.0339294969
v 0.310802976 -0.0197230299 0.0221277418
v 0.317830445 -0.09407804 0.0720359455
v 0.318432172 -0.0146852133 -0.00194133821
v 0.326676271 -0.117615668 0.0710740607
v 0.324462618 -0.156064705 -0.0584070486
v 0.339404773 -0.0123837174 -0.0230676657
v 0.340283207 -0.141618865 0.0572958301
v 0.335478175 -0.124950588 -0.0775393319
v 0.337687436 -0.167971873 -0.0290673671
v 0.335829549 -0.0428829312 0.053944606
v 0.340454502 -0.021818094 0.0356951484
v 0.34579977 -0.169706779 0.0104445752
v 0.341846819 -0.0675932677 -0.0772758018
v 0.342690115 -0.0420001054 -0.0696641748
v 0.348140795 -0.0972711461 -0.0801570639
v 0.342334349 -0.0648876923 0.0632691784
v 0.356569366 -0.0218751922 -0.0561275134
v 0.347688402 -0.0122255993 0.00545946468
v 0.360109453 -0.156161333 0.0323131791
v 0.351983942 -0.0925363891 0.0669673838
v 0.354474301 -0.142396279 -0.0546561372
v 0.371305089 -0.108919175 0.060119994
v 0.365507427 -0.0410250441 0.0493372219
v 0.370229008 -0.116298017 -0.0734502236
v 0.372328464 -0.157926985 -0.0279385799
v 0.372934583 -0.0116809705 -0.0158425496
v 0.372864308 -0.131898998 0.0497413013
v 0.370532067 -0.0155021566 0.0206300126
v 0.372960936 -0.0456763499 -0.0698310772
v 0.382373352 -0.0804886726 -0.075475013
v 0.376790906 -0.0682740537 0.0572563006
v 0.38944035 -0.151826263 0.0104094379
v 0.39164961 -0.138517995 -0.0480239637
v 0.390687726 -0.017267808 -0.046332979
v 0.392958476 -0.134139003 0.0381152329
v 0.397372605 -0.0319991391 0.0373509957
v 0.409139223 -0.102704258 -0.065873734
v 0.398835197 -0.0151200379 -0.0109277137
v 0.405208233 -0.0672067569 0.0462758808
v 0.392466554 -0.0953561609 0.0542784107
v 0.403354738 -0.14655127 -0.0245346498
v 0.398892295 -0.050257381 -0.06618997
v 0.428161702 -0.0732372034 -0.0622106659
v 0.42586899 -0.133295707 -0.0081518636
v 0.419711171 -0.0278792857 -0.0543618619
v 0.422935022 -0.124599215 -0.0388179798
v 0.421257214 -0.0810376936 0.0403376699
v 0.427783976 -0.112143027 0.0284524636
v 0.422588041 -0.0175225538 0.0004787463
v 0.433796853 -0.0400104534 0.0276882264
v 0.435553721 -0.0157612945 -0.0257995942
v 0.443086289 -0.0976225195 -0.0500487531
v 0.450790151 -0.0339448695 -0.0504879699
v 0.448484263 -0.0719766512 0.02532524
v 0.455533692 -0.10720623 -0.0221716635
v 0.45107125 -0.0161873347 -0.00875798277
v 0.455582006 -0.102581277 0.00843296234
v 0.460272841 -0.07225775 -0.0513795799
v 0.467656076 -0.0401773557 0.0130096013
v 0.468169959 -0.0166748654 -0.0213986419
v 0.468152391 -0.0817492248 -0.0393670008
v 0.474204798 -0.0731273992 0.0104753204
v 0.474024719 -0.0294472896 -0.0458015267
v 0.480520735 -0.0211065628 -0.00113317931
v 0.479945361 -0.0857109602 -0.0095881025
v 0.481113678 -0.0782969808 -0.0276047752
v 0.490671035 -0.0484082784 -0.0378780559
v 0.487780989 -0.0512631875 0.00532330748
v 0.486059259 -0.0296273685 0.00545507251
v 0.491747117 -0.0219981729 -0.0264320663
v 0.492278569 -0.0241020213 -0.0142701535
v 0.497465719 -0.0626916083 -0.00623248623
v 0.498502271 -0.0627706673 -0.0253911226
v 0.497210973 -0.0358335017 -0.00504220873
v 0.5 -0.0407000237 -0.0202610705
usemtl AgenticSimDefault
f 1 2 3
f 3 2 4
f 5 3 4
f 3 5 6
f 1 3 7
f 7 3 6
f 1 8 2
f 2 8 9
f 10 4 2
f 10 2 9
f 11 12 13
f 14 12 11
f 13 12 15
f 15 12 16
f 16 12 6
f 17 12 14
f 6 12 17
f 18 19 14
f 19 17 14
f 20 19 21
f 7 19 20
f 21 19 18
f 7 17 19
f 16 6 5
f 16 5 22
f 22 5 4
f 23 8 24
f 8 20 24
f 9 8 23
f 1 20 8
f 25 11 13
f 26 11 25
f 27 11 28
f 27 14 11
f 28 11 26
f 25 13 29
f 30 13 15
f 29 13 30
f 10 9 23
f 10 23 31
f 22 4 10
f 32 10 31
f 32 22 10
f 33 25 29
f 34 25 33
f 26 25 35
f 35 25 34
f 23 24 36
f 36 24 37
f 24 38 37
f 24 20 21
f 24 21 38
f 31 23 39
f 39 23 40
f 23 36 40
f 41 27 42
f 38 27 41
f 42 27 43
f 43 27 28
f 27 18 14
f 38 18 27
f 30 15 44
f 45 15 46
f 15 16 46
f 44 15 45
f 33 29 47
f 48 29 30
f 47 29 48
f 49 33 50
f 50 33 47
f 51 33 49
f 33 52 34
f 52 33 51
f 43 28 26
f 43 26 53
f 54 26 35
f 53 26 54
f 55 56 37
f 56 36 37
f 57 56 55
f 57 40 56
f 40 36 56
f 55 37 58
f 37 38 41
f 58 37 41
f 57 59 39
f 39 40 57
f 60 39 59
f 39 60 31
f 59 57 61
f 61 57 55
f 60 59 61
f 62 63 64
f 64 63 65
f 66 63 62
f 65 63 67
f 67 63 68
f 69 63 66
f 63 69 68
f 50 64 49
f 62 64 50
f 49 64 70
f 70 64 65
f 50 71 62
f 71 50 47
f 51 49 70
f 72 30 44
f 48 30 72
f 62 73 66
f 73 62 71
f 46 60 74
f 46 32 60
f 60 61 75
f 74 60 75
f 32 31 60
f 70 65 76
f 76 65 67
f 61 55 77
f 77 55 58
f 47 78 71
f 78 47 48
f 79 46 74
f 45 46 79
f 16 22 46
f 46 22 32
f 41 42 80
f 41 80 81
f 41 81 82
f 82 58 41
f 77 75 61
f 54 35 34
f 54 34 83
f 84 34 85
f 83 34 84
f 34 52 85
f 86 43 87
f 42 43 86
f 43 53 87
f 51 70 88
f 88 70 76
f 89 67 68
f 90 67 89
f 76 67 90
f 91 51 88
f 52 51 91
f 92 75 77
f 92 77 58
f 93 69 66
f 68 69 94
f 69 93 95
f 94 69 95
f 75 92 96
f 92 81 96
f 82 81 92
f 92 58 82
f 97 66 73
f 93 66 98
f 98 66 97
f 99 54 100
f 100 54 83
f 53 54 99
f 89 68 101
f 101 68 94
f 71 102 73
f 102 71 78
f 74 96 79
f 96 74 75
f 103 44 45
f 104 72 44
f 103 104 44
f 105 48 72
f 105 78 48
f 79 106 45
f 106 79 96
f 86 106 96
f 81 86 96
f 86 87 107
f 106 86 107
f 80 42 86
f 80 86 81
f 103 45 106
f 107 87 108
f 87 99 108
f 53 99 87
f 109 72 104
f 105 72 109
f 110 73 102
f 97 73 110
f 106 107 103
f 95 93 111
f 111 93 112
f 112 93 98
f 113 89 101
f 90 89 113
f 108 103 107
f 104 103 108
f 100 83 84
f 100 84 114
f 115 84 91
f 84 85 91
f 114 84 115
f 102 78 116
f 116 78 105
f 108 100 117
f 108 99 100
f 100 114 117
f 108 117 104
f 118 94 95
f 101 94 119
f 119 94 118
f 109 104 120
f 104 117 120
f 91 121 115
f 121 91 88
f 85 52 91
f 88 76 122
f 122 76 90
f 115 121 109
f 109 120 115
f 123 115 120
f 123 114 115
f 110 102 116
f 124 95 111
f 118 95 125
f 125 95 124
f 109 121 105
f 126 105 121
f 105 126 116
f 121 88 127
f 127 88 122
f 113 101 128
f 101 119 128
f 121 127 126
f 129 111 112
f 124 111 129
f 130 90 113
f 122 90 130
f 131 112 98
f 129 112 131
f 119 118 132
f 132 118 125
f 133 98 97
f 131 98 133
f 134 97 110
f 133 97 134
f 110 116 135
f 135 116 126
f 136 113 128
f 130 113 136
f 134 110 135
f 127 122 137
f 137 122 130
f 128 119 138
f 139 119 132
f 138 119 139
f 125 124 140
f 141 124 129
f 140 124 141
f 132 125 142
f 142 125 140
f 143 126 127
f 135 126 143
f 143 127 137
f 136 128 138
f 144 129 131
f 141 129 144
f 145 132 142
f 139 132 145
f 146 131 133
f 144 131 147
f 147 131 146
f 148 133 134
f 146 133 148
f 137 130 149
f 150 130 136
f 149 130 150
f 134 135 151
f 152 135 143
f 151 135 152
f 148 134 151
f 143 137 153
f 153 137 149
f 154 136 138
f 150 136 154
f 155 140 141
f 156 141 144
f 155 141 156
f 142 140 157
f 157 140 158
f 158 140 155
f 152 143 153
f 159 145 142
f 159 142 157
f 160 138 139
f 154 138 160
f 161 139 145
f 160 139 161
f 162 144 147
f 156 144 162
f 163 145 159
f 161 145 163
f 164 149 150
f 153 149 164
f 165 150 154
f 164 150 165
f 147 146 166
f 167 146 148
f 166 146 167
f 162 147 166
f 168 154 160
f 165 154 168
f 169 148 151
f 167 148 169
f 152 153 170
f 170 153 164
f 157 158 171
f 157 172 159
f 157 171 172
f 158 155 173
f 174 155 156
f 173 155 174
f 151 152 175
f 175 152 170
f 169 151 175
f 176 158 173
f 158 176 171
f 177 163 159
f 177 159 172
f 178 160 161
f 168 160 178
f 179 156 162
f 174 156 179
f 161 163 180
f 161 180 178
f 181 164 165
f 170 164 181
f 177 180 163
f 182 162 166
f 179 162 182
f 183 166 167
f 182 166 183
f 184 165 168
f 181 165 184
f 185 173 174
f 176 173 185
f 172 171 186
f 187 171 176
f 186 171 187
f 188 167 169
f 183 167 188
f 189 168 178
f 184 168 189
f 177 172 190
f 190 172 186
f 175 170 191
f 170 181 192
f 191 170 192
f 193 178 180
f 193 189 178
f 194 169 175
f 188 169 194
f 194 175 191
f 192 181 184
f 195 174 179
f 185 174 195
f 196 176 185
f 187 176 196
f 197 180 177
f 197 193 180
f 177 190 198
f 198 197 177
f 199 179 182
f 200 195 179
f 200 179 199
f 201 182 183
f 199 182 201
f 184 189 202
f 192 184 203
f 203 184 202
f 196 185 204
f 204 185 195
f 186 187 205
f 205 187 196
f 206 183 188
f 201 183 206
f 190 186 207
f 207 186 205
f 208 189 193
f 202 189 208
f 209 193 197
f 208 193 209
f 191 192 210
f 210 192 203
f 211 188 194
f 206 188 212
f 212 188 211
f 194 191 213
f 213 191 210
f 211 194 213
f 190 214 198
f 207 214 190
f 198 215 197
f 209 197 215
f 205 196 216
f 216 196 204
f 217 195 200
f 204 195 217
f 218 199 201
f 200 199 218
f 219 207 205
f 219 205 216
f 201 206 220
f 220 206 212
f 221 198 214
f 215 198 221
f 218 201 220
f 203 202 222
f 223 202 208
f 222 202 223
f 210 203 224
f 224 203 222
f 225 208 209
f 223 208 225
f 225 209 215
f 212 211 226
f 226 211 213
f 214 207 227
f 227 207 219
f 217 200 228
f 228 200 218
f 216 204 229
f 229 204 217
f 213 210 230
f 230 210 224
f 231 212 226
f 220 212 231
f 232 226 213
f 232 213 230
f 221 214 233
f 233 214 227
f 219 216 234
f 234 216 229
f 215 221 235
f 225 215 236
f 236 215 235
f 222 223 237
f 224 222 237
f 221 233 235
f 238 217 228
f 229 217 238
f 232 231 226
f 239 218 220
f 228 218 240
f 240 218 239
f 223 225 241
f 241 237 223
f 241 225 236
f 230 224 242
f 242 224 237
f 227 219 243
f 219 234 243
f 244 220 231
f 239 220 244
f 233 227 245
f 245 227 243
f 246 228 240
f 238 228 246
f 232 230 247
f 247 230 242
f 248 235 233
f 248 233 245
f 234 229 249
f 250 229 238
f 249 229 250
f 235 251 236
f 251 235 248
f 252 237 241
f 242 237 252
f 253 231 232
f 244 231 253
f 253 232 247
f 254 241 236
f 236 251 254
f 243 234 255
f 255 234 249
f 256 240 239
f 246 240 256
f 257 238 246
f 250 238 257
f 258 252 241
f 254 258 241
f 239 244 259
f 256 239 259
f 247 242 260
f 260 242 252
f 245 243 261
f 262 243 255
f 261 243 262
f 248 245 263
f 263 245 261
f 264 246 256
f 257 246 264
f 251 248 265
f 254 251 265
f 263 265 248
f 249 250 266
f 266 250 257
f 267 244 253
f 259 244 267
f 255 249 268
f 268 249 266
f 253 247 269
f 269 247 260
f 267 253 269
f 270 252 258
f 260 252 270
f 256 259 271
f 264 256 271
f 272 254 265
f 258 254 272
f 273 255 268
f 262 255 273
f 266 257 274
f 275 257 264
f 274 257 275
f 276 265 263
f 272 265 276
f 263 261 277
f 277 261 262
f 259 267 278
f 271 259 278
f 279 258 272
f 270 258 279
f 268 266 280
f 280 266 274
f 281 263 277
f 276 263 281
f 273 268 280
f 269 260 282
f 283 260 270
f 282 260 283
f 284 264 271
f 275 264 284
f 285 262 273
f 277 262 286
f 286 262 285
f 287 267 269
f 278 267 287
f 287 269 282
f 288 272 276
f 279 272 288
f 289 270 279
f 283 270 289
f 271 278 290
f 284 271 290
f 273 280 291
f 285 273 291
f 292 277 286
f 281 277 292
f 274 275 293
f 293 275 284
f 288 276 294
f 294 276 281
f 295 280 274
f 291 280 295
f 295 274 293
f 290 278 287
f 296 279 288
f 289 279 297
f 297 279 296
f 298 282 283
f 283 289 299
f 283 299 298
f 286 285 300
f 292 286 301
f 301 286 300
f 302 288 294
f 296 288 302
f 285 291 303
f 300 285 303
f 304 284 290
f 293 284 305
f 305 284 304
f 287 282 306
f 298 307 282
f 307 306 282
f 308 281 292
f 294 281 309
f 309 281 308
f 290 287 310
f 310 287 306
f 299 289 297
f 304 290 310
f 311 295 293
f 311 293 305
f 308 292 301
f 312 291 295
f 303 291 312
f 302 294 313
f 313 294 309
f 312 295 314
f 314 295 311
f 296 302 315
f 315 302 313
f 297 296 316
f 316 296 315
f 301 300 317
f 317 300 303
f 299 297 318
f 318 297 316
f 299 319 298
f 299 318 319
f 320 307 298
f 298 319 320
f 305 304 321
f 322 304 310
f 321 304 322
f 323 306 307
f 310 306 324
f 324 306 323
f 311 305 325
f 325 305 321
f 309 308 326
f 327 308 301
f 326 308 327
f 328 313 309
f 328 309 326
f 327 301 317
f 323 307 320
f 329 303 312
f 317 303 329
f 322 310 324
f 329 312 314
f 315 313 328
f 330 314 311
f 330 311 325
f 331 316 315
f 331 315 328
f 318 316 332
f 332 316 331
f 329 314 333
f 333 314 330
f 334 321 322
f 325 321 334
f 335 323 320
f 324 323 336
f 336 323 335
f 319 318 337
f 337 318 332
f 338 317 329
f 327 317 339
f 339 317 338
f 320 319 340
f 340 319 337
f 328 326 341
f 342 326 327
f 341 326 342
f 335 320 340
f 338 329 333
f 331 328 343
f 343 328 341
f 342 327 344
f 344 327 339
f 345 322 324
f 345 324 336
f 334 322 345
f 330 325 346
f 346 325 334
f 333 330 347
f 347 330 346
f 332 331 348
f 348 331 343
f 349 337 332
f 349 332 348
f 350 338 333
f 339 338 351
f 351 338 350
f 350 333 347
f 352 341 342
f 352 342 344
f 353 334 345
f 346 334 353
f 340 337 354
f 354 337 349
f 344 339 355
f 355 339 351
f 343 341 356
f 356 341 352
f 357 336 335
f 345 336 358
f 358 336 357
f 335 340 359
f 360 359 340
f 360 340 354
f 361 335 359
f 357 335 361
f 353 345 358
f 348 343 362
f 362 343 356
f 352 344 363
f 363 344 355
f 347 346 364
f 364 346 353
f 349 348 365
f 365 348 366
f 366 348 362
f 367 356 352
f 367 352 363
f 351 350 368
f 369 350 347
f 368 350 369
f 370 354 349
f 370 349 365
f 371 355 351
f 363 355 371
f 371 351 368
f 361 359 372
f 372 359 360
f 366 356 367
f 366 362 356
f 373 347 364
f 369 347 373
f 360 354 374
f 374 354 370
f 375 353 358
f 364 353 375
f 376 357 361
f 358 357 377
f 377 357 376
f 376 361 372
f 378 363 371
f 367 363 378
f 372 360 379
f 379 360 374
f 375 358 377
f 370 365 380
f 381 365 366
f 380 365 381
f 371 368 382
f 382 378 371
f 373 364 383
f 383 364 375
f 384 374 370
f 384 370 380
f 385 366 367
f 386 367 378
f 385 367 386
f 381 366 385
f 387 372 379
f 376 372 387
f 368 369 388
f 389 369 373
f 388 369 389
f 379 374 390
f 390 374 384
f 368 391 382
f 368 388 391
f 389 373 383
f 386 378 392
f 392 378 382
f 387 379 393
f 393 379 390
f 394 375 377
f 383 375 395
f 395 375 394
f 377 376 396
f 397 376 387
f 396 376 397
f 394 377 396
f 398 380 381
f 384 380 399
f 399 380 398
f 400 381 385
f 398 381 400
f 401 385 386
f 385 401 400
f 401 386 392
f 402 382 391
f 392 382 402
f 403 390 384
f 403 384 399
f 404 387 393
f 397 387 404
f 389 383 405
f 405 383 395
f 405 388 389
f 406 393 390
f 406 390 403
f 394 396 407
f 407 396 397
f 391 388 408
f 409 388 405
f 408 388 409
f 404 393 406
f 402 391 408
f 401 392 410
f 410 392 402
f 411 398 400
f 399 398 411
f 395 394 412
f 412 394 407
f 400 401 413
f 413 401 410
f 411 400 413
f 403 399 414
f 414 399 411
f 415 405 395
f 409 405 415
f 416 397 404
f 417 407 397
f 417 397 416
f 418 395 412
f 415 395 418
f 406 403 419
f 420 403 414
f 419 403 420
f 404 406 421
f 416 404 421
f 422 410 402
f 413 410 422
f 421 406 423
f 423 406 419
f 424 402 408
f 422 402 424
f 425 412 407
f 407 417 425
f 426 411 413
f 414 411 427
f 427 411 426
f 428 413 422
f 426 413 428
f 418 412 429
f 429 412 425
f 420 414 430
f 430 414 427
f 431 408 409
f 432 409 415
f 409 432 433
f 431 409 433
f 424 408 434
f 434 408 431
f 435 415 418
f 432 415 435
f 436 422 424
f 428 422 436
f 435 418 437
f 437 418 429
f 417 416 438
f 439 416 421
f 438 416 439
f 425 417 440
f 440 417 438
f 423 420 441
f 423 419 420
f 420 430 442
f 441 420 442
f 443 427 426
f 430 427 443
f 444 421 423
f 439 421 444
f 444 423 441
f 429 425 440
f 436 424 434
f 445 426 428
f 443 426 445
f 446 432 435
f 433 432 446
f 446 435 437
f 447 428 436
f 445 428 447
f 431 433 448
f 448 433 446
f 449 429 440
f 437 429 449
f 450 430 443
f 442 430 450
f 451 434 431
f 451 431 448
f 452 443 445
f 450 443 452
f 453 438 439
f 440 438 454
f 454 438 453
f 455 439 444
f 453 439 455
f 444 441 456
f 457 441 442
f 456 441 457
f 449 440 454
f 446 437 458
f 458 437 449
f 459 436 434
f 447 436 460
f 460 436 459
f 448 446 461
f 461 446 458
f 462 455 444
f 462 444 456
f 459 434 451
f 463 445 447
f 452 445 463
f 464 442 450
f 457 442 464
f 447 460 463
f 451 448 461
f 465 450 452
f 464 450 465
f 466 452 463
f 466 465 452
f 458 449 467
f 468 449 454
f 467 449 468
f 453 455 469
f 469 455 462
f 454 453 470
f 470 453 469
f 461 458 471
f 471 458 467
f 459 451 472
f 473 451 461
f 472 451 473
f 468 454 470
f 460 459 474
f 474 459 472
f 456 457 475
f 476 457 464
f 475 457 476
f 473 461 471
f 477 463 460
f 466 463 477
f 462 456 478
f 478 456 475
f 477 460 474
f 479 464 465
f 476 464 479
f 469 462 480
f 480 462 478
f 481 465 466
f 479 465 481
f 473 471 482
f 482 472 473
f 470 469 483
f 483 469 480
f 484 466 477
f 481 466 484
f 485 471 467
f 482 471 485
f 474 472 486
f 486 472 482
f 487 475 476
f 488 478 475
f 488 475 487
f 477 474 489
f 489 474 486
f 467 468 490
f 491 468 470
f 490 468 491
f 485 467 492
f 492 467 490
f 493 476 479
f 487 476 493
f 470 483 494
f 491 470 494
f 495 480 478
f 495 478 488
f 484 477 496
f 496 477 489
f 497 479 481
f 493 479 497
f 483 480 495
f 498 482 485
f 486 482 498
f 481 484 499
f 497 481 499
f 488 487 500
f 500 487 493
f 501 485 492
f 498 485 501
f 489 486 502
f 502 486 498
f 503 483 495
f 494 483 503
f 504 484 496
f 499 484 504
f 495 488 505
f 505 488 500
f 506 490 491
f 492 490 507
f 507 490 506
f 508 493 497
f 500 493 508
f 506 491 494
f 496 489 509
f 509 489 502
f 503 495 505
f 501 492 507
f 508 497 499
f 510 498 501
f 502 498 510
f 494 503 511
f 506 494 511
f 504 496 512
f 509 512 496
f 505 500 513
f 513 500 508
f 514 501 507
f 510 501 514
f 503 505 515
f 515 505 513
f 512 499 504
f 499 516 508
f 517 499 512
f 517 516 499
f 509 502 518
f 518 502 510
f 511 503 515
f 507 506 519
f 519 506 511
f 513 508 516
f 507 519 520
f 514 507 520
f 512 509 521
f 521 509 518
f 522 511 515
f 519 511 522
f 518 510 523
f 523 510 514
f 512 524 517
f 516 517 524
f 525 524 512
f 521 525 512
f 526 515 513
f 527 513 516
f 526 513 527
f 528 522 515
f 528 515 526
f 520 519 522
f 521 518 523
f 527 516 524
f 523 514 529
f 529 514 520
f 520 522 530
f 530 522 528
f 531 524 525
f 527 524 531
f 521 523 532
f 532 523 529
f 533 526 527
f 528 526 533
f 534 525 521
f 534 521 532
f 531 525 534
f 529 520 535
f 535 520 530
f 531 536 527
f 533 527 536
f 537 530 528
f 537 528 533
f 532 529 538
f 535 538 529
f 539 531 534
f 539 536 531
f 535 530 540
f 540 530 537
f 541 533 536
f 537 533 541
f 534 532 542
f 538 543 532
f 542 532 543
f 534 542 539
f 544 538 535
f 535 540 544
f 545 536 539
f 541 536 546
f 546 536 545
f 547 540 537
f 548 537 541
f 547 537 548
f 544 543 538
f 544 540 547
f 549 539 542
f 545 539 549
f 550 542 543
f 549 542 550
f 551 541 546
f 548 541 551
f 550 543 544
f 551 546 545
f 551 545 549
f 552 544 547
f 550 544 552
f 552 547 548
f 552 548 551
f 549 552 551
f 550 552 549
f 1 7 20
f 21 18 38
f 117 123 120
f 117 114 123
f 7 6 17
