#usda 1.0
(
    defaultPrim = "Asset"
    metersPerUnit = 1
    upAxis = "Z"
)

def Xform "Asset"
{
    def Mesh "Mesh"
    {
        point3f[] points = [(-0.496451128, 0.23988923, -4.39216789e-05), (-0.498019132, 0.242326883, -7.02746862e-05), (-0.5, 0.235782553, -0.00566589657), (-0.491993078, 0.238861462, -0.00278024227), (-0.493464454, 0.232927643, -0.00740080289), (-0.497470111, 0.223506443, -0.00886339479), (-0.49655654, 0.229940969, 0.00112000281), (-0.492941786, 0.243367826, 0.00564393573), (-0.492116059, 0.244369241, 0.00394416676), (-0.488000597, 0.244053005, 0.00126055218), (-0.492739746, 0.188347139, 0.00524864062), (-0.494553712, 0.209262643, -0.0124913255), (-0.488448598, 0.169781446, -0.0100492801), (-0.493508376, 0.210760372, 0.00652676148), (-0.480371402, 0.195835786, -0.0174456908), (-0.486920124, 0.214379518, -0.0124210508), (-0.494197946, 0.219325099, -0.000382118606), (-0.488734089, 0.222654363, 0.0120521087), (-0.493960769, 0.225860645, 0.00735688121), (-0.493135042, 0.236783967, 0.00655311449), (-0.489744288, 0.230472422, 0.0106597915), (-0.483977372, 0.232607015, -0.00514322859), (-0.486274475, 0.246402815, 0.00767750947), (-0.485734239, 0.239186483, 0.0132336018), (-0.486498476, 0.151022497, 0.000588550497), (-0.478983477, 0.173009689, 0.016352041), (-0.482611407, 0.213193633, 0.0175906324), (-0.480639324, 0.193586996, 0.0171733764), (-0.480222068, 0.136901677, -0.014467801), (-0.472895932, 0.153403052, -0.0194045977), (-0.481842778, 0.245379439, 0.00561319056), (-0.4796994, 0.238409069, -0.000237177066), (-0.480037597, 0.109973296, -0.00103655162), (-0.467265173, 0.137064187, 0.0178102408), (-0.472711461, 0.154079446, 0.0172348668), (-0.481364032, 0.243411748, 0.013787015), (-0.477617512, 0.23780295, 0.0172348668), (-0.483718234, 0.227402296, 0.0158689026), (-0.477151943, 0.247527209, 0.0103523397), (-0.480876501, 0.247189013, 0.011274695), (-0.47007616, 0.224340955, 0.0212537004), (-0.467888861, 0.209012289, 0.0219344864), (-0.466474583, 0.194434684, 0.0226284489), (-0.45755409, 0.168889836, -0.0197471868), (-0.451686153, 0.203096039, -0.00867453158), (-0.470080552, 0.230200107, -0.00278463444), (-0.469052785, 0.0977455002, -0.0221760557), (-0.457286167, 0.116258488, -0.0246005323), (-0.475588331, 0.0776601165, 0.00174808282), (-0.475825508, 0.0699606462, -0.0134795632), (-0.464568382, 0.0949520814, 0.0129832483), (-0.465767443, 0.114773935, 0.0152188617), (-0.464252146, 0.177788368, 0.0222419382), (-0.460848215, 0.158743928, 0.0212185631), (-0.471319144, 0.24617003, 0.0164706296), (-0.477151943, 0.247114346, 0.0142745456), (-0.476699549, 0.248041093, 0.0133653669), (-0.470524161, 0.236849849, 0.0185525172), (-0.476185666, 0.247017718, 0.0117183039), (-0.472228322, 0.243178963, 0.0070713903), (-0.467032388, 0.248168466, 0.0145512522), (-0.472004322, 0.0274883827, -0.0323571008), (-0.476062685, -0.00926967032, -0.00852959004), (-0.47603194, 0.0399533552, -0.00366746018), (-0.470985339, 0.0173776122, 0.0108793999), (-0.462078022, -0.0149487434, -0.0453183883), (-0.464612303, -0.00787296094, 0.0203137765), (-0.460681313, -0.0331411028, 0.0158205887), (-0.463342967, -0.0507932255, -0.012425443), (-0.465047128, 0.0579963809, 0.0170328271), (-0.460180606, 0.0613959188, -0.0354843244), (-0.450500268, 0.138957212, -0.0211175432), (-0.448479871, 0.0322275319, -0.0514366781), (-0.457540913, 0.237363733, 0.00566589657), (-0.455024201, 0.243653317, 0.0130579151), (-0.439805339, 0.0380866838, 0.0310614113), (-0.463637242, 0.246784933, 0.0153681954), (-0.446305748, 0.0847007616, -0.031210745), (-0.455564437, 0.223752405, 0.000720315533), (-0.462227356, 0.215864071, 0.0212361317), (-0.459455898, 0.225746449, 0.0184646738), (-0.465635678, 0.231478228, 0.0189609888), (-0.454703573, 0.147095899, 0.020458718), (-0.447733202, 0.136181361, 0.0198482067), (-0.456693225, 0.123966743, 0.0179595745), (-0.453232196, 0.206759107, 0.0206036596), (-0.450838465, 0.18004155, 0.0186491448), (-0.433867128, 0.0803085937, 0.0238933933), (-0.447351084, -0.0223583306, 0.0363100519), (-0.425939265, 0.0123881095, 0.0446947004), (-0.440833106, 0.112977538, 0.0186754979), (-0.461313785, 0.238233382, 0.0163959627), (-0.447939634, -0.0548999025, -0.047272903), (-0.442726131, -0.070061666, 0.0148543118), (-0.438158276, -0.0899581866, -0.0151398027), (-0.450531013, 0.227507708, 0.0134883476), (-0.417396499, 0.00699013519, -0.0726552412), (-0.423317141, -0.0294472896, -0.0737357145), (-0.447390613, 0.164638217, 0.0182714184), (-0.445150607, 0.152915521, 0.0182011437), (-0.432593399, -0.0494755752, 0.0429246568), (-0.438193414, 0.0566611618, -0.0429202646), (-0.446894298, 0.177915741, -0.00419012816), (-0.443639702, 0.152849639, -0.00729099869), (-0.435263838, 0.103749594, -0.0217895449), (-0.447944026, 0.206223263, 0.00830558947), (-0.446094924, 0.18956377, 0.0115514015), (-0.444351233, 0.163074605, 0.0123551683), (-0.436717645, 0.123676859, -0.0104270066), (-0.415446376, 0.0431596377, -0.0556531593), (-0.428139741, -0.0860930788, -0.0480283558), (-0.423918868, -0.0614486248, -0.0660713815), (-0.415543004, -0.0271984996, 0.0552227268), (-0.442203463, 0.143015575, 0.0151398027), (-0.438926906, 0.132144959, 0.0115777545), (-0.416491712, 0.0679709941, -0.0380361739), (-0.442141972, 0.149814651, 0.0107827722), (-0.422350864, -0.0982066779, 0.0134092886), (-0.409666283, -0.0813275767, 0.044343327), (-0.440802361, 0.14106106, 0.000992629942), (-0.42809582, 0.10250661, 0.00780049017), (-0.414396648, 0.0454347807, 0.0365779742), (-0.440701341, 0.141465139, 0.011432813), (-0.408273966, -0.113895502, -0.0439919535), (-0.408533104, -0.120971284, -0.00890292431), (-0.405950509, 0.0761008969, -0.0132467783), (-0.405190664, 0.0737379106, 0.0137123481), (-0.404127759, -0.0519220127, 0.0575901053), (-0.403069247, -0.0892686162, -0.0665940495), (-0.386282381, 0.0114613621, 0.0454765063), (-0.394377147, -0.0490319662, -0.0800560441), (-0.396893859, -0.115656761, 0.0258918297), (-0.388856192, -0.0101700647, -0.0780576077), (-0.38484175, 0.0227228806, -0.065272007), (-0.385491791, 0.0537403702, -0.0409042595), (-0.380159699, -0.0300753696, 0.0618109787), (-0.381328016, 0.0460672529, 0.0307934891), (-0.376703063, -0.0673121689, 0.0633570218), (-0.374028233, -0.0973458129, 0.0543838228), (-0.379320795, -0.144693383, -0.0303674488), (-0.379948875, -0.118766416, -0.06242149), (-0.375135059, -0.141675963, 0.012636267), (-0.37736628, 0.0585146567, -0.00216973094), (-0.367655197, -0.0858119801, -0.0816811462), (-0.361528123, -0.124704627, 0.0476374529), (-0.354382066, -0.0288148174, -0.0806929084), (-0.356736268, -0.0597312872, -0.0854628027), (-0.35165453, 0.00273851668, -0.0692557032), (-0.360842945, 0.0245368459, 0.0383392335), (-0.354663165, -0.00793005912, 0.0546209998), (-0.346419066, 0.0320298843, -0.04751008), (-0.346972479, 0.0399577473, -0.0120301478), (-0.350279781, 0.036913975, 0.0158557261), (-0.354254693, -0.0453601138, 0.0654652623), (-0.349291543, -0.142646633, -0.0591054032), (-0.340151442, -0.116737234, -0.0794455327), (-0.349300328, -0.164001353, 0.0027758501), (-0.342786743, -0.165617671, -0.0314127847), (-0.342048858, -0.15230501, 0.034166674), (-0.34156572, -0.0790129042, 0.0669761681), (-0.33848681, -0.108747881, 0.0649030649), (-0.327778705, -0.0874151214, -0.0864817857), (-0.331687734, -0.131797978, 0.0566809266), (-0.335592372, 0.00681444848, 0.0437899138), (-0.327256037, -0.0267944202, 0.0575110463), (-0.327493214, -0.0521899349, -0.0845624083), (-0.320351549, -0.0167319636, -0.0728397122), (-0.318972408, -0.0588352849, 0.0663920098), (-0.314444083, 0.0136794069, -0.0482962781), (-0.313354826, 0.0162707859, 0.0140681137), (-0.317263855, -0.184183364, -0.00824849129), (-0.316411775, -0.176887973, 0.0192113423), (-0.324269363, -0.160180167, -0.0552578642), (-0.308940697, -0.140529608, -0.0771440368), (-0.309713718, 0.0179398097, -0.014415095), (-0.308475127, -0.178548213, -0.0446947004), (-0.30222068, -0.16188872, 0.0518100124), (-0.3148833, -0.094574355, 0.0708237072), (-0.292210929, -0.116442959, -0.0865081387), (-0.302668681, -0.13378763, 0.0656804786), (-0.307724066, -0.0117424608, 0.0470005886), (-0.29719604, -0.0750863061, -0.0855945678), (-0.291297359, -0.0426852836, -0.0766960356), (-0.29022567, -0.041099711, 0.0578931649), (-0.287950527, -0.164572335, -0.0695192333), (-0.286632876, -0.196222296, 0.00309208619), (-0.288231625, -0.195532726, -0.0319793744), (-0.277883678, -0.0156383138, -0.0598081501), (-0.2834793, -0.0755343072, 0.0673319337), (-0.274066884, -0.192554836, 0.0299370163), (-0.275705163, -0.00234761374, 0.00963641634), (-0.280114899, -0.0138463093, 0.0402322578), (-0.280457488, -0.117189627, 0.0704855102), (-0.276535282, 0.000287686997, -0.0183460853), (-0.26427235, -0.147056369, -0.0821379316), (-0.268475654, -0.188584316, -0.0527762893), (-0.270746405, -0.153583131, 0.0658781261), (-0.257455705, -0.18374854, 0.0510545595), (-0.261887402, -0.098079305, -0.0860293924), (-0.242447667, -0.129935699, -0.0846414673), (-0.253621342, -0.0708830014, -0.0801658483), (-0.253836559, -0.0648876923, 0.0647010251), (-0.25408252, -0.0387586855, 0.0511160499), (-0.245434341, -0.173387416, -0.0715220619), (-0.260578536, -0.205603967, -0.0249035919), (-0.256744174, -0.038561038, -0.0678589938), (-0.251552631, -0.207457462, 0.012478149), (-0.251965495, -0.095804162, 0.0736127338), (-0.252409104, -0.128591695, 0.074925992), (-0.243853161, -0.0202456979, 0.025246181), (-0.250063686, -0.0143118791, -0.0298930946), (-0.236377691, -0.0265704196, -0.0529607604), (-0.238411265, -0.0186952626, -0.00143184673), (-0.237563577, -0.203934943, 0.0358532665), (-0.229745518, -0.155318037, 0.0726859863), (-0.232552113, -0.203627491, -0.0483929058), (-0.224343151, -0.155195056, -0.0837762103), (-0.220267219, -0.0952946705, -0.082410246), (-0.214179675, -0.223840248, -0.0102381433), (-0.212778573, -0.0538194292, -0.064986516), (-0.225643233, -0.190358752, 0.0570806138), (-0.226627079, -0.0578338706, 0.0583192052), (-0.221598046, -0.0827725999, 0.0694226056), (-0.211724453, -0.0417102223, 0.0439216789), (-0.221356477, -0.115524996, 0.0784529028), (-0.219195531, -0.027861717, -0.0283997576), (-0.212251513, -0.216979682, 0.0225669586), (-0.200449758, -0.128279851, -0.0847556637), (-0.198398616, -0.188189021, -0.071421042), (-0.204767259, -0.0322934144, 0.0184163599), (-0.193066524, -0.0392462161, -0.0443081896), (-0.191463382, -0.0344192236, -0.0127987772), (-0.20029164, -0.205437065, 0.0532682121), (-0.190290674, -0.219694042, -0.0427357935), (-0.197608025, -0.178311036, 0.0712673161), (-0.191182284, -0.143489929, 0.0770737621), (-0.192236404, -0.0666445594, 0.0599970133), (-0.184708228, -0.162745193, -0.0823092262), (-0.18041708, -0.0742825394, -0.0711750806), (-0.183957168, -0.100894685, -0.0813824788), (-0.176934091, -0.102278217, 0.074873286), (-0.176191815, -0.0468007449, 0.0388135876), (-0.174412987, -0.233810469, 0.00527060146), (-0.160059382, -0.0552161386, -0.0522053075), (-0.169498151, -0.220963378, 0.034821107), (-0.167978461, -0.13054621, -0.0843076626), (-0.16058205, -0.0421406548, 0.00721633184), (-0.168206854, -0.197944026, 0.0656453412), (-0.164236334, -0.211463119, -0.0594216393), (-0.164069431, -0.188061648, -0.0767399573), (-0.167837911, -0.170796037, 0.0790414533), (-0.153730268, -0.074559246, 0.0624127057), (-0.154898585, -0.0453513295, -0.0208671896), (-0.152509246, -0.138781525, 0.0836356609), (-0.145248992, -0.231227874, -0.0356292659), (-0.147251821, -0.0998186035, -0.0766696826), (-0.143088045, -0.172280589, -0.0835214645), (-0.135125045, -0.107447799, 0.0761426225), (-0.134694613, -0.0749501489, -0.0643189065), (-0.12782087, -0.0542235086, 0.0352251864), (-0.139675331, -0.233665528, 0.0267043807), (-0.123903056, -0.243442493, -0.00159435694), (-0.130904172, -0.215987052, 0.0572035946), (-0.127526595, -0.124080939, -0.0817733817), (-0.139736821, -0.179461784, 0.0786856877), (-0.13274449, -0.198629204, -0.073305282), (-0.120529871, -0.0546319803, -0.0295461134), (-0.129779777, -0.218411529, -0.0569093193), (-0.119194652, -0.051825385, 0.000667609519), (-0.114929857, -0.0818414603, 0.064121259), (-0.106843876, -0.0995287204, -0.0719656708), (-0.119853477, -0.141320198, 0.0842637409), (-0.10636513, -0.233068193, -0.0393757851), (-0.0993859749, -0.178504291, -0.0802976133), (-0.110476199, -0.149454493, -0.0825156581), (-0.104832263, -0.190872636, 0.0771264681), (-0.10784529, -0.237179262, 0.0279561486), (-0.0989994642, -0.0724510054, -0.058183048), (-0.0918138775, -0.113140049, 0.0774163512), (-0.100255624, -0.213031123, -0.0633087079), (-0.0801658483, -0.218749725, 0.062004234), (-0.0811189487, -0.0574473599, 0.014937763), (-0.0848391149, -0.0669080895, 0.0478438848), (-0.0787954919, -0.118239356, -0.0776623126), (-0.0823707165, -0.243688455, -0.0226943315), (-0.0838772301, -0.246082186, 0.00766433296), (-0.0796783176, -0.0598542679, -0.0227426453), (-0.0875842198, -0.152076617, 0.0852431943), (-0.0745834029, -0.0925232126, 0.0681488769), (-0.0732877133, -0.08366421, -0.0619163907), (-0.0691590755, -0.226655628, -0.0503254596), (-0.0703844904, -0.24005174, 0.028228463), (-0.0673363259, -0.157786435, -0.0815362046), (-0.0666116182, -0.189919535, 0.0796783176), (-0.0576472035, -0.19689869, -0.0730329676), (-0.054129077, -0.134336651, 0.0833150326), (-0.0500794982, -0.10868639, 0.0763358779), (-0.0464208224, -0.0649535748, 0.0361167965), (-0.0434385404, -0.0821708729, 0.0618065865), (-0.0482699251, -0.248168466, -0.0115294407), (-0.0399116296, -0.245845009, 0.0143755655), (-0.0566897109, -0.163825666, 0.0848786444), (-0.0382118606, -0.238264127, -0.0372851132), (-0.0458893701, -0.0971964792, -0.0679292685), (-0.0345136552, -0.128332557, -0.0786241973), (-0.0439392475, -0.0598454835, -0.0109979884), (-0.0374124861, -0.0602934847, 0.0130886603), (-0.0421296744, -0.232220504, 0.0452788587), (-0.0417212028, -0.21065496, 0.0698749989), (-0.0393713929, -0.073408498, -0.0496578501), (-0.0256502605, -0.162143466, -0.0799725929), (-0.0372411915, -0.222882755, -0.0554423352), (-0.0328051019, -0.188039688, 0.0815274203), (-0.018025457, -0.199020107, -0.0722906912), (-0.021060445, -0.160992718, 0.0854144889), (-0.0155702352, -0.131749664, 0.0828055412), (-0.00456346243, -0.24272657, -0.0274730101), (-0.00774339198, -0.10568654, 0.0752422281), (-0.00746668541, -0.0757539156, 0.0542564499), (-0.00994826026, -0.0623094897, 0.0258391237), (-0.012688973, -0.0996297402, -0.0681796221), (-0.000658825183, -0.0816482049, -0.0588594418), (-0.00771703898, -0.060249563, -0.0058942893), (-0.000689570358, -0.06812472, -0.0420110858), (0.000948708263, -0.130721897, -0.0786329817), (-0.00925429774, -0.227542846, 0.0530046821), (-0.0032414199, -0.241949156, 0.0190093026), (-0.00171733764, -0.200236738, 0.0760459948), (-0.00615342721, -0.225540017, -0.0520427973), (0.0144590167, -0.163259076, -0.0789448256), (0.0154428623, -0.163693901, 0.0865081387), (0.018078163, -0.128209577, 0.0833326013), (0.0236737849, -0.196990926, -0.0729539086), (0.0269679108, -0.104689518, -0.0710169626), (0.031105333, -0.0594457963, 0.0031184392), (0.0296647019, -0.0679270724, -0.0304948216), (0.0287906605, -0.0982681682, 0.0726069273), (0.0236298632, -0.225179859, -0.0486476515), (0.0289443864, -0.240627114, -0.0242842962), (0.0312458823, -0.0651907519, 0.0381503703), (0.0293572502, -0.219737963, 0.0596412477), (0.024042727, -0.235962631, 0.0372060542), (0.0357434623, -0.192308875, 0.0775920379), (0.0383963317, -0.240324054, 0.014388742), (0.0347113028, -0.0861326083, -0.0603088572), (0.0417519479, -0.132307469, -0.0781234902), (0.0584948919, -0.161146444, -0.0792039635), (0.0538260174, -0.16413751, 0.0849093896), (0.0556926888, -0.125064784, 0.0825332268), (0.0548757456, -0.197706849, -0.0676964836), (0.0593733255, -0.225654213, -0.0430827748), (0.0552578642, -0.230006852, 0.0427972839), (0.0646527113, -0.107008582, -0.0727474767), (0.0590483051, -0.091095758, 0.0691502912), (0.0565272007, -0.241272762, -0.00569224958), (0.0579854004, -0.206078321, 0.066058205), (0.0696817435, -0.0598015619, -0.0286940328), (0.0761514068, -0.0838135437, -0.0620525479), (0.0612927029, -0.0582599109, 0.0208627975), (0.072808967, -0.062761883, 0.0413039468), (0.0749611293, -0.0569202997, -0.00435703054), (0.0560660231, -0.185184779, 0.0754135226), (0.0714122577, -0.235874788, 0.0198438145), (0.0795070231, -0.128859618, -0.0774163512), (0.0826518153, -0.14906359, 0.0848083697), (0.0873514349, -0.18998981, 0.0756023858), (0.0867321392, -0.224578132, 0.0432365007), (0.0932193712, -0.210909706, -0.0554379431), (0.0921784274, -0.178794174, -0.0745043439), (0.0880673583, -0.11302146, 0.0807895361), (0.0848215462, -0.230375794, -0.0282460317), (0.0923892515, -0.0551458639, 0.0120125792), (0.0903337169, -0.152199598, -0.0782464709), (0.0941856482, -0.0760130535, 0.062368784), (0.110713376, -0.101162607, -0.0709730409), (0.108139566, -0.0561604547, -0.0197340103), (0.108240585, -0.0672814238, -0.0521042876), (0.103668339, -0.233362468, 0.00408471613), (0.105034303, -0.0582730874, 0.0358181291), (0.113897698, -0.134955947, 0.0853881359), (0.115369074, -0.176795738, 0.0790458454), (0.121052539, -0.225096408, -0.0245741793), (0.124689254, -0.135588419, -0.0773109391), (0.120832931, -0.0977059707, 0.0759581514), (0.116919509, -0.20441369, 0.0612663498), (0.117262098, -0.227617512, 0.0257205351), (0.123938193, -0.050595578, 0.00791468653), (0.134233435, -0.189695535, -0.0680522492), (0.123274976, -0.165521043, -0.0757517195), (0.127104946, -0.0654894193, 0.0577218704), (0.13505477, -0.21101951, -0.047457374), (0.137865758, -0.228105043, 0.00808158891), (0.134290533, -0.05294978, 0.0293923875), (0.14273228, -0.0810289092, -0.0636381205), (0.154736075, -0.114361071, -0.0738191657), (0.133864493, -0.054992138, -0.0392308436), (0.154534035, -0.0480525128, -0.0202610705), (0.139420585, -0.153306424, 0.0855594304), (0.144761461, -0.118748847, 0.082331187), (0.147269389, -0.18638384, 0.0728221436), (0.143694165, -0.21871898, 0.0389892743), (0.162589271, -0.220822829, -0.0111253613), (0.156738903, -0.0791666301, 0.0680786022), (0.161429738, -0.0468885883, 0.00551656287), (0.153009953, -0.155274115, -0.0772450566), (0.162049034, -0.052532524, 0.0354140497), (0.169164346, -0.061690194, -0.0552973937), (0.183373009, -0.20192333, -0.0416553202), (0.180847513, -0.184020854, -0.063519532), (0.16114864, -0.219000079, 0.0216797407), (0.169656269, -0.152748619, 0.0828933845), (0.181743515, -0.0861413927, -0.0684826817), (0.175941461, -0.193240014, 0.0647449468), (0.178352761, -0.106714307, 0.0800428676), (0.183856148, -0.143037535, -0.07571219), (0.1913975, -0.0403574346, -0.016088511), (0.198060419, -0.0444772881, -0.0424151653), (0.192341816, -0.110293924, -0.0757034057), (0.177048287, -0.0630693348, 0.0530134664), (0.198596263, -0.0711377472, 0.0665501278), (0.200871406, -0.0377177417, 0.00847249185), (0.19196409, -0.212530416, 0.0190180869), (0.202417449, -0.0463132143, 0.0384446455), (0.204740906, -0.209253859, -0.0067288012), (0.202048507, -0.0639301997, -0.061767057), (0.204881455, -0.168498933, 0.0750489727), (0.19956254, -0.133440649, 0.0842681331), (0.214952696, -0.198497439, 0.0467853723), (0.223245109, -0.0809937719, -0.0715220619), (0.215523678, -0.102511002, 0.0796212194), (0.224580328, -0.190648635, -0.0448967401), (0.206980912, -0.158142201, -0.0735161061), (0.216006817, -0.176646404, -0.0616923901), (0.240299897, -0.198927872, -0.0154252936), (0.210925078, -0.134705593, -0.0771352524), (0.235336748, -0.203640668, 0.0128734441), (0.237080438, -0.108506312, -0.0771001151), (0.23372043, -0.0354074614, -0.0409306125), (0.234203568, -0.0307825086, -0.0167385518), (0.234392431, -0.056586495, -0.0622282346), (0.234344118, -0.0464318028, 0.0483006702), (0.241863509, -0.0770144678, 0.0713463751), (0.231080737, -0.131297271, 0.0821642846), (0.239509307, -0.0308791363, 0.0128119537), (0.240400917, -0.174511811, 0.0645077697), (0.237471341, -0.142343573, -0.0746185402), (0.244266025, -0.194008644, 0.0356029129), (0.247186816, -0.165411239, -0.0632955314), (0.268238477, -0.0750950904, -0.0739641072), (0.252171927, -0.105563559, 0.0791556496), (0.269929462, -0.178750253, -0.0416860654), (0.265045371, -0.140639412, 0.0764983881), (0.268010084, -0.0268383419, -0.0355414225), (0.273983433, -0.0415169669, -0.0601331705), (0.265704196, -0.0234695491, -0.0125528158), (0.274470963, -0.0290300336, 0.0328797688), (0.272902959, -0.0555894729, 0.061244389), (0.271211975, -0.115191191, -0.0785978443), (0.272503272, -0.191654442, -0.00888535563), (0.276886656, -0.188263688, 0.0226635863), (0.273223588, -0.15028022, -0.0731383796), (0.287880252, -0.0200260895, 0.00418134383), (0.273939511, -0.171143018, 0.0536151934), (0.281032862, -0.0863434324, 0.074561442), (0.291789281, -0.1141766, 0.0769376049), (0.303134251, -0.145650875, 0.0656189882), (0.310245171, -0.0930854101, -0.0806533789), (0.306709476, -0.0623402349, -0.0735995573), (0.30106554, -0.0178256134, -0.022971038), (0.312059136, -0.0234783334, -0.0518451497), (0.302769701, -0.13488128, -0.0764720351), (0.304610019, -0.174195574, -0.0365647977), (0.296734862, -0.161014679, -0.0608447017), (0.310873251, -0.17911041, 0.00191937737), (0.306511828, -0.0380032326, 0.0531188784), (0.307390262, -0.062002038, 0.0651314576), (0.314703221, -0.170387565, 0.0339294969), (0.310802976, -0.0197230299, 0.0221277418), (0.317830445, -0.09407804, 0.0720359455), (0.318432172, -0.0146852133, -0.00194133821), (0.326676271, -0.117615668, 0.0710740607), (0.324462618, -0.156064705, -0.0584070486), (0.339404773, -0.0123837174, -0.0230676657), (0.340283207, -0.141618865, 0.0572958301), (0.335478175, -0.124950588, -0.0775393319), (0.337687436, -0.167971873, -0.0290673671), (0.335829549, -0.0428829312, 0.053944606), (0.340454502, -0.021818094, 0.0356951484), (0.34579977, -0.169706779, 0.0104445752), (0.341846819, -0.0675932677, -0.0772758018), (0.342690115, -0.0420001054, -0.0696641748), (0.348140795, -0.0972711461, -0.0801570639), (0.342334349, -0.0648876923, 0.0632691784), (0.356569366, -0.0218751922, -0.0561275134), (0.347688402, -0.0122255993, 0.00545946468), (0.360109453, -0.156161333, 0.0323131791), (0.351983942, -0.0925363891, 0.0669673838), (0.354474301, -0.142396279, -0.0546561372), (0.371305089, -0.108919175, 0.060119994), (0.365507427, -0.0410250441, 0.0493372219), (0.370229008, -0.116298017, -0.0734502236), (0.372328464, -0.157926985, -0.0279385799), (0.372934583, -0.0116809705, -0.0158425496), (0.372864308, -0.131898998, 0.0497413013), (0.370532067, -0.0155021566, 0.0206300126), (0.372960936, -0.0456763499, -0.0698310772), (0.382373352, -0.0804886726, -0.075475013), (0.376790906, -0.0682740537, 0.0572563006), (0.38944035, -0.151826263, 0.0104094379), (0.39164961, -0.138517995, -0.0480239637), (0.390687726, -0.017267808, -0.046332979), (0.392958476, -0.134139003, 0.0381152329), (0.397372605, -0.0319991391, 0.0373509957), (0.409139223, -0.102704258, -0.065873734), (0.398835197, -0.0151200379, -0.0109277137), (0.405208233, -0.0672067569, 0.0462758808), (0.392466554, -0.0953561609, 0.0542784107), (0.403354738, -0.14655127, -0.0245346498), (0.398892295, -0.050257381, -0.06618997), (0.428161702, -0.0732372034, -0.0622106659), (0.42586899, -0.133295707, -0.0081518636), (0.419711171, -0.0278792857, -0.0543618619), (0.422935022, -0.124599215, -0.0388179798), (0.421257214, -0.0810376936, 0.0403376699), (0.427783976, -0.112143027, 0.0284524636), (0.422588041, -0.0175225538, 0.0004787463), (0.433796853, -0.0400104534, 0.0276882264), (0.435553721, -0.0157612945, -0.0257995942), (0.443086289, -0.0976225195, -0.0500487531), (0.450790151, -0.0339448695, -0.0504879699), (0.448484263, -0.0719766512, 0.02532524), (0.455533692, -0.10720623, -0.0221716635), (0.45107125, -0.0161873347, -0.00875798277), (0.455582006, -0.102581277, 0.00843296234), (0.460272841, -0.07225775, -0.0513795799), (0.467656076, -0.0401773557, 0.0130096013), (0.468169959, -0.0166748654, -0.0213986419), (0.468152391, -0.0817492248, -0.0393670008), (0.474204798, -0.0731273992, 0.0104753204), (0.474024719, -0.0294472896, -0.0458015267), (0.480520735, -0.0211065628, -0.00113317931), (0.479945361, -0.0857109602, -0.0095881025), (0.481113678, -0.0782969808, -0.0276047752), (0.490671035, -0.0484082784, -0.0378780559), (0.487780989, -0.0512631875, 0.00532330748), (0.486059259, -0.0296273685, 0.00545507251), (0.491747117, -0.0219981729, -0.0264320663), (0.492278569, -0.0241020213, -0.0142701535), (0.497465719, -0.0626916083, -0.00623248623), (0.498502271, -0.0627706673, -0.0253911226), (0.497210973, -0.0358335017, -0.00504220873), (0.5, -0.0407000237, -0.0202610705)]
        int[] faceVertexCounts = [3, 3, 3, 3, 3, 3, 3, 3, 3, 3, 3, 3, 3, 3, 3, 3, 3, 3, 3, 3, 3, 3, 3, 3, 3, 3, 3, 3, 3, 3, 3, 3, 3, 3, 3, 3, 3, 3, 3, 3, 3, 3, 3, 3, 3, 3, 3, 3, 3, 3, 3, 3, 3, 3, 3, 3, 3, 3, 3, 3, 3, 3, 3, 3, 3, 3, 3, 3, 3, 3, 3, 3, 3, 3, 3, 3, 3, 3, 3, 3, 3, 3, 3, 3, 3, 3, 3, 3, 3, 3, 3, 3, 3, 3, 3, 3, 3, 3, 3, 3, 3, 3, 3, 3, 3, 3, 3, 3, 3, 3, 3, 3, 3, 3, 3, 3, 3, 3, 3, 3, 3, 3, 3, 3, 3, 3, 3, 3, 3, 3, 3, 3, 3, 3, 3, 3, 3, 3, 3, 3, 3, 3, 3, 3, 3, 3, 3, 3, 3, 3, 3, 3, 3, 3, 3, 3, 3, 3, 3, 3, 3, 3, 3, 3, 3, 3, 3, 3, 3, 3, 3, 3, 3, 3, 3, 3, 3, 3, 3, 3, 3, 3, 3, 3, 3, 3, 3, 3, 3, 3, 3, 3, 3, 3, 3, 3, 3, 3, 3, 3, 3, 3, 3, 3, 3, 3, 3, 3, 3, 3, 3, 3, 3, 3, 3, 3, 3, 3, 3, 3, 3, 3, 3, 3, 3, 3, 3, 3, 3, 3, 3, 3, 3, 3, 3, 3, 3, 3, 3, 3, 3, 3, 3, 3, 3, 3, 3, 3, 3, 3, 3, 3, 3, 3, 3, 3, 3, 3, 3, 3, 3, 3, 3, 3, 3, 3, 3, 3, 3, 3, 3, 3, 3, 3, 3, 3, 3, 3, 3, 3, 3, 3, 3, 3, 3, 3, 3, 3, 3, 3, 3, 3, 3, 3, 3, 3, 3, 3, 3, 3, 3, 3, 3, 3, 3, 3, 3, 3, 3, 3, 3, 3, 3, 3, 3, 3, 3, 3, 3, 3, 3, 3, 3, 3, 3, 3, 3, 3, 3, 3, 3, 3, 3, 3, 3, 3, 3, 3, 3, 3, 3, 3, 3, 3, 3, 3, 3, 3, 3, 3, 3, 3, 3, 3, 3, 3, 3, 3, 3, 3, 3, 3, 3, 3, 3, 3, 3, 3, 3, 3, 3, 3, 3, 3, 3, 3, 3, 3, 3, 3, 3, 3, 3, 3, 3, 3, 3, 3, 3, 3, 3, 3, 3, 3, 3, 3, 3, 3, 3, 3, 3, 3, 3, 3, 3, 3, 3, 3, 3, 3, 3, 3, 3, 3, 3, 3, 3, 3, 3, 3, 3, 3, 3, 3, 3, 3, 3, 3, 3, 3, 3, 3, 3, 3, 3, 3, 3, 3, 3, 3, 3, 3, 3, 3, 3, 3, 3, 3, 3, 3, 3, 3, 3, 3, 3, 3, 3, 3, 3, 3, 3, 3, 3, 3, 3, 3, 3, 3, 3, 3, 3, 3, 3, 3, 3, 3, 3, 3, 3, 3, 3, 3, 3, 3, 3, 3, 3, 3, 3, 3, 3, 3, 3, 3, 3, 3, 3, 3, 3, 3, 3, 3, 3, 3, 3, 3, 3, 3, 3, 3, 3, 3, 3, 3, 3, 3, 3, 3, 3, 3, 3, 3, 3, 3, 3, 3, 3, 3, 3, 3, 3, 3, 3, 3, 3, 3, 3, 3, 3, 3, 3, 3, 3, 3, 3, 3, 3, 3, 3, 3, 3, 3, 3, 3, 3, 3, 3, 3, 3, 3, 3, 3, 3, 3, 3, 3, 3, 3, 3, 3, 3, 3, 3, 3, 3, 3, 3, 3, 3, 3, 3, 3, 3, 3, 3, 3, 3, 3, 3, 3, 3, 3, 3, 3, 3, 3, 3, 3, 3, 3, 3, 3, 3, 3, 3, 3, 3, 3, 3, 3, 3, 3, 3, 3, 3, 3, 3, 3, 3, 3, 3, 3, 3, 3, 3, 3, 3, 3, 3, 3, 3, 3, 3, 3, 3, 3, 3, 3, 3, 3, 3, 3, 3, 3, 3, 3, 3, 3, 3, 3, 3, 3, 3, 3, 3, 3, 3, 3, 3, 3, 3, 3, 3, 3, 3, 3, 3, 3, 3, 3, 3, 3, 3, 3, 3, 3, 3, 3, 3, 3, 3, 3, 3, 3, 3, 3, 3, 3, 3, 3, 3, 3, 3, 3, 3, 3, 3, 3, 3, 3, 3, 3, 3, 3, 3, 3, 3, 3, 3, 3, 3, 3, 3, 3, 3, 3, 3, 3, 3, 3, 3, 3, 3, 3, 3, 3, 3, 3, 3, 3, 3, 3, 3, 3, 3, 3, 3, 3, 3, 3, 3, 3, 3, 3, 3, 3, 3, 3, 3, 3, 3, 3, 3, 3, 3, 3, 3, 3, 3, 3, 3, 3, 3, 3, 3, 3, 3, 3, 3, 3, 3, 3, 3, 3, 3, 3, 3, 3, 3, 3, 3, 3, 3, 3, 3, 3, 3, 3, 3, 3, 3, 3, 3, 3, 3, 3, 3, 3, 3, 3, 3, 3, 3, 3, 3, 3, 3, 3, 3, 3, 3, 3, 3, 3, 3, 3, 3, 3, 3, 3, 3, 3, 3, 3, 3, 3, 3, 3, 3, 3, 3, 3, 3, 3, 3, 3, 3, 3, 3, 3, 3, 3, 3, 3, 3, 3, 3, 3, 3, 3, 3, 3, 3, 3, 3, 3, 3, 3, 3, 3, 3, 3, 3, 3, 3, 3, 3, 3, 3, 3, 3, 3, 3, 3, 3, 3, 3, 3, 3, 3, 3, 3, 3, 3, 3, 3, 3, 3, 3, 3, 3, 3, 3, 3, 3, 3, 3, 3, 3, 3, 3, 3, 3, 3, 3, 3, 3, 3, 3, 3, 3, 3, 3, 3, 3, 3, 3, 3, 3, 3, 3, 3, 3, 3, 3, 3, 3, 3, 3, 3, 3, 3, 3, 3, 3, 3, 3, 3, 3, 3, 3, 3, 3, 3, 3, 3, 3, 3, 3, 3, 3, 3, 3, 3, 3, 3, 3, 3, 3, 3, 3, 3, 3, 3, 3, 3, 3, 3, 3, 3, 3, 3, 3, 3, 3, 3, 3, 3, 3, 3, 3, 3, 3, 3, 3, 3, 3, 3, 3, 3, 3, 3, 3, 3, 3, 3, 3, 3, 3, 3, 3, 3, 3, 3, 3, 3, 3, 3, 3, 3, 3, 3, 3, 3, 3, 3, 3, 3, 3, 3, 3, 3, 3, 3, 3, 3, 3, 3, 3, 3, 3, 3, 3, 3, 3, 3, 3, 3, 3, 3, 3, 3, 3, 3, 3, 3, 3, 3, 3, 3, 3, 3, 3, 3, 3, 3, 3, 3, 3, 3, 3, 3, 3, 3, 3, 3, 3, 3, 3, 3, 3, 3, 3, 3, 3, 3, 3, 3, 3, 3, 3, 3, 3, 3, 3, 3, 3, 3, 3, 3, 3, 3, 3, 3, 3, 3, 3, 3, 3, 3]
        int[] faceVertexIndices = [0, 1, 2, 2, 1, 3, 4, 2, 3, 2, 4, 5, 0, 2, 6, 6, 2, 5, 0, 7, 1, 1, 7, 8, 9, 3, 1, 9, 1, 8, 10, 11, 12, 13, 11, 10, 12, 11, 14, 14, 11, 15, 15, 11, 5, 16, 11, 13, 5, 11, 16, 17, 18, 13, 18, 16, 13, 19, 18, 20, 6, 18, 19, 20, 18, 17, 6, 16, 18, 15, 5, 4, 15, 4, 21, 21, 4, 3, 22, 7, 23, 7, 19, 23, 8, 7, 22, 0, 19, 7, 24, 10, 12, 25, 10, 24, 26, 10, 27, 26, 13, 10, 27, 10, 25, 24, 12, 28, 29, 12, 14, 28, 12, 29, 9, 8, 22, 9, 22, 30, 21, 3, 9, 31, 9, 30, 31, 21, 9, 32, 24, 28, 33, 24, 32, 25, 24, 34, 34, 24, 33, 22, 23, 35, 35, 23, 36, 23, 37, 36, 23, 19, 20, 23, 20, 37, 30, 22, 38, 38, 22, 39, 22, 35, 39, 40, 26, 41, 37, 26, 40, 41, 26, 42, 42, 26, 27, 26, 17, 13, 37, 17, 26, 29, 14, 43, 44, 14, 45, 14, 15, 45, 43, 14, 44, 32, 28, 46, 47, 28, 29, 46, 28, 47, 48, 32, 49, 49, 32, 46, 50, 32, 48, 32, 51, 33, 51, 32, 50, 42, 27, 25, 42, 25, 52, 53, 25, 34, 52, 25, 53, 54, 55, 36, 55, 35, 36, 56, 55, 54, 56, 39, 55, 39, 35, 55, 54, 36, 57, 36, 37, 40, 57, 36, 40, 56, 58, 38, 38, 39, 56, 59, 38, 58, 38, 59, 30, 58, 56, 60, 60, 56, 54, 59, 58, 60, 61, 62, 63, 63, 62, 64, 65, 62, 61, 64, 62, 66, 66, 62, 67, 68, 62, 65, 62, 68, 67, 49, 63, 48, 61, 63, 49, 48, 63, 69, 69, 63, 64, 49, 70, 61, 70, 49, 46, 50, 48, 69, 71, 29, 43, 47, 29, 71, 61, 72, 65, 72, 61, 70, 45, 59, 73, 45, 31, 59, 59, 60, 74, 73, 59, 74, 31, 30, 59, 69, 64, 75, 75, 64, 66, 60, 54, 76, 76, 54, 57, 46, 77, 70, 77, 46, 47, 78, 45, 73, 44, 45, 78, 15, 21, 45, 45, 21, 31, 40, 41, 79, 40, 79, 80, 40, 80, 81, 81, 57, 40, 76, 74, 60, 53, 34, 33, 53, 33, 82, 83, 33, 84, 82, 33, 83, 33, 51, 84, 85, 42, 86, 41, 42, 85, 42, 52, 86, 50, 69, 87, 87, 69, 75, 88, 66, 67, 89, 66, 88, 75, 66, 89, 90, 50, 87, 51, 50, 90, 91, 74, 76, 91, 76, 57, 92, 68, 65, 67, 68, 93, 68, 92, 94, 93, 68, 94, 74, 91, 95, 91, 80, 95, 81, 80, 91, 91, 57, 81, 96, 65, 72, 92, 65, 97, 97, 65, 96, 98, 53, 99, 99, 53, 82, 52, 53, 98, 88, 67, 100, 100, 67, 93, 70, 101, 72, 101, 70, 77, 73, 95, 78, 95, 73, 74, 102, 43, 44, 103, 71, 43, 102, 103, 43, 104, 47, 71, 104, 77, 47, 78, 105, 44, 105, 78, 95, 85, 105, 95, 80, 85, 95, 85, 86, 106, 105, 85, 106, 79, 41, 85, 79, 85, 80, 102, 44, 105, 106, 86, 107, 86, 98, 107, 52, 98, 86, 108, 71, 103, 104, 71, 108, 109, 72, 101, 96, 72, 109, 105, 106, 102, 94, 92, 110, 110, 92, 111, 111, 92, 97, 112, 88, 100, 89, 88, 112, 107, 102, 106, 103, 102, 107, 99, 82, 83, 99, 83, 113, 114, 83, 90, 83, 84, 90, 113, 83, 114, 101, 77, 115, 115, 77, 104, 107, 99, 116, 107, 98, 99, 99, 113, 116, 107, 116, 103, 117, 93, 94, 100, 93, 118, 118, 93, 117, 108, 103, 119, 103, 116, 119, 90, 120, 114, 120, 90, 87, 84, 51, 90, 87, 75, 121, 121, 75, 89, 114, 120, 108, 108, 119, 114, 122, 114, 119, 122, 113, 114, 109, 101, 115, 123, 94, 110, 117, 94, 124, 124, 94, 123, 108, 120, 104, 125, 104, 120, 104, 125, 115, 120, 87, 126, 126, 87, 121, 112, 100, 127, 100, 118, 127, 120, 126, 125, 128, 110, 111, 123, 110, 128, 129, 89, 112, 121, 89, 129, 130, 111, 97, 128, 111, 130, 118, 117, 131, 131, 117, 124, 132, 97, 96, 130, 97, 132, 133, 96, 109, 132, 96, 133, 109, 115, 134, 134, 115, 125, 135, 112, 127, 129, 112, 135, 133, 109, 134, 126, 121, 136, 136, 121, 129, 127, 118, 137, 138, 118, 131, 137, 118, 138, 124, 123, 139, 140, 123, 128, 139, 123, 140, 131, 124, 141, 141, 124, 139, 142, 125, 126, 134, 125, 142, 142, 126, 136, 135, 127, 137, 143, 128, 130, 140, 128, 143, 144, 131, 141, 138, 131, 144, 145, 130, 132, 143, 130, 146, 146, 130, 145, 147, 132, 133, 145, 132, 147, 136, 129, 148, 149, 129, 135, 148, 129, 149, 133, 134, 150, 151, 134, 142, 150, 134, 151, 147, 133, 150, 142, 136, 152, 152, 136, 148, 153, 135, 137, 149, 135, 153, 154, 139, 140, 155, 140, 143, 154, 140, 155, 141, 139, 156, 156, 139, 157, 157, 139, 154, 151, 142, 152, 158, 144, 141, 158, 141, 156, 159, 137, 138, 153, 137, 159, 160, 138, 144, 159, 138, 160, 161, 143, 146, 155, 143, 161, 162, 144, 158, 160, 144, 162, 163, 148, 149, 152, 148, 163, 164, 149, 153, 163, 149, 164, 146, 145, 165, 166, 145, 147, 165, 145, 166, 161, 146, 165, 167, 153, 159, 164, 153, 167, 168, 147, 150, 166, 147, 168, 151, 152, 169, 169, 152, 163, 156, 157, 170, 156, 171, 158, 156, 170, 171, 157, 154, 172, 173, 154, 155, 172, 154, 173, 150, 151, 174, 174, 151, 169, 168, 150, 174, 175, 157, 172, 157, 175, 170, 176, 162, 158, 176, 158, 171, 177, 159, 160, 167, 159, 177, 178, 155, 161, 173, 155, 178, 160, 162, 179, 160, 179, 177, 180, 163, 164, 169, 163, 180, 176, 179, 162, 181, 161, 165, 178, 161, 181, 182, 165, 166, 181, 165, 182, 183, 164, 167, 180, 164, 183, 184, 172, 173, 175, 172, 184, 171, 170, 185, 186, 170, 175, 185, 170, 186, 187, 166, 168, 182, 166, 187, 188, 167, 177, 183, 167, 188, 176, 171, 189, 189, 171, 185, 174, 169, 190, 169, 180, 191, 190, 169, 191, 192, 177, 179, 192, 188, 177, 193, 168, 174, 187, 168, 193, 193, 174, 190, 191, 180, 183, 194, 173, 178, 184, 173, 194, 195, 175, 184, 186, 175, 195, 196, 179, 176, 196, 192, 179, 176, 189, 197, 197, 196, 176, 198, 178, 181, 199, 194, 178, 199, 178, 198, 200, 181, 182, 198, 181, 200, 183, 188, 201, 191, 183, 202, 202, 183, 201, 195, 184, 203, 203, 184, 194, 185, 186, 204, 204, 186, 195, 205, 182, 187, 200, 182, 205, 189, 185, 206, 206, 185, 204, 207, 188, 192, 201, 188, 207, 208, 192, 196, 207, 192, 208, 190, 191, 209, 209, 191, 202, 210, 187, 193, 205, 187, 211, 211, 187, 210, 193, 190, 212, 212, 190, 209, 210, 193, 212, 189, 213, 197, 206, 213, 189, 197, 214, 196, 208, 196, 214, 204, 195, 215, 215, 195, 203, 216, 194, 199, 203, 194, 216, 217, 198, 200, 199, 198, 217, 218, 206, 204, 218, 204, 215, 200, 205, 219, 219, 205, 211, 220, 197, 213, 214, 197, 220, 217, 200, 219, 202, 201, 221, 222, 201, 207, 221, 201, 222, 209, 202, 223, 223, 202, 221, 224, 207, 208, 222, 207, 224, 224, 208, 214, 211, 210, 225, 225, 210, 212, 213, 206, 226, 226, 206, 218, 216, 199, 227, 227, 199, 217, 215, 203, 228, 228, 203, 216, 212, 209, 229, 229, 209, 223, 230, 211, 225, 219, 211, 230, 231, 225, 212, 231, 212, 229, 220, 213, 232, 232, 213, 226, 218, 215, 233, 233, 215, 228, 214, 220, 234, 224, 214, 235, 235, 214, 234, 221, 222, 236, 223, 221, 236, 220, 232, 234, 237, 216, 227, 228, 216, 237, 231, 230, 225, 238, 217, 219, 227, 217, 239, 239, 217, 238, 222, 224, 240, 240, 236, 222, 240, 224, 235, 229, 223, 241, 241, 223, 236, 226, 218, 242, 218, 233, 242, 243, 219, 230, 238, 219, 243, 232, 226, 244, 244, 226, 242, 245, 227, 239, 237, 227, 245, 231, 229, 246, 246, 229, 241, 247, 234, 232, 247, 232, 244, 233, 228, 248, 249, 228, 237, 248, 228, 249, 234, 250, 235, 250, 234, 247, 251, 236, 240, 241, 236, 251, 252, 230, 231, 243, 230, 252, 252, 231, 246, 253, 240, 235, 235, 250, 253, 242, 233, 254, 254, 233, 248, 255, 239, 238, 245, 239, 255, 256, 237, 245, 249, 237, 256, 257, 251, 240, 253, 257, 240, 238, 243, 258, 255, 238, 258, 246, 241, 259, 259, 241, 251, 244, 242, 260, 261, 242, 254, 260, 242, 261, 247, 244, 262, 262, 244, 260, 263, 245, 255, 256, 245, 263, 250, 247, 264, 253, 250, 264, 262, 264, 247, 248, 249, 265, 265, 249, 256, 266, 243, 252, 258, 243, 266, 254, 248, 267, 267, 248, 265, 252, 246, 268, 268, 246, 259, 266, 252, 268, 269, 251, 257, 259, 251, 269, 255, 258, 270, 263, 255, 270, 271, 253, 264, 257, 253, 271, 272, 254, 267, 261, 254, 272, 265, 256, 273, 274, 256, 263, 273, 256, 274, 275, 264, 262, 271, 264, 275, 262, 260, 276, 276, 260, 261, 258, 266, 277, 270, 258, 277, 278, 257, 271, 269, 257, 278, 267, 265, 279, 279, 265, 273, 280, 262, 276, 275, 262, 280, 272, 267, 279, 268, 259, 281, 282, 259, 269, 281, 259, 282, 283, 263, 270, 274, 263, 283, 284, 261, 272, 276, 261, 285, 285, 261, 284, 286, 266, 268, 277, 266, 286, 286, 268, 281, 287, 271, 275, 278, 271, 287, 288, 269, 278, 282, 269, 288, 270, 277, 289, 283, 270, 289, 272, 279, 290, 284, 272, 290, 291, 276, 285, 280, 276, 291, 273, 274, 292, 292, 274, 283, 287, 275, 293, 293, 275, 280, 294, 279, 273, 290, 279, 294, 294, 273, 292, 289, 277, 286, 295, 278, 287, 288, 278, 296, 296, 278, 295, 297, 281, 282, 282, 288, 298, 282, 298, 297, 285, 284, 299, 291, 285, 300, 300, 285, 299, 301, 287, 293, 295, 287, 301, 284, 290, 302, 299, 284, 302, 303, 283, 289, 292, 283, 304, 304, 283, 303, 286, 281, 305, 297, 306, 281, 306, 305, 281, 307, 280, 291, 293, 280, 308, 308, 280, 307, 289, 286, 309, 309, 286, 305, 298, 288, 296, 303, 289, 309, 310, 294, 292, 310, 292, 304, 307, 291, 300, 311, 290, 294, 302, 290, 311, 301, 293, 312, 312, 293, 308, 311, 294, 313, 313, 294, 310, 295, 301, 314, 314, 301, 312, 296, 295, 315, 315, 295, 314, 300, 299, 316, 316, 299, 302, 298, 296, 317, 317, 296, 315, 298, 318, 297, 298, 317, 318, 319, 306, 297, 297, 318, 319, 304, 303, 320, 321, 303, 309, 320, 303, 321, 322, 305, 306, 309, 305, 323, 323, 305, 322, 310, 304, 324, 324, 304, 320, 308, 307, 325, 326, 307, 300, 325, 307, 326, 327, 312, 308, 327, 308, 325, 326, 300, 316, 322, 306, 319, 328, 302, 311, 316, 302, 328, 321, 309, 323, 328, 311, 313, 314, 312, 327, 329, 313, 310, 329, 310, 324, 330, 315, 314, 330, 314, 327, 317, 315, 331, 331, 315, 330, 328, 313, 332, 332, 313, 329, 333, 320, 321, 324, 320, 333, 334, 322, 319, 323, 322, 335, 335, 322, 334, 318, 317, 336, 336, 317, 331, 337, 316, 328, 326, 316, 338, 338, 316, 337, 319, 318, 339, 339, 318, 336, 327, 325, 340, 341, 325, 326, 340, 325, 341, 334, 319, 339, 337, 328, 332, 330, 327, 342, 342, 327, 340, 341, 326, 343, 343, 326, 338, 344, 321, 323, 344, 323, 335, 333, 321, 344, 329, 324, 345, 345, 324, 333, 332, 329, 346, 346, 329, 345, 331, 330, 347, 347, 330, 342, 348, 336, 331, 348, 331, 347, 349, 337, 332, 338, 337, 350, 350, 337, 349, 349, 332, 346, 351, 340, 341, 351, 341, 343, 352, 333, 344, 345, 333, 352, 339, 336, 353, 353, 336, 348, 343, 338, 354, 354, 338, 350, 342, 340, 355, 355, 340, 351, 356, 335, 334, 344, 335, 357, 357, 335, 356, 334, 339, 358, 359, 358, 339, 359, 339, 353, 360, 334, 358, 356, 334, 360, 352, 344, 357, 347, 342, 361, 361, 342, 355, 351, 343, 362, 362, 343, 354, 346, 345, 363, 363, 345, 352, 348, 347, 364, 364, 347, 365, 365, 347, 361, 366, 355, 351, 366, 351, 362, 350, 349, 367, 368, 349, 346, 367, 349, 368, 369, 353, 348, 369, 348, 364, 370, 354, 350, 362, 354, 370, 370, 350, 367, 360, 358, 371, 371, 358, 359, 365, 355, 366, 365, 361, 355, 372, 346, 363, 368, 346, 372, 359, 353, 373, 373, 353, 369, 374, 352, 357, 363, 352, 374, 375, 356, 360, 357, 356, 376, 376, 356, 375, 375, 360, 371, 377, 362, 370, 366, 362, 377, 371, 359, 378, 378, 359, 373, 374, 357, 376, 369, 364, 379, 380, 364, 365, 379, 364, 380, 370, 367, 381, 381, 377, 370, 372, 363, 382, 382, 363, 374, 383, 373, 369, 383, 369, 379, 384, 365, 366, 385, 366, 377, 384, 366, 385, 380, 365, 384, 386, 371, 378, 375, 371, 386, 367, 368, 387, 388, 368, 372, 387, 368, 388, 378, 373, 389, 389, 373, 383, 367, 390, 381, 367, 387, 390, 388, 372, 382, 385, 377, 391, 391, 377, 381, 386, 378, 392, 392, 378, 389, 393, 374, 376, 382, 374, 394, 394, 374, 393, 376, 375, 395, 396, 375, 386, 395, 375, 396, 393, 376, 395, 397, 379, 380, 383, 379, 398, 398, 379, 397, 399, 380, 384, 397, 380, 399, 400, 384, 385, 384, 400, 399, 400, 385, 391, 401, 381, 390, 391, 381, 401, 402, 389, 383, 402, 383, 398, 403, 386, 392, 396, 386, 403, 388, 382, 404, 404, 382, 394, 404, 387, 388, 405, 392, 389, 405, 389, 402, 393, 395, 406, 406, 395, 396, 390, 387, 407, 408, 387, 404, 407, 387, 408, 403, 392, 405, 401, 390, 407, 400, 391, 409, 409, 391, 401, 410, 397, 399, 398, 397, 410, 394, 393, 411, 411, 393, 406, 399, 400, 412, 412, 400, 409, 410, 399, 412, 402, 398, 413, 413, 398, 410, 414, 404, 394, 408, 404, 414, 415, 396, 403, 416, 406, 396, 416, 396, 415, 417, 394, 411, 414, 394, 417, 405, 402, 418, 419, 402, 413, 418, 402, 419, 403, 405, 420, 415, 403, 420, 421, 409, 401, 412, 409, 421, 420, 405, 422, 422, 405, 418, 423, 401, 407, 421, 401, 423, 424, 411, 406, 406, 416, 424, 425, 410, 412, 413, 410, 426, 426, 410, 425, 427, 412, 421, 425, 412, 427, 417, 411, 428, 428, 411, 424, 419, 413, 429, 429, 413, 426, 430, 407, 408, 431, 408, 414, 408, 431, 432, 430, 408, 432, 423, 407, 433, 433, 407, 430, 434, 414, 417, 431, 414, 434, 435, 421, 423, 427, 421, 435, 434, 417, 436, 436, 417, 428, 416, 415, 437, 438, 415, 420, 437, 415, 438, 424, 416, 439, 439, 416, 437, 422, 419, 440, 422, 418, 419, 419, 429, 441, 440, 419, 441, 442, 426, 425, 429, 426, 442, 443, 420, 422, 438, 420, 443, 443, 422, 440, 428, 424, 439, 435, 423, 433, 444, 425, 427, 442, 425, 444, 445, 431, 434, 432, 431, 445, 445, 434, 436, 446, 427, 435, 444, 427, 446, 430, 432, 447, 447, 432, 445, 448, 428, 439, 436, 428, 448, 449, 429, 442, 441, 429, 449, 450, 433, 430, 450, 430, 447, 451, 442, 444, 449, 442, 451, 452, 437, 438, 439, 437, 453, 453, 437, 452, 454, 438, 443, 452, 438, 454, 443, 440, 455, 456, 440, 441, 455, 440, 456, 448, 439, 453, 445, 436, 457, 457, 436, 448, 458, 435, 433, 446, 435, 459, 459, 435, 458, 447, 445, 460, 460, 445, 457, 461, 454, 443, 461, 443, 455, 458, 433, 450, 462, 444, 446, 451, 444, 462, 463, 441, 449, 456, 441, 463, 446, 459, 462, 450, 447, 460, 464, 449, 451, 463, 449, 464, 465, 451, 462, 465, 464, 451, 457, 448, 466, 467, 448, 453, 466, 448, 467, 452, 454, 468, 468, 454, 461, 453, 452, 469, 469, 452, 468, 460, 457, 470, 470, 457, 466, 458, 450, 471, 472, 450, 460, 471, 450, 472, 467, 453, 469, 459, 458, 473, 473, 458, 471, 455, 456, 474, 475, 456, 463, 474, 456, 475, 472, 460, 470, 476, 462, 459, 465, 462, 476, 461, 455, 477, 477, 455, 474, 476, 459, 473, 478, 463, 464, 475, 463, 478, 468, 461, 479, 479, 461, 477, 480, 464, 465, 478, 464, 480, 472, 470, 481, 481, 471, 472, 469, 468, 482, 482, 468, 479, 483, 465, 476, 480, 465, 483, 484, 470, 466, 481, 470, 484, 473, 471, 485, 485, 471, 481, 486, 474, 475, 487, 477, 474, 487, 474, 486, 476, 473, 488, 488, 473, 485, 466, 467, 489, 490, 467, 469, 489, 467, 490, 484, 466, 491, 491, 466, 489, 492, 475, 478, 486, 475, 492, 469, 482, 493, 490, 469, 493, 494, 479, 477, 494, 477, 487, 483, 476, 495, 495, 476, 488, 496, 478, 480, 492, 478, 496, 482, 479, 494, 497, 481, 484, 485, 481, 497, 480, 483, 498, 496, 480, 498, 487, 486, 499, 499, 486, 492, 500, 484, 491, 497, 484, 500, 488, 485, 501, 501, 485, 497, 502, 482, 494, 493, 482, 502, 503, 483, 495, 498, 483, 503, 494, 487, 504, 504, 487, 499, 505, 489, 490, 491, 489, 506, 506, 489, 505, 507, 492, 496, 499, 492, 507, 505, 490, 493, 495, 488, 508, 508, 488, 501, 502, 494, 504, 500, 491, 506, 507, 496, 498, 509, 497, 500, 501, 497, 509, 493, 502, 510, 505, 493, 510, 503, 495, 511, 508, 511, 495, 504, 499, 512, 512, 499, 507, 513, 500, 506, 509, 500, 513, 502, 504, 514, 514, 504, 512, 511, 498, 503, 498, 515, 507, 516, 498, 511, 516, 515, 498, 508, 501, 517, 517, 501, 509, 510, 502, 514, 506, 505, 518, 518, 505, 510, 512, 507, 515, 506, 518, 519, 513, 506, 519, 511, 508, 520, 520, 508, 517, 521, 510, 514, 518, 510, 521, 517, 509, 522, 522, 509, 513, 511, 523, 516, 515, 516, 523, 524, 523, 511, 520, 524, 511, 525, 514, 512, 526, 512, 515, 525, 512, 526, 527, 521, 514, 527, 514, 525, 519, 518, 521, 520, 517, 522, 526, 515, 523, 522, 513, 528, 528, 513, 519, 519, 521, 529, 529, 521, 527, 530, 523, 524, 526, 523, 530, 520, 522, 531, 531, 522, 528, 532, 525, 526, 527, 525, 532, 533, 524, 520, 533, 520, 531, 530, 524, 533, 528, 519, 534, 534, 519, 529, 530, 535, 526, 532, 526, 535, 536, 529, 527, 536, 527, 532, 531, 528, 537, 534, 537, 528, 538, 530, 533, 538, 535, 530, 534, 529, 539, 539, 529, 536, 540, 532, 535, 536, 532, 540, 533, 531, 541, 537, 542, 531, 541, 531, 542, 533, 541, 538, 543, 537, 534, 534, 539, 543, 544, 535, 538, 540, 535, 545, 545, 535, 544, 546, 539, 536, 547, 536, 540, 546, 536, 547, 543, 542, 537, 543, 539, 546, 548, 538, 541, 544, 538, 548, 549, 541, 542, 548, 541, 549, 550, 540, 545, 547, 540, 550, 549, 542, 543, 550, 545, 544, 550, 544, 548, 551, 543, 546, 549, 543, 551, 551, 546, 547, 551, 547, 550, 548, 551, 550, 549, 551, 548, 0, 6, 19, 20, 17, 37, 116, 122, 119, 116, 113, 122, 6, 5, 16]
        color3f[] primvars:displayColor = [(0.65, 0.68, 0.72)]
        uniform token subdivisionScheme = "none"
    }
}
