#usda 1.0
(
    defaultPrim = "Asset"
    metersPerUnit = 1
    upAxis = "Z"
)

def Xform "Asset"
{
    def Mesh "Mesh"
    {
        point3f[] points = [(-0.5, 0.292138298, -0.00132978723), (-0.451712766, 0.340425532, -0.00132978723), (-0.496319149, 0.310617021, -0.00132978723), (-0.485851064, 0.326276596, -0.00132978723), (-0.470191489, 0.336744681, -0.00132978723), (-0.451712766, -0.340425532, -0.00132978723), (-0.5, -0.292138298, -0.00132978723), (-0.470191489, -0.336744681, -0.00132978723), (-0.485851064, -0.326276596, -0.00132978723), (-0.496319149, -0.310617021, -0.00132978723), (0.5, 0.292138298, -0.00132978723), (0.451712766, 0.340425532, -0.00132978723), (0.496319149, 0.310617021, -0.00132978723), (0.485851064, 0.326276596, -0.00132978723), (0.470191489, 0.336744681, -0.00132978723), (0.5, -0.292138298, -0.00132978723), (0.451712766, -0.340425532, -0.00132978723), (0.496319149, -0.310617021, -0.00132978723), (0.485851064, -0.326276596, -0.00132978723), (0.470191489, -0.336744681, -0.00132978723), (0.451712766, 0.340425532, 0.00132978723), (-0.451712766, 0.340425532, 0.00132978723), (-0.470191489, 0.336744681, 0.00132978723), (-0.485851064, 0.326276596, 0.00132978723), (-0.496319149, 0.310617021, 0.00132978723), (-0.5, 0.292138298, 0.00132978723), (-0.5, -0.292138298, 0.00132978723), (-0.496319149, -0.310617021, 0.00132978723), (-0.485851064, -0.326276596, 0.00132978723), (-0.470191489, -0.336744681, 0.00132978723), (-0.451712766, -0.340425532, 0.00132978723), (0.451712766, -0.340425532, 0.00132978723), (0.470191489, -0.336744681, 0.00132978723), (0.485851064, -0.326276596, 0.00132978723), (0.496319149, -0.310617021, 0.00132978723), (0.5, -0.292138298, 0.00132978723), (0.5, 0.292138298, 0.00132978723), (0.496319149, 0.310617021, 0.00132978723), (0.485851064, 0.326276596, 0.00132978723), (0.470191489, 0.336744681, 0.00132978723)]
        int[] faceVertexCounts = [3, 3, 3, 3, 3, 3, 3, 3, 3, 3, 3, 3, 3, 3, 3, 3, 3, 3, 3, 3, 3, 3, 3, 3, 3, 3, 3, 3, 3, 3, 3, 3, 3, 3, 3, 3, 3, 3, 3, 3, 3, 3, 3, 3, 3, 3, 3, 3, 3, 3, 3, 3, 3, 3, 3, 3, 3, 3, 3, 3, 3, 3, 3, 3, 3, 3, 3, 3, 3, 3, 3, 3, 3, 3, 3, 3]
        int[] faceVertexIndices = [16, 30, 5, 2, 23, 3, 14, 38, 13, 19, 31, 16, 0, 24, 2, 11, 39, 14, 18, 32, 19, 6, 25, 0, 17, 33, 18, 9, 26, 6, 15, 34, 17, 8, 27, 9, 1, 20, 11, 10, 35, 15, 7, 28, 8, 4, 21, 1, 12, 36, 10, 5, 29, 7, 3, 22, 4, 13, 37, 12, 7, 8, 9, 16, 31, 30, 2, 24, 23, 14, 39, 38, 19, 32, 31, 0, 25, 24, 11, 20, 39, 18, 33, 32, 6, 26, 25, 17, 34, 33, 9, 27, 26, 15, 35, 34, 8, 28, 27, 1, 21, 20, 10, 36, 35, 7, 29, 28, 4, 22, 21, 12, 37, 36, 5, 30, 29, 3, 23, 22, 13, 38, 37, 24, 22, 23, 30, 27, 29, 34, 32, 33, 21, 24, 25, 28, 29, 27, 39, 37, 38, 31, 34, 35, 35, 20, 31, 36, 39, 20, 30, 25, 26, 31, 21, 30, 12, 14, 13, 16, 1, 11, 1, 0, 2, 5, 0, 1, 7, 6, 5, 16, 17, 19, 18, 19, 17, 16, 10, 15, 11, 12, 10, 30, 26, 27, 21, 22, 24, 31, 32, 34, 35, 36, 20, 36, 37, 39, 30, 21, 25, 31, 20, 21, 16, 5, 1, 3, 4, 2, 4, 1, 2, 5, 6, 0, 7, 9, 6, 16, 15, 17, 16, 11, 10, 11, 14, 12]
        color3f[] primvars:displayColor = [(0.65, 0.68, 0.72)]
        uniform token subdivisionScheme = "none"
    }
}
