# Generated by AgenticSim AssetCompiler
mtllib default_material.mtl
v -0.5 0.292138298 -0.00132978723
v -0.451712766 0.340425532 -0.00132978723
v -0.496319149 0.310617021 -0.00132978723
v -0.485851064 0.326276596 -0.00132978723
v -0.470191489 0.336744681 -0.00132978723
v -0.451712766 -0.340425532 -0.00132978723
v -0.5 -0.292138298 -0.00132978723
v -0.470191489 -0.336744681 -0.00132978723
v -0.485851064 -0.326276596 -0.00132978723
v -0.496319149 -0.310617021 -0.00132978723
v 0.5 0.292138298 -0.00132978723
v 0.451712766 0.340425532 -0.00132978723
v 0.496319149 0.310617021 -0.00132978723
v 0.485851064 0.326276596 -0.00132978723
v 0.470191489 0.336744681 -0.00132978723
v 0.5 -0.292138298 -0.00132978723
v 0.451712766 -0.340425532 -0.00132978723
v 0.496319149 -0.310617021 -0.00132978723
v 0.485851064 -0.326276596 -0.00132978723
v 0.470191489 -0.336744681 -0.00132978723
v 0.451712766 0.340425532 0.00132978723
v -0.451712766 0.340425532 0.00132978723
v -0.470191489 0.336744681 0.00132978723
v -0.485851064 0.326276596 0.00132978723
v -0.496319149 0.310617021 0.00132978723
v -0.5 0.292138298 0.00132978723
v -0.5 -0.292138298 0.00132978723
v -0.496319149 -0.310617021 0.00132978723
v -0.485851064 -0.326276596 0.00132978723
v -0.470191489 -0.336744681 0.00132978723
v -0.451712766 -0.340425532 0.00132978723
v 0.451712766 -0.340425532 0.00132978723
v 0.470191489 -0.336744681 0.00132978723
v 0.485851064 -0.326276596 0.00132978723
v 0.496319149 -0.310617021 0.00132978723
v 0.5 -0.292138298 0.00132978723
v 0.5 0.292138298 0.00132978723
v 0.496319149 0.310617021 0.00132978723
v 0.485851064 0.326276596 0.00132978723
v 0.470191489 0.336744681 0.00132978723
usemtl AgenticSimDefault
f 17 31 6
f 3 24 4
f 15 39 14
f 20 32 17
f 1 25 3
f 12 40 15
f 19 33 20
f 7 26 1
f 18 34 19
f 10 27 7
f 16 35 18
f 9 28 10
f 2 21 12
f 11 36 16
f 8 29 9
f 5 22 2
f 13 37 11
f 6 30 8
f 4 23 5
f 14 38 13
f 8 9 10
f 17 32 31
f 3 25 24
f 15 40 39
f 20 33 32
f 1 26 25
f 12 21 40
f 19 34 33
f 7 27 26
f 18 35 34
f 10 28 27
f 16 36 35
f 9 29 28
f 2 22 21
f 11 37 36
f 8 30 29
f 5 23 22
f 13 38 37
f 6 31 30
f 4 24 23
f 14 39 38
f 25 23 24
f 31 28 30
f 35 33 34
f 22 25 26
f 29 30 28
f 40 38 39
f 32 35 36
f 36 21 32
f 37 40 21
f 31 26 27
f 32 22 31
f 13 15 14
f 17 2 12
f 2 1 3
f 6 1 2
f 8 7 6
f 17 18 20
f 19 20 18
f 17 11 16
f 12 13 11
f 31 27 28
f 22 23 25
f 32 33 35
f 36 37 21
f 37 38 40
f 31 22 26
f 32 21 22
f 17 6 2
f 4 5 3
f 5 2 3
f 6 7 1
f 8 10 7
f 17 16 18
f 17 12 11
f 12 15 13
