# Generated by AgenticSim AssetCompiler
mtllib default_material.mtl
v 0.0957682162 0.0355648756 0.0850603106
v 0.206925142 0.065049746 0.138945892
v 0.113390994 0.0993991697 0.0807706234
v 0.164243522 0.182316519 0.0693694411
v 0.232080673 0.152264441 0.110928218
v 0.292403882 0.0961614604 0.117035997
v 0.0564518462 0.0679603832 0.0489313971
v 0.0477765583 0.0933352622 -0.0025855507
v 0.0851822012 0.133355745 0.0292536756
v 0.0851822012 0.133355745 -0.0344247719
v 0.164243522 0.182316519 -0.0848827246
v 0.156749908 0.202905094 -0.0077566521
v 0.247627631 0.206166068 0.0375769356
v 0.247627631 0.206166068 -0.0530902295
v 0.318854035 0.187864387 -0.0077566521
v 0.322958426 0.155525436 0.065594625
v 0.389361837 0.168792351 -0.0077566521
v 0.371611385 0.0429147482 -0.0077566521
v 0.353968466 0.0703261362 0.065594625
v 0.322958426 0.155525436 -0.081107924
v 0.292403882 0.0961614604 -0.132549322
v 0.353968466 0.0703261362 -0.081107924
v 0.232080673 0.152264441 -0.126441522
v 0.113390994 0.0993991697 -0.0859417248
v 0.0957682162 0.0355648756 -0.0902314223
v 0.206925142 0.065049746 -0.154459196
v 0.130303427 -0.0209390875 -0.0859417248
v 0.24960674 -0.0522170011 -0.0848827246
v 0.282255906 0.0144091086 -0.126441522
v 0.328812862 -0.0168885535 -0.0530902295
v 0.257100401 -0.0728055656 -0.0077566521
v 0.24960674 -0.0522170011 0.0693694411
v 0.328812862 -0.0168885535 0.0375769356
v 0.112547096 -0.0613556611 -0.0344247719
v 0.0655593399 -0.0331958751 -0.0025855507
v 0.112547096 -0.0613556611 0.0292536756
v 0.0669043176 -0.0064127449 0.0489313971
v 0.130303427 -0.0209390875 0.0807706234
v 0.282255906 0.0144091086 0.110928218
v 0.0386955199 0.0275438303 -0.0025855507
v 0.0564518462 0.0679603832 -0.0541024985
v 0.0669043176 -0.0064127449 -0.0541024985
v -0.126677011 0.00832594383 0.100478492
v -0.0547656017 0.0189673621 0.0676453545
v -0.078943862 0.0683884624 0.0955607129
v -0.0364149762 0.0754447457 0.0355632674
v -0.00758547055 0.0403388312 0.0547262367
v 0.0317414641 -0.00914049055 0.0575425788
v -0.142321672 0.0736992301 0.0590597748
v -0.142128733 0.0909774106 0
v -0.0941695392 0.0980623263 0.0365009484
v -0.0941695392 0.0980623263 -0.0365009587
v -0.0364149762 0.0754447457 -0.0355632674
v -0.0331931629 0.0853604982 0
v 0.0461634901 0.0455573465 0.0209035672
v 0.0461634901 0.0455573465 -0.0209035621
v 0.0828535353 0.0179594782 0
v 0.0726551925 0.00325630978 0.0486357445
v 0.087597633 -0.0272892518 0
v 0.0571630433 -0.0611077378 0
v 0.057554718 -0.0432181936 0.0486357445
v 0.0726551925 0.00325630978 -0.0486357393
v 0.0317414641 -0.00914049055 -0.0575425685
v 0.057554718 -0.0432181936 -0.0486357393
v -0.00758547055 0.0403388312 -0.0547262419
v -0.078943862 0.0683884624 -0.0955607077
v -0.126677011 0.00832594383 -0.100478487
v -0.0547656017 0.0189673621 -0.0676453545
v -0.11291216 -0.0361552085 -0.0955607077
v -0.0731162169 -0.0375100268 -0.0355632674
v -0.0291579197 -0.0260543152 -0.0547262419
v -0.0731162169 -0.0375100268 0.0355632674
v -0.177307152 -0.0172909065 0
v -0.167307514 -0.0031991174 0.0590597748
v -0.11291216 -0.0361552085 0.0955607129
v -0.0291579197 -0.0260543152 0.0547262367
v -0.172081407 0.0586419964 0
v -0.142321672 0.0736992301 -0.059059749
v -0.167307514 -0.0031991174 -0.059059749
v -0.120548558 -0.0057293218 -0.0587911154
v -0.153782844 0.050439947 -0.152987206
v -0.196937351 0.15710787 -0.212121936
v -0.201949813 0.154531591 -0.230642163
v -0.261789633 0.0817060343 -0.356911255
v -0.332599107 -0.150035598 -0.472077899
v -0.363250878 -0.194529569 -0.487902327
v -0.127228871 0.00061420274 -0.0438780003
v -0.154032577 0.057240602 -0.143144474
v -0.198805933 0.164778594 -0.208708636
v -0.209809592 0.163266347 -0.232903553
v -0.271659114 0.0851720736 -0.362722435
v -0.338288254 -0.142094544 -0.471948771
v -0.365031598 -0.191797237 -0.487428975
v -0.144351831 0.00229400918 -0.0391067698
v -0.16290459 0.0585847626 -0.135227999
v -0.204597065 0.166470154 -0.204547099
v -0.220561233 0.165088178 -0.227976739
v -0.282906989 0.0856926845 -0.358672252
v -0.341888603 -0.140414386 -0.467833572
v -0.366504276 -0.191254706 -0.485390827
v -0.159023616 -0.00195484698 -0.0480705638
v -0.173717988 0.0534603408 -0.135198999
v -0.209949962 0.160908909 -0.202771229
v -0.226108314 0.158625289 -0.219571471
v -0.287063375 0.0828758718 -0.347810302
v -0.340688933 -0.146259908 -0.462831406
v -0.366559829 -0.193310275 -0.483322577
v -0.160195967 -0.00893289669 -0.0640190317
v -0.178330109 0.0457261571 -0.143079277
v -0.210833719 0.152282529 -0.204718066
v -0.222273782 0.148744167 -0.21401701
v -0.280998439 0.0788425782 -0.33831617
v -0.335592673 -0.155229581 -0.460708596
v -0.365156661 -0.196416261 -0.482781959
v -0.146986068 -0.013385577 -0.0749429989
v -0.173267859 0.0412060405 -0.152934895
v -0.206582861 0.14708685 -0.208921696
v -0.211945112 0.142885723 -0.215496121
v -0.269279115 0.0766299725 -0.337338853
v -0.330437276 -0.160569126 -0.463064017
v -0.363351285 -0.198233655 -0.484175892
v -0.12934139 -0.0119598371 -0.0726162722
v -0.162343298 0.0433039098 -0.157344365
v -0.200398384 0.149234439 -0.21221666
v -0.202900199 0.145461371 -0.222895077
v -0.260730493 0.0779044422 -0.345614544
v -0.329105045 -0.158257551 -0.468123588
v -0.362503059 -0.197394106 -0.486454579
v -0.364622321 -0.194705092 -0.485350823
v -0.141096659 -0.00557910648 -0.0573464286
v -0.127212262 -0.0040837946 0.0611101217
v -0.164631298 0.0525874795 0.1618218
v -0.190788735 0.153260162 0.209165286
v -0.1971584 0.154424756 0.22740904
v -0.25911788 0.0593331865 0.276635402
v -0.35479955 -0.153632114 0.323909901
v -0.385764136 -0.193232709 0.349260119
v -0.131752008 0.0028037143 0.0456433626
v -0.165519807 0.0560634991 0.150406123
v -0.194258886 0.158790753 0.203565862
v -0.207337899 0.160672155 0.226677888
v -0.27020273 0.0611219428 0.280772459
v -0.360191344 -0.145562368 0.322790673
v -0.387475383 -0.190537779 0.348441678
v -0.148044339 0.00473055459 0.0385984298
v -0.173363571 0.052487124 0.142107032
v -0.199728168 0.15747387 0.19886801
v -0.217476531 0.157780258 0.221017895
v -0.280564821 0.0571288959 0.276314597
v -0.364027773 -0.144435502 0.318700156
v -0.389076558 -0.190279819 0.346445013
v -0.163820867 0.000245766936 0.0452805891
v -0.182256175 0.0445515724 0.143174001
v -0.203078147 0.15030131 0.198609408
v -0.219939542 0.14792675 0.214690846
v -0.28240125 0.0503609067 0.266618643
v -0.36341989 -0.151099728 0.314718739
v -0.389361837 -0.19265278 0.344773676
v -0.167201387 -0.00727352644 0.0606577331
v -0.185501289 0.0382324193 0.152803378
v -0.201786241 0.142674064 0.202984687
v -0.21287212 0.138531355 0.212461294
v -0.274329295 0.0459142404 0.258985988
v -0.358825744 -0.160537071 0.313844414
v -0.388116522 -0.195870002 0.344686466
v -0.155640381 -0.0121651815 0.0731506849
v -0.180655155 0.0382880138 0.163744332
v -0.196825184 0.14033576 0.208699204
v -0.201596316 0.136669123 0.216007992
v -0.262426826 0.0471373713 0.259163978
v -0.35370443 -0.165640844 0.316735582
v -0.38627832 -0.197508636 0.346248738
v -0.137843571 -0.0107456056 0.0733520165
v -0.171367159 0.0446766872 0.167757898
v -0.191930804 0.145047083 0.211449687
v -0.194603069 0.143742471 0.222660454
v -0.255657353 0.0531094608 0.267018767
v -0.351912581 -0.162567938 0.321215064
v -0.385231492 -0.196335049 0.348284306
v -0.387328937 -0.193773916 0.346877177
v -0.147359287 -0.00378393794 0.0568276172
v -0.0784780492 -0.0040837946 -0.0473804079
v -0.0917326473 0.0525874795 -0.149854925
v -0.104428063 0.153260162 -0.215287513
v -0.100822471 0.154424756 -0.234271919
v -0.113568135 0.0334776795 -0.357890108
v -0.121611783 -0.155451934 -0.413117905
v -0.134584489 -0.202801408 -0.440674756
v -0.088033986 0.0028037143 -0.0343990146
v -0.0982099741 0.0560634991 -0.14041285
v -0.110233007 0.158790753 -0.212173383
v -0.110003752 0.160672155 -0.238728437
v -0.121099332 0.0352664358 -0.367015364
v -0.12579689 -0.147860648 -0.417623765
v -0.136179552 -0.200142123 -0.441790473
v -0.105753287 0.00473055459 -0.0333512822
v -0.109152444 0.052487124 -0.137147533
v -0.117318456 0.15747387 -0.210839518
v -0.121614069 0.157780258 -0.23889613
v -0.132302094 0.0312733889 -0.368335753
v -0.131196321 -0.146031893 -0.417152543
v -0.138627649 -0.19950706 -0.441320751
v -0.118292929 0.000245766936 -0.045026383
v -0.116320174 0.0445515724 -0.142517851
v -0.120348949 0.15030131 -0.212290534
v -0.126910549 0.14792675 -0.234648215
v -0.138740441 0.0245053997 -0.360857007
v -0.133744118 -0.151342495 -0.412059557
v -0.140085176 -0.201374298 -0.439619407
v -0.116210278 -0.00727352644 -0.0606323378
v -0.114315814 0.0382324193 -0.152479771
v -0.117042448 0.142674064 -0.215433726
v -0.121904835 0.138531355 -0.229183628
v -0.135566264 0.0200587334 -0.350211022
v -0.131522003 -0.159793689 -0.406179575
v -0.139454808 -0.204337959 -0.437967773
v -0.101073627 -0.0121651815 -0.0684177826
v -0.104648445 0.0382880138 -0.159531783
v -0.109888767 0.14033576 -0.217902105
v -0.110366334 0.136669123 -0.226617288
v -0.12516948 0.0212818643 -0.344413887
v -0.126202935 -0.165021465 -0.403940498
v -0.137211072 -0.206166068 -0.437609229
v -0.0842812764 -0.0107456056 -0.0625201156
v -0.0945980529 0.0446766872 -0.15836362
v -0.104274911 0.145047083 -0.217836866
v -0.10098381 0.143742471 -0.228881873
v -0.115379567 0.0272539538 -0.347831566
v -0.121792591 -0.163089221 -0.407028199
v -0.1350436 -0.205482397 -0.438814106
v -0.137312147 -0.202830247 -0.439685054
v -0.0988747864 -0.00378393794 -0.0502468167
v -0.0767563258 -0.00122798145 0.0376004176
v -0.0890301367 0.0541533356 0.140899048
v -0.112210162 0.152291842 0.207300246
v -0.106926781 0.154405975 0.22580378
v -0.0888441011 0.101766546 0.293506581
v -0.055068075 -0.160920032 0.395032309
v -0.0567148691 -0.19012556 0.443135958
v -0.088647863 0.00366897918 0.0256890182
v -0.0969497095 0.0562865442 0.132185768
v -0.119176546 0.156679377 0.204809931
v -0.116545112 0.159053818 0.231195579
v -0.0955915197 0.102393139 0.303369081
v -0.0600214213 -0.152575948 0.396166249
v -0.0586239984 -0.187439348 0.443153312
v -0.106444808 0.00248746525 0.0264991747
v -0.107382019 0.0508155034 0.130082127
v -0.126024765 0.15413458 0.204224004
v -0.127396999 0.15420378 0.232575958
v -0.10573433 0.096550048 0.305853237
v -0.0656757363 -0.151771718 0.395847156
v -0.0611803323 -0.187367149 0.442875649
v -0.116745684 -0.00388282491 0.0394210693
v -0.112471339 0.0418601538 0.136172273
v -0.12759799 0.146574047 0.205983849
v -0.131310696 0.143508204 0.228904957
v -0.111634748 0.0886372493 0.299088495
v -0.0677731608 -0.159112406 0.39431546
v -0.0624587579 -0.189963073 0.442512137
v -0.111793703 -0.0106449553 0.0547238322
v -0.10838545 0.0361639787 0.14587011
v -0.122711516 0.139690706 0.208764221
v -0.125339046 0.135020845 0.222947057
v -0.10884967 0.0846130672 0.288168985
v -0.0647345596 -0.169070815 0.392724188
v -0.0614967417 -0.193272578 0.442336728
v -0.0953178185 -0.0127069268 0.0608844393
v -0.0982008213 0.0380162466 0.151872952
v -0.115045012 0.138668136 0.210471315
v -0.113978891 0.13513297 0.219188685
v -0.0994760614 0.0875078859 0.281316899
v -0.0588477002 -0.174147844 0.392271985
v -0.0590186465 -0.194803312 0.442481203
v -0.0797247655 -0.00851597663 0.0532638027
v -0.0895869867 0.0460223164 0.149660652
v -0.110371546 0.144276222 0.209819622
v -0.105784671 0.143760265 0.220460114
v -0.0905729037 0.0951419622 0.283692523
v -0.0545458351 -0.170520533 0.393299085
v -0.05689049 -0.193402807 0.44283714
v -0.0594832389 -0.190910703 0.442761554
v -0.0964901692 -0.00440309459 0.0425831772
v -0.0317245804 -0.0057293218 0.0268200984
v 0.0129479441 0.050439947 0.116160912
v 0.025508265 0.15710787 0.188282129
v 0.0353486848 0.154531591 0.204753059
v 0.0846108617 0.0817060343 0.33551213
v 0.108776592 -0.150035598 0.463881356
v 0.116715572 -0.194529569 0.497450906
v -0.0470926594 0.00061420274 0.0212660149
v 0.00569420226 0.057240602 0.109503285
v 0.0217549141 0.164778594 0.187255185
v 0.0315155024 0.163266347 0.211977776
v 0.0819351218 0.0851720736 0.34664847
v 0.107274884 -0.142094544 0.469370284
v 0.115825517 -0.191797237 0.499064191
v -0.062419473 0.00229400918 0.030268768
v -0.00616344869 0.0585847626 0.110385981
v 0.0147384793 0.166470154 0.188530135
v 0.0205027267 0.165088178 0.216289409
v 0.0712082097 0.0856926845 0.351925894
v 0.102411127 -0.140414386 0.471868252
v 0.113491582 -0.191254706 0.5
v -0.0661633039 -0.00195484698 0.0470495609
v -0.0136959284 0.0534603408 0.11814433
v 0.00974258516 0.160908909 0.191147064
v 0.0106031495 0.158625289 0.214440807
v 0.0605075307 0.0828758718 0.347370407
v 0.0978475885 -0.146259908 0.469493925
v 0.111471362 -0.193310275 0.499553558
v -0.0555053847 -0.00893289669 0.0589716489
v -0.0112311849 0.0457261571 0.126936107
v 0.0105291459 0.152282529 0.193135197
v 0.00927132717 0.148744167 0.207824052
v 0.0578911085 0.0788425782 0.336412512
v 0.0970208432 -0.155229581 0.464035455
v 0.111286319 -0.196416261 0.49806139
v -0.0384709338 -0.013385577 0.0570577002
v -0.000625121521 0.0412060405 0.130140913
v 0.016505848 0.14708685 0.192997439
v 0.0175101845 0.142885723 0.201421732
v 0.0653290139 0.0766299725 0.327303436
v 0.100553481 -0.160569126 0.459603061
v 0.113075603 -0.198233655 0.496646867
v -0.0278875404 -0.0119598371 0.0427488541
v 0.0101356716 0.0433039098 0.125345554
v 0.023172163 0.149234439 0.190837568
v 0.0291156925 0.145461371 0.200055114
v 0.0772204063 0.0779044422 0.326902872
v 0.105785126 -0.158257551 0.459534492
v 0.115491764 -0.197394106 0.496375115
v 0.113908233 -0.194705092 0.498164362
v -0.0470377216 -0.00557910648 0.0405975776
v -0.0317245804 -0.0057293218 -0.0268201191
v 0.0129479441 0.050439947 -0.116160923
v 0.025508265 0.15710787 -0.188282108
v 0.0353486848 0.154531591 -0.204753039
v 0.0846108617 0.0817060343 -0.335512089
v 0.108776592 -0.150035598 -0.463881356
v 0.116715572 -0.194529569 -0.497450906
v -0.0470926594 0.00061420274 -0.0212660304
v 0.00569420226 0.057240602 -0.109503295
v 0.0217549141 0.164778594 -0.187255164
v 0.0315155024 0.163266347 -0.211977755
v 0.0819351218 0.0851720736 -0.34664847
v 0.107274889 -0.142094544 -0.469370284
v 0.115825517 -0.191797237 -0.499064191
v -0.062419473 0.00229400918 -0.0302687887
v -0.00616344869 0.0585847626 -0.110386002
v 0.0147384793 0.166470154 -0.188530145
v 0.0205027267 0.165088178 -0.216289388
v 0.0712082097 0.0856926845 -0.351925858
v 0.102411127 -0.140414386 -0.471868252
v 0.113491577 -0.191254706 -0.5
v -0.0661633039 -0.00195484698 -0.0470495764
v -0.0136959284 0.0534603408 -0.11814433
v 0.00974258516 0.160908909 -0.191147064
v 0.0106031495 0.158625289 -0.214440807
v 0.0605075307 0.0828758718 -0.347370371
v 0.0978475885 -0.146259908 -0.469493925
v 0.111471357 -0.193310275 -0.499553558
v -0.0555053847 -0.00893289669 -0.0589716696
v -0.0112311849 0.0457261571 -0.126936117
v 0.0105291459 0.152282529 -0.193135187
v 0.00927132717 0.148744167 -0.207824052
v 0.0578911085 0.0788425782 -0.336412476
v 0.0970208432 -0.155229581 -0.464035455
v 0.111286324 -0.196416261 -0.49806139
v -0.0384709338 -0.013385577 -0.0570577157
v -0.000625121521 0.0412060405 -0.130140913
v 0.016505848 0.14708685 -0.192997419
v 0.0175101845 0.142885723 -0.201421722
v 0.0653290139 0.0766299725 -0.327303395
v 0.100553481 -0.160569126 -0.459603061
v 0.113075608 -0.198233655 -0.496646867
v -0.0278875404 -0.0119598371 -0.0427488748
v 0.0101356716 0.0433039098 -0.125345554
v 0.023172163 0.149234439 -0.190837558
v 0.0291156925 0.145461371 -0.200055093
v 0.0772204063 0.0779044422 -0.326902872
v 0.105785126 -0.158257551 -0.459534492
v 0.115491764 -0.197394106 -0.496375115
v 0.113908233 -0.194705092 -0.498164362
v -0.0470377216 -0.00557910648 -0.0405975983
v 0.0318244913 -0.0254174889 0.0215020653
v 0.074887164 0.0407614033 0.108990999
v 0.098794836 0.147386096 0.16034455
v 0.111912762 0.150027474 0.174334086
v 0.166611473 0.0414071032 0.297953552
v 0.189056344 -0.141146325 0.36852047
v 0.192657794 -0.185075064 0.403548224
v 0.0168415094 -0.0191891403 0.0148697089
v 0.0643905417 0.0437401646 0.104077817
v 0.0922217353 0.152931875 0.160199248
v 0.106488199 0.157144285 0.182278377
v 0.165060323 0.0444121389 0.309431903
v 0.187894925 -0.132965373 0.373732842
v 0.191896333 -0.182243053 0.40505199
v 0.00125945536 -0.0163842315 0.023123004
v 0.0533804188 0.0405000507 0.107464516
v 0.0855060828 0.15189645 0.162946059
v 0.096730946 0.154926193 0.188840923
v 0.156259533 0.0411785509 0.316867021
v 0.183066228 -0.130889342 0.375989873
v 0.189571313 -0.181517527 0.405879542
v -0.00318790903 -0.0191149143 0.0400472277
v 0.0501477254 0.0334810614 0.116600895
v 0.0837049933 0.145059669 0.16651672
v 0.0899882073 0.145043494 0.18907957
v 0.146836369 0.0341413128 0.314659933
v 0.178206701 -0.136481184 0.373592312
v 0.187433688 -0.183444615 0.405408005
v 0.00684816457 -0.0253249934 0.0528976732
v 0.0571264991 0.0279685794 0.124606986
v 0.0881747124 0.137569686 0.168222382
v 0.0913375286 0.134937864 0.182814693
v 0.143886721 0.0285994589 0.304473054
v 0.176975229 -0.145530405 0.368345382
v 0.187093042 -0.186573364 0.403992613
v 0.0238104528 -0.0303381487 0.0519980412
v 0.0690618872 0.0281134995 0.125453997
v 0.0955494166 0.135066759 0.166778523
v 0.0997627628 0.132219214 0.174763903
v 0.149631686 0.0287261147 0.293976634
v 0.180299533 -0.15122265 0.364200119
v 0.188805819 -0.188547562 0.402698653
v 0.0349258852 -0.0303792951 0.0380257045
v 0.0769660967 0.0338069183 0.118504264
v 0.100275664 0.139435517 0.163272469
v 0.108919646 0.138934836 0.170989749
v 0.159745083 0.0344261732 0.291075387
v 0.185675933 -0.149271604 0.364278
v 0.19128242 -0.187880836 0.402501153
v 0.189820131 -0.185040407 0.404154054
v 0.0160460285 -0.0237353761 0.0346376351
v 0.0249296963 -0.0254174889 -0.0180546678
v 0.067992369 0.0407614033 -0.105543602
v 0.0919000411 0.147386096 -0.156897153
v 0.105017967 0.150027474 -0.170886689
v 0.159716678 0.0414071032 -0.294506201
v 0.182161549 -0.141146325 -0.365073161
v 0.185762999 -0.185075064 -0.400100873
v 0.00994671439 -0.0191891403 -0.0114223114
v 0.0574957468 0.0437401646 -0.100630419
v 0.0853269403 0.152931875 -0.15675185
v 0.0995934041 0.157144285 -0.178830979
v 0.158165529 0.0444121389 -0.305984557
v 0.18100013 -0.132965373 -0.370285533
v 0.185001538 -0.182243053 -0.401604639
v -0.00563533962 -0.0163842315 -0.0196756065
v 0.0464856238 0.0405000507 -0.104017129
v 0.0786112878 0.15189645 -0.159498682
v 0.0898361511 0.154926193 -0.185393526
v 0.149364738 0.0411785509 -0.31341967
v 0.176171433 -0.130889342 -0.372542522
v 0.182676518 -0.181517527 -0.402432191
v -0.010082704 -0.0191149143 -0.0365998302
v 0.0432529305 0.0334810614 -0.113153508
v 0.0768101983 0.145059669 -0.163069323
v 0.0830934123 0.145043494 -0.185632172
v 0.139941574 0.0341413128 -0.311212546
v 0.171311906 -0.136481184 -0.370145003
v 0.180538888 -0.183444615 -0.401960659
v -4.66304069e-05 -0.0253249934 -0.0494502757
v 0.0502317041 0.0279685794 -0.121159578
v 0.0812799174 0.137569686 -0.164775005
v 0.0844427337 0.134937864 -0.179367295
v 0.136991921 0.0285994589 -0.301025709
v 0.170080434 -0.145530405 -0.364898072
v 0.180198247 -0.186573364 -0.400545267
v 0.0169156578 -0.0303381487 -0.0485506437
v 0.0621670922 0.0281134995 -0.122006599
v 0.0886546216 0.135066759 -0.163331125
v 0.0928679678 0.132219214 -0.171316526
v 0.142736891 0.0287261147 -0.290529247
v 0.173404738 -0.15122265 -0.360752814
v 0.181911024 -0.188547562 -0.399251307
v 0.0280310902 -0.0303792951 -0.034578307
v 0.0700713017 0.0338069183 -0.115056867
v 0.0933808687 0.139435517 -0.159825072
v 0.102024851 0.138934836 -0.167542351
v 0.152850288 0.0344261732 -0.287627995
v 0.178781138 -0.149271604 -0.360830691
v 0.184387625 -0.187880836 -0.399053807
v 0.182925336 -0.185040407 -0.400706703
v 0.00915123351 -0.0237353761 -0.0311902376
v -0.255522108 -0.0492324069 0.0506612856
v -0.241033701 0.0311643252 0.0319032756
v -0.228236926 0.0450149135 0.0216551455
v -0.255522108 -0.0492324069 0.0506612856
v -0.245557385 0.0348203766 0.0409775657
v -0.227983878 0.0545811511 0.0328518211
v -0.255522108 -0.0492324069 0.0506612856
v -0.257405015 0.0361306303 0.0437930442
v -0.233724969 0.0706918003 0.0336849993
v -0.255522108 -0.0492324069 0.0506612856
v -0.267654582 0.0341086986 0.0382294562
v -0.241136668 0.0812158035 0.0235272031
v -0.255522108 -0.0492324069 0.0506612856
v -0.268588892 0.0302771607 0.0284763712
v -0.244638067 0.0782282255 0.0100274741
v -0.255522108 -0.0492324069 0.0506612856
v -0.259503882 0.0275209016 0.0218780923
v -0.241592583 0.0639785885 0.0033514115
v -0.255522108 -0.0492324069 0.0506612856
v -0.247240506 0.0279159169 0.0234031639
v -0.234293558 0.0491974192 0.00852618956
v -0.235943615 0.0632724695 0.0190891932
v -0.255522108 -0.0492324069 0.0506612856
v -0.255273166 0.018330846 0.103574374
v -0.218892477 0.0543476914 0.0613386223
v -0.211255737 0.0747314078 0.0360315934
v -0.255273166 0.018330846 0.103574374
v -0.20972112 0.0465053438 0.0618405243
v -0.197279321 0.0653867984 0.0363211854
v -0.255273166 0.018330846 0.103574374
v -0.201348993 0.0442303436 0.0690678573
v -0.182424654 0.0651466162 0.0452220523
v -0.255273166 0.018330846 0.103574374
v -0.200081385 0.0492361404 0.0775783008
v -0.177877255 0.0741915397 0.0560317795
v -0.255273166 0.018330846 0.103574374
v -0.206871631 0.0577530634 0.0809634227
v -0.187061809 0.085710923 0.0606105778
v -0.255273166 0.018330846 0.103574374
v -0.216607455 0.0633676281 0.0766743664
v -0.203061776 0.0910301661 0.0555100981
v -0.255273166 0.018330846 0.103574374
v -0.221957295 0.0618522213 0.0679403038
v -0.213828903 0.0861437546 0.0445715898
v -0.19611287 0.0774772575 0.0477568745
v -0.255273166 0.018330846 0.103574374
v -0.18947164 0.14840169 0.000287270196
v -0.18947164 0.0242952358 0.000287270196
v -0.173958336 0.0326088 0.0271570991
v -0.18947164 0.0326088 0.0313138786
v -0.198779695 0.0481220835 0.0271570991
v -0.21013624 0.0420891457 0.0158005744
v -0.21429302 0.0420891457 0.000287270196
v -0.135731982 0.0553218494 0.000287270196
v -0.145229982 0.0553218494 0.0512889125
v -0.162601811 0.0553218494 0.0468271828
v -0.18947164 0.0673877819 0.0611350206
v -0.216341464 0.0553218494 0.0468271828
v -0.236011553 0.0553218494 0.0271571043
v -0.242177109 0.051185051 0.000287270196
v -0.102597121 0.108693268 0.000287270196
v -0.11320894 0.108693268 0.0513908194
v -0.135921984 0.108693268 0.0711355015
v -0.18947164 0.0863484733 0.062340487
v -0.227789931 0.0819161206 0.0463192824
v -0.244333458 0.0819161206 0.0187861253
v -0.253593282 0.0760063118 0.000287270196
v -0.11091068 0.125404272 0.000287270196
v -0.12040868 0.125404272 0.04777729
v -0.140078769 0.125404272 0.0648766847
v -0.18947164 0.117375082 0.0540269332
v -0.222014814 0.112942724 0.0403390226
v -0.236341903 0.112942724 0.0164945983
v -0.243211313 0.117375082 0.000287270196
v -0.133623729 0.13763782 0.000287270196
v -0.137780509 0.13763782 0.0137731407
v -0.151435288 0.13763782 0.0477773003
v -0.18947164 0.140088126 0.0313138838
v -0.204984924 0.140088126 0.0271571094
v -0.216341464 0.140088126 0.0158005744
v -0.220498264 0.140088126 0.000287270196
v -0.228603753 0.104324194 0.0385553184
v -0.230115018 0.107771622 0.0354568306
v -0.232381952 0.1086335 0.0308090343
v -0.234648864 0.10604795 0.026161326
v -0.235782173 0.10001497 0.0238374278
v -0.23729334 0.0965675418 0.0207389194
v -0.237671057 0.0905346453 0.0199642987
v -0.235782173 0.0879490946 0.0238374278
v -0.232759649 0.0870872168 0.0300344344
v -0.228981632 0.0913964404 0.0377807029
v -0.227848245 0.0982912975 0.0401045959
v -0.229418367 0.106114269 0.0342882134
v -0.230292713 0.10552422 0.0312393682
v -0.2312043 0.103756081 0.0280601699
v -0.231453951 0.100040143 0.0271900752
v -0.231884455 0.0958029583 0.0256885735
v -0.232733297 0.09185989 0.0227277974
v -0.232558384 0.0901155017 0.0233380959
v -0.231240674 0.0901622536 0.0279333693
v -0.229486228 0.0936079085 0.0340521475
v -0.228531162 0.0988198409 0.0373828073
v -0.22868132 0.103418884 0.0368588351
v 0.0571630433 -0.0611077378 0
v 0.057554718 -0.0432181936 0.0486357445
v 0.057554718 -0.0432181936 -0.0486357393
v -0.11291216 -0.0361552085 -0.0955607077
v -0.0731162169 -0.0375100268 -0.0355632674
v -0.0291579197 -0.0260543152 -0.0547262419
v 0.0112585711 -0.0618690325 -0.0209035621
v -0.0763380716 -0.0474257844 0
v -0.0731162169 -0.0375100268 0.0355632674
v 0.0112585711 -0.0618690325 0.0209035672
v -0.142671833 -0.0512124371 -0.0365009587
v -0.177307152 -0.0172909065 0
v -0.142671833 -0.0512124371 0.0365009484
v -0.167307514 -0.0031991174 0.0590597748
v -0.11291216 -0.0361552085 0.0955607129
v -0.0291579197 -0.0260543152 0.0547262367
v -0.167307514 -0.0031991174 -0.059059749
v -0.18947164 0.14840169 5.74664499e-05
v -0.18947164 0.0242952358 5.74664499e-05
v -0.173958336 0.0326088 -0.0268123624
v -0.18947164 0.0326088 -0.0309691368
v -0.198779695 0.0481220835 -0.0268123624
v -0.21013624 0.0420891457 -0.0154558378
v -0.21429302 0.0420891457 5.74664499e-05
v -0.135731982 0.0553218494 5.74664499e-05
v -0.145229982 0.0553218494 -0.0509441707
v -0.162601811 0.0553218494 -0.046482441
v -0.18947164 0.0673877819 -0.0607902787
v -0.216341464 0.0553218494 -0.046482441
v -0.236011553 0.0553218494 -0.0268123624
v -0.242177109 0.051185051 5.74664499e-05
v -0.102597121 0.108693268 5.74664499e-05
v -0.11320894 0.108693268 -0.0510460724
v -0.135921984 0.108693268 -0.0707907648
v -0.18947164 0.0863484733 -0.0619957452
v -0.227789931 0.0819161206 -0.0459745509
v -0.244333458 0.0819161206 -0.0184413835
v -0.253593282 0.0760063118 5.74664499e-05
v -0.11091068 0.125404272 5.74664499e-05
v -0.12040868 0.125404272 -0.0474325533
v -0.140078769 0.125404272 -0.0645319429
v -0.18947164 0.117375082 -0.053682181
v -0.222014814 0.112942724 -0.0399942808
v -0.236341903 0.112942724 -0.0161498565
v -0.243211313 0.117375082 5.74664499e-05
v -0.133623729 0.13763782 5.74664499e-05
v -0.137780509 0.13763782 -0.0134283989
v -0.151435288 0.13763782 -0.0474325533
v -0.18947164 0.140088126 -0.0309691368
v -0.204984924 0.140088126 -0.0268123676
v -0.216341464 0.140088126 -0.0154558378
v -0.220498264 0.140088126 5.74664499e-05
v -0.228603753 0.104324194 -0.0382105817
v -0.230115018 0.107771622 -0.0351120888
v -0.232381952 0.1086335 -0.0304642822
v -0.234648864 0.10604795 -0.0258165841
v -0.235782173 0.10001497 -0.0234926912
v -0.23729334 0.0965675418 -0.0203941775
v -0.237671057 0.0905346453 -0.0196195621
v -0.235782173 0.0879490946 -0.0234926912
v -0.232759649 0.0870872168 -0.0296896977
v -0.228981632 0.0913964404 -0.0374359507
v -0.227848245 0.0982912975 -0.0397598541
v -0.229418367 0.106114269 -0.0339434716
v -0.230292713 0.10552422 -0.0308946316
v -0.2312043 0.103756081 -0.0277154177
v -0.231453951 0.100040143 -0.0268453334
v -0.231884455 0.0958029583 -0.0253438369
v -0.232733297 0.09185989 -0.0223830607
v -0.232558384 0.0901155017 -0.0229933489
v -0.231240674 0.0901622536 -0.0275886223
v -0.229486228 0.0936079085 -0.0337074056
v -0.228531162 0.0988198409 -0.0370380759
v -0.22868132 0.103418884 -0.0365140881
v -0.254581841 -0.0497025117 -0.0522909634
v -0.240093413 0.0306942255 -0.0335329585
v -0.227296758 0.0445448086 -0.0232848284
v -0.254581841 -0.0497025117 -0.0522909634
v -0.244617119 0.034350277 -0.0426072435
v -0.22704371 0.0541110515 -0.034481504
v -0.254581841 -0.0497025117 -0.0522909634
v -0.256464743 0.0356605306 -0.045422722
v -0.232784801 0.0702216955 -0.035314677
v -0.254581841 -0.0497025117 -0.0522909634
v -0.266714316 0.0336385938 -0.039859134
v -0.24019638 0.0807456935 -0.025156886
v -0.254581841 -0.0497025117 -0.0522909634
v -0.267648625 0.029807061 -0.0301060541
v -0.2436978 0.0777581207 -0.0116571518
v -0.254581841 -0.0497025117 -0.0522909634
v -0.25856361 0.0270507968 -0.0235077753
v -0.240652296 0.0635084785 -0.00498108928
v -0.254581841 -0.0497025117 -0.0522909634
v -0.246300235 0.0274458172 -0.0250328468
v -0.233353389 0.0487273195 -0.0101558673
v -0.235003441 0.0628023595 -0.0207188762
v -0.254581841 -0.0497025117 -0.0522909634
v -0.255273166 0.0186129038 -0.0966795479
v -0.218892477 0.0546297491 -0.0544438118
v -0.211255737 0.0750134707 -0.029136788
v -0.255273166 0.0186129038 -0.0966795479
v -0.20972112 0.0467874015 -0.0549457034
v -0.197279321 0.0656688613 -0.0294263801
v -0.255273166 0.0186129038 -0.0966795479
v -0.201348993 0.0445124013 -0.0621730416
v -0.182424654 0.065428674 -0.0383272521
v -0.255273166 0.0186129038 -0.0966795479
v -0.200081385 0.0495181981 -0.0706834903
v -0.177877255 0.0744735922 -0.0491369742
v -0.255273166 0.0186129038 -0.0966795479
v -0.206871631 0.0580351211 -0.0740686071
v -0.187061809 0.0859929756 -0.053715757
v -0.255273166 0.0186129038 -0.0966795479
v -0.216607455 0.0636496858 -0.0697795611
v -0.203061776 0.0913122239 -0.0486152928
v -0.255273166 0.0186129038 -0.0966795479
v -0.221957295 0.0621342842 -0.0610454933
v -0.213828903 0.0864258071 -0.0376767793
v -0.19611287 0.0777593152 -0.040862064
v -0.255273166 0.0186129038 -0.0966795479
v -0.218794671 0.103607117 0.0421287821
v -0.214001406 0.102819098 0.0399638023
v -0.217742362 0.107412458 0.0385817168
v -0.223795379 0.105844229 0.0396213875
v -0.228543945 0.106106745 0.0342736826
v -0.223472857 0.108881667 0.0339646111
v -0.229004002 0.106665705 0.0278760632
v -0.22765603 0.105004602 0.0221464104
v -0.227107288 0.0948598218 0.0180958298
v -0.22815952 0.100054907 0.0183669455
v -0.232223038 0.101610752 0.0226416106
v -0.234020529 0.0975068362 0.0253683738
v -0.231900517 0.0956478408 0.0202607993
v -0.232223038 0.0926103306 0.0259175085
v -0.22765603 0.0896920971 0.0277196994
v -0.22815952 0.0910544238 0.0216428382
v -0.22295098 0.0902329891 0.0333881935
v -0.218245893 0.0934622644 0.0380781912
v -0.229004002 0.0921026526 0.0331765766
v -0.228543945 0.0966431433 0.0377181688
v -0.223472857 0.094318697 0.0392651296
v -0.223795379 0.10028168 0.0416459926
v -0.217742362 0.0984120323 0.0418576148
v -0.229525875 0.101750883 0.0370288868
v -0.232744952 0.102258561 0.0297698705
v -0.232744952 0.0966960127 0.0317944756
v -0.218794671 0.10222816 -0.0407498252
v -0.214001406 0.101440141 -0.0385848454
v -0.217742362 0.106033501 -0.0372027599
v -0.223795379 0.104465267 -0.0382424254
v -0.228543945 0.104727783 -0.0328947153
v -0.223472857 0.107502704 -0.032585649
v -0.229004002 0.105286748 -0.0264971011
v -0.22765603 0.10362564 -0.0207674535
v -0.227107288 0.0934808597 -0.0167168677
v -0.22815952 0.0986759498 -0.0169879834
v -0.232223038 0.100231789 -0.0212626485
v -0.234020529 0.0961278793 -0.0239894117
v -0.231900517 0.0942688787 -0.0188818372
v -0.232223038 0.0912313634 -0.0245385464
v -0.22765603 0.0883131298 -0.0263407425
v -0.22815952 0.0896754617 -0.0202638813
v -0.22295098 0.0888540219 -0.0320092366
v -0.218245893 0.0920832971 -0.0366992291
v -0.229004002 0.0907236905 -0.0317976145
v -0.228543945 0.0952641864 -0.0363392067
v -0.223472857 0.0929397298 -0.0378861727
v -0.223795379 0.0989027181 -0.0402670253
v -0.217742362 0.0970330702 -0.0404786578
v -0.229525875 0.100371926 -0.0356499247
v -0.232744952 0.100879599 -0.0283909135
v -0.232744952 0.0953170506 -0.0304155135
usemtl AgenticSimDefault
f 1 2 3
f 4 3 5
f 6 5 2
f 3 2 5
f 1 3 7
f 8 7 9
f 4 9 3
f 7 3 9
f 8 9 10
f 11 10 12
f 4 12 9
f 10 9 12
f 4 13 12
f 11 12 14
f 15 14 13
f 12 13 14
f 4 5 13
f 15 13 16
f 6 16 5
f 13 5 16
f 15 16 17
f 18 17 19
f 6 19 16
f 17 16 19
f 15 17 20
f 21 20 22
f 18 22 17
f 20 17 22
f 11 14 23
f 21 23 20
f 15 20 14
f 23 14 20
f 11 23 24
f 25 24 26
f 21 26 23
f 24 23 26
f 25 26 27
f 28 27 29
f 21 29 26
f 27 26 29
f 28 29 30
f 18 30 22
f 21 22 29
f 30 29 22
f 28 30 31
f 32 31 33
f 18 33 30
f 31 30 33
f 28 31 34
f 35 34 36
f 32 36 31
f 34 31 36
f 35 36 37
f 1 37 38
f 32 38 36
f 37 36 38
f 1 38 2
f 6 2 39
f 32 39 38
f 2 38 39
f 32 33 39
f 6 39 19
f 18 19 33
f 39 33 19
f 8 40 7
f 1 7 37
f 35 37 40
f 7 40 37
f 8 41 40
f 35 40 42
f 25 42 41
f 40 41 42
f 8 10 41
f 25 41 24
f 11 24 10
f 41 10 24
f 28 34 27
f 25 27 42
f 35 42 34
f 27 34 42
f 43 44 45
f 46 45 47
f 48 47 44
f 45 44 47
f 43 45 49
f 50 49 51
f 46 51 45
f 49 45 51
f 50 51 52
f 53 52 54
f 46 54 51
f 52 51 54
f 46 55 54
f 53 54 56
f 57 56 55
f 54 55 56
f 46 47 55
f 57 55 58
f 48 58 47
f 55 47 58
f 57 58 59
f 60 59 61
f 48 61 58
f 59 58 61
f 57 59 62
f 63 62 64
f 60 64 59
f 62 59 64
f 53 56 65
f 63 65 62
f 57 62 56
f 65 56 62
f 53 65 66
f 67 66 68
f 63 68 65
f 66 65 68
f 67 68 69
f 70 69 71
f 63 71 68
f 69 68 71
f 63 64 71
f 43 74 75
f 43 75 44
f 48 44 76
f 72 76 75
f 44 75 76
f 48 76 61
f 50 77 49
f 43 49 74
f 73 74 77
f 49 77 74
f 50 78 77
f 73 77 79
f 67 79 78
f 77 78 79
f 50 52 78
f 67 78 66
f 53 66 52
f 78 52 66
f 67 69 79
f 80 87 130
f 86 129 93
f 80 81 88
f 80 88 87
f 81 82 88
f 82 89 88
f 82 83 90
f 82 90 89
f 83 84 90
f 84 91 90
f 84 85 92
f 84 92 91
f 85 86 92
f 86 93 92
f 87 94 130
f 93 129 100
f 87 88 94
f 88 95 94
f 88 89 96
f 88 96 95
f 89 90 96
f 90 97 96
f 90 91 98
f 90 98 97
f 91 92 98
f 92 99 98
f 92 93 100
f 92 100 99
f 94 101 130
f 100 129 107
f 94 95 102
f 94 102 101
f 95 96 102
f 96 103 102
f 96 97 104
f 96 104 103
f 97 98 104
f 98 105 104
f 98 99 106
f 98 106 105
f 99 100 106
f 100 107 106
f 101 108 130
f 107 129 114
f 101 102 108
f 102 109 108
f 102 103 110
f 102 110 109
f 103 104 110
f 104 111 110
f 104 105 112
f 104 112 111
f 105 106 112
f 106 113 112
f 106 107 114
f 106 114 113
f 108 115 130
f 114 129 121
f 108 109 116
f 108 116 115
f 109 110 116
f 110 117 116
f 110 111 118
f 110 118 117
f 111 112 118
f 112 119 118
f 112 113 120
f 112 120 119
f 113 114 120
f 114 121 120
f 115 122 130
f 121 129 128
f 115 116 122
f 116 123 122
f 116 117 124
f 116 124 123
f 117 118 124
f 118 125 124
f 118 119 126
f 118 126 125
f 119 120 126
f 120 127 126
f 120 121 128
f 120 128 127
f 122 80 130
f 128 129 86
f 122 123 81
f 122 81 80
f 123 124 81
f 124 82 81
f 124 125 83
f 124 83 82
f 125 126 83
f 126 84 83
f 126 127 85
f 126 85 84
f 127 128 85
f 128 86 85
f 181 138 131
f 144 180 137
f 139 132 131
f 138 139 131
f 139 133 132
f 139 140 133
f 141 134 133
f 140 141 133
f 141 135 134
f 141 142 135
f 143 136 135
f 142 143 135
f 143 137 136
f 143 144 137
f 181 145 138
f 151 180 144
f 145 139 138
f 145 146 139
f 147 140 139
f 146 147 139
f 147 141 140
f 147 148 141
f 149 142 141
f 148 149 141
f 149 143 142
f 149 150 143
f 151 144 143
f 150 151 143
f 181 152 145
f 158 180 151
f 153 146 145
f 152 153 145
f 153 147 146
f 153 154 147
f 155 148 147
f 154 155 147
f 155 149 148
f 155 156 149
f 157 150 149
f 156 157 149
f 157 151 150
f 157 158 151
f 181 159 152
f 165 180 158
f 159 153 152
f 159 160 153
f 161 154 153
f 160 161 153
f 161 155 154
f 161 162 155
f 163 156 155
f 162 163 155
f 163 157 156
f 163 164 157
f 165 158 157
f 164 165 157
f 181 166 159
f 172 180 165
f 167 160 159
f 166 167 159
f 167 161 160
f 167 168 161
f 169 162 161
f 168 169 161
f 169 163 162
f 169 170 163
f 171 164 163
f 170 171 163
f 171 165 164
f 171 172 165
f 181 173 166
f 179 180 172
f 173 167 166
f 173 174 167
f 175 168 167
f 174 175 167
f 175 169 168
f 175 176 169
f 177 170 169
f 176 177 169
f 177 171 170
f 177 178 171
f 179 172 171
f 178 179 171
f 181 131 173
f 137 180 179
f 132 174 173
f 131 132 173
f 132 175 174
f 132 133 175
f 134 176 175
f 133 134 175
f 134 177 176
f 134 135 177
f 136 178 177
f 135 136 177
f 136 179 178
f 136 137 179
f 182 189 232
f 188 231 195
f 182 183 190
f 182 190 189
f 183 184 190
f 184 191 190
f 184 185 192
f 184 192 191
f 185 186 192
f 186 193 192
f 186 187 194
f 186 194 193
f 187 188 194
f 188 195 194
f 189 196 232
f 195 231 202
f 189 190 196
f 190 197 196
f 190 191 198
f 190 198 197
f 191 192 198
f 192 199 198
f 192 193 200
f 192 200 199
f 193 194 200
f 194 201 200
f 194 195 202
f 194 202 201
f 196 203 232
f 202 231 209
f 196 197 204
f 196 204 203
f 197 198 204
f 198 205 204
f 198 199 206
f 198 206 205
f 199 200 206
f 200 207 206
f 200 201 208
f 200 208 207
f 201 202 208
f 202 209 208
f 203 210 232
f 209 231 216
f 203 204 210
f 204 211 210
f 204 205 212
f 204 212 211
f 205 206 212
f 206 213 212
f 206 207 214
f 206 214 213
f 207 208 214
f 208 215 214
f 208 209 216
f 208 216 215
f 210 217 232
f 216 231 223
f 210 211 218
f 210 218 217
f 211 212 218
f 212 219 218
f 212 213 220
f 212 220 219
f 213 214 220
f 214 221 220
f 214 215 222
f 214 222 221
f 215 216 222
f 216 223 222
f 217 224 232
f 223 231 230
f 217 218 224
f 218 225 224
f 218 219 226
f 218 226 225
f 219 220 226
f 220 227 226
f 220 221 228
f 220 228 227
f 221 222 228
f 222 229 228
f 222 223 230
f 222 230 229
f 224 182 232
f 230 231 188
f 224 225 183
f 224 183 182
f 225 226 183
f 226 184 183
f 226 227 185
f 226 185 184
f 227 228 185
f 228 186 185
f 228 229 187
f 228 187 186
f 229 230 187
f 230 188 187
f 283 240 233
f 246 282 239
f 241 234 233
f 240 241 233
f 241 235 234
f 241 242 235
f 243 236 235
f 242 243 235
f 243 237 236
f 243 244 237
f 245 238 237
f 244 245 237
f 245 239 238
f 245 246 239
f 283 247 240
f 253 282 246
f 247 241 240
f 247 248 241
f 249 242 241
f 248 249 241
f 249 243 242
f 249 250 243
f 251 244 243
f 250 251 243
f 251 245 244
f 251 252 245
f 253 246 245
f 252 253 245
f 283 254 247
f 260 282 253
f 255 248 247
f 254 255 247
f 255 249 248
f 255 256 249
f 257 250 249
f 256 257 249
f 257 251 250
f 257 258 251
f 259 252 251
f 258 259 251
f 259 253 252
f 259 260 253
f 283 261 254
f 267 282 260
f 261 255 254
f 261 262 255
f 263 256 255
f 262 263 255
f 263 257 256
f 263 264 257
f 265 258 257
f 264 265 257
f 265 259 258
f 265 266 259
f 267 260 259
f 266 267 259
f 283 268 261
f 274 282 267
f 269 262 261
f 268 269 261
f 269 263 262
f 269 270 263
f 271 264 263
f 270 271 263
f 271 265 264
f 271 272 265
f 273 266 265
f 272 273 265
f 273 267 266
f 273 274 267
f 283 275 268
f 281 282 274
f 275 269 268
f 275 276 269
f 277 270 269
f 276 277 269
f 277 271 270
f 277 278 271
f 279 272 271
f 278 279 271
f 279 273 272
f 279 280 273
f 281 274 273
f 280 281 273
f 283 233 275
f 239 282 281
f 234 276 275
f 233 234 275
f 234 277 276
f 234 235 277
f 236 278 277
f 235 236 277
f 236 279 278
f 236 237 279
f 238 280 279
f 237 238 279
f 238 281 280
f 238 239 281
f 334 291 284
f 297 333 290
f 292 285 284
f 291 292 284
f 292 286 285
f 292 293 286
f 294 287 286
f 293 294 286
f 294 288 287
f 294 295 288
f 296 289 288
f 295 296 288
f 296 290 289
f 296 297 290
f 334 298 291
f 304 333 297
f 298 292 291
f 298 299 292
f 300 293 292
f 299 300 292
f 300 294 293
f 300 301 294
f 302 295 294
f 301 302 294
f 302 296 295
f 302 303 296
f 304 297 296
f 303 304 296
f 334 305 298
f 311 333 304
f 306 299 298
f 305 306 298
f 306 300 299
f 306 307 300
f 308 301 300
f 307 308 300
f 308 302 301
f 308 309 302
f 310 303 302
f 309 310 302
f 310 304 303
f 310 311 304
f 334 312 305
f 318 333 311
f 312 306 305
f 312 313 306
f 314 307 306
f 313 314 306
f 314 308 307
f 314 315 308
f 316 309 308
f 315 316 308
f 316 310 309
f 316 317 310
f 318 311 310
f 317 318 310
f 334 319 312
f 325 333 318
f 320 313 312
f 319 320 312
f 320 314 313
f 320 321 314
f 322 315 314
f 321 322 314
f 322 316 315
f 322 323 316
f 324 317 316
f 323 324 316
f 324 318 317
f 324 325 318
f 334 326 319
f 332 333 325
f 326 320 319
f 326 327 320
f 328 321 320
f 327 328 320
f 328 322 321
f 328 329 322
f 330 323 322
f 329 330 322
f 330 324 323
f 330 331 324
f 332 325 324
f 331 332 324
f 334 284 326
f 290 333 332
f 285 327 326
f 284 285 326
f 285 328 327
f 285 286 328
f 287 329 328
f 286 287 328
f 287 330 329
f 287 288 330
f 289 331 330
f 288 289 330
f 289 332 331
f 289 290 332
f 335 342 385
f 341 384 348
f 335 336 343
f 335 343 342
f 336 337 343
f 337 344 343
f 337 338 345
f 337 345 344
f 338 339 345
f 339 346 345
f 339 340 347
f 339 347 346
f 340 341 347
f 341 348 347
f 342 349 385
f 348 384 355
f 342 343 349
f 343 350 349
f 343 344 351
f 343 351 350
f 344 345 351
f 345 352 351
f 345 346 353
f 345 353 352
f 346 347 353
f 347 354 353
f 347 348 355
f 347 355 354
f 349 356 385
f 355 384 362
f 349 350 357
f 349 357 356
f 350 351 357
f 351 358 357
f 351 352 359
f 351 359 358
f 352 353 359
f 353 360 359
f 353 354 361
f 353 361 360
f 354 355 361
f 355 362 361
f 356 363 385
f 362 384 369
f 356 357 363
f 357 364 363
f 357 358 365
f 357 365 364
f 358 359 365
f 359 366 365
f 359 360 367
f 359 367 366
f 360 361 367
f 361 368 367
f 361 362 369
f 361 369 368
f 363 370 385
f 369 384 376
f 363 364 371
f 363 371 370
f 364 365 371
f 365 372 371
f 365 366 373
f 365 373 372
f 366 367 373
f 367 374 373
f 367 368 375
f 367 375 374
f 368 369 375
f 369 376 375
f 370 377 385
f 376 384 383
f 370 371 377
f 371 378 377
f 371 372 379
f 371 379 378
f 372 373 379
f 373 380 379
f 373 374 381
f 373 381 380
f 374 375 381
f 375 382 381
f 375 376 383
f 375 383 382
f 377 335 385
f 383 384 341
f 377 378 336
f 377 336 335
f 378 379 336
f 379 337 336
f 379 380 338
f 379 338 337
f 380 381 338
f 381 339 338
f 381 382 340
f 381 340 339
f 382 383 340
f 383 341 340
f 436 393 386
f 399 435 392
f 394 387 386
f 393 394 386
f 394 388 387
f 394 395 388
f 396 389 388
f 395 396 388
f 396 390 389
f 396 397 390
f 398 391 390
f 397 398 390
f 398 392 391
f 398 399 392
f 436 400 393
f 406 435 399
f 400 394 393
f 400 401 394
f 402 395 394
f 401 402 394
f 402 396 395
f 402 403 396
f 404 397 396
f 403 404 396
f 404 398 397
f 404 405 398
f 406 399 398
f 405 406 398
f 436 407 400
f 413 435 406
f 408 401 400
f 407 408 400
f 408 402 401
f 408 409 402
f 410 403 402
f 409 410 402
f 410 404 403
f 410 411 404
f 412 405 404
f 411 412 404
f 412 406 405
f 412 413 406
f 436 414 407
f 420 435 413
f 414 408 407
f 414 415 408
f 416 409 408
f 415 416 408
f 416 410 409
f 416 417 410
f 418 411 410
f 417 418 410
f 418 412 411
f 418 419 412
f 420 413 412
f 419 420 412
f 436 421 414
f 427 435 420
f 422 415 414
f 421 422 414
f 422 416 415
f 422 423 416
f 424 417 416
f 423 424 416
f 424 418 417
f 424 425 418
f 426 419 418
f 425 426 418
f 426 420 419
f 426 427 420
f 436 428 421
f 434 435 427
f 428 422 421
f 428 429 422
f 430 423 422
f 429 430 422
f 430 424 423
f 430 431 424
f 432 425 424
f 431 432 424
f 432 426 425
f 432 433 426
f 434 427 426
f 433 434 426
f 436 386 428
f 392 435 434
f 387 429 428
f 386 387 428
f 387 430 429
f 387 388 430
f 389 431 430
f 388 389 430
f 389 432 431
f 389 390 432
f 391 433 432
f 390 391 432
f 391 434 433
f 391 392 434
f 437 444 487
f 443 486 450
f 437 438 445
f 437 445 444
f 438 439 445
f 439 446 445
f 439 440 447
f 439 447 446
f 440 441 447
f 441 448 447
f 441 442 449
f 441 449 448
f 442 443 449
f 443 450 449
f 444 451 487
f 450 486 457
f 444 445 451
f 445 452 451
f 445 446 453
f 445 453 452
f 446 447 453
f 447 454 453
f 447 448 455
f 447 455 454
f 448 449 455
f 449 456 455
f 449 450 457
f 449 457 456
f 451 458 487
f 457 486 464
f 451 452 459
f 451 459 458
f 452 453 459
f 453 460 459
f 453 454 461
f 453 461 460
f 454 455 461
f 455 462 461
f 455 456 463
f 455 463 462
f 456 457 463
f 457 464 463
f 458 465 487
f 464 486 471
f 458 459 465
f 459 466 465
f 459 460 467
f 459 467 466
f 460 461 467
f 461 468 467
f 461 462 469
f 461 469 468
f 462 463 469
f 463 470 469
f 463 464 471
f 463 471 470
f 465 472 487
f 471 486 478
f 465 466 473
f 465 473 472
f 466 467 473
f 467 474 473
f 467 468 475
f 467 475 474
f 468 469 475
f 469 476 475
f 469 470 477
f 469 477 476
f 470 471 477
f 471 478 477
f 472 479 487
f 478 486 485
f 472 473 479
f 473 480 479
f 473 474 481
f 473 481 480
f 474 475 481
f 475 482 481
f 475 476 483
f 475 483 482
f 476 477 483
f 477 484 483
f 477 478 485
f 477 485 484
f 479 437 487
f 485 486 443
f 479 480 438
f 479 438 437
f 480 481 438
f 481 439 438
f 481 482 440
f 481 440 439
f 482 483 440
f 483 441 440
f 483 484 442
f 483 442 441
f 484 485 442
f 485 443 442
f 488 491 510
f 490 509 493
f 488 489 492
f 488 492 491
f 489 490 492
f 490 493 492
f 491 494 510
f 493 509 496
f 491 492 494
f 492 495 494
f 492 493 496
f 492 496 495
f 494 497 510
f 496 509 499
f 494 495 498
f 494 498 497
f 495 496 498
f 496 499 498
f 497 500 510
f 499 509 502
f 497 498 500
f 498 501 500
f 498 499 502
f 498 502 501
f 500 503 510
f 502 509 505
f 500 501 504
f 500 504 503
f 501 502 504
f 502 505 504
f 503 506 510
f 505 509 508
f 503 504 506
f 504 507 506
f 504 505 508
f 504 508 507
f 506 488 510
f 508 509 490
f 506 507 489
f 506 489 488
f 507 508 489
f 508 490 489
f 511 514 533
f 513 532 516
f 511 512 515
f 511 515 514
f 512 513 515
f 513 516 515
f 514 517 533
f 516 532 519
f 514 515 517
f 515 518 517
f 515 516 519
f 515 519 518
f 517 520 533
f 519 532 522
f 517 518 521
f 517 521 520
f 518 519 521
f 519 522 521
f 520 523 533
f 522 532 525
f 520 521 523
f 521 524 523
f 521 522 525
f 521 525 524
f 523 526 533
f 525 532 528
f 523 524 527
f 523 527 526
f 524 525 527
f 525 528 527
f 526 529 533
f 528 532 531
f 526 527 529
f 527 530 529
f 527 528 531
f 527 531 530
f 529 511 533
f 531 532 513
f 529 530 512
f 529 512 511
f 530 531 512
f 531 513 512
f 534 563 562
f 534 564 563
f 535 536 537
f 534 565 564
f 535 537 538
f 534 566 565
f 535 538 539
f 534 567 566
f 535 539 540
f 534 568 567
f 542 543 536
f 536 543 544
f 536 544 537
f 537 544 538
f 544 545 538
f 538 545 546
f 538 546 539
f 539 546 540
f 546 547 540
f 541 548 542
f 548 549 542
f 542 549 550
f 542 550 543
f 543 550 544
f 550 551 544
f 544 551 552
f 544 552 545
f 545 552 546
f 552 553 546
f 546 553 554
f 546 554 547
f 548 555 556
f 548 556 549
f 549 556 550
f 556 557 550
f 550 557 558
f 550 558 551
f 551 558 552
f 558 559 552
f 553 560 554
f 560 561 554
f 555 562 556
f 562 563 556
f 556 563 564
f 556 564 557
f 557 564 558
f 564 565 558
f 558 565 566
f 558 566 559
f 559 566 560
f 566 567 560
f 560 567 568
f 560 568 561
f 575 585 586
f 553 576 586
f 586 575 553
f 577 576 553
f 576 577 587
f 587 586 576
f 588 587 577
f 577 578 588
f 589 588 579
f 578 579 588
f 590 589 569
f 589 579 569
f 569 580 590
f 569 570 580
f 570 571 580
f 581 580 571
f 571 572 581
f 582 581 572
f 583 582 572
f 572 573 583
f 584 583 573
f 573 574 584
f 585 584 574
f 574 575 585
f 575 560 553
f 575 574 560
f 574 573 560
f 573 572 560
f 572 571 560
f 559 560 571
f 571 570 559
f 570 569 559
f 577 553 552
f 578 577 552
f 579 578 552
f 552 559 569
f 579 569 552
f 595 596 597
f 591 597 593
f 597 596 593
f 595 597 598
f 599 598 600
f 591 600 597
f 598 597 600
f 595 598 601
f 602 601 603
f 599 603 598
f 601 598 603
f 602 603 604
f 599 605 603
f 604 603 605
f 599 600 606
f 591 592 600
f 606 600 592
f 595 601 594
f 602 607 601
f 594 601 607
f 636 637 608
f 637 638 608
f 611 610 609
f 638 639 608
f 612 611 609
f 639 640 608
f 613 612 609
f 640 641 608
f 614 613 609
f 641 642 608
f 610 617 616
f 618 617 610
f 611 618 610
f 612 618 611
f 612 619 618
f 620 619 612
f 613 620 612
f 614 620 613
f 614 621 620
f 616 622 615
f 616 623 622
f 624 623 616
f 617 624 616
f 618 624 617
f 618 625 624
f 626 625 618
f 619 626 618
f 620 626 619
f 620 627 626
f 628 627 620
f 621 628 620
f 630 629 622
f 623 630 622
f 624 630 623
f 624 631 630
f 632 631 624
f 625 632 624
f 626 632 625
f 626 633 632
f 628 634 627
f 628 635 634
f 630 636 629
f 630 637 636
f 638 637 630
f 631 638 630
f 632 638 631
f 632 639 638
f 640 639 632
f 633 640 632
f 634 640 633
f 634 641 640
f 642 641 634
f 635 642 634
f 660 659 649
f 660 650 627
f 627 649 660
f 627 650 651
f 661 651 650
f 650 660 661
f 651 661 662
f 662 652 651
f 653 662 663
f 662 653 652
f 643 663 664
f 643 653 663
f 664 654 643
f 654 644 643
f 654 645 644
f 645 654 655
f 655 646 645
f 646 655 656
f 646 656 657
f 657 647 646
f 647 657 658
f 658 648 647
f 648 658 659
f 659 649 648
f 627 634 649
f 634 648 649
f 634 647 648
f 634 646 647
f 634 645 646
f 645 634 633
f 633 644 645
f 633 643 644
f 626 627 651
f 626 651 652
f 626 652 653
f 643 633 626
f 626 643 653
f 687 668 665
f 670 686 667
f 669 666 665
f 668 669 665
f 669 667 666
f 669 670 667
f 687 671 668
f 673 686 670
f 671 669 668
f 671 672 669
f 673 670 669
f 672 673 669
f 687 674 671
f 676 686 673
f 675 672 671
f 674 675 671
f 675 673 672
f 675 676 673
f 687 677 674
f 679 686 676
f 677 675 674
f 677 678 675
f 679 676 675
f 678 679 675
f 687 680 677
f 682 686 679
f 681 678 677
f 680 681 677
f 681 679 678
f 681 682 679
f 687 683 680
f 685 686 682
f 683 681 680
f 683 684 681
f 685 682 681
f 684 685 681
f 687 665 683
f 667 686 685
f 666 684 683
f 665 666 683
f 666 685 684
f 666 667 685
f 710 691 688
f 693 709 690
f 692 689 688
f 691 692 688
f 692 690 689
f 692 693 690
f 710 694 691
f 696 709 693
f 694 692 691
f 694 695 692
f 696 693 692
f 695 696 692
f 710 697 694
f 699 709 696
f 698 695 694
f 697 698 694
f 698 696 695
f 698 699 696
f 710 700 697
f 702 709 699
f 700 698 697
f 700 701 698
f 702 699 698
f 701 702 698
f 710 703 700
f 705 709 702
f 704 701 700
f 703 704 700
f 704 702 701
f 704 705 702
f 710 706 703
f 708 709 705
f 706 704 703
f 706 707 704
f 708 705 704
f 707 708 704
f 710 688 706
f 690 709 708
f 689 707 706
f 688 689 706
f 689 708 707
f 689 690 708
f 711 712 713
f 711 713 714
f 715 714 716
f 714 713 716
f 715 716 717
f 718 720 721
f 722 721 723
f 719 723 720
f 721 720 723
f 722 723 724
f 725 724 726
f 719 726 723
f 724 723 726
f 725 727 729
f 730 729 731
f 728 731 727
f 729 727 731
f 730 731 732
f 711 732 733
f 728 733 731
f 732 731 733
f 711 733 712
f 715 734 714
f 711 714 732
f 730 732 734
f 714 734 732
f 715 735 734
f 730 734 736
f 722 736 735
f 734 735 736
f 715 717 735
f 722 735 721
f 718 721 717
f 735 717 721
f 725 729 724
f 722 724 736
f 730 736 729
f 724 729 736
f 739 738 737
f 740 739 737
f 742 740 741
f 742 739 740
f 743 742 741
f 747 746 744
f 749 747 748
f 746 749 745
f 749 746 747
f 750 749 748
f 752 750 751
f 749 752 745
f 752 749 750
f 755 753 751
f 757 755 756
f 753 757 754
f 757 753 755
f 758 757 756
f 759 758 737
f 757 759 754
f 759 757 758
f 738 759 737
f 740 760 741
f 758 740 737
f 760 758 756
f 758 760 740
f 760 761 741
f 762 760 756
f 761 762 748
f 762 761 760
f 761 743 741
f 747 761 748
f 743 747 744
f 747 743 761
f 750 755 751
f 762 750 748
f 755 762 756
f 762 755 750
